<svg xmlns="http://www.w3.org/2000/svg" xmlns:xlink="http://www.w3.org/1999/xlink" width="500" zoomAndPan="magnify" viewBox="0 0 375 374.999991" height="500" preserveAspectRatio="xMidYMid meet" version="1.0"><defs><clipPath id="895ed9bf6f"><path d="M 7.667969 7.667969 L 367.667969 7.667969 L 367.667969 367.667969 L 7.667969 367.667969 Z M 7.667969 7.667969 " clip-rule="nonzero"/></clipPath></defs><g clip-path="url(#895ed9bf6f)"><path fill="#000000" d="M 187.667969 7.667969 C 88.667969 7.667969 7.667969 88.667969 7.667969 187.667969 C 7.667969 286.667969 88.667969 367.667969 187.667969 367.667969 C 286.667969 367.667969 367.667969 286.667969 367.667969 187.667969 C 367.667969 88.667969 286.667969 7.667969 187.667969 7.667969 Z M 259.667969 205.667969 L 205.667969 205.667969 L 205.667969 259.667969 C 205.667969 270.46875 198.46875 277.667969 187.667969 277.667969 C 176.867188 277.667969 169.667969 270.46875 169.667969 259.667969 L 169.667969 205.667969 L 115.667969 205.667969 C 104.867188 205.667969 97.667969 198.46875 97.667969 187.667969 C 97.667969 176.867188 104.867188 169.667969 115.667969 169.667969 L 169.667969 169.667969 L 169.667969 115.667969 C 169.667969 104.867188 176.867188 97.667969 187.667969 97.667969 C 198.46875 97.667969 205.667969 104.867188 205.667969 115.667969 L 205.667969 169.667969 L 259.667969 169.667969 C 270.46875 169.667969 277.667969 176.867188 277.667969 187.667969 C 277.667969 198.46875 270.46875 205.667969 259.667969 205.667969 Z M 259.667969 205.667969 " fill-opacity="1" fill-rule="nonzero"/></g></svg>