<svg xmlns="http://www.w3.org/2000/svg" xmlns:xlink="http://www.w3.org/1999/xlink" width="500" zoomAndPan="magnify" viewBox="0 0 375 374.999991" height="500" preserveAspectRatio="xMidYMid meet" version="1.0"><defs><clipPath id="c0668a9846"><path d="M 55 13.199219 L 184 13.199219 L 184 142 L 55 142 Z M 55 13.199219 " clip-rule="nonzero"/></clipPath><clipPath id="306c0bbcb4"><path d="M 184 179 L 367 179 L 367 361.949219 L 184 361.949219 Z M 184 179 " clip-rule="nonzero"/></clipPath></defs><path fill="#000000" d="M 187.15625 200.230469 L 204.890625 182.472656 C 205.644531 181.714844 206.398438 180.960938 207.15625 180.582031 C 196.964844 166.226562 182.625 154.890625 166.023438 148.464844 C 152.816406 157.15625 136.589844 162.445312 119.605469 162.445312 C 102.625 162.445312 86.398438 157.15625 73.191406 148.464844 C 49.039062 157.914062 29.417969 177.558594 20.363281 202.875 C 13.945312 221.011719 9.796875 240.28125 8.285156 259.550781 C 7.53125 268.242188 14.703125 275.800781 23.757812 275.800781 L 163.003906 275.800781 L 163.003906 258.417969 C 163.003906 245.949219 171.683594 235.371094 183.757812 233.105469 C 177.34375 222.902344 178.476562 208.921875 187.15625 200.230469 Z M 187.15625 200.230469 " fill-opacity="1" fill-rule="nonzero"/><g clip-path="url(#c0668a9846)"><path fill="#000000" d="M 119.605469 141.664062 C 155.078125 141.664062 183.757812 112.949219 183.757812 77.433594 C 183.757812 41.914062 155.078125 13.199219 119.605469 13.199219 C 84.136719 13.199219 55.457031 41.914062 55.457031 77.433594 C 55.832031 112.949219 84.511719 141.664062 119.605469 141.664062 Z M 119.605469 141.664062 " fill-opacity="1" fill-rule="nonzero"/></g><g clip-path="url(#306c0bbcb4)"><path fill="#000000" d="M 362.625 253.128906 L 345.269531 251.238281 C 343.757812 245.574219 341.496094 240.28125 338.851562 235.371094 L 349.796875 221.769531 C 351.304688 219.878906 351.304688 216.855469 349.417969 214.96875 L 331.304688 197.207031 C 329.417969 195.320312 326.398438 195.320312 324.511719 196.832031 L 310.929688 207.789062 C 306.023438 205.144531 300.738281 202.875 295.078125 201.363281 L 293.191406 183.984375 C 292.816406 181.339844 290.550781 179.449219 287.910156 179.449219 L 263.003906 179.449219 C 260.363281 179.449219 258.097656 181.339844 257.722656 183.984375 L 255.835938 200.988281 C 250.171875 202.5 244.890625 204.765625 239.984375 207.410156 L 226.398438 196.453125 C 224.511719 194.941406 221.496094 194.941406 219.609375 196.832031 L 201.871094 214.589844 C 199.984375 216.476562 199.984375 219.5 201.496094 221.390625 L 212.4375 234.992188 C 209.796875 239.90625 207.53125 245.195312 206.023438 250.863281 L 188.664062 252.75 C 186.023438 253.128906 184.136719 255.394531 184.136719 258.042969 L 184.136719 282.980469 C 184.136719 285.625 186.023438 287.890625 188.664062 288.269531 L 206.023438 290.15625 C 207.53125 295.824219 209.796875 301.117188 212.4375 306.027344 L 201.496094 319.628906 C 199.984375 321.519531 199.984375 324.542969 201.871094 326.429688 L 219.609375 344.191406 C 221.496094 346.078125 224.511719 346.078125 226.398438 344.566406 L 239.984375 333.609375 C 244.890625 336.253906 250.171875 338.523438 255.835938 340.035156 L 257.722656 357.414062 C 258.097656 360.058594 260.363281 361.949219 263.003906 361.949219 L 287.910156 361.949219 C 290.550781 361.949219 292.816406 360.058594 293.191406 357.414062 L 295.078125 340.035156 C 300.738281 338.523438 306.023438 336.253906 310.929688 333.609375 L 324.511719 344.566406 C 326.398438 346.078125 329.417969 346.078125 331.304688 344.191406 L 349.042969 326.429688 C 350.929688 324.542969 350.929688 321.519531 349.417969 319.628906 L 338.476562 306.027344 C 341.117188 301.117188 343.382812 295.824219 344.890625 290.15625 L 362.25 288.269531 C 364.890625 287.890625 366.777344 285.625 366.777344 282.980469 L 366.777344 258.042969 C 367.15625 255.773438 365.269531 253.507812 362.625 253.128906 Z M 275.457031 306.40625 C 255.835938 306.40625 239.984375 290.535156 239.984375 270.886719 C 239.984375 251.238281 255.835938 235.371094 275.457031 235.371094 C 295.078125 235.371094 310.929688 251.238281 310.929688 270.886719 C 310.929688 290.535156 295.078125 306.40625 275.457031 306.40625 Z M 275.457031 306.40625 " fill-opacity="1" fill-rule="nonzero"/></g></svg>