<svg xmlns="http://www.w3.org/2000/svg" xmlns:xlink="http://www.w3.org/1999/xlink" width="500" zoomAndPan="magnify" viewBox="0 0 375 374.999991" height="500" preserveAspectRatio="xMidYMid meet" version="1.0"><defs><clipPath id="f8680050c2"><path d="M 55 13.199219 L 184 13.199219 L 184 142 L 55 142 Z M 55 13.199219 " clip-rule="nonzero"/></clipPath><clipPath id="8cd0fa1e0a"><path d="M 184 179 L 367.34375 179 L 367.34375 361.949219 L 184 361.949219 Z M 184 179 " clip-rule="nonzero"/></clipPath></defs><path fill="#3c89dd" d="M 187.308594 200.148438 L 205.058594 182.398438 C 205.8125 181.644531 206.570312 180.886719 207.324219 180.511719 C 197.125 166.160156 182.773438 154.828125 166.15625 148.40625 C 152.9375 157.09375 136.699219 162.382812 119.703125 162.382812 C 102.707031 162.382812 86.464844 157.09375 73.246094 148.40625 C 49.078125 157.847656 29.4375 177.488281 20.371094 202.792969 C 13.953125 220.921875 9.796875 240.183594 8.285156 259.445312 C 7.53125 268.132812 14.707031 275.683594 23.773438 275.683594 L 163.136719 275.683594 L 163.136719 258.3125 C 163.136719 245.847656 171.820312 235.273438 183.90625 233.007812 C 177.488281 222.808594 178.621094 208.835938 187.308594 200.148438 Z M 187.308594 200.148438 " fill-opacity="1" fill-rule="nonzero"/><g clip-path="url(#f8680050c2)"><path fill="#3c89dd" d="M 119.703125 141.609375 C 155.203125 141.609375 183.90625 112.90625 183.90625 77.402344 C 183.90625 41.902344 155.203125 13.199219 119.703125 13.199219 C 84.199219 13.199219 55.496094 41.902344 55.496094 77.402344 C 55.875 112.90625 84.578125 141.609375 119.703125 141.609375 Z M 119.703125 141.609375 " fill-opacity="1" fill-rule="nonzero"/></g><g clip-path="url(#8cd0fa1e0a)"><path fill="#3c89dd" d="M 362.925781 253.023438 L 345.554688 251.136719 C 344.042969 245.472656 341.777344 240.183594 339.132812 235.273438 L 350.085938 221.675781 C 351.597656 219.789062 351.597656 216.765625 349.707031 214.878906 L 331.582031 197.128906 C 329.691406 195.238281 326.671875 195.238281 324.78125 196.75 L 311.183594 207.703125 C 306.277344 205.058594 300.988281 202.792969 295.324219 201.28125 L 293.433594 183.910156 C 293.058594 181.265625 290.789062 179.378906 288.148438 179.378906 L 263.21875 179.378906 C 260.578125 179.378906 258.308594 181.265625 257.933594 183.910156 L 256.042969 200.90625 C 250.378906 202.414062 245.089844 204.679688 240.183594 207.324219 L 226.585938 196.371094 C 224.695312 194.863281 221.675781 194.863281 219.789062 196.75 L 202.035156 214.5 C 200.148438 216.390625 200.148438 219.410156 201.660156 221.300781 L 212.609375 234.894531 C 209.96875 239.804688 207.703125 245.09375 206.191406 250.757812 L 188.816406 252.648438 C 186.171875 253.023438 184.285156 255.289062 184.285156 257.933594 L 184.285156 282.859375 C 184.285156 285.503906 186.171875 287.769531 188.816406 288.148438 L 206.191406 290.035156 C 207.703125 295.703125 209.96875 300.988281 212.609375 305.898438 L 201.660156 319.496094 C 200.148438 321.382812 200.148438 324.40625 202.035156 326.292969 L 219.789062 344.046875 C 221.675781 345.933594 224.695312 345.933594 226.585938 344.421875 L 240.183594 333.46875 C 245.089844 336.113281 250.378906 338.378906 256.042969 339.890625 L 257.933594 357.265625 C 258.308594 359.90625 260.578125 361.796875 263.21875 361.796875 L 288.148438 361.796875 C 290.789062 361.796875 293.058594 359.90625 293.433594 357.265625 L 295.324219 339.890625 C 300.988281 338.378906 306.277344 336.113281 311.183594 333.46875 L 324.78125 344.421875 C 326.671875 345.933594 329.691406 345.933594 331.582031 344.046875 L 349.332031 326.292969 C 351.21875 324.40625 351.21875 321.382812 349.707031 319.496094 L 338.757812 305.898438 C 341.398438 300.988281 343.664062 295.703125 345.175781 290.035156 L 362.550781 288.148438 C 365.195312 287.769531 367.082031 285.503906 367.082031 282.859375 L 367.082031 257.933594 C 367.460938 255.667969 365.570312 253.402344 362.925781 253.023438 Z M 275.683594 306.277344 C 256.042969 306.277344 240.183594 290.414062 240.183594 270.773438 C 240.183594 251.136719 256.042969 235.273438 275.683594 235.273438 C 295.324219 235.273438 311.183594 251.136719 311.183594 270.773438 C 311.183594 290.414062 295.324219 306.277344 275.683594 306.277344 Z M 275.683594 306.277344 " fill-opacity="1" fill-rule="nonzero"/></g></svg>