<svg xmlns="http://www.w3.org/2000/svg" xmlns:xlink="http://www.w3.org/1999/xlink" width="500" zoomAndPan="magnify" viewBox="0 0 375 374.999991" height="500" preserveAspectRatio="xMidYMid meet" version="1.0"><defs><clipPath id="e5e96078e3"><path d="M 8.125 8.125 L 366.625 8.125 L 366.625 366.625 L 8.125 366.625 Z M 8.125 8.125 " clip-rule="nonzero"/></clipPath></defs><g clip-path="url(#e5e96078e3)"><path fill="#000000" d="M 187.375 8.125 C 88.535156 8.125 8.125 88.535156 8.125 187.375 C 8.125 286.214844 88.535156 366.625 187.375 366.625 C 286.214844 366.625 366.625 286.214844 366.625 187.375 C 366.625 88.535156 286.214844 8.125 187.375 8.125 Z M 187.375 342.726562 C 101.714844 342.726562 32.023438 273.035156 32.023438 187.375 C 32.023438 101.714844 101.714844 32.023438 187.375 32.023438 C 273.035156 32.023438 342.726562 101.714844 342.726562 187.375 C 342.726562 273.035156 273.035156 342.726562 187.375 342.726562 Z M 187.375 342.726562 " fill-opacity="1" fill-rule="nonzero"/></g><path fill="#000000" d="M 230.914062 143.835938 C 226.246094 139.164062 218.679688 139.164062 214.015625 143.835938 L 187.375 170.476562 L 160.730469 143.835938 C 156.058594 139.164062 148.492188 139.164062 143.832031 143.835938 C 139.164062 148.5 139.164062 156.070312 143.832031 160.730469 L 170.472656 187.375 L 143.832031 214.015625 C 139.164062 218.683594 139.164062 226.25 143.832031 230.914062 C 146.164062 233.246094 149.222656 234.414062 152.28125 234.414062 C 155.335938 234.414062 158.398438 233.246094 160.730469 230.914062 L 187.375 204.273438 L 214.015625 230.914062 C 216.351562 233.246094 219.410156 234.414062 222.464844 234.414062 C 225.523438 234.414062 228.585938 233.246094 230.914062 230.914062 C 235.585938 226.25 235.585938 218.679688 230.914062 214.015625 L 204.273438 187.375 L 230.914062 160.730469 C 235.585938 156.070312 235.585938 148.5 230.914062 143.835938 Z M 230.914062 143.835938 " fill-opacity="1" fill-rule="nonzero"/></svg>