<svg xmlns="http://www.w3.org/2000/svg" xmlns:xlink="http://www.w3.org/1999/xlink" width="500" zoomAndPan="magnify" viewBox="0 0 375 374.999991" height="500" preserveAspectRatio="xMidYMid meet" version="1.0"><defs><clipPath id="c94441e062"><path d="M 8.125 8.125 L 366.625 8.125 L 366.625 366.625 L 8.125 366.625 Z M 8.125 8.125 " clip-rule="nonzero"/></clipPath></defs><g clip-path="url(#c94441e062)"><path fill="#3c89dd" d="M 187.496094 8.125 C 88.589844 8.125 8.125 88.589844 8.125 187.496094 C 8.125 286.402344 88.589844 366.871094 187.496094 366.871094 C 286.402344 366.871094 366.871094 286.402344 366.871094 187.496094 C 366.871094 88.589844 286.402344 8.125 187.496094 8.125 Z M 187.496094 342.953125 C 101.777344 342.953125 32.042969 273.21875 32.042969 187.496094 C 32.042969 101.777344 101.777344 32.042969 187.496094 32.042969 C 273.21875 32.042969 342.953125 101.777344 342.953125 187.496094 C 342.953125 273.21875 273.21875 342.953125 187.496094 342.953125 Z M 187.496094 342.953125 " fill-opacity="1" fill-rule="nonzero"/></g><path fill="#3c89dd" d="M 231.066406 143.929688 C 226.394531 139.253906 218.824219 139.253906 214.160156 143.929688 L 187.496094 170.589844 L 160.835938 143.929688 C 156.160156 139.253906 148.589844 139.253906 143.925781 143.929688 C 139.253906 148.597656 139.253906 156.171875 143.925781 160.835938 L 170.585938 187.496094 L 143.925781 214.160156 C 139.253906 218.828125 139.253906 226.402344 143.925781 231.066406 C 146.261719 233.402344 149.320312 234.570312 152.378906 234.570312 C 155.4375 234.570312 158.503906 233.402344 160.835938 231.066406 L 187.496094 204.40625 L 214.160156 231.066406 C 216.492188 233.402344 219.554688 234.570312 222.613281 234.570312 C 225.671875 234.570312 228.734375 233.402344 231.066406 231.066406 C 235.738281 226.398438 235.738281 218.824219 231.066406 214.160156 L 204.40625 187.496094 L 231.066406 160.835938 C 235.738281 156.171875 235.738281 148.59375 231.066406 143.929688 Z M 231.066406 143.929688 " fill-opacity="1" fill-rule="nonzero"/></svg>