<svg xmlns="http://www.w3.org/2000/svg" xmlns:xlink="http://www.w3.org/1999/xlink" width="500" zoomAndPan="magnify" viewBox="0 0 375 374.999991" height="500" preserveAspectRatio="xMidYMid meet" version="1.0"><defs><clipPath id="825e06a283"><path d="M 103 60 L 369.476562 60 L 369.476562 112 L 103 112 Z M 103 60 " clip-rule="nonzero"/></clipPath><clipPath id="77cc98c063"><path d="M 103 163 L 369.476562 163 L 369.476562 215 L 103 215 Z M 103 163 " clip-rule="nonzero"/></clipPath><clipPath id="409a822634"><path d="M 103 266 L 369.476562 266 L 369.476562 318 L 103 318 Z M 103 266 " clip-rule="nonzero"/></clipPath><clipPath id="0e96b7d34d"><path d="M 9.476562 56.207031 L 70 56.207031 L 70 117 L 9.476562 117 Z M 9.476562 56.207031 " clip-rule="nonzero"/></clipPath><clipPath id="dde072a88f"><path d="M 9.476562 159 L 70 159 L 70 220 L 9.476562 220 Z M 9.476562 159 " clip-rule="nonzero"/></clipPath><clipPath id="087146bbcb"><path d="M 9.476562 261 L 70 261 L 70 321.707031 L 9.476562 321.707031 Z M 9.476562 261 " clip-rule="nonzero"/></clipPath></defs><g clip-path="url(#825e06a283)"><path fill="#3c89dd" d="M 369.660156 86.210938 C 369.660156 72.007812 358.148438 60.492188 343.949219 60.492188 L 129.640625 60.492188 C 115.4375 60.492188 103.925781 72.007812 103.925781 86.210938 C 103.925781 100.414062 115.4375 111.925781 129.640625 111.925781 L 343.949219 111.925781 C 358.148438 111.925781 369.660156 100.414062 369.660156 86.210938 Z M 369.660156 86.210938 " fill-opacity="1" fill-rule="evenodd"/></g><g clip-path="url(#77cc98c063)"><path fill="#66aaf4" d="M 369.660156 189.007812 C 369.660156 174.804688 358.148438 163.289062 343.949219 163.289062 L 129.640625 163.289062 C 115.4375 163.289062 103.925781 174.804688 103.925781 189.007812 C 103.925781 203.210938 115.4375 214.722656 129.640625 214.722656 L 343.949219 214.722656 C 358.148438 214.722656 369.660156 203.210938 369.660156 189.007812 Z M 369.660156 189.007812 " fill-opacity="1" fill-rule="evenodd"/></g><g clip-path="url(#409a822634)"><path fill="#85b5ea" d="M 369.660156 291.804688 C 369.660156 277.597656 358.148438 266.085938 343.949219 266.085938 L 129.640625 266.085938 C 115.4375 266.085938 103.925781 277.597656 103.925781 291.804688 C 103.925781 306.007812 115.4375 317.519531 129.640625 317.519531 L 343.949219 317.519531 C 358.148438 317.519531 369.660156 306.007812 369.660156 291.804688 Z M 369.660156 291.804688 " fill-opacity="1" fill-rule="evenodd"/></g><g clip-path="url(#0e96b7d34d)"><path fill="#3c89dd" d="M 69.648438 86.289062 C 69.648438 87.273438 69.601562 88.253906 69.503906 89.230469 C 69.40625 90.210938 69.261719 91.179688 69.070312 92.144531 C 68.878906 93.109375 68.640625 94.058594 68.355469 95 C 68.070312 95.941406 67.742188 96.863281 67.363281 97.773438 C 66.988281 98.679688 66.570312 99.566406 66.105469 100.433594 C 65.640625 101.300781 65.136719 102.144531 64.589844 102.960938 C 64.046875 103.777344 63.460938 104.566406 62.835938 105.324219 C 62.214844 106.085938 61.554688 106.8125 60.859375 107.507812 C 60.164062 108.203125 59.4375 108.859375 58.679688 109.484375 C 57.917969 110.109375 57.128906 110.691406 56.3125 111.238281 C 55.496094 111.785156 54.65625 112.289062 53.789062 112.75 C 52.921875 113.214844 52.035156 113.632812 51.125 114.011719 C 50.21875 114.386719 49.292969 114.71875 48.355469 115.003906 C 47.414062 115.289062 46.460938 115.527344 45.496094 115.71875 C 44.535156 115.910156 43.5625 116.054688 42.585938 116.152344 C 41.609375 116.246094 40.628906 116.296875 39.644531 116.296875 C 38.664062 116.296875 37.683594 116.246094 36.703125 116.148438 C 35.726562 116.054688 34.753906 115.910156 33.789062 115.71875 C 32.828125 115.527344 31.875 115.289062 30.933594 115.003906 C 29.996094 114.71875 29.070312 114.386719 28.160156 114.011719 C 27.253906 113.632812 26.367188 113.214844 25.5 112.75 C 24.632812 112.289062 23.792969 111.785156 22.972656 111.238281 C 22.15625 110.691406 21.371094 110.109375 20.609375 109.484375 C 19.851562 108.859375 19.121094 108.203125 18.429688 107.507812 C 17.734375 106.8125 17.074219 106.085938 16.449219 105.324219 C 15.828125 104.566406 15.242188 103.777344 14.695312 102.960938 C 14.152344 102.140625 13.644531 101.300781 13.183594 100.433594 C 12.71875 99.566406 12.300781 98.679688 11.921875 97.773438 C 11.546875 96.863281 11.21875 95.941406 10.933594 95 C 10.648438 94.058594 10.410156 93.109375 10.21875 92.144531 C 10.023438 91.179688 9.882812 90.210938 9.785156 89.230469 C 9.6875 88.253906 9.640625 87.273438 9.640625 86.289062 C 9.640625 85.308594 9.6875 84.328125 9.785156 83.351562 C 9.882812 82.371094 10.023438 81.402344 10.21875 80.4375 C 10.410156 79.472656 10.648438 78.519531 10.933594 77.582031 C 11.21875 76.640625 11.546875 75.714844 11.925781 74.808594 C 12.300781 73.902344 12.71875 73.011719 13.183594 72.148438 C 13.648438 71.28125 14.152344 70.4375 14.695312 69.621094 C 15.242188 68.804688 15.828125 68.015625 16.453125 67.257812 C 17.074219 66.496094 17.734375 65.769531 18.429688 65.074219 C 19.125 64.378906 19.851562 63.71875 20.609375 63.097656 C 21.371094 62.472656 22.15625 61.890625 22.972656 61.34375 C 23.792969 60.796875 24.632812 60.292969 25.5 59.828125 C 26.367188 59.367188 27.253906 58.945312 28.160156 58.570312 C 29.070312 58.195312 29.996094 57.863281 30.933594 57.578125 C 31.875 57.292969 32.828125 57.054688 33.792969 56.863281 C 34.753906 56.671875 35.726562 56.527344 36.703125 56.429688 C 37.683594 56.335938 38.664062 56.285156 39.644531 56.285156 C 40.628906 56.285156 41.609375 56.335938 42.585938 56.429688 C 43.5625 56.527344 44.535156 56.671875 45.496094 56.863281 C 46.460938 57.054688 47.414062 57.292969 48.355469 57.578125 C 49.292969 57.863281 50.21875 58.195312 51.125 58.570312 C 52.035156 58.945312 52.921875 59.367188 53.789062 59.828125 C 54.65625 60.292969 55.496094 60.796875 56.3125 61.34375 C 57.132812 61.890625 57.917969 62.472656 58.679688 63.097656 C 59.4375 63.722656 60.164062 64.378906 60.859375 65.074219 C 61.554688 65.769531 62.214844 66.496094 62.835938 67.257812 C 63.460938 68.015625 64.046875 68.804688 64.589844 69.621094 C 65.136719 70.4375 65.640625 71.28125 66.105469 72.148438 C 66.570312 73.011719 66.988281 73.902344 67.363281 74.808594 C 67.742188 75.714844 68.070312 76.640625 68.355469 77.582031 C 68.640625 78.519531 68.878906 79.472656 69.070312 80.4375 C 69.261719 81.402344 69.40625 82.371094 69.503906 83.351562 C 69.601562 84.328125 69.648438 85.308594 69.648438 86.289062 Z M 69.648438 86.289062 " fill-opacity="1" fill-rule="nonzero"/></g><g clip-path="url(#dde072a88f)"><path fill="#66aaf4" d="M 69.648438 189.085938 C 69.648438 190.070312 69.601562 191.050781 69.503906 192.027344 C 69.40625 193.007812 69.261719 193.976562 69.070312 194.941406 C 68.878906 195.90625 68.640625 196.855469 68.355469 197.796875 C 68.070312 198.738281 67.742188 199.660156 67.363281 200.570312 C 66.988281 201.476562 66.570312 202.363281 66.105469 203.230469 C 65.640625 204.097656 65.136719 204.9375 64.589844 205.757812 C 64.046875 206.574219 63.460938 207.363281 62.835938 208.121094 C 62.214844 208.882812 61.554688 209.609375 60.859375 210.304688 C 60.164062 211 59.4375 211.65625 58.679688 212.28125 C 57.917969 212.90625 57.128906 213.488281 56.3125 214.035156 C 55.496094 214.582031 54.65625 215.085938 53.789062 215.546875 C 52.921875 216.011719 52.035156 216.429688 51.125 216.808594 C 50.21875 217.183594 49.292969 217.515625 48.355469 217.800781 C 47.414062 218.085938 46.460938 218.324219 45.496094 218.515625 C 44.535156 218.707031 43.5625 218.851562 42.585938 218.949219 C 41.609375 219.042969 40.628906 219.089844 39.644531 219.089844 C 38.664062 219.089844 37.683594 219.042969 36.703125 218.945312 C 35.726562 218.851562 34.753906 218.707031 33.789062 218.515625 C 32.828125 218.324219 31.875 218.085938 30.933594 217.800781 C 29.996094 217.515625 29.070312 217.183594 28.160156 216.808594 C 27.253906 216.429688 26.367188 216.011719 25.5 215.546875 C 24.632812 215.085938 23.792969 214.582031 22.972656 214.035156 C 22.15625 213.488281 21.371094 212.902344 20.609375 212.28125 C 19.851562 211.65625 19.121094 211 18.429688 210.304688 C 17.734375 209.609375 17.074219 208.882812 16.449219 208.121094 C 15.828125 207.363281 15.242188 206.574219 14.695312 205.757812 C 14.152344 204.9375 13.644531 204.097656 13.183594 203.230469 C 12.71875 202.363281 12.300781 201.476562 11.921875 200.570312 C 11.546875 199.660156 11.21875 198.738281 10.933594 197.796875 C 10.648438 196.855469 10.410156 195.90625 10.21875 194.941406 C 10.023438 193.976562 9.882812 193.007812 9.785156 192.027344 C 9.6875 191.050781 9.640625 190.070312 9.640625 189.085938 C 9.640625 188.105469 9.6875 187.125 9.785156 186.148438 C 9.882812 185.167969 10.023438 184.199219 10.21875 183.234375 C 10.410156 182.269531 10.648438 181.316406 10.933594 180.378906 C 11.21875 179.4375 11.546875 178.511719 11.925781 177.605469 C 12.300781 176.695312 12.71875 175.808594 13.183594 174.945312 C 13.648438 174.078125 14.152344 173.234375 14.695312 172.417969 C 15.242188 171.601562 15.828125 170.8125 16.453125 170.050781 C 17.074219 169.292969 17.734375 168.566406 18.429688 167.871094 C 19.125 167.175781 19.851562 166.515625 20.609375 165.894531 C 21.371094 165.269531 22.15625 164.683594 22.972656 164.140625 C 23.792969 163.59375 24.632812 163.089844 25.5 162.625 C 26.367188 162.164062 27.253906 161.742188 28.160156 161.367188 C 29.070312 160.992188 29.996094 160.660156 30.933594 160.375 C 31.875 160.089844 32.828125 159.851562 33.792969 159.660156 C 34.753906 159.46875 35.726562 159.324219 36.703125 159.226562 C 37.683594 159.132812 38.664062 159.082031 39.644531 159.082031 C 40.628906 159.082031 41.609375 159.132812 42.585938 159.226562 C 43.5625 159.324219 44.535156 159.46875 45.496094 159.660156 C 46.460938 159.851562 47.414062 160.089844 48.355469 160.375 C 49.292969 160.660156 50.21875 160.992188 51.125 161.367188 C 52.035156 161.742188 52.921875 162.164062 53.789062 162.625 C 54.65625 163.089844 55.496094 163.59375 56.3125 164.140625 C 57.132812 164.683594 57.917969 165.269531 58.679688 165.894531 C 59.4375 166.515625 60.164062 167.175781 60.859375 167.871094 C 61.554688 168.566406 62.214844 169.292969 62.835938 170.050781 C 63.460938 170.8125 64.046875 171.601562 64.589844 172.417969 C 65.136719 173.234375 65.640625 174.078125 66.105469 174.945312 C 66.570312 175.808594 66.988281 176.699219 67.363281 177.605469 C 67.742188 178.511719 68.070312 179.4375 68.355469 180.378906 C 68.640625 181.316406 68.878906 182.269531 69.070312 183.234375 C 69.261719 184.199219 69.40625 185.167969 69.503906 186.148438 C 69.601562 187.125 69.648438 188.105469 69.648438 189.085938 Z M 69.648438 189.085938 " fill-opacity="1" fill-rule="nonzero"/></g><g clip-path="url(#087146bbcb)"><path fill="#85b5ea" d="M 69.648438 291.882812 C 69.648438 292.867188 69.601562 293.847656 69.503906 294.824219 C 69.40625 295.800781 69.261719 296.773438 69.070312 297.738281 C 68.878906 298.699219 68.640625 299.652344 68.355469 300.59375 C 68.070312 301.535156 67.742188 302.457031 67.363281 303.363281 C 66.988281 304.273438 66.570312 305.160156 66.105469 306.027344 C 65.640625 306.894531 65.136719 307.734375 64.589844 308.550781 C 64.046875 309.371094 63.460938 310.15625 62.835938 310.917969 C 62.214844 311.675781 61.554688 312.40625 60.859375 313.097656 C 60.164062 313.792969 59.4375 314.453125 58.679688 315.078125 C 57.917969 315.699219 57.128906 316.285156 56.3125 316.832031 C 55.496094 317.375 54.65625 317.882812 53.789062 318.34375 C 52.921875 318.808594 52.035156 319.226562 51.125 319.601562 C 50.21875 319.980469 49.292969 320.3125 48.355469 320.597656 C 47.414062 320.882812 46.460938 321.121094 45.496094 321.3125 C 44.535156 321.503906 43.5625 321.648438 42.585938 321.742188 C 41.609375 321.839844 40.628906 321.886719 39.644531 321.886719 C 38.664062 321.886719 37.683594 321.839844 36.703125 321.742188 C 35.726562 321.648438 34.753906 321.503906 33.789062 321.3125 C 32.828125 321.121094 31.875 320.882812 30.933594 320.597656 C 29.996094 320.308594 29.070312 319.980469 28.160156 319.601562 C 27.253906 319.226562 26.367188 318.808594 25.5 318.34375 C 24.632812 317.882812 23.792969 317.375 22.972656 316.832031 C 22.15625 316.285156 21.371094 315.699219 20.609375 315.078125 C 19.851562 314.453125 19.121094 313.792969 18.429688 313.097656 C 17.734375 312.40625 17.074219 311.675781 16.449219 310.917969 C 15.828125 310.15625 15.242188 309.371094 14.695312 308.550781 C 14.152344 307.734375 13.644531 306.894531 13.183594 306.027344 C 12.71875 305.160156 12.300781 304.273438 11.921875 303.363281 C 11.546875 302.457031 11.21875 301.535156 10.933594 300.59375 C 10.648438 299.652344 10.410156 298.699219 10.21875 297.738281 C 10.023438 296.773438 9.882812 295.800781 9.785156 294.824219 C 9.6875 293.847656 9.640625 292.867188 9.640625 291.882812 C 9.640625 290.902344 9.6875 289.921875 9.785156 288.941406 C 9.882812 287.964844 10.023438 286.992188 10.21875 286.03125 C 10.410156 285.066406 10.648438 284.113281 10.933594 283.171875 C 11.21875 282.234375 11.546875 281.308594 11.925781 280.402344 C 12.300781 279.492188 12.71875 278.605469 13.183594 277.738281 C 13.648438 276.871094 14.152344 276.03125 14.695312 275.214844 C 15.242188 274.398438 15.828125 273.609375 16.453125 272.847656 C 17.074219 272.089844 17.734375 271.363281 18.429688 270.667969 C 19.125 269.972656 19.851562 269.3125 20.609375 268.691406 C 21.371094 268.066406 22.15625 267.480469 22.972656 266.9375 C 23.792969 266.390625 24.632812 265.886719 25.5 265.421875 C 26.367188 264.957031 27.253906 264.539062 28.160156 264.164062 C 29.070312 263.785156 29.996094 263.457031 30.933594 263.171875 C 31.875 262.886719 32.828125 262.648438 33.792969 262.457031 C 34.753906 262.265625 35.726562 262.121094 36.703125 262.023438 C 37.683594 261.929688 38.664062 261.878906 39.644531 261.878906 C 40.628906 261.878906 41.609375 261.929688 42.585938 262.023438 C 43.5625 262.121094 44.535156 262.265625 45.496094 262.457031 C 46.460938 262.648438 47.414062 262.886719 48.355469 263.171875 C 49.292969 263.457031 50.21875 263.785156 51.125 264.164062 C 52.035156 264.539062 52.921875 264.957031 53.789062 265.421875 C 54.65625 265.886719 55.496094 266.390625 56.3125 266.9375 C 57.132812 267.480469 57.917969 268.066406 58.679688 268.691406 C 59.4375 269.3125 60.164062 269.972656 60.859375 270.667969 C 61.554688 271.363281 62.214844 272.089844 62.835938 272.847656 C 63.460938 273.609375 64.046875 274.398438 64.589844 275.214844 C 65.136719 276.03125 65.640625 276.871094 66.105469 277.738281 C 66.570312 278.605469 66.988281 279.492188 67.363281 280.402344 C 67.742188 281.308594 68.070312 282.234375 68.355469 283.175781 C 68.640625 284.113281 68.878906 285.066406 69.070312 286.03125 C 69.261719 286.992188 69.40625 287.964844 69.503906 288.941406 C 69.601562 289.921875 69.648438 290.902344 69.648438 291.882812 Z M 69.648438 291.882812 " fill-opacity="1" fill-rule="nonzero"/></g></svg>