<svg xmlns="http://www.w3.org/2000/svg" xmlns:xlink="http://www.w3.org/1999/xlink" width="500" zoomAndPan="magnify" viewBox="0 0 375 374.999991" height="500" preserveAspectRatio="xMidYMid meet" version="1.0"><defs><clipPath id="d55039a852"><path d="M 7.667969 37 L 338 37 L 338 367.667969 L 7.667969 367.667969 Z M 7.667969 37 " clip-rule="nonzero"/></clipPath></defs><g clip-path="url(#d55039a852)"><path fill="#000000" d="M 309.957031 340.1875 L 35.148438 340.1875 L 35.148438 65.378906 L 200.035156 65.378906 L 200.035156 37.894531 L 35.148438 37.894531 C 19.980469 37.894531 7.667969 50.207031 7.667969 65.378906 L 7.667969 340.1875 C 7.667969 355.355469 19.980469 367.667969 35.148438 367.667969 L 309.957031 367.667969 C 325.125 367.667969 337.4375 355.355469 337.4375 340.1875 L 337.4375 175.300781 L 309.957031 175.300781 Z M 309.957031 340.1875 " fill-opacity="1" fill-rule="nonzero"/></g><path fill="#000000" d="M 117.589844 258.183594 L 175.4375 258.183594 L 315.644531 117.976562 L 257.359375 59.6875 L 117.589844 199.457031 Z M 117.589844 258.183594 " fill-opacity="1" fill-rule="nonzero"/><path fill="#000000" d="M 356.867188 37.894531 L 337.4375 18.46875 C 326.691406 7.722656 309.296875 7.722656 298.582031 18.46875 L 276.789062 40.257812 L 335.074219 98.546875 L 356.867188 76.753906 C 367.613281 66.007812 367.613281 48.613281 356.867188 37.894531 Z M 356.867188 37.894531 " fill-opacity="1" fill-rule="nonzero"/></svg>