<svg xmlns="http://www.w3.org/2000/svg" xmlns:xlink="http://www.w3.org/1999/xlink" width="500" zoomAndPan="magnify" viewBox="0 0 375 374.999991" height="500" preserveAspectRatio="xMidYMid meet" version="1.0"><path fill="#3c89dd" d="M 187.492188 0 C 83.945312 0 0 83.945312 0 187.5 C 0 291.054688 83.945312 375 187.492188 375 C 291.039062 375 374.992188 291.054688 374.992188 187.5 C 374.992188 83.945312 291.023438 0 187.492188 0 Z M 283.226562 293.613281 C 283.226562 294.152344 283.199219 294.691406 283.148438 295.230469 C 283.09375 295.765625 283.015625 296.300781 282.910156 296.828125 C 282.804688 297.359375 282.675781 297.882812 282.519531 298.398438 C 282.363281 298.917969 282.183594 299.425781 281.976562 299.921875 C 281.769531 300.421875 281.539062 300.910156 281.285156 301.386719 C 281.03125 301.863281 280.757812 302.324219 280.457031 302.777344 C 280.160156 303.226562 279.839844 303.660156 279.496094 304.078125 C 279.15625 304.496094 278.792969 304.894531 278.414062 305.277344 C 278.03125 305.660156 277.632812 306.023438 277.21875 306.367188 C 276.800781 306.710938 276.367188 307.035156 275.921875 307.335938 C 275.472656 307.636719 275.011719 307.914062 274.535156 308.171875 C 274.0625 308.429688 273.574219 308.660156 273.078125 308.871094 C 272.578125 309.078125 272.070312 309.261719 271.554688 309.421875 C 271.039062 309.578125 270.515625 309.710938 269.988281 309.820312 C 269.457031 309.929688 268.925781 310.011719 268.386719 310.066406 C 267.851562 310.121094 267.3125 310.148438 266.773438 310.152344 L 226.613281 310.355469 C 226.070312 310.359375 225.527344 310.335938 224.988281 310.285156 C 224.445312 310.234375 223.910156 310.15625 223.375 310.050781 C 222.84375 309.949219 222.316406 309.820312 221.792969 309.664062 C 221.273438 309.507812 220.761719 309.328125 220.257812 309.121094 C 219.753906 308.914062 219.265625 308.683594 218.785156 308.429688 C 218.304688 308.175781 217.835938 307.898438 217.382812 307.597656 C 216.929688 307.296875 216.496094 306.976562 216.074219 306.632812 C 215.652344 306.289062 215.25 305.925781 214.863281 305.542969 C 214.476562 305.160156 214.113281 304.757812 213.765625 304.335938 C 213.421875 303.917969 213.097656 303.484375 212.792969 303.03125 C 212.492188 302.582031 212.210938 302.117188 211.953125 301.636719 C 211.699219 301.15625 211.464844 300.667969 211.257812 300.164062 C 211.046875 299.664062 210.863281 299.152344 210.707031 298.632812 C 210.546875 298.113281 210.414062 297.585938 210.308594 297.054688 C 210.203125 296.519531 210.121094 295.984375 210.070312 295.441406 C 210.015625 294.902344 209.988281 294.359375 209.988281 293.816406 L 209.988281 241.992188 C 210 239.796875 209.582031 237.691406 208.734375 235.667969 C 208.261719 234.523438 207.703125 233.421875 207.0625 232.367188 C 206.421875 231.308594 205.703125 230.304688 204.910156 229.359375 C 204.113281 228.410156 203.253906 227.527344 202.320312 226.714844 C 201.390625 225.898438 200.40625 225.160156 199.359375 224.496094 C 198.316406 223.832031 197.230469 223.25 196.097656 222.753906 C 194.964844 222.257812 193.800781 221.851562 192.605469 221.535156 C 191.410156 221.214844 190.195312 220.992188 188.964844 220.859375 C 187.734375 220.726562 186.503906 220.691406 185.269531 220.746094 C 184.03125 220.804688 182.808594 220.957031 181.597656 221.203125 C 180.382812 221.445312 179.195312 221.785156 178.035156 222.210938 C 176.875 222.636719 175.753906 223.152344 174.671875 223.75 C 173.589844 224.351562 172.5625 225.03125 171.582031 225.789062 C 170.605469 226.542969 169.691406 227.371094 168.839844 228.269531 C 167.988281 229.167969 167.214844 230.125 166.507812 231.144531 C 165.804688 232.160156 165.183594 233.226562 164.644531 234.339844 C 164.105469 235.449219 163.652344 236.597656 163.289062 237.78125 C 162.789062 239.347656 162.550781 240.953125 162.5625 242.601562 L 162.5625 292.871094 C 162.5625 293.414062 162.535156 293.949219 162.484375 294.488281 C 162.429688 295.027344 162.351562 295.558594 162.246094 296.089844 C 162.140625 296.617188 162.011719 297.140625 161.855469 297.65625 C 161.699219 298.175781 161.515625 298.683594 161.3125 299.179688 C 161.105469 299.679688 160.875 300.167969 160.621094 300.644531 C 160.367188 301.121094 160.089844 301.582031 159.792969 302.03125 C 159.492188 302.480469 159.171875 302.914062 158.832031 303.332031 C 158.488281 303.75 158.128906 304.152344 157.746094 304.535156 C 157.367188 304.917969 156.96875 305.28125 156.550781 305.625 C 156.136719 305.96875 155.703125 306.289062 155.253906 306.589844 C 154.808594 306.890625 154.347656 307.171875 153.871094 307.425781 C 153.394531 307.683594 152.910156 307.914062 152.410156 308.125 C 151.914062 308.332031 151.40625 308.515625 150.890625 308.675781 C 150.375 308.832031 149.851562 308.964844 149.324219 309.074219 C 148.792969 309.179688 148.261719 309.261719 147.722656 309.316406 C 147.1875 309.371094 146.648438 309.402344 146.109375 309.402344 L 105.996094 309.605469 C 105.453125 309.609375 104.910156 309.585938 104.367188 309.535156 C 103.824219 309.484375 103.285156 309.40625 102.753906 309.300781 C 102.21875 309.195312 101.691406 309.066406 101.167969 308.910156 C 100.648438 308.753906 100.132812 308.574219 99.628906 308.367188 C 99.128906 308.160156 98.636719 307.925781 98.152344 307.671875 C 97.671875 307.414062 97.207031 307.136719 96.753906 306.835938 C 96.300781 306.535156 95.863281 306.210938 95.441406 305.867188 C 95.019531 305.519531 94.617188 305.15625 94.230469 304.769531 C 93.847656 304.386719 93.480469 303.984375 93.136719 303.5625 C 92.789062 303.140625 92.464844 302.707031 92.164062 302.253906 C 91.863281 301.800781 91.582031 301.332031 91.324219 300.851562 C 91.070312 300.371094 90.835938 299.878906 90.628906 299.378906 C 90.421875 298.875 90.238281 298.363281 90.082031 297.839844 C 89.925781 297.320312 89.792969 296.792969 89.691406 296.257812 C 89.585938 295.722656 89.507812 295.183594 89.453125 294.644531 C 89.402344 294.101562 89.378906 293.558594 89.378906 293.011719 C 89.472656 264.988281 89.570312 236.960938 89.667969 208.9375 C 89.671875 207.796875 89.792969 206.667969 90.03125 205.554688 C 90.265625 204.4375 90.613281 203.359375 91.074219 202.316406 C 91.535156 201.269531 92.097656 200.285156 92.761719 199.359375 C 93.425781 198.433594 94.175781 197.582031 95.015625 196.8125 L 175.335938 123.011719 C 176.089844 122.320312 176.902344 121.699219 177.769531 121.160156 C 178.636719 120.617188 179.550781 120.160156 180.503906 119.785156 C 181.457031 119.414062 182.4375 119.128906 183.441406 118.941406 C 184.449219 118.75 185.464844 118.652344 186.488281 118.648438 C 187.511719 118.648438 188.527344 118.742188 189.535156 118.925781 C 190.542969 119.113281 191.523438 119.390625 192.480469 119.761719 C 193.433594 120.128906 194.347656 120.582031 195.21875 121.121094 C 196.089844 121.660156 196.902344 122.273438 197.660156 122.964844 C 224.371094 147.324219 251.089844 171.695312 277.816406 196.078125 C 278.664062 196.847656 279.425781 197.699219 280.097656 198.632812 C 280.769531 199.5625 281.339844 200.550781 281.804688 201.601562 C 282.273438 202.652344 282.625 203.738281 282.863281 204.859375 C 283.101562 205.980469 283.222656 207.117188 283.226562 208.265625 Z M 308.5625 206.105469 L 308.523438 206.105469 C 306.476562 206.105469 304.507812 205.714844 302.617188 204.933594 C 300.722656 204.152344 299.054688 203.035156 297.605469 201.589844 L 197.316406 101.292969 C 196.601562 100.578125 195.820312 99.9375 194.976562 99.375 C 194.136719 98.808594 193.246094 98.332031 192.308594 97.945312 C 191.371094 97.558594 190.40625 97.265625 189.414062 97.066406 C 188.417969 96.867188 187.414062 96.769531 186.402344 96.769531 C 185.386719 96.769531 184.382812 96.867188 183.386719 97.066406 C 182.394531 97.265625 181.429688 97.558594 180.492188 97.945312 C 179.554688 98.332031 178.664062 98.808594 177.824219 99.375 C 176.980469 99.9375 176.199219 100.578125 175.484375 101.292969 L 75.023438 201.597656 C 73.574219 203.042969 71.90625 204.15625 70.011719 204.9375 C 68.121094 205.71875 66.152344 206.109375 64.105469 206.105469 C 50.382812 206.105469 43.488281 189.519531 53.1875 179.796875 L 175.765625 56.753906 C 176.480469 56.03125 177.261719 55.386719 178.105469 54.820312 C 178.949219 54.253906 179.84375 53.773438 180.78125 53.382812 C 181.722656 52.992188 182.6875 52.699219 183.6875 52.5 C 184.683594 52.300781 185.691406 52.199219 186.707031 52.199219 C 187.726562 52.199219 188.734375 52.300781 189.730469 52.5 C 190.726562 52.699219 191.695312 52.992188 192.636719 53.382812 C 193.574219 53.773438 194.464844 54.253906 195.3125 54.820312 C 196.15625 55.386719 196.9375 56.03125 197.652344 56.753906 L 244.347656 103.890625 L 244.347656 78.105469 C 244.347656 77.339844 244.421875 76.582031 244.570312 75.832031 C 244.71875 75.082031 244.9375 74.355469 245.230469 73.648438 C 245.523438 72.941406 245.878906 72.273438 246.304688 71.636719 C 246.730469 71 247.210938 70.414062 247.75 69.871094 C 248.292969 69.332031 248.878906 68.847656 249.515625 68.421875 C 250.148438 68 250.820312 67.640625 251.527344 67.347656 C 252.234375 67.054688 252.960938 66.835938 253.710938 66.683594 C 254.460938 66.535156 255.214844 66.460938 255.980469 66.460938 L 263.644531 66.460938 C 264.410156 66.460938 265.167969 66.535156 265.917969 66.683594 C 266.667969 66.832031 267.394531 67.054688 268.101562 67.34375 C 268.808594 67.636719 269.480469 67.996094 270.117188 68.421875 C 270.753906 68.84375 271.339844 69.328125 271.882812 69.867188 C 272.421875 70.410156 272.902344 70.996094 273.328125 71.632812 C 273.753906 72.269531 274.113281 72.941406 274.40625 73.648438 C 274.695312 74.355469 274.917969 75.082031 275.066406 75.832031 C 275.214844 76.582031 275.289062 77.339844 275.289062 78.105469 L 275.289062 135.167969 L 319.519531 179.828125 C 329.164062 189.566406 322.261719 206.105469 308.554688 206.105469 Z M 308.5625 206.105469 " fill-opacity="1" fill-rule="nonzero"/></svg>