<svg xmlns="http://www.w3.org/2000/svg" xmlns:xlink="http://www.w3.org/1999/xlink" width="500" zoomAndPan="magnify" viewBox="0 0 375 374.999991" height="500" preserveAspectRatio="xMidYMid meet" version="1.0"><defs><clipPath id="8a5e7b3a59"><path d="M 15.664062 15.664062 L 357.664062 15.664062 L 357.664062 357.664062 L 15.664062 357.664062 Z M 15.664062 15.664062 " clip-rule="nonzero"/></clipPath></defs><g clip-path="url(#8a5e7b3a59)"><path fill="#3c89dd" d="M 186.675781 49.867188 C 262.234375 49.867188 323.488281 111.121094 323.488281 186.675781 L 323.488281 323.488281 L 186.675781 323.488281 C 111.121094 323.488281 49.867188 262.234375 49.867188 186.675781 C 49.867188 111.121094 111.121094 49.867188 186.675781 49.867188 Z M 357.6875 186.675781 C 357.6875 92.230469 281.125 15.664062 186.675781 15.664062 C 92.230469 15.664062 15.664062 92.230469 15.664062 186.675781 C 15.664062 281.125 92.230469 357.6875 186.675781 357.6875 L 340.585938 357.6875 C 350.03125 357.6875 357.6875 350.03125 357.6875 340.585938 Z M 357.6875 186.675781 " fill-opacity="1" fill-rule="evenodd"/></g><path fill="#3c89dd" d="M 212.328125 152.476562 L 212.328125 272.183594 L 178.125 272.183594 L 178.125 169.574219 L 161.023438 169.574219 L 161.023438 135.375 L 195.226562 135.375 C 204.671875 135.375 212.328125 143.03125 212.328125 152.476562 Z M 212.328125 152.476562 " fill-opacity="1" fill-rule="evenodd"/><path fill="#3c89dd" d="M 161.023438 255.082031 L 229.429688 255.082031 L 229.429688 289.285156 L 161.023438 289.285156 Z M 161.023438 255.082031 " fill-opacity="1" fill-rule="evenodd"/><path fill="#3c89dd" d="M 178.125 84.070312 L 212.328125 84.070312 L 212.328125 118.273438 L 178.125 118.273438 Z M 178.125 84.070312 " fill-opacity="1" fill-rule="evenodd"/></svg>