<svg xmlns="http://www.w3.org/2000/svg" xmlns:xlink="http://www.w3.org/1999/xlink" width="500" zoomAndPan="magnify" viewBox="0 0 375 374.999991" height="500" preserveAspectRatio="xMidYMid meet" version="1.0"><defs><clipPath id="ec8233e8dc"><path d="M 19 48 L 356 48 L 356 367.414062 L 19 367.414062 Z M 19 48 " clip-rule="nonzero"/></clipPath><clipPath id="6e7d054a91"><path d="M 169 7.414062 L 206 7.414062 L 206 156 L 169 156 Z M 169 7.414062 " clip-rule="nonzero"/></clipPath></defs><g clip-path="url(#ec8233e8dc)"><path fill="#3c89dd" d="M 187.496094 367.578125 C 94.890625 367.578125 19.554688 292.242188 19.554688 199.636719 C 19.554688 136.707031 54.273438 79.570312 110.15625 50.507812 C 118.699219 46.082031 129.21875 49.390625 133.660156 57.933594 C 138.097656 66.472656 134.773438 76.996094 126.234375 81.4375 C 81.929688 104.46875 54.410156 149.761719 54.410156 199.636719 C 54.410156 273.023438 114.113281 332.726562 187.496094 332.726562 C 260.882812 332.726562 320.585938 273.023438 320.585938 199.636719 C 320.585938 149.761719 293.066406 104.46875 248.757812 81.4375 C 240.222656 76.996094 236.898438 66.472656 241.332031 57.933594 C 245.773438 49.382812 256.28125 46.070312 264.835938 50.507812 C 320.71875 79.570312 355.4375 136.707031 355.4375 199.636719 C 355.4375 292.242188 280.101562 367.578125 187.496094 367.578125 Z M 187.496094 367.578125 " fill-opacity="1" fill-rule="nonzero"/></g><g clip-path="url(#6e7d054a91)"><path fill="#3c89dd" d="M 188.269531 155.734375 C 178.753906 155.734375 170.976562 148.085938 170.847656 138.546875 L 169.292969 25.082031 C 169.160156 15.460938 176.855469 7.550781 186.480469 7.414062 C 196.183594 7.851562 204.015625 14.988281 204.148438 24.605469 L 205.703125 138.070312 C 205.832031 147.691406 198.140625 155.597656 188.511719 155.734375 C 188.433594 155.734375 188.347656 155.734375 188.269531 155.734375 Z M 188.269531 155.734375 " fill-opacity="1" fill-rule="nonzero"/></g></svg>