<svg xmlns="http://www.w3.org/2000/svg" xmlns:xlink="http://www.w3.org/1999/xlink" width="500" zoomAndPan="magnify" viewBox="0 0 375 374.999991" height="500" preserveAspectRatio="xMidYMid meet" version="1.0"><defs><clipPath id="5c4389cfc9"><path d="M 19 48 L 356 48 L 356 367.414062 L 19 367.414062 Z M 19 48 " clip-rule="nonzero"/></clipPath><clipPath id="207a1f3a42"><path d="M 169 7.414062 L 206 7.414062 L 206 156 L 169 156 Z M 169 7.414062 " clip-rule="nonzero"/></clipPath></defs><g clip-path="url(#5c4389cfc9)"><path fill="#000000" d="M 187.421875 367.414062 C 94.859375 367.414062 19.554688 292.113281 19.554688 199.550781 C 19.554688 136.648438 54.257812 79.535156 110.117188 50.488281 C 118.65625 46.066406 129.167969 49.371094 133.609375 57.910156 C 138.042969 66.445312 134.71875 76.960938 126.1875 81.402344 C 81.902344 104.425781 54.394531 149.695312 54.394531 199.550781 C 54.394531 272.902344 114.070312 332.578125 187.421875 332.578125 C 260.773438 332.578125 320.449219 272.902344 320.449219 199.550781 C 320.449219 149.695312 292.941406 104.425781 248.65625 81.402344 C 240.121094 76.960938 236.796875 66.445312 241.234375 57.910156 C 245.671875 49.363281 256.175781 46.054688 264.726562 50.488281 C 320.585938 79.535156 355.285156 136.648438 355.285156 199.550781 C 355.285156 292.113281 279.984375 367.414062 187.421875 367.414062 Z M 187.421875 367.414062 " fill-opacity="1" fill-rule="nonzero"/></g><g clip-path="url(#207a1f3a42)"><path fill="#000000" d="M 188.191406 155.667969 C 178.683594 155.667969 170.910156 148.023438 170.777344 138.484375 L 169.226562 25.074219 C 169.09375 15.457031 176.78125 7.550781 186.40625 7.414062 C 196.101562 7.851562 203.933594 14.984375 204.0625 24.597656 L 205.617188 138.007812 C 205.746094 147.625 198.058594 155.53125 188.4375 155.667969 C 188.355469 155.667969 188.269531 155.667969 188.191406 155.667969 Z M 188.191406 155.667969 " fill-opacity="1" fill-rule="nonzero"/></g></svg>