<svg xmlns="http://www.w3.org/2000/svg" xmlns:xlink="http://www.w3.org/1999/xlink" width="500" zoomAndPan="magnify" viewBox="0 0 375 374.999991" height="500" preserveAspectRatio="xMidYMid meet" version="1.0"><defs><clipPath id="d8b46d1215"><path d="M 7.449219 8 L 367.449219 8 L 367.449219 367.449219 L 7.449219 367.449219 Z M 7.449219 8 " clip-rule="nonzero"/></clipPath></defs><path fill="#3c89dd" d="M 186.28125 188.710938 C 199.230469 188.710938 208.941406 184.664062 214.605469 182.238281 C 217.84375 181.429688 219.460938 179 217.03125 175.761719 L 212.988281 169.289062 C 211.367188 166.863281 208.941406 166.863281 206.511719 168.480469 C 201.65625 172.527344 193.566406 174.953125 185.472656 174.953125 C 159.578125 174.953125 140.160156 155.535156 140.160156 129.640625 C 140.160156 103.746094 161.199219 82.707031 187.09375 82.707031 C 216.222656 82.707031 232.40625 102.9375 232.40625 129.640625 C 232.40625 142.585938 226.742188 151.488281 221.078125 151.488281 C 217.84375 151.488281 216.222656 149.871094 216.222656 145.015625 L 216.222656 116.691406 C 216.222656 113.457031 217.03125 108.601562 218.652344 105.363281 L 218.652344 104.554688 C 220.269531 101.316406 217.84375 98.890625 214.605469 98.890625 L 203.277344 98.890625 C 200.039062 98.890625 197.613281 100.507812 198.421875 102.125 C 199.230469 103.746094 197.613281 103.746094 195.183594 101.316406 C 191.949219 98.890625 187.09375 96.460938 180.617188 96.460938 C 163.625 96.460938 152.296875 111.027344 152.296875 128.828125 C 152.296875 148.25 166.863281 161.199219 182.238281 161.199219 C 188.710938 161.199219 194.375 158.769531 199.230469 154.722656 C 201.65625 152.296875 203.277344 150.679688 203.277344 151.488281 C 203.277344 152.296875 203.277344 152.296875 203.277344 152.296875 C 204.894531 159.578125 211.367188 162.816406 219.460938 162.816406 C 234.835938 162.816406 246.164062 149.058594 246.164062 128.828125 C 246.164062 94.84375 221.078125 69.757812 187.09375 69.757812 C 153.105469 69.757812 126.402344 95.652344 126.402344 129.640625 C 127.210938 163.625 152.296875 188.710938 186.28125 188.710938 Z M 185.472656 146.632812 C 177.382812 146.632812 172.527344 138.539062 172.527344 129.640625 C 172.527344 120.738281 177.382812 113.457031 185.472656 113.457031 C 194.375 113.457031 199.230469 120.738281 199.230469 129.640625 C 199.230469 139.347656 193.566406 146.632812 185.472656 146.632812 Z M 185.472656 146.632812 " fill-opacity="1" fill-rule="nonzero"/><g clip-path="url(#d8b46d1215)"><path fill="#3c89dd" d="M 366.734375 157.960938 C 366.734375 156.34375 365.925781 155.535156 365.925781 154.722656 C 365.117188 153.914062 365.117188 153.105469 364.308594 152.296875 L 314.136719 111.027344 L 314.136719 36.582031 C 314.136719 31.726562 310.898438 28.488281 306.042969 28.488281 L 214.605469 28.488281 L 191.949219 9.878906 C 188.710938 7.449219 184.664062 7.449219 181.429688 9.878906 L 158.769531 28.488281 L 68.140625 28.488281 C 63.285156 28.488281 60.046875 31.726562 60.046875 36.582031 L 60.046875 111.027344 L 9.878906 152.296875 C 9.070312 153.105469 8.257812 153.914062 8.257812 154.722656 C 8.257812 155.535156 7.449219 156.34375 7.449219 157.152344 C 7.449219 157.152344 7.449219 157.960938 7.449219 157.960938 C 7.449219 157.960938 7.449219 157.960938 7.449219 158.769531 L 7.449219 359.453125 C 7.449219 364.308594 10.6875 367.542969 15.542969 367.542969 L 359.453125 367.542969 C 364.308594 367.542969 367.542969 364.308594 367.542969 359.453125 L 366.734375 157.960938 C 367.542969 157.960938 366.734375 157.960938 366.734375 157.960938 Z M 351.359375 171.71875 L 351.359375 291.480469 L 251.019531 223.507812 Z M 344.078125 157.152344 L 314.136719 172.527344 L 314.136719 132.066406 Z M 187.09375 26.871094 L 189.519531 28.488281 L 184.664062 28.488281 Z M 297.953125 44.671875 L 297.953125 180.617188 L 187.09375 238.070312 L 76.230469 181.429688 L 76.230469 44.671875 Z M 23.632812 171.71875 L 123.976562 223.507812 L 23.632812 291.480469 Z M 60.046875 172.527344 L 30.109375 157.152344 L 60.046875 132.066406 Z M 23.632812 351.359375 L 23.632812 310.898438 L 140.160156 231.597656 L 183.855469 254.257812 C 186.28125 255.066406 188.710938 255.066406 191.136719 254.257812 L 234.835938 231.597656 L 351.359375 310.898438 L 351.359375 351.359375 Z M 23.632812 351.359375 " fill-opacity="1" fill-rule="nonzero"/></g></svg>