<svg xmlns="http://www.w3.org/2000/svg" xmlns:xlink="http://www.w3.org/1999/xlink" width="500" zoomAndPan="magnify" viewBox="0 0 375 374.999991" height="500" preserveAspectRatio="xMidYMid meet" version="1.0"><defs><clipPath id="e605b4df59"><path d="M 7.449219 8 L 367.449219 8 L 367.449219 367.449219 L 7.449219 367.449219 Z M 7.449219 8 " clip-rule="nonzero"/></clipPath></defs><path fill="#000000" d="M 186.238281 188.664062 C 199.179688 188.664062 208.886719 184.617188 214.550781 182.191406 C 217.789062 181.382812 219.40625 178.957031 216.976562 175.71875 L 212.933594 169.246094 C 211.316406 166.820312 208.886719 166.820312 206.460938 168.4375 C 201.605469 172.484375 193.515625 174.910156 185.425781 174.910156 C 159.539062 174.910156 140.125 155.496094 140.125 129.605469 C 140.125 103.71875 161.15625 82.6875 187.046875 82.6875 C 216.167969 82.6875 232.347656 102.910156 232.347656 129.605469 C 232.347656 142.550781 226.6875 151.449219 221.023438 151.449219 C 217.789062 151.449219 216.167969 149.832031 216.167969 144.976562 L 216.167969 116.664062 C 216.167969 113.425781 216.976562 108.574219 218.597656 105.335938 L 218.597656 104.527344 C 220.214844 101.292969 217.789062 98.867188 214.550781 98.867188 L 203.226562 98.867188 C 199.988281 98.867188 197.5625 100.484375 198.371094 102.101562 C 199.179688 103.71875 197.5625 103.71875 195.136719 101.292969 C 191.898438 98.867188 187.046875 96.4375 180.574219 96.4375 C 163.585938 96.4375 152.257812 111 152.257812 128.796875 C 152.257812 148.214844 166.820312 161.15625 182.191406 161.15625 C 188.664062 161.15625 194.328125 158.730469 199.179688 154.6875 C 201.605469 152.257812 203.226562 150.640625 203.226562 151.449219 C 203.226562 152.257812 203.226562 152.257812 203.226562 152.257812 C 204.84375 159.539062 211.316406 162.777344 219.40625 162.777344 C 234.777344 162.777344 246.101562 149.023438 246.101562 128.796875 C 246.101562 94.820312 221.023438 69.742188 187.046875 69.742188 C 153.066406 69.742188 126.371094 95.628906 126.371094 129.605469 C 127.179688 163.585938 152.257812 188.664062 186.238281 188.664062 Z M 185.425781 146.597656 C 177.335938 146.597656 172.484375 138.507812 172.484375 129.605469 C 172.484375 120.707031 177.335938 113.425781 185.425781 113.425781 C 194.328125 113.425781 199.179688 120.707031 199.179688 129.605469 C 199.179688 139.316406 193.515625 146.597656 185.425781 146.597656 Z M 185.425781 146.597656 " fill-opacity="1" fill-rule="nonzero"/><g clip-path="url(#e605b4df59)"><path fill="#000000" d="M 366.640625 157.921875 C 366.640625 156.304688 365.832031 155.496094 365.832031 154.6875 C 365.023438 153.878906 365.023438 153.066406 364.214844 152.257812 L 314.058594 111 L 314.058594 36.574219 C 314.058594 31.71875 310.820312 28.484375 305.96875 28.484375 L 214.550781 28.484375 L 191.898438 9.878906 C 188.664062 7.449219 184.617188 7.449219 181.382812 9.878906 L 158.730469 28.484375 L 68.125 28.484375 C 63.269531 28.484375 60.035156 31.71875 60.035156 36.574219 L 60.035156 111 L 9.878906 152.257812 C 9.066406 153.066406 8.257812 153.878906 8.257812 154.6875 C 8.257812 155.496094 7.449219 156.304688 7.449219 157.113281 C 7.449219 157.113281 7.449219 157.921875 7.449219 157.921875 C 7.449219 157.921875 7.449219 157.921875 7.449219 158.730469 L 7.449219 359.359375 C 7.449219 364.214844 10.6875 367.449219 15.539062 367.449219 L 359.359375 367.449219 C 364.214844 367.449219 367.449219 364.214844 367.449219 359.359375 L 366.640625 157.921875 C 367.449219 157.921875 366.640625 157.921875 366.640625 157.921875 Z M 351.269531 171.675781 L 351.269531 291.40625 L 250.957031 223.449219 Z M 343.988281 157.113281 L 314.058594 172.484375 L 314.058594 132.035156 Z M 187.046875 26.867188 L 189.472656 28.484375 L 184.617188 28.484375 Z M 297.878906 44.664062 L 297.878906 180.574219 L 187.046875 238.011719 L 76.214844 181.382812 L 76.214844 44.664062 Z M 23.628906 171.675781 L 123.945312 223.449219 L 23.628906 291.40625 Z M 60.035156 172.484375 L 30.101562 157.113281 L 60.035156 132.035156 Z M 23.628906 351.269531 L 23.628906 310.820312 L 140.125 231.539062 L 183.808594 254.191406 C 186.238281 255 188.664062 255 191.089844 254.191406 L 234.777344 231.539062 L 351.269531 310.820312 L 351.269531 351.269531 Z M 23.628906 351.269531 " fill-opacity="1" fill-rule="nonzero"/></g></svg>