<svg xmlns="http://www.w3.org/2000/svg" xmlns:xlink="http://www.w3.org/1999/xlink" width="500" zoomAndPan="magnify" viewBox="0 0 375 374.999991" height="500" preserveAspectRatio="xMidYMid meet" version="1.0"><defs><clipPath id="9c94cccb75"><path d="M 84 7.339844 L 265 7.339844 L 265 188 L 84 188 Z M 84 7.339844 " clip-rule="nonzero"/></clipPath><clipPath id="c11db22654"><path d="M 209 172 L 367.339844 172 L 367.339844 331 L 209 331 Z M 209 172 " clip-rule="nonzero"/></clipPath><clipPath id="4ef3e50289"><path d="M 7.339844 200 L 342 200 L 342 367.339844 L 7.339844 367.339844 Z M 7.339844 200 " clip-rule="nonzero"/></clipPath></defs><g clip-path="url(#9c94cccb75)"><path fill="#000000" d="M 174.484375 7.339844 C 124.816406 7.339844 84.484375 47.675781 84.484375 97.339844 C 84.484375 147.007812 124.816406 187.339844 174.484375 187.339844 C 224.152344 187.339844 264.484375 147.007812 264.484375 97.339844 C 264.484375 47.675781 224.152344 7.339844 174.484375 7.339844 Z M 174.484375 33.054688 C 209.96875 33.054688 238.769531 61.855469 238.769531 97.339844 C 238.769531 132.828125 209.96875 161.628906 174.484375 161.628906 C 139 161.628906 110.199219 132.828125 110.199219 97.339844 C 110.199219 61.855469 139 33.054688 174.484375 33.054688 Z M 174.484375 33.054688 " fill-opacity="1" fill-rule="evenodd"/></g><g clip-path="url(#c11db22654)"><path fill="#000000" d="M 288.46875 172.761719 C 244.9375 172.761719 209.597656 208.105469 209.597656 251.632812 C 209.597656 295.164062 244.9375 330.503906 288.46875 330.503906 C 332 330.503906 367.339844 295.164062 367.339844 251.632812 C 367.339844 208.105469 332 172.761719 288.46875 172.761719 Z M 288.46875 198.464844 C 317.816406 198.464844 341.636719 222.285156 341.636719 251.632812 C 341.636719 280.980469 317.816406 304.800781 288.46875 304.800781 C 259.121094 304.800781 235.300781 280.980469 235.300781 251.632812 C 235.300781 222.285156 259.121094 198.464844 288.46875 198.464844 Z M 288.46875 198.464844 " fill-opacity="1" fill-rule="evenodd"/></g><g clip-path="url(#4ef3e50289)"><path fill="#000000" d="M 233.257812 209.476562 C 163.035156 188.800781 92.667969 205.019531 22.433594 259.117188 C 13.007812 266.386719 7.476562 277.59375 7.453125 289.492188 C 7.347656 300.019531 7.347656 315.527344 7.347656 328.777344 C 7.347656 338.996094 11.40625 348.8125 18.644531 356.046875 C 25.875 363.277344 35.6875 367.347656 45.917969 367.347656 C 104.027344 367.347656 244.949219 367.347656 303.054688 367.347656 C 313.285156 367.347656 323.101562 363.277344 330.328125 356.046875 C 337.566406 348.8125 341.625 338.996094 341.625 328.777344 C 341.625 316.261719 341.625 303.898438 341.625 303.898438 L 315.921875 303.898438 C 315.921875 303.898438 315.921875 316.261719 315.921875 328.777344 C 315.921875 332.171875 314.566406 335.449219 312.144531 337.859375 C 309.738281 340.269531 306.472656 341.621094 303.054688 341.621094 L 45.917969 341.621094 C 42.5 341.621094 39.238281 340.269531 36.828125 337.859375 C 34.40625 335.449219 33.054688 332.191406 33.054688 328.777344 C 33.054688 315.605469 33.054688 300.175781 33.160156 289.722656 C 33.160156 289.664062 33.160156 289.625 33.160156 289.585938 C 33.160156 285.632812 35 281.894531 38.132812 279.480469 C 100.796875 231.210938 163.332031 215.683594 225.996094 234.140625 Z M 233.257812 209.476562 " fill-opacity="1" fill-rule="evenodd"/></g><path fill="#000000" d="M 264.488281 264.484375 L 315.917969 264.484375 C 323.011719 264.484375 328.78125 258.726562 328.78125 251.625 C 328.78125 244.523438 323.011719 238.765625 315.917969 238.765625 L 264.488281 238.765625 C 257.394531 238.765625 251.625 244.523438 251.625 251.625 C 251.625 258.726562 257.394531 264.484375 264.488281 264.484375 Z M 264.488281 264.484375 " fill-opacity="1" fill-rule="evenodd"/></svg>