<svg xmlns="http://www.w3.org/2000/svg" xmlns:xlink="http://www.w3.org/1999/xlink" width="500" zoomAndPan="magnify" viewBox="0 0 375 374.999991" height="500" preserveAspectRatio="xMidYMid meet" version="1.0"><defs><clipPath id="e5b3d8d143"><path d="M 21.074219 7.339844 L 354 7.339844 L 354 367.339844 L 21.074219 367.339844 Z M 21.074219 7.339844 " clip-rule="nonzero"/></clipPath></defs><g clip-path="url(#e5b3d8d143)"><path fill="#000000" d="M 261.917969 7.339844 L 62.792969 7.339844 C 32.277344 7.339844 21.199219 32.179688 21.199219 48.878906 L 21.199219 325.800781 C 21.199219 356.277344 46.074219 367.339844 62.792969 367.339844 L 312.359375 367.339844 C 342.875 367.339844 353.953125 342.5 353.953125 325.800781 L 353.953125 83.933594 Z M 104.386719 35.03125 L 173.710938 35.03125 L 173.710938 90.414062 L 215.304688 90.414062 L 215.304688 35.03125 L 243.035156 35.03125 L 243.035156 104.261719 C 243.035156 115.40625 235.410156 117.941406 229.167969 118.109375 L 118.253906 118.109375 C 107.089844 118.109375 104.554688 110.492188 104.386719 104.261719 Z M 270.765625 339.644531 L 104.386719 339.644531 L 104.386719 228.878906 L 270.765625 228.878906 Z M 326.222656 325.632812 C 326.054688 332.03125 323.53125 339.644531 312.359375 339.644531 L 298.492188 339.644531 L 298.492188 201.183594 L 76.660156 201.183594 L 76.660156 339.644531 L 62.960938 339.644531 C 56.554688 339.480469 48.929688 336.960938 48.929688 325.800781 L 48.929688 49.042969 C 49.09375 42.644531 51.632812 35.03125 62.792969 35.03125 L 76.660156 35.03125 L 76.660156 104.261719 C 76.660156 120.960938 87.734375 145.800781 118.253906 145.800781 L 229.167969 145.800781 C 245.890625 145.800781 270.765625 134.738281 270.765625 104.261719 L 270.765625 50.746094 L 326.222656 96.894531 Z M 243.035156 284.261719 L 132.117188 284.261719 L 132.117188 256.570312 L 243.035156 256.570312 Z M 243.035156 284.261719 " fill-opacity="1" fill-rule="nonzero"/></g></svg>