<svg xmlns="http://www.w3.org/2000/svg" xmlns:xlink="http://www.w3.org/1999/xlink" width="500" zoomAndPan="magnify" viewBox="0 0 375 374.999991" height="500" preserveAspectRatio="xMidYMid meet" version="1.0"><defs><clipPath id="13cb3b7896"><path d="M 23.242188 7.492188 L 351.742188 7.492188 L 351.742188 367.492188 L 23.242188 367.492188 Z M 23.242188 7.492188 " clip-rule="nonzero"/></clipPath></defs><g clip-path="url(#13cb3b7896)"><path fill="#000000" d="M 336.101562 70.171875 L 265.707031 70.171875 L 265.707031 59.140625 C 265.703125 57.453125 265.617188 55.769531 265.453125 54.09375 C 265.285156 52.414062 265.035156 50.746094 264.703125 49.089844 C 264.371094 47.4375 263.960938 45.800781 263.46875 44.1875 C 262.976562 42.574219 262.410156 40.988281 261.761719 39.429688 C 261.117188 37.871094 260.394531 36.347656 259.597656 34.859375 C 258.800781 33.371094 257.933594 31.925781 256.996094 30.523438 C 256.058594 29.121094 255.054688 27.769531 253.984375 26.464844 C 252.914062 25.160156 251.78125 23.910156 250.585938 22.71875 C 249.394531 21.523438 248.144531 20.394531 246.839844 19.320312 C 245.535156 18.25 244.183594 17.246094 242.78125 16.308594 C 241.378906 15.371094 239.933594 14.503906 238.445312 13.707031 C 236.957031 12.910156 235.433594 12.191406 233.875 11.542969 C 232.316406 10.894531 230.730469 10.328125 229.117188 9.835938 C 227.503906 9.34375 225.867188 8.933594 224.214844 8.601562 C 222.558594 8.269531 220.890625 8.019531 219.214844 7.855469 C 217.535156 7.6875 215.851562 7.601562 214.164062 7.597656 L 160.820312 7.597656 C 159.132812 7.601562 157.449219 7.6875 155.773438 7.855469 C 154.09375 8.019531 152.425781 8.269531 150.769531 8.601562 C 149.117188 8.933594 147.480469 9.34375 145.867188 9.835938 C 144.253906 10.328125 142.667969 10.894531 141.109375 11.542969 C 139.550781 12.191406 138.027344 12.910156 136.539062 13.707031 C 135.050781 14.503906 133.605469 15.371094 132.203125 16.308594 C 130.800781 17.246094 129.449219 18.25 128.144531 19.320312 C 126.839844 20.394531 125.589844 21.523438 124.398438 22.71875 C 123.203125 23.910156 122.074219 25.160156 121 26.464844 C 119.929688 27.769531 118.925781 29.121094 117.988281 30.523438 C 117.050781 31.925781 116.183594 33.371094 115.386719 34.859375 C 114.589844 36.347656 113.871094 37.871094 113.222656 39.429688 C 112.574219 40.988281 112.007812 42.574219 111.515625 44.1875 C 111.023438 45.800781 110.613281 47.4375 110.28125 49.089844 C 109.949219 50.746094 109.699219 52.414062 109.535156 54.09375 C 109.367188 55.769531 109.28125 57.453125 109.277344 59.140625 L 109.277344 70.171875 L 38.886719 70.171875 C 37.859375 70.171875 36.839844 70.269531 35.832031 70.46875 C 34.828125 70.671875 33.847656 70.96875 32.898438 71.359375 C 31.949219 71.753906 31.046875 72.234375 30.195312 72.804688 C 29.339844 73.375 28.550781 74.027344 27.824219 74.75 C 27.097656 75.476562 26.449219 76.269531 25.878906 77.121094 C 25.308594 77.976562 24.828125 78.878906 24.433594 79.828125 C 24.039062 80.777344 23.742188 81.753906 23.542969 82.761719 C 23.34375 83.769531 23.242188 84.785156 23.242188 85.8125 C 23.242188 86.839844 23.34375 87.855469 23.542969 88.863281 C 23.742188 89.871094 24.039062 90.851562 24.433594 91.800781 C 24.828125 92.75 25.308594 93.648438 25.878906 94.503906 C 26.449219 95.359375 27.097656 96.148438 27.824219 96.875 C 28.550781 97.601562 29.339844 98.25 30.195312 98.820312 C 31.046875 99.390625 31.949219 99.871094 32.898438 100.265625 C 33.847656 100.65625 34.828125 100.953125 35.832031 101.15625 C 36.839844 101.355469 37.859375 101.457031 38.886719 101.457031 L 62.351562 101.457031 L 62.351562 315.605469 C 62.351562 317.304688 62.4375 318.996094 62.605469 320.683594 C 62.773438 322.371094 63.027344 324.050781 63.359375 325.710938 C 63.691406 327.375 64.105469 329.019531 64.601562 330.644531 C 65.09375 332.265625 65.667969 333.859375 66.320312 335.425781 C 66.96875 336.996094 67.695312 338.527344 68.5 340.019531 C 69.300781 341.515625 70.171875 342.96875 71.117188 344.378906 C 72.058594 345.789062 73.070312 347.148438 74.148438 348.460938 C 75.226562 349.769531 76.363281 351.027344 77.566406 352.222656 C 78.765625 353.421875 80.023438 354.558594 81.335938 355.636719 C 82.648438 356.710938 84.007812 357.71875 85.421875 358.660156 C 86.832031 359.605469 88.285156 360.472656 89.78125 361.273438 C 91.277344 362.074219 92.8125 362.796875 94.378906 363.445312 C 95.945312 364.09375 97.542969 364.664062 99.167969 365.15625 C 100.789062 365.648438 102.433594 366.058594 104.097656 366.390625 C 105.761719 366.722656 107.4375 366.96875 109.128906 367.136719 C 110.816406 367.300781 112.507812 367.386719 114.207031 367.386719 L 260.859375 367.386719 C 262.550781 367.382812 264.242188 367.296875 265.929688 367.128906 C 267.617188 366.960938 269.292969 366.710938 270.953125 366.378906 C 272.617188 366.042969 274.257812 365.632812 275.878906 365.136719 C 277.5 364.644531 279.09375 364.074219 280.660156 363.421875 C 282.226562 362.773438 283.753906 362.046875 285.25 361.25 C 286.746094 360.449219 288.195312 359.578125 289.605469 358.636719 C 291.015625 357.691406 292.375 356.683594 293.683594 355.609375 C 294.996094 354.53125 296.25 353.394531 297.445312 352.195312 C 298.644531 351 299.78125 349.742188 300.859375 348.433594 C 301.933594 347.125 302.941406 345.765625 303.886719 344.355469 C 304.828125 342.945312 305.699219 341.492188 306.5 340 C 307.296875 338.503906 308.023438 336.976562 308.671875 335.410156 C 309.324219 333.84375 309.894531 332.25 310.386719 330.628906 C 310.882812 329.007812 311.296875 327.367188 311.628906 325.703125 C 311.960938 324.039062 312.210938 322.367188 312.378906 320.679688 C 312.546875 318.992188 312.632812 317.300781 312.636719 315.605469 L 312.636719 101.457031 L 336.101562 101.457031 C 337.125 101.457031 338.144531 101.355469 339.152344 101.15625 C 340.160156 100.953125 341.136719 100.65625 342.085938 100.265625 C 343.035156 99.871094 343.9375 99.390625 344.789062 98.820312 C 345.644531 98.25 346.433594 97.601562 347.160156 96.875 C 347.886719 96.148438 348.535156 95.359375 349.105469 94.503906 C 349.675781 93.648438 350.160156 92.75 350.550781 91.800781 C 350.945312 90.851562 351.242188 89.871094 351.441406 88.863281 C 351.640625 87.855469 351.742188 86.839844 351.742188 85.8125 C 351.742188 84.785156 351.640625 83.769531 351.441406 82.761719 C 351.242188 81.753906 350.945312 80.777344 350.550781 79.828125 C 350.160156 78.878906 349.675781 77.976562 349.105469 77.121094 C 348.535156 76.269531 347.886719 75.476562 347.160156 74.75 C 346.433594 74.027344 345.644531 73.375 344.789062 72.804688 C 343.9375 72.234375 343.035156 71.753906 342.085938 71.359375 C 341.136719 70.96875 340.160156 70.671875 339.152344 70.46875 C 338.144531 70.269531 337.125 70.171875 336.101562 70.171875 Z M 140.5625 59.140625 C 140.5625 58.476562 140.597656 57.816406 140.660156 57.15625 C 140.726562 56.496094 140.824219 55.839844 140.953125 55.191406 C 141.082031 54.539062 141.242188 53.894531 141.4375 53.261719 C 141.628906 52.625 141.851562 52.003906 142.105469 51.390625 C 142.359375 50.777344 142.644531 50.175781 142.957031 49.59375 C 143.269531 49.007812 143.609375 48.4375 143.976562 47.886719 C 144.347656 47.335938 144.742188 46.804688 145.164062 46.289062 C 145.582031 45.777344 146.027344 45.285156 146.496094 44.816406 C 146.964844 44.347656 147.457031 43.902344 147.96875 43.484375 C 148.484375 43.0625 149.015625 42.667969 149.566406 42.296875 C 150.117188 41.929688 150.6875 41.589844 151.273438 41.277344 C 151.855469 40.964844 152.457031 40.679688 153.070312 40.425781 C 153.683594 40.171875 154.304688 39.949219 154.941406 39.757812 C 155.574219 39.5625 156.21875 39.402344 156.871094 39.273438 C 157.519531 39.144531 158.175781 39.046875 158.835938 38.980469 C 159.496094 38.917969 160.15625 38.882812 160.820312 38.882812 L 214.164062 38.882812 C 214.828125 38.882812 215.488281 38.917969 216.148438 38.980469 C 216.808594 39.046875 217.464844 39.144531 218.117188 39.273438 C 218.765625 39.402344 219.410156 39.5625 220.042969 39.757812 C 220.679688 39.949219 221.304688 40.171875 221.914062 40.425781 C 222.527344 40.679688 223.128906 40.964844 223.714844 41.277344 C 224.296875 41.589844 224.867188 41.929688 225.417969 42.296875 C 225.96875 42.667969 226.5 43.0625 227.015625 43.484375 C 227.527344 43.902344 228.019531 44.347656 228.488281 44.816406 C 228.957031 45.285156 229.402344 45.777344 229.824219 46.289062 C 230.242188 46.804688 230.636719 47.335938 231.007812 47.886719 C 231.375 48.4375 231.714844 49.007812 232.027344 49.59375 C 232.34375 50.175781 232.625 50.777344 232.878906 51.390625 C 233.132812 52.003906 233.355469 52.625 233.546875 53.261719 C 233.742188 53.894531 233.902344 54.539062 234.03125 55.191406 C 234.160156 55.839844 234.257812 56.496094 234.324219 57.15625 C 234.386719 57.816406 234.421875 58.476562 234.421875 59.140625 L 234.421875 70.171875 L 140.5625 70.171875 Z M 281.351562 315.605469 C 281.347656 316.277344 281.3125 316.945312 281.242188 317.613281 C 281.175781 318.28125 281.074219 318.941406 280.941406 319.597656 C 280.808594 320.257812 280.644531 320.90625 280.449219 321.546875 C 280.253906 322.1875 280.027344 322.816406 279.769531 323.4375 C 279.511719 324.054688 279.222656 324.660156 278.90625 325.25 C 278.589844 325.84375 278.246094 326.417969 277.871094 326.972656 C 277.5 327.53125 277.101562 328.066406 276.675781 328.585938 C 276.25 329.105469 275.800781 329.601562 275.324219 330.074219 C 274.851562 330.546875 274.355469 331 273.835938 331.425781 C 273.320312 331.851562 272.78125 332.25 272.222656 332.621094 C 271.667969 332.996094 271.09375 333.339844 270.503906 333.65625 C 269.910156 333.972656 269.304688 334.261719 268.6875 334.519531 C 268.070312 334.777344 267.4375 335.003906 266.796875 335.199219 C 266.15625 335.394531 265.507812 335.558594 264.851562 335.691406 C 264.191406 335.824219 263.53125 335.925781 262.863281 335.992188 C 262.195312 336.0625 261.527344 336.097656 260.859375 336.097656 L 114.207031 336.097656 C 113.535156 336.097656 112.863281 336.066406 112.195312 336 C 111.527344 335.933594 110.863281 335.835938 110.203125 335.707031 C 109.542969 335.574219 108.890625 335.414062 108.25 335.21875 C 107.605469 335.023438 106.972656 334.796875 106.351562 334.542969 C 105.730469 334.285156 105.125 334 104.53125 333.683594 C 103.9375 333.367188 103.359375 333.023438 102.800781 332.648438 C 102.242188 332.277344 101.703125 331.878906 101.183594 331.453125 C 100.664062 331.027344 100.164062 330.578125 99.6875 330.101562 C 99.210938 329.628906 98.761719 329.132812 98.332031 328.613281 C 97.90625 328.09375 97.503906 327.554688 97.128906 326.996094 C 96.753906 326.441406 96.40625 325.863281 96.089844 325.273438 C 95.769531 324.679688 95.484375 324.074219 95.222656 323.457031 C 94.964844 322.835938 94.738281 322.203125 94.539062 321.5625 C 94.34375 320.917969 94.175781 320.269531 94.042969 319.609375 C 93.910156 318.949219 93.808594 318.285156 93.742188 317.617188 C 93.671875 316.949219 93.636719 316.277344 93.636719 315.605469 L 93.636719 101.457031 L 281.351562 101.457031 Z M 281.351562 315.605469 " fill-opacity="1" fill-rule="nonzero"/></g><path fill="#000000" d="M 148.386719 136.574219 C 147.359375 136.574219 146.339844 136.675781 145.332031 136.875 C 144.328125 137.074219 143.347656 137.371094 142.398438 137.765625 C 141.449219 138.15625 140.546875 138.640625 139.695312 139.210938 C 138.839844 139.78125 138.050781 140.429688 137.324219 141.15625 C 136.597656 141.882812 135.949219 142.671875 135.378906 143.527344 C 134.808594 144.378906 134.328125 145.28125 133.933594 146.230469 C 133.539062 147.179688 133.242188 148.15625 133.042969 149.164062 C 132.84375 150.171875 132.742188 151.191406 132.742188 152.21875 L 132.742188 293.003906 C 132.742188 294.03125 132.84375 295.046875 133.042969 296.054688 C 133.242188 297.0625 133.539062 298.039062 133.933594 298.988281 C 134.328125 299.9375 134.808594 300.839844 135.378906 301.695312 C 135.949219 302.546875 136.597656 303.339844 137.324219 304.0625 C 138.050781 304.789062 138.839844 305.4375 139.695312 306.007812 C 140.546875 306.582031 141.449219 307.0625 142.398438 307.457031 C 143.347656 307.847656 144.328125 308.144531 145.332031 308.34375 C 146.339844 308.546875 147.359375 308.644531 148.386719 308.644531 C 149.414062 308.644531 150.429688 308.546875 151.4375 308.34375 C 152.445312 308.144531 153.421875 307.847656 154.371094 307.457031 C 155.320312 307.0625 156.222656 306.582031 157.074219 306.007812 C 157.929688 305.4375 158.71875 304.789062 159.445312 304.0625 C 160.171875 303.339844 160.820312 302.546875 161.390625 301.695312 C 161.960938 300.839844 162.445312 299.9375 162.835938 298.988281 C 163.230469 298.039062 163.527344 297.0625 163.726562 296.054688 C 163.929688 295.046875 164.027344 294.03125 164.027344 293.003906 L 164.027344 152.21875 C 164.027344 151.191406 163.929688 150.171875 163.726562 149.164062 C 163.527344 148.15625 163.230469 147.179688 162.835938 146.230469 C 162.445312 145.28125 161.960938 144.378906 161.390625 143.527344 C 160.820312 142.671875 160.171875 141.882812 159.445312 141.15625 C 158.71875 140.429688 157.929688 139.78125 157.074219 139.210938 C 156.222656 138.640625 155.320312 138.15625 154.371094 137.765625 C 153.421875 137.371094 152.445312 137.074219 151.4375 136.875 C 150.429688 136.675781 149.414062 136.574219 148.386719 136.574219 Z M 148.386719 136.574219 " fill-opacity="1" fill-rule="nonzero"/><path fill="#000000" d="M 226.601562 136.574219 C 225.574219 136.574219 224.554688 136.675781 223.546875 136.875 C 222.539062 137.074219 221.5625 137.371094 220.613281 137.765625 C 219.664062 138.15625 218.761719 138.640625 217.910156 139.210938 C 217.054688 139.78125 216.265625 140.429688 215.539062 141.15625 C 214.8125 141.882812 214.164062 142.671875 213.59375 143.527344 C 213.023438 144.378906 212.539062 145.28125 212.148438 146.230469 C 211.753906 147.179688 211.457031 148.15625 211.257812 149.164062 C 211.058594 150.171875 210.957031 151.191406 210.957031 152.21875 L 210.957031 293.003906 C 210.957031 294.03125 211.058594 295.046875 211.257812 296.054688 C 211.457031 297.0625 211.753906 298.039062 212.148438 298.988281 C 212.539062 299.9375 213.023438 300.839844 213.59375 301.695312 C 214.164062 302.546875 214.8125 303.339844 215.539062 304.0625 C 216.265625 304.789062 217.054688 305.4375 217.910156 306.007812 C 218.761719 306.582031 219.664062 307.0625 220.613281 307.457031 C 221.5625 307.847656 222.539062 308.144531 223.546875 308.34375 C 224.554688 308.546875 225.574219 308.644531 226.601562 308.644531 C 227.625 308.644531 228.644531 308.546875 229.652344 308.34375 C 230.660156 308.144531 231.636719 307.847656 232.585938 307.457031 C 233.535156 307.0625 234.4375 306.582031 235.289062 306.007812 C 236.144531 305.4375 236.933594 304.789062 237.660156 304.0625 C 238.386719 303.339844 239.035156 302.546875 239.605469 301.695312 C 240.175781 300.839844 240.660156 299.9375 241.050781 298.988281 C 241.445312 298.039062 241.742188 297.0625 241.941406 296.054688 C 242.140625 295.046875 242.242188 294.03125 242.242188 293.003906 L 242.242188 152.21875 C 242.242188 151.191406 242.140625 150.171875 241.941406 149.164062 C 241.742188 148.15625 241.445312 147.179688 241.050781 146.230469 C 240.660156 145.28125 240.175781 144.378906 239.605469 143.527344 C 239.035156 142.671875 238.386719 141.882812 237.660156 141.15625 C 236.933594 140.429688 236.144531 139.78125 235.289062 139.210938 C 234.4375 138.640625 233.535156 138.15625 232.585938 137.765625 C 231.636719 137.371094 230.660156 137.074219 229.652344 136.875 C 228.644531 136.675781 227.625 136.574219 226.601562 136.574219 Z M 226.601562 136.574219 " fill-opacity="1" fill-rule="nonzero"/></svg>