<svg xmlns="http://www.w3.org/2000/svg" xmlns:xlink="http://www.w3.org/1999/xlink" width="500" zoomAndPan="magnify" viewBox="0 0 375 374.999991" height="500" preserveAspectRatio="xMidYMid meet" version="1.0"><defs><clipPath id="fb3014526d"><path d="M 10.527344 10.527344 L 364.527344 10.527344 L 364.527344 364.527344 L 10.527344 364.527344 Z M 10.527344 10.527344 " clip-rule="nonzero"/></clipPath></defs><g clip-path="url(#fb3014526d)"><path fill="#3c89dd" d="M 187.496094 10.527344 C 89.914062 10.527344 10.527344 89.914062 10.527344 187.496094 C 10.527344 285.078125 89.914062 364.46875 187.496094 364.46875 C 285.078125 364.46875 364.46875 285.078125 364.46875 187.496094 C 364.46875 89.914062 285.078125 10.527344 187.496094 10.527344 Z M 299.46875 292.152344 C 276.386719 252.71875 234.0625 228.011719 187.492188 228.011719 C 140.925781 228.011719 98.609375 252.71875 75.523438 292.152344 C 49.871094 264.726562 34.121094 227.925781 34.121094 187.496094 C 34.121094 102.925781 102.925781 34.121094 187.496094 34.121094 C 272.066406 34.121094 340.871094 102.925781 340.871094 187.496094 C 340.871094 227.925781 325.121094 264.726562 299.46875 292.152344 Z M 299.46875 292.152344 " fill-opacity="1" fill-rule="nonzero"/></g><path fill="#3c89dd" d="M 187.496094 62.839844 C 147.71875 62.839844 115.355469 95.203125 115.355469 134.984375 C 115.355469 174.761719 147.71875 207.128906 187.496094 207.128906 C 227.277344 207.128906 259.640625 174.761719 259.640625 134.984375 C 259.640625 95.203125 227.277344 62.839844 187.496094 62.839844 Z M 187.496094 62.839844 " fill-opacity="1" fill-rule="nonzero"/></svg>