<svg xmlns="http://www.w3.org/2000/svg" xmlns:xlink="http://www.w3.org/1999/xlink" width="500" zoomAndPan="magnify" viewBox="0 0 375 374.999991" height="500" preserveAspectRatio="xMidYMid meet" version="1.0"><defs><clipPath id="fdb11a0781"><path d="M 14 7 L 361 7 L 361 368.296875 L 14 368.296875 Z M 14 7 " clip-rule="nonzero"/></clipPath></defs><g clip-path="url(#fdb11a0781)"><path fill="#3c89dd" d="M 346.085938 313.195312 C 347.433594 322.398438 345.414062 330.929688 339.351562 338.5625 C 325.210938 357.191406 294.011719 365.050781 279.417969 366.621094 C 271.5625 367.519531 263.484375 367.292969 255.851562 367.292969 C 252.035156 367.292969 247.992188 367.292969 243.953125 367.292969 C 231.832031 367.519531 219.488281 367.519531 207.589844 367.742188 L 205.792969 367.742188 C 197.488281 367.742188 189.40625 367.96875 181.101562 367.96875 C 170.328125 368.191406 159.554688 368.191406 148.777344 368.191406 C 136.882812 368.191406 125.210938 367.96875 113.3125 367.519531 C 91.988281 366.394531 74.480469 362.355469 60.339844 354.722656 C 37.441406 342.378906 26.890625 328.460938 29.136719 313.421875 C 29.585938 310.953125 31.832031 309.378906 34.300781 309.605469 C 36.769531 310.054688 38.339844 312.296875 38.117188 314.769531 C 36.542969 325.765625 45.523438 336.542969 64.828125 346.867188 C 77.847656 353.824219 94.007812 357.640625 113.984375 358.539062 C 136.207031 359.660156 159.105469 359.210938 181.101562 358.988281 C 189.40625 358.765625 197.714844 358.765625 205.792969 358.765625 L 207.589844 358.765625 C 219.488281 358.765625 231.609375 358.539062 243.730469 358.316406 C 247.769531 358.316406 252.035156 358.316406 255.851562 358.316406 C 263.484375 358.316406 270.890625 358.539062 278.296875 357.640625 C 293.5625 355.847656 320.722656 347.988281 332.167969 332.949219 C 336.433594 327.113281 338.230469 321.054688 337.109375 314.320312 C 336.660156 311.851562 338.453125 309.605469 340.925781 309.15625 C 343.394531 308.933594 345.636719 310.726562 346.085938 313.195312 Z M 130.148438 294.566406 C 126.554688 294.117188 120.71875 293.21875 113.761719 292.546875 C 111.292969 292.320312 109.046875 293.890625 108.824219 296.363281 C 108.597656 298.832031 110.171875 301.074219 112.640625 301.300781 C 121.84375 302.421875 129.25 303.320312 131.71875 303.769531 C 149.675781 314.09375 168.308594 323.296875 187.386719 330.929688 C 206.917969 338.785156 227.34375 345.519531 247.769531 350.457031 C 248.21875 350.457031 248.441406 350.683594 248.890625 350.683594 C 250.914062 350.683594 252.707031 349.335938 253.15625 347.316406 C 253.832031 344.847656 252.257812 342.378906 249.789062 341.929688 C 229.8125 336.992188 209.835938 330.480469 190.53125 322.847656 C 172.796875 315.664062 155.289062 307.359375 138.453125 297.707031 L 141.371094 289.179688 C 148.554688 268.304688 146.984375 245.632812 145.410156 223.859375 L 145.1875 220.714844 C 144.964844 218.246094 142.941406 216.449219 140.472656 216.449219 C 138.003906 216.675781 136.207031 218.695312 136.207031 221.164062 L 136.433594 224.308594 C 137.78125 245.183594 139.351562 266.730469 132.839844 286.035156 Z M 360.453125 288.28125 C 360.003906 289.402344 359.105469 290.523438 357.984375 290.972656 L 337.78125 298.832031 C 337.332031 299.054688 336.660156 299.054688 336.210938 299.054688 C 335.535156 299.054688 334.640625 298.832031 333.964844 298.605469 L 305.234375 283.117188 C 304.785156 282.894531 304.109375 282.445312 303.886719 281.996094 C 297.601562 273.914062 289.296875 263.8125 283.460938 256.855469 C 271.789062 242.9375 264.828125 225.429688 263.929688 207.246094 C 263.035156 185.25 261.460938 167.515625 259.667969 154.722656 C 257.871094 141.925781 253.605469 134.296875 245.972656 130.929688 C 241.035156 128.683594 235.199219 127.785156 229.363281 127.113281 C 225.324219 126.4375 221.058594 125.988281 216.792969 124.867188 C 212.976562 123.96875 201.527344 120.828125 201.527344 107.808594 C 201.527344 107.132812 201.527344 106.238281 201.753906 105.5625 C 198.160156 107.582031 193.898438 108.929688 188.734375 109.15625 C 188.285156 109.15625 188.0625 109.15625 187.613281 109.15625 C 182.671875 109.15625 177.734375 107.808594 173.46875 105.5625 C 173.46875 106.238281 173.46875 107.132812 173.46875 107.808594 C 173.695312 120.828125 162.023438 123.96875 158.207031 124.867188 C 153.941406 125.988281 149.675781 126.664062 145.636719 127.113281 C 139.574219 128.011719 133.964844 128.683594 129.027344 130.929688 C 121.394531 134.296875 117.128906 141.925781 115.332031 154.722656 C 113.539062 167.742188 112.191406 185.25 111.066406 207.246094 C 110.171875 225.429688 103.4375 242.9375 91.539062 256.855469 C 85.703125 263.8125 77.398438 273.914062 71.113281 281.996094 C 70.664062 282.445312 70.214844 282.894531 69.765625 283.117188 L 41.035156 298.605469 C 40.359375 299.054688 39.6875 299.054688 38.789062 299.054688 C 38.339844 299.054688 37.667969 299.054688 37.21875 298.832031 L 17.015625 290.972656 C 15.894531 290.523438 14.996094 289.628906 14.546875 288.28125 C 14.097656 287.160156 14.097656 285.8125 14.769531 284.6875 L 24.199219 266.28125 C 25.320312 264.039062 28.015625 263.140625 30.257812 264.261719 C 32.503906 265.386719 33.402344 268.078125 32.28125 270.324219 L 25.097656 284.238281 L 38.566406 289.402344 L 46.421875 285.136719 L 38.789062 278.851562 C 36.769531 277.28125 36.542969 274.363281 38.117188 272.566406 C 39.6875 270.546875 42.605469 270.324219 44.402344 271.894531 L 54.949219 280.425781 L 64.601562 275.261719 C 70.886719 267.179688 78.96875 257.304688 84.804688 250.570312 C 95.355469 238.222656 101.417969 222.511719 102.089844 206.347656 C 103.660156 184.351562 105.007812 166.394531 106.804688 153.152344 C 109.046875 137.214844 115.109375 127.113281 125.660156 122.398438 C 131.945312 119.480469 138.453125 118.582031 144.738281 117.683594 C 148.777344 117.234375 152.59375 116.5625 156.1875 115.664062 C 163.371094 113.644531 164.714844 111.175781 164.714844 107.359375 C 164.714844 102.871094 163.371094 97.707031 160.898438 92.320312 C 160.898438 92.09375 160.898438 92.09375 160.675781 91.871094 C 153.042969 75.933594 153.042969 52.589844 153.042969 51.691406 C 153.042969 50.121094 153.042969 48.324219 153.042969 46.753906 C 153.042969 44.507812 153.269531 42.488281 153.492188 40.46875 C 154.167969 33.058594 156.410156 26.550781 160.226562 21.386719 C 162.472656 18.246094 165.390625 15.328125 168.53125 13.304688 C 168.53125 13.304688 168.53125 13.304688 168.757812 13.304688 C 177.960938 6.796875 187.835938 7.246094 191.652344 7.695312 C 197.714844 8.367188 201.976562 10.613281 203.101562 11.285156 C 204.222656 11.960938 205.34375 12.632812 206.46875 13.304688 C 217.464844 20.9375 221.28125 34.855469 221.730469 39.34375 C 222.179688 42.710938 222.179688 46.527344 222.179688 50.566406 C 222.179688 51.914062 222.179688 53.261719 222.179688 54.609375 L 222.179688 54.832031 C 222.179688 55.730469 221.957031 77.730469 214.546875 92.542969 C 214.546875 92.542969 214.546875 92.769531 214.324219 92.769531 C 212.753906 96.585938 210.730469 102.195312 210.507812 107.808594 C 210.507812 111.625 211.855469 114.316406 219.039062 116.113281 C 222.628906 117.011719 226.445312 117.683594 230.484375 118.132812 C 236.769531 119.03125 243.28125 119.929688 249.566406 122.847656 C 260.117188 127.5625 266.175781 137.664062 268.421875 153.597656 C 270.214844 166.84375 271.789062 184.800781 272.6875 207.023438 C 273.359375 223.183594 279.644531 238.898438 289.96875 251.242188 C 295.582031 257.976562 303.886719 267.855469 310.171875 275.933594 L 319.824219 281.097656 L 330.375 272.566406 C 332.394531 270.996094 335.089844 271.222656 336.660156 273.242188 C 338.230469 275.261719 338.007812 277.953125 335.984375 279.527344 L 328.355469 285.8125 L 336.210938 290.078125 L 349.679688 284.914062 L 342.496094 270.996094 C 341.375 268.75 342.269531 266.058594 344.515625 264.9375 C 346.761719 263.8125 349.453125 264.710938 350.578125 266.957031 L 360.003906 285.363281 C 360.902344 285.8125 360.902344 287.160156 360.453125 288.28125 Z M 206.242188 88.503906 C 206.242188 88.277344 206.242188 88.277344 206.46875 88.277344 C 212.976562 75.261719 213.203125 54.609375 213.203125 54.382812 L 213.203125 53.933594 C 213.203125 52.589844 213.203125 51.464844 213.203125 50.121094 C 213.203125 46.304688 212.976562 42.9375 212.753906 39.792969 C 212.753906 39.570312 210.957031 26.773438 201.304688 20.039062 C 200.632812 19.589844 199.734375 18.917969 198.835938 18.46875 C 198.160156 18.019531 195.242188 16.449219 190.53125 16 C 188.285156 15.777344 180.652344 15.328125 173.695312 20.265625 C 173.695312 20.265625 173.695312 20.265625 173.46875 20.265625 C 171.226562 21.835938 169.207031 23.855469 167.410156 26.324219 C 164.492188 30.367188 162.921875 35.304688 162.246094 41.140625 C 162.023438 42.9375 162.023438 44.957031 162.023438 46.976562 C 162.023438 48.546875 162.023438 50.121094 162.023438 51.464844 C 162.023438 51.914062 162.023438 74.136719 168.980469 88.277344 L 169.207031 88.726562 C 173.246094 95.6875 180.652344 99.953125 188.511719 99.726562 C 199.734375 99.277344 205.792969 89.402344 206.242188 88.503906 Z M 293.5625 294.339844 C 294.460938 295.015625 295.355469 295.238281 296.253906 295.238281 C 297.601562 295.238281 298.949219 294.566406 299.847656 293.445312 C 301.417969 291.421875 300.96875 288.730469 298.949219 287.160156 L 262.808594 259.773438 C 260.789062 258.203125 258.09375 258.652344 256.523438 260.671875 C 254.953125 262.691406 255.402344 265.386719 257.421875 266.957031 Z M 112.640625 259.546875 L 76.5 286.933594 C 74.480469 288.503906 74.03125 291.199219 75.601562 293.21875 C 76.5 294.339844 77.847656 295.015625 79.195312 295.015625 C 80.089844 295.015625 80.988281 294.789062 81.886719 294.117188 L 118.027344 266.730469 C 120.046875 265.160156 120.496094 262.464844 118.925781 260.445312 C 117.351562 258.652344 114.660156 258.203125 112.640625 259.546875 Z M 204.894531 318.136719 C 205.570312 319.707031 207.367188 320.605469 208.9375 320.605469 C 209.609375 320.605469 210.285156 320.378906 210.957031 320.15625 L 245.300781 303.542969 C 247.546875 303.320312 255.402344 302.199219 265.503906 301.074219 C 267.972656 300.851562 269.765625 298.605469 269.542969 296.136719 C 269.320312 293.667969 267.074219 291.871094 264.605469 292.320312 C 255.625 293.445312 248.441406 294.339844 245.300781 294.789062 L 243.503906 289.628906 C 236.996094 270.097656 237.667969 243.164062 239.238281 219.59375 C 239.464844 217.125 237.445312 214.878906 234.976562 214.878906 C 232.503906 214.65625 230.261719 216.675781 230.261719 219.144531 C 228.464844 244.957031 227.792969 271.894531 234.976562 292.769531 L 236.769531 298.15625 L 206.917969 312.296875 C 204.894531 313.421875 203.773438 315.890625 204.894531 318.136719 Z M 204.894531 318.136719 " fill-opacity="1" fill-rule="nonzero"/></g></svg>