<?xml version="1.0" encoding="UTF-8"?>
<svg id="a" data-name="Calque 1" xmlns="http://www.w3.org/2000/svg" viewBox="0 0 300.61053 431.01364">
  <defs>
    <style>
      .b {
        fill: #98cdcf;
      }

      .b, .c, .d, .e, .f, .g, .h, .i, .j, .k, .l, .m, .n, .o, .p {
        stroke-width: 0px;
      }

      .c {
        fill: #fefefe;
      }

      .d {
        fill: #441e1d;
      }

      .e {
        fill: #bd234b;
      }

      .f {
        fill: #cce6f0;
      }

      .g {
        fill: #f8ac80;
      }

      .h {
        fill: #d98c6d;
      }

      .i {
        fill: #1e2a44;
      }

      .j {
        fill: #182135;
      }

      .k {
        fill: #ac2d18;
      }

      .l {
        fill: #243352;
      }

      .m {
        fill: #f58c7c;
      }

      .n {
        fill: #1c2740;
      }

      .o {
        fill: #f79c76;
      }

      .p {
        fill: #a5e0e2;
      }
    </style>
  </defs>
  <path class="g" d="m0,350.1182c4.63948-3.12429,9.28128-6.24514,13.91456-9.3786.42041-.28435.92472-.47083,1.21254-.93168.06773-.04212.26468-.01986.09065-.18235-.0398.05129-.0796.10256-.1194.15385-1.67264.28602-3.11667,1.17997-4.67049,1.78001-.6705.25892-1.01017.18358-1.27085-.51085-1.00899-2.68793-2.07524-5.35436-3.07726-8.04481-.6276-1.68513-.29599-2.32871,1.40977-3.00846.14508-.05783.36381-.08199.42001-.18912.94277-1.79712,2.55736-1.26172,4.02777-1.15709,2.38346.16967,4.76441.37551,7.14564.57544,1.35711.11395,2.69763.37665,3.95496.8781.87259.34801,1.52277.21613,2.14076-.41658,3.02314,2.49216,5.01269,5.65063,6.06772,9.41164-.96575,1.4277-1.93151,2.85537-2.89726,4.28307-.14668.04221-.26295.11184-.26058.28863,0,0,.04927-.00732.04926-.00732-1.61428,1.14531-3.22604,2.29423-4.84339,3.43518-3.02768,2.13572-6.06307,4.2606-9.08454,6.40508-.6359.45135-1.2748.60558-1.79218-.05191-.50047-.63602-.08483-1.15767.39199-1.65707,1.50844-1.57979,3.20791-2.97908,4.51008-4.7542.07694-.08322.1541-.16627.23101-.24952.04943-.0481.14746-.13062.14165-.13873-.10728-.14978-.16823-.04037-.23046.05062-.09163.07045-.18326.1409-.27488.21138-2.44649,1.57762-4.88827,3.16263-7.34187,4.72912-.94196.60139-1.89313,1.19309-2.87376,1.72746-.63007.34332-1.39171.7157-1.89688-.13724-.48677-.82188-.11908-1.5292.58803-2.07435,2.08641-1.60862,4.17658-3.21234,6.2604-4.82433.15208-.11764.26522-.28567.39566-.4312.14497-.10332.29074-.2057.4362-.30837.07315-.08606.1466-.17178.22006-.25752.10238-.02921.20476-.05841.30714-.08762-.02986-.04341-.05972-.08683-.08957-.13024-.08126.06401-.16253.12798-.24371.19205-.09365.06556-.18739.13103-.28113.1965-.15512.08349-.31025.16697-.46538.25046-3.05386,1.69802-6.04479,3.50158-8.97278,5.40738-1.06598.69387-2.10316,1.13767-3.22951.15303,0-.39994,0-.79991,0-1.19986Zm17.69082-16.48473c-3.08517-.68684-5.86968-1.30675-8.8459-1.96931.80658,1.73519,1.53561,3.31162,2.27333,4.884.15485.33005.41214.50115.77489.31156,1.86135-.97292,3.83347-1.75151,5.79768-3.22626Zm-2.02989,5.79903l.05946.03398.00689-.05118-.06635.0172Z"/>
  <path class="g" d="m137.90655.49025c-.30274-.02439-.28047-.32192-.41194-.49025,1.43973,0,2.87947,0,4.3192,0-.00524.07523-.01047.15046-.01541.22572-1.2883.21739-2.62807-.31827-3.89185.26453Z"/>
  <path class="p" d="m102.94111,196.76667c2.51364-1.10039,5.17314-1.67297,7.83819-2.26854,3.86658-.86408,7.70211-1.86707,11.55135-2.81035.40818.02937.72931.20696,1.07107.44744,3.82794,2.69342,7.70446,5.31887,11.49794,8.05946,1.05338.761,1.64306.59306,2.49008-.27233,1.46651-1.49831,2.80571-3.14208,4.54719-4.35682.5713,2.55005,1.34547,5.02277,2.96714,7.1268.44989.5837.57625,1.16535.52647,1.87697-.32054,4.58203-.6144,9.16593-.91233,13.74952-.80831,12.43669-1.61538,24.87345-2.42088,37.31033-.6351,9.80575-1.26586,19.61183-1.90081,29.41758-.80534,12.43706-1.58032,24.87623-2.45153,37.30869-.14621,2.08648.03424,3.92675,1.5315,5.501.40752.42847.68451.98104,1.02196,1.47624,2.69666,3.95701,5.39345,7.91393,8.12752,11.9256.17165-.16243.29778-.25459.39019-.37308,3.88393-4.97984,7.76079-9.96523,11.65346-14.93825.32796-.41901.37486-.84743.34179-1.34088-.17888-2.67021-.34391-5.3413-.51242-8.01218-.43265-6.85761-.85732-13.71572-1.29862-20.57277-.61309-9.52676-1.24029-19.05256-1.85802-28.579-.55831-8.61026-1.10931-17.22099-1.66871-25.83119-.35996-5.54062-.73514-11.08026-1.09292-16.62103-.44532-6.89626-.88093-13.79318-1.31527-20.69015-.02223-.35284-.0583-.70748.18416-1.03365,1.75771-2.36463,2.5421-5.12627,3.21121-7.93335,1.67872,1.64154,3.38368,3.2575,5.02236,4.93809.59731.6126,1.08087.65014,1.7447.16582,1.34609-.98209,2.70347-1.95111,4.09-2.87479,2.97174-1.97978,5.76548-4.21741,8.82104-6.07473,4.7276,1.26615,9.44653,2.5636,14.23391,3.59727,1.42882.30852,2.82283.77828,4.23282,1.17444.1231.28999.41524.35961.65458.4898,5.54364,3.01524,8.50649,7.62148,8.15597,13.98303-.12415,2.25338-.22081,4.52509-.33911,6.77759-.2898,5.51823-.52413,11.04189-.76754,16.56397-.13831,3.13764-.32761,6.27168-.468,9.40732-.16186,3.61499-.32452,7.23006-.48327,10.8451-.15176,3.45603-.37228,6.91101-.47168,10.36555-.12589,4.37667-.47109,8.74267-.52884,13.12115-.06878.55285-.18533,1.1038-.19892,1.65727-.13405,5.46137-.45219,10.91401-.71648,16.36964-.162,3.34401-.3297,6.68888-.46323,10.0333-.21793,5.45809-.47956,10.91328-.73804,16.36926-.15845,3.34451-.29016,6.68979-.46929,10.03404-.24961,4.65987-.36062,9.32716-.53094,13.99125-.2038.11905-.39987.25441-.61246.35483-6.0246,2.84497-12.04071,5.70825-18.08155,8.51837-2.633,1.22479-5.17633,2.65202-7.93885,3.59143-12.32791.00803-24.65583.01301-36.98374.0278-1.59409.0019-3.18813.05466-4.78218.08387-.89797.02387-1.6936-.28403-2.49566-.66631-4.27135-2.03551-8.56316-4.02804-12.83829-6.05564-4.09402-1.94171-8.17633-3.90815-12.26378-5.86371-.15017-2.78249-.36042-5.56334-.43535-8.34785-.09434-3.50577-.3237-7.00396-.46499-10.50566-.21846-5.41397-.48462-10.82505-.7288-16.2375-.15619-3.46192-.29318-6.92393-.47819-10.38521-.25317-4.73627-.31924-9.48244-.56579-14.21918-.07521-1.44493.00482-2.92304-.4227-4.34066.07169-.26642.25677-.56176.19735-.79476-.52959-2.07696-.19104-4.20539-.3647-6.30663-.2944-3.56219-.37301-7.15145-.52411-10.72952-.15112-3.57895-.30913-7.15667-.47777-10.73488-.16484-3.49769-.33652-6.99596-.48108-10.4941-.14955-3.61905-.30672-7.23665-.47816-10.85482-.16574-3.4977-.36114-6.99691-.46737-10.49441-.09317-3.0671-.45035-6.12867-.29488-9.20366.01202-.23772-.00961-.47988-.04102-.71662-.71871-5.41782,1.01107-9.85855,5.26298-13.31933.37528-.30547.95618-.47473,1.00931-1.09644,0,0-.00371.01334-.00372.01328.08641-.07836.17282-.15666.25922-.23495.04937-.02442.10064-.02941.15451-.01498.22751.0126.44322-.00048.56033-.2418,0,0-.01463.00964-.01457.00965.20533.00171.39201-.03483.49627-.24106Zm69.85868,36.24269c.00245,2.39842.0132,4.79688.00151,7.19523-.00293.59918.09471.97721.84115.97525,6.99498-.01847,13.99004-.01485,20.98504-.00233.52438.00094.79441-.16747.92633-.69148.67186-2.66898,1.35772-5.33465,2.0719-7.99255.14884-.55398.01794-.89997-.43348-1.22326-1.10616-.79214-2.2431-1.53055-3.46161-2.13799-6.30487-3.14311-13.05945-4.03377-20.00099-4.00751-.76366.00289-.93687.37935-.9309,1.05241.01951,2.19835.00293,4.39701.00022,6.59555.00606.07887.00634.15777.00083.23669Z"/>
  <path class="k" d="m137.90655.49025c1.26378-.5828,2.60356-.04714,3.89185-.26453,6.16785.53047,11.98109,2.1031,17.00998,5.89917,3.7682,2.84445,6.27839,6.6262,7.92705,10.99843.27673.73391.45538,1.00234,1.29411.67785,2.81167-1.08781,5.5156-2.25565,7.70738-4.47975,2.29081-2.32459,2.7181-5.3827.91732-8.33171,1.64098.33505,3.10104.90277,4.54973,1.4966,4.18017,1.71347,8.10076,3.79851,11.31258,7.1055,3.496,3.59963,4.34228,8.25793,2.19017,12.79663-.31821.67111-.02137.73947.44281,1.02789,4.45946,2.77089,8.74488,5.80082,11.11999,10.67454,1.68422,3.456,2.50127,7.20192,3.02292,11.03668.63558,4.67224.83016,9.34703.60668,14.03583-.19183,4.02535-.66139,8.033-1.11521,12.04002-.40071,3.53783-.63636,7.09404-.97962,10.63877-.28911,2.98538-.62816,5.96592-.94513,8.94842.0382.84965-.48135.91075-1.16445.92223-1.67207.0281-3.316,1.18924-3.63914,2.59259-.30286,1.31521-.6844,2.65223-.70651,3.98505-.08077,4.86975-.48272,9.72021-.72063,14.57997-.51294,3.87581-.77163,7.77857-1.17166,11.66582-.34202,3.32358-.61648,6.65959-1.05638,9.97021-.46261,3.48153-.94497,6.97037-1.30748,10.45388-.83591,8.03261-5.59539,13.61574-11.15451,18.7129-6.59137,6.04365-14.29889,10.38434-22.36897,14.1186-.185.07133-.37232.13774-.55503.21507-3.47182,1.46924-6.89347,3.07894-10.63547,3.78982-.08546.0602-.17092.12038-.25637.18056l.0133-.00595c-2.08614.05765-4.16888.02519-6.24302-.23526-3.74431-.84479-7.2342-2.32433-10.55303-4.23064-7.10116-4.26421-13.09971-9.84734-18.87672-15.70827-3.95177-4.00918-7.82658-8.08768-11.42781-12.41393-2.27627-2.73454-3.61096-6.00511-4.67682-9.33933-1.36922-4.2832-2.17507-8.71542-2.67153-13.18155-.49664-4.46765-.62933-8.96387-.64589-13.46038.06026-3.75546.03967-7.51451.20774-11.2651.12108-2.70195.33883-5.38947-.0176-8.08988-.07985-.605-.201-1.08961-.79252-1.34486-1.02108-.44062-2.03987-.99232-3.1698-.94244-.837.03695-.93794-.34792-.91081-.98086-.10907-5.8678-.21811-11.73561-.32723-17.60341-.13581-7.30316-.08068-14.61647-.46792-21.90627-.31048-5.84485.48389-11.42572,2.74744-16.76698,3.00399-7.08844,8.10248-12.0301,15.48332-14.51723,1.48123-.49912,2.45491-1.74345,3.47669-2.85902,2.11686-2.31117,3.31025-4.98373,2.88741-8.17419-.29473-2.22387-1.47225-4.02541-3.14994-5.68675,2.30265-.29845,4.37881.28289,6.45741.77416,3.57351.84458,6.92012,2.24649,9.79619,4.54697,2.25552,1.8041,4.18953,3.9362,5.35997,6.64608.26059.60335.52038.99769,1.13759.30685,2.40924-2.69658,4.57912-5.54673,5.70563-9.04508,1.34235-4.16863.09797-7.62622-3.55805-10.00373Zm9.65245,120.47039c.68729,1.05104,1.38852,2.09336,2.0549,3.15749.25782.41172.42036.5432.69447.01815.61997-1.18751,1.46078-2.21473,2.38903-3.17326,1.65642-1.24609,3.2854-2.54603,5.45728-2.78015,3.14185-.24348,5.81339.86249,8.26987,2.74645,2.89555,2.22069,5.46677,4.78374,8.02497,7.36356.76162.76804,1.52723.96901,2.58506.63824,3.24128-1.01354,6.13763-2.64595,8.91657-4.56753,3.3325-2.30435,5.76787-5.17435,6.88219-9.17415.93099-3.34168,1.82616-6.68872,2.65205-10.05726,1.60172-6.53284,2.95363-13.08809,2.56997-19.88186-.30922-5.47546-2.20811-10.3652-5.47655-14.69413-3.72583-4.93473-8.8435-8.03474-14.47763-10.31273-7.68481-3.10712-15.78299-4.19257-23.98968-4.54413-3.76515-.16129-7.54301-.02921-11.3151-.02435-1.35031.00174-2.70668.1902-4.03863.18929-4.70351-.00322-9.28704.70224-13.79318,1.95788-6.84419,1.90714-12.81643,5.2456-17.22611,10.96376-3.52131,4.56619-5.44785,9.76025-5.81374,15.53145-.24302,3.83322-.02428,7.66937-.13169,11.50187-.12122,4.32487.13418,8.61329,1.15989,12.8252.50119,2.05804.66177,4.20444,2.12782,5.985,2.24726,2.7294,4.41255,5.53332,6.80355,8.1343,2.15423,2.34338,4.40205,4.61623,7.07108,6.41518.68697.46303,1.13725.43217,1.7353-.17519,1.17554-1.19379,2.38107-2.37645,3.69161-3.41561,4.98353-3.9516,10.09897-7.64863,16.92915-7.38589,2.43069.13079,4.40692,1.29102,6.24755,2.75842Zm2.24572,7.4443c-2.59442-.01337-5.12274.44259-7.67841.86558-4.41481.73065-8.48224,2.30948-12.42762,4.31657-.44522.22648-.669.47814-.52717,1.03012.68312,2.65818,1.33048,5.32595,2.71331,7.73751,1.86045,3.24448,4.35472,5.48658,8.39007,5.20838,1.74319-.12018,3.33614-.78626,4.86227-1.57897,3.16335-1.64312,6.42085-1.75795,9.7424-.64032,1.69977.57191,3.37558,1.22563,5.03011,1.91901,2.72485,1.14191,5.17992.54957,7.00384-1.80979,2.45467-3.17529,3.46941-6.91719,4.23473-10.76691.12491-.62837-.09221-.79177-.55417-1.04255-6.48494-3.5204-13.42037-5.23284-20.78935-5.23861Z"/>
  <path class="i" d="m149.97855,410.07311c-2.05948-.09863-4.0229.51811-6.01716.858-9.01449,1.53644-18.06031,2.82707-27.15606,3.77967-6.35563.66563-12.72307,1.13811-19.10748,1.39135-2.12262.08422-2.12272.0778-2.4192-2.04453-.02759-.19741-.05898-.39435-.08854-.59123-.40054-2.95356-.80114-5.90736-1.20176-8.86116.30062-.02575.52251.1288.7612.28915,4.25399,2.85769,9.04136,3.52985,13.96657,3.00163,5.28328-.56659,10.49035-1.68624,15.65193-2.97252,8.79533-2.19179,17.58932-4.38595,26.33868-6.76018,8.06426-2.18827,16.08838-4.50515,24.06414-6.99543,8.33158-2.60134,16.60097-5.38995,24.77556-8.44259,7.79578-2.91112,15.59693-5.81846,23.23317-9.13836,5.89343-2.56217,11.68785-5.31854,16.93773-9.07767,4.39704-3.14851,8.13184-6.8908,10.39276-11.91016,1.66065-3.68666,2.25287-7.44023.773-11.3496-1.43522-3.79156-4.02406-6.63372-7.24002-8.98636-.44886-.32832-1.16699-.48771-1.04619-1.29535,3.39476-.18209,6.73964.24811,10.0729.82101,6.2324,1.55393,12.06923,3.79721,16.07741,9.22712,1.19184,2.07344,2.35307,4.15313,2.88418,6.52662.99784,4.45942.14775,8.64518-1.84522,12.65046-2.96436,5.9576-7.62908,10.45208-12.57193,14.75516-4.5224,3.93706-9.8482,6.22774-15.34309,8.34609-11.37871,4.38662-22.85868,8.47364-34.48212,12.16041-.37582.11922-.73854.27987-1.10747.42162-.26466-.04464-.37824.13589-.48571.32551-.69368-.08703-1.33833.10323-1.99087.31101-2.16315.68883-4.32068,1.40052-6.50421,2.01928-8.80216,2.49427-17.63345,4.88019-26.55025,6.93614-5.3406,1.23141-10.69512,2.39626-16.06637,3.49031-1.57273.32035-3.23939.32232-4.70562,1.11458Z"/>
  <path class="p" d="m268.74722,341.0159c-4.00819-5.42991-9.84501-7.6732-16.0775-9.22715-.13735-.48343-.58949-.63297-.95206-.85033-2.97584-1.78367-5.96193-3.55015-8.94504-5.32167-9.42974-5.59984-18.85848-11.20141-28.29204-16.7948-.53517-.31734-.88999-.72566-1.14024-1.309-2.21618-5.16586-4.46067-10.31959-6.69681-15.47689.36422-.03679.38801-.2951.44686-.59208,1.37373-6.93313,2.32419-13.92856,2.83878-20.97201.30145-4.126.5683-8.26085.52449-12.40917-.07835-7.41688.09155-14.83346-.4529-22.24659-.29379-3.99997-.63975-7.99325-.96685-11.98955-.35949-4.39199-.97987-8.74958-1.47978-13.12292-.07351-.64309-.53871-1.28845.00472-1.93043,1.04837,2.50242,1.59527,5.15976,2.35446,7.74927,2.29837,7.83939,4.51537,15.70266,6.76344,23.55678,3.53119,12.33694,7.06047,24.6744,10.59371,37.01078,1.19609,4.17615,2.40077,8.34981,3.60456,12.52374.12439.43132.38464.74144.74033,1.04513,4.85276,4.14337,9.6783,8.31856,14.52293,12.47148,5.38981,4.62024,10.79584,9.22147,16.1881,13.83881,4.4226,3.78702,8.8266,7.59586,13.26145,11.36844.71375.60713.1278.94984-.13105,1.39053-1.57152,1.18758-2.80864,2.68143-3.83768,4.33896-1.17239,1.88843-2.23634,3.83506-2.34967,6.13664-.17408.27067-.34813.54137-.52221.81204Z"/>
  <path class="j" d="m128.84208,358.84341c1.59406-.02921,3.1881-.08196,4.78218-.08387,12.32791-.01479,24.65583-.01977,36.98373-.02777-.25651.40114-.70982.50598-1.09625.68863-3.74935,1.77196-7.51153,3.51673-11.26143,5.28748-9.05232,4.27472-18.0997,8.55991-27.14965,12.83967-4.39863,2.08015-8.79793,4.15884-13.1979,6.23612-8.43867,3.98399-16.87801,7.96654-25.31707,11.94968-.14637.01629-.29275.03257-.43912.04886-14.286-4.49779-28.37469-9.5422-42.24777-15.19078-3.20013-1.303-5.82028-3.45858-8.45281-5.58089-5.00419-4.03428-9.48234-8.55554-12.49202-14.33779-2.82097-5.41966-3.49391-10.95716-.86764-16.66477.04678-.10162.03565-.22989.05151-.34581-.00004-.00009-.04931.00724-.04926.00724.2512.05211.21932-.15124.26053-.28863.96576-1.4277,1.93151-2.85537,2.89709-4.28296,3.05934-3.03916,6.79173-4.90526,10.82407-6.27906,2.12991-.72563,4.36444-.99102,6.51504-1.61114,1.00264-.03017,2.00524-.06087,3.00785-.09157.01815.51225-.3907.75536-.67549,1.07905-.81438.92558-1.68388,1.81007-2.42559,2.79099-3.05865,4.04503-5.01166,8.52364-5.60523,13.62373-.4704,4.04184.33508,7.75759,2.26305,11.24942,2.46774,4.46938,6.25859,7.68805,10.36703,10.56269,3.72744,2.60814,7.72993,4.7629,11.71319,6.94104,2.55393,1.39656,5.08428,2.8571,7.78964,3.94787,3.62521,1.46159,7.36605,2.44737,11.26756,2.94996,3.86286.49758,7.69042.44116,11.49943-.16984,6.23316-.99993,11.94875-3.5481,17.64962-6.1299,4.02655-1.82351,8.10283-3.5372,12.15696-5.29979,4.43227-1.92701,8.71368-4.12843,12.69674-6.88784.65973-.45704.64204-.75369-.04564-1.07138-1.55535-.71854-3.1231-1.41051-4.6732-2.14003-2.23797-1.05333-4.46046-2.13968-6.70012-3.1894-.43042-.20171-.30911-.33717-.02904-.52921Z"/>
  <path class="o" d="m92.14658,395.78222c.14637-.01629.29275-.03257.43912-.04886.46756,2.95728.93511,5.91457,1.40267,8.87185.4006,2.9538.80121,5.9076,1.20176,8.86116-3.49256,2.16668-6.99236,4.31363-10.69603,6.11933-9.06167,4.41803-18.6031,7.34338-28.47774,9.22987-6.51004,1.24371-13.07585,2.03976-19.71126,2.17632-.31957.00656-.63908.02109-.95865.02174-2.25373.00466-3.60843-1.13899-3.64243-3.0717-.03382-1.92332,1.52228-3.56137,3.52678-3.68994,4.68255-.30037,9.26934-1.0705,13.62815-2.8779,6.14986-2.55002,11.13876-6.49434,14.59664-12.2635.65737-1.09674.94091-2.10596.56583-3.46611-1.25646-4.55641,1.63768-8.80351,6.48716-9.66227,2.90492-.51442,5.75684-.35372,8.60523.62322,4.4204,1.51614,8.79413,1.12826,13.03276-.8232Z"/>
  <path class="o" d="m205.79587,396.20178c.10747-.18962.22105-.37015.48571-.32551,3.67148,1.49546,7.45374,2.02637,11.37227,1.26301,1.60078-.31183,3.05106-1.14033,4.71492-1.29494,2.44856-.22755,4.85377-.24305,7.21043.5883,3.92974,1.38631,6.06637,5.43834,4.84977,9.43493-.31062,1.02041-.19605,1.8284.30787,2.7121,3.73545,6.55082,9.35902,10.77733,16.34206,13.34249,3.92966,1.44352,8.0205,2.04881,12.17321,2.33155,2.01306.13703,3.52186,1.71147,3.54242,3.68593.01831,1.75497-1.35069,3.06048-3.28987,3.0693-4.03592.01837-8.05565-.30073-12.05525-.79203-6.69338-.82224-13.29922-2.10423-19.79324-3.95302-9.97-2.83835-19.40921-6.83599-28.02149-12.671-.09603-.06503-.2214-.0868-.33312-.12857.25387-1.85149.49995-3.70429.76335-5.55464.52189-3.66627,1.05335-7.3312,1.58085-10.99668.05003-.23707.10007-.47414.15012-.71121Z"/>
  <path class="b" d="m207.55884,208.7733c-.54343.64198-.07822,1.28734-.00472,1.93043.4999,4.37334,1.12028,8.73094,1.47978,13.12292.3271,3.99629.67306,7.98958.96685,11.98955.54446,7.41313.37455,14.82971.4529,22.24659.04381,4.14832-.22304,8.28317-.52449,12.40917-.51459,7.04345-1.46506,14.03888-2.83878,20.97201-.05885.29698-.08263.55529-.44712.59211-1.21202-2.80015-2.40345-5.60933-3.64248-8.39742-.86606-1.94877-1.5145-3.99729-2.64303-5.82701.05776-4.37778.40296-8.74378.52886-13.12045.0994-3.45454.31992-6.90952.47168-10.36555.15875-3.61504.3214-7.2301.48327-10.8451.14039-3.13564.32969-6.26968.468-9.40732.24341-5.52208.47774-11.04574.76754-16.56397.11829-2.2525.21496-4.52422.33911-6.77759.35052-6.36156-2.61233-10.96779-8.15597-13.98303-.23934-.13019-.53148-.19981-.65458-.4898,2.81113-.08685,5.07013,1.198,7.1015,2.95017,1.85301,1.59833,3.33344,3.52282,4.61683,5.6059.47338.76831.71341,1.58443.78686,2.46734.05851.09878.11717.19713.17582.29548.09072.39852.18145.79704.27218,1.19557Z"/>
  <path class="f" d="m152.37893,185.79674c3.742-.71089,7.16365-2.32059,10.63547-3.78983.18271-.07733.37002-.14374.55503-.21507,1.33146,1.27511,3.02461,1.99377,4.56778,2.93798,3.07155,1.87936,6.18314,3.69327,9.35843,5.58194-.49776.43123-.92734.80339-1.35682,1.17546-3.05545,1.85724-5.8492,4.09488-8.82093,6.07466-1.38653.92368-2.74391,1.8927-4.09,2.87479-.66383.48432-1.14739.44678-1.7447-.16582-1.63868-1.68059-3.34364-3.29654-5.02236-4.93806-2.06115-2.39318-4.46065-4.45179-6.64839-6.71999-.50247-.52095-.90899-.22814-1.31689.17969-1.52488,1.52452-3.0829,3.01646-4.5859,4.56202-.68703.70647-1.55382,1.26262-1.97271,2.21103-1.74148,1.21474-3.08069,2.85851-4.54719,4.35682-.84702.86538-1.4367,1.03332-2.49008.27233-3.79348-2.74059-7.67-5.36603-11.49794-8.05946-.34176-.24048-.6629-.41808-1.07107-.44744-.03152-.11199-.02689-.26124-.09896-.3294-1.15118-1.08872-1.15819-1.09434.25523-1.94243,4.05782-2.43472,8.12009-4.86206,12.17995-7.29341.26557-.15906.60931-.23637.67269-.61723,3.31906,1.90644,6.80895,3.38598,10.55328,4.23078.95205.63271,1.90345,1.26635,2.85649,1.89755.27462.18185.54882.30609.86854.06916.81877-.60667,1.82887-.93538,2.51798-1.73147,0,0-.0133.00595-.01325.00595.08547-.06018.1709-.12037.25633-.18055Z"/>
  <path class="g" d="m269.26942,340.20386c.11333-2.30158,1.17728-4.24821,2.34967-6.13664,1.02904-1.65754,2.26616-3.15138,3.83768-4.33896.55803.65939,1.17939.73131,2.01227.44916,2.28043-.77264,4.6526-1.07202,7.05667-1.18424,1.71144-.07988,3.4184-.25682,5.12703-.3949,1.14679-.09265,2.2722-.13996,2.88954,1.12437.12229.25043.37742.2961.60267.33928,1.74574.33456,1.81528,1.80365,1.38062,2.98204-1.00851,2.73398-2.13878,5.42317-3.14007,8.15964-.26892.735-.60458.67697-1.14462.44693-1.34404-.57245-2.69347-1.13222-4.17811-1.75467.04039.69882.47528.81108.76143,1.00283,4.18291,2.80311,8.37669,5.59006,12.56422,8.38631.72783.48598,1.63411.9274,1.0177,2.05446-.43269.79113-1.43121.9363-2.54405.19474-2.42964-1.61905-4.97823-3.03705-7.45951-4.56751-.60636-.37405-1.16328-.85425-1.88672-1.01707-.09359-.06597-.18656-.1327-.2795-.19943-.07639-.03146-.15281-.06292-.22921-.09438.03802.06943.07604.13885.11465.20769.08313.07637.16567.15332.24819.23028,2.00588,1.57607,4.01167,3.15226,6.01776,4.7281.21954.17248.44338.33963.66023.51542.69459.56305.8578,1.33894.4075,2.0249-.46415.707-1.24099.4174-1.83482.07643-3.01248-1.72986-5.9244-3.62031-8.78319-5.59342-.45709-.31546-.93572-.59981-1.40461-.89828-.1174-.16952-.27502-.25406-.48524-.2289-.09482-.065-.18878-.13088-.28272-.19673-.00589-.09283.01131-.21671-.1447-.10757.04974.03433.09944.06869.14915.10305.07481.08486.14962.16976.22443.25462l.39921.34229c1.34758,1.78871,3.15469,3.14816,4.56097,4.88482.39081.48264.89067.92011.3131,1.52999-.50932.5378-1.08525.51829-1.71159.07329-4.19219-2.97852-8.42657-5.89857-12.58558-8.92244-1.34814-.98019-2.52894-2.19738-3.51023-3.57485-.28252-.3966-.62464-.72416-1.09023-.90062Zm13.58778-6.52665c2.05049,1.51915,4.08013,2.31772,5.981,3.33889.27669.14863.42751.02513.54755-.23581.7266-1.579,1.46261-3.1537,2.33309-5.02572-3.01231.65356-5.73958,1.24526-8.86164,1.92264Zm4.73429,11.81926c.02832-.0215.05229-.03972.07625-.05791-.02159-.02094-.0423-.05715-.06509-.0585-.02276-.00135-.04757.03213-.07147.05036.02027.0222.04054.04441.06031.06606Zm-2.45577-5.82382l.07985.04429.00855-.06732-.0884.02302Zm.61128.25799c-.02314-.02355-.04455-.06348-.06983-.06609-.02516-.00258-.05422.03231-.08155.05077.0234.02326.04526.06269.07071.06515.02531.00246.05422-.03225.08067-.04983Z"/>
  <path class="j" d="m205.79587,396.20178c-.05004.23707-.10009.47414-.15012.71121-2.42902.7717-4.87321,1.49921-7.28328,2.32625-3.06528,1.0519-6.00553,2.38272-8.57279,4.40605-3.28183,2.58643-4.45766,5.96273-1.81077,9.7875.44646.6451,1.14496,1.11997,1.34527,1.9343-4.42714-.21047-8.82315-.75662-13.21966-1.27458-8.31919-.9801-16.59616-2.25213-24.83868-3.74648-.4314-.07818-.85828-.18138-1.28729-.27296,1.46623-.79224,3.13288-.7942,4.70562-1.11455,5.37125-1.09405,10.72577-2.2589,16.06637-3.49031,8.91681-2.05596,17.7481-4.44187,26.55025-6.93614,2.18353-.61876,4.34107-1.33045,6.50421-2.01928.65254-.20778,1.29719-.39804,1.99087-.31101Z"/>
  <path class="n" d="m189.32418,415.36709c-.20031-.81433-.89881-1.2892-1.34527-1.9343-2.64689-3.82478-1.47106-7.20107,1.81077-9.7875,2.56727-2.02332,5.50751-3.35415,8.57279-4.40605,2.41007-.82704,4.85426-1.55454,7.28328-2.32625-.5275,3.66548-1.05896,7.3304-1.58085,10.99668-.2634,1.85035-.50948,3.70315-.76335,5.55464-.38034,2.66485-.38173,2.70146-3.10872,2.59736-3.62801-.1385-7.25832-.26798-10.86866-.69458Z"/>
  <path class="o" d="m200.62843,116.87042c.23791-4.85976.63986-9.71022.72063-14.57997.02212-1.33282.40365-2.66984.70651-3.98505.32314-1.40335,1.96707-2.56449,3.63914-2.59259.68311-.01148,1.20265-.07258,1.16445-.92223,5.44117,1.36214,8.44413,5.13889,8.64044,10.79445.12329,3.55228-.71279,6.77153-2.95201,9.60562-2.89045,3.65833-7.84714,4.53511-11.3834,1.90299-.15056-.11206-.35594-.15049-.53577-.22322Zm8.59029-12.21518c.15161,1.35116-.23257,2.5619-.64526,3.77526-.1594.46864-.38521.91494-.89529.69493-.70065-.3022.13654-.60375.11365-.9377-.01015-.14824.08831-.30283.13232-.45602.45947-1.59929-.2079-3.17133-1.56948-3.69932-1.32875-.51526-2.91654.24502-3.57803,1.78375-.70787,1.64666-.70887,3.33665-.03048,4.99206.42691,1.0418.91862,2.13074,2.2591,2.20155,1.7956.09487,3.57873.17622,4.83441-1.58536,1.26533-1.77513,1.56185-3.81747,1.77074-5.86237.21474-2.10206-.17991-4.12618-1.49334-5.88249-1.24109-1.65959-4.11485-1.77292-5.19679-.19014-.3462.50643-.42568,1.10189-.01621,1.5463.46172.50112.95546.18362,1.32651-.23832.75193-.85506,1.378-.37582,1.8839.23553.86956,1.05084,1.31445,2.2713,1.10424,3.62234Z"/>
  <path class="p" d="m207.28666,207.57774c-.05866-.09835-.11731-.19671-.17582-.29548.05871.09821.11727.19684.17582.29548Z"/>
  <path class="p" d="m48.58529,331.20713c-2.15058.62061-4.38511.88601-6.51502,1.61163-4.03234,1.3738-7.76473,3.23991-10.82408,6.27906-1.05484-3.76112-3.04439-6.91959-6.06754-9.41176-.79503-.61876-.52957-1.09592.12948-1.65464,4.25489-3.60716,8.4913-7.23617,12.72528-10.8679,3.66031-3.13966,7.30585-6.29655,10.96434-9.43836,3.68887-3.1679,7.38616-6.32596,11.07884-9.48941,2.96666-2.54146,5.94526-5.06925,8.89111-7.63462,1.13953-.99237,1.12706-2.52014,1.50801-3.82513,3.04656-10.43638,6.02727-20.89204,9.02041-31.344,3.83732-13.39976,7.6432-26.80861,11.52442-40.19564.65098-2.24535,1.14478-4.54692,2.07124-6.70991.3504.27291.26248.64189.20114.99195-.82852,4.72868-1.30681,9.5049-1.83577,14.27012-.45974,4.14175-.73473,8.30759-.97065,12.46963-.24335,4.29281-.42541,8.59295-.47454,12.89171-.03685,3.2259.03218,6.45611.13489,9.68641.13546,4.26017.45876,8.50978.56891,12.76939.02559.98994.16048,1.97921.28283,2.96411.37139,2.98945.73081,5.98089,1.15255,8.96339.41527,2.93675.85943,5.87133,1.63498,8.74226-1.91282,4.4262-3.94155,8.80738-5.68769,13.29843-.81225,2.08912-2.1497,3.29474-4.02342,4.38733-9.60767,5.60245-19.14422,11.32728-28.68579,17.04245-2.28627,1.36947-4.66297,2.59727-6.80394,4.20348Z"/>
  <path class="b" d="m93.7859,292.27541c-.77531-2.8709-1.21948-5.80548-1.63474-8.74223-.42175-2.98251-.78117-5.97395-1.15255-8.96339-.12235-.9849-.25724-1.97417-.28283-2.96411-.11014-4.25961-.43345-8.50923-.56891-12.76939-.1027-3.2303-.17174-6.46051-.13489-9.68641.04912-4.29876.23119-8.5989.47454-12.89171.23592-4.16205.5109-8.32789.97065-12.46963.52896-4.76523,1.00725-9.54144,1.83577-14.27012.06134-.35006.14925-.71904-.20114-.99195.01949-.15313.03905-.30617.0583-.45928.61596-.15754.39292-.63533.39206-1.02833.10978-.50106.11069-1.06161.34671-1.49371,1.7518-3.20735,3.92034-6.05553,7.14923-7.93747.13122-.07647.29981-.08883.45098-.13112-.05312.62166-.63402.79092-1.0093,1.09639-4.25191,3.46078-5.98169,7.90151-5.26298,13.31933.03141.23673.05304.4789.04102.71662-.15546,3.07498.20172,6.13655.29488,9.20366.10623,3.4975.30164,6.99671.46737,10.49441.17144,3.61817.32861,7.23577.47816,10.85482.14456,3.49814.31624,6.99642.48108,10.4941.16863,3.57822.32664,7.15593.47777,10.73488.1511,3.57807.22971,7.16733.52411,10.72952.17366,2.10124-.16489,4.22967.3647,6.30663.05942.233-.12566.52834-.19739.79464-1.45423,3.35119-2.90841,6.70253-4.36258,10.05384Z"/>
  <path class="o" d="m92.35805,94.77885c-.02713.63293.07381,1.01781.91081.98086,1.12993-.04988,2.14872.50182,3.1698.94244.59153.25525.71268.73986.79252,1.34486.35643,2.70041.13867,5.38793.0176,8.08988-.16807,3.75059-.14748,7.50964-.20774,11.2651-.00008.00004.00294-.00161.00271-.00142-.10206.01936-.20388.03854-.30572.05771-3.34686,2.02051-7.57934,1.32307-10.32392-1.70119-4.30675-4.74563-4.65672-12.50605-.75978-17.57893,1.68081-2.18801,3.94816-3.29366,6.70372-3.3993Zm-3.08019,9.99759c-.0982-1.19165.07974-2.29172.80364-3.29745.91409-1.26993,1.17141-1.35912,2.40026-.46822.32366.23465.64053.33746.99535.14951.38847-.20576.37169-.59114.32905-.95115-.10761-.90827-1.08799-1.74916-2.09728-1.82039-2.11037-.14894-3.42132.81522-4.3235,3.04304-.87065,2.15001-.59271,4.33083-.15599,6.4703.40761,1.99684,1.02825,3.96378,3.19631,4.87731,1.43647.60526,3.83698.3159,4.60009-.6072,1.40499-1.69955,1.61489-5.05742.43157-6.90404-.63973-.99832-2.05475-1.59119-3.12301-1.30848-1.22479.32412-1.8587,1.26219-1.88247,2.70774-.00876.5328.12089,1.02209.26258,1.52282.08555.30231.48414.72895-.04657.91006-.52779.18012-.60724-.33589-.74288-.71382-.42004-1.17042-.78121-2.34847-.64717-3.61004Z"/>
  <path class="p" d="m93.54215,207.03886c.00086.393.2239.87079-.39206,1.02833-.02775-.40318.14712-.7291.39206-1.02833Z"/>
  <path class="b" d="m102.45941,196.99807c-.11711.24132-.33282.2544-.56033.2418.14233-.18263.34097-.23625.56033-.2418Z"/>
  <path class="b" d="m102.94111,196.76667c-.10426.20623-.29094.24277-.49627.24106.10921-.19605.29828-.22774.49627-.24106Z"/>
  <path class="b" d="m101.74458,197.25486c-.0864.07829-.17281.15659-.25922.23495.08642-.07827.17282-.1566.25922-.23495Z"/>
  <path class="g" d="m96.73803,117.45827c.10183-.01917.20366-.03835.30572-.05771-.10175.01911-.20374.0384-.30572.05771Z"/>
  <path class="c" d="m17.69082,333.63347c-1.96421,1.47475-3.93633,2.25333-5.79768,3.22626-.36275.18959-.62005.01848-.77489-.31156-.73772-1.57238-1.46674-3.1488-2.27333-4.884,2.97621.66256,5.76073,1.28246,8.8459,1.96931Z"/>
  <path class="c" d="m12.9487,345.31063c.08128-.06401.16254-.12798.24381-.19199.02985.04341.05971.08683.08957.13024-.10238.02921-.20476.05841-.30714.08762,0,0-.02624-.0259-.02624-.02587Z"/>
  <path class="c" d="m12.20229,345.75765c.15513-.08349.31026-.16697.46593-.24993.02891.02967.05772.05835.08697.08659-.14577.10238-.29154.20476-.43651.30808-.03671-.04886-.07578-.0974-.11639-.14474Z"/>
  <path class="c" d="m12.97494,345.3365c-.07345.08574-.14691.17145-.22006.25752-.02894-.02795-.05775-.05662-.08666-.0863.09319-.066.18694-.13147.28058-.19703-.0001-.00009.02614.02581.02614.02581Z"/>
  <polygon class="c" points="15.66093 339.43251 15.72728 339.41531 15.72039 339.46649 15.66093 339.43251"/>
  <path class="c" d="m28.34911,343.38079c-.04121.13739-.00933.34074-.26053.28863-.00242-.17679.11386-.24642.26053-.28863Z"/>
  <path class="c" d="m17.18708,346.91292c.09162-.07048.18325-.14093.27489-.21138.02899.03014.05867.05961.08906.08835-.07716.08302-.15432.16606-.23126.24929-.04407-.04198-.08837-.08413-.13268-.12625Z"/>
  <path class="c" d="m15.09835,339.77943c.0398-.05129.0796-.10256.1194-.15385.17403.16249-.02292.14023-.09065.18235.00012.00012-.02875-.0285-.02875-.0285Z"/>
  <path class="c" d="m17.46197,346.70154c.06222-.09099.12317-.2004.23045-.05062.00581.00811-.09222.09063-.14165.13873-.03014-.0285-.05982-.05797-.0888-.08811Z"/>
  <path class="l" d="m93.98836,404.6052c-.46756-2.95728-.93511-5.91457-1.40267-8.87185,8.43906-3.98314,16.8784-7.96569,25.31707-11.94968,4.39997-2.07728,8.79927-4.15597,13.1979-6.23612,9.04995-4.27976,18.09732-8.56494,27.14965-12.83967,3.74989-1.77076,7.51207-3.51553,11.26143-5.28748.38643-.18264.83974-.28749,1.09625-.68866,2.76254-.93941,5.30587-2.36664,7.93887-3.59143,6.04084-2.81011,12.05695-5.67339,18.08155-8.51837.21258-.10042.40866-.23578.61246-.3548,1.33869-.60705,2.67519-1.21899,4.01637-1.82047,7.11854-3.1923,13.96705-6.98919,21.36111-9.56426,6.4723-2.25401,13.08908-3.78365,19.97857-3.91465-.1208.80765.59733.96703,1.04619,1.29535,3.21595,2.35264,5.80479,5.1948,7.24002,8.98636,1.47986,3.90938.88765,7.66294-.773,11.3496-2.26092,5.01936-5.99571,8.76165-10.39276,11.91016-5.24988,3.75913-11.0443,6.51549-16.93773,9.07767-7.63624,3.31991-15.43739,6.22724-23.23317,9.13836-8.17459,3.05263-16.44398,5.84125-24.77556,8.44259-7.97576,2.49029-15.99988,4.80716-24.06414,6.99543-8.74936,2.37423-17.54335,4.56839-26.33868,6.76018-5.16158,1.28627-10.36865,2.40592-15.65193,2.97252-4.92521.52822-9.71259-.14395-13.96657-3.00163-.2387-.16035-.46059-.3149-.7612-.28915Z"/>
  <path class="n" d="m128.84208,358.84341c-.28007.19205-.40138.3275.02904.52921,2.23965,1.04973,4.46214,2.13607,6.70012,3.1894,1.5501.72952,3.11786,1.42149,4.6732,2.14003.68768.31769.70537.61434.04564,1.07138-3.98305,2.75941-8.26447,4.96083-12.69674,6.88784-4.05413,1.76258-8.13041,3.47627-12.15696,5.29979-5.70087,2.5818-11.41646,5.12997-17.64962,6.1299-3.80902.611-7.63657.66742-11.49943.16984-3.90151-.50259-7.64234-1.48837-11.26756-2.94996-2.70536-1.09077-5.23571-2.55131-7.78964-3.94787-3.98326-2.17814-7.98575-4.3329-11.71319-6.94104-4.10844-2.87465-7.89929-6.09332-10.36703-10.56269-1.92798-3.49183-2.73345-7.20758-2.26305-11.24942.59357-5.10009,2.54658-9.5787,5.60523-13.62373.74171-.98092,1.61121-1.8654,2.42559-2.79099.2848-.32369.69364-.5668.67549-1.07908.31269-.05182.62403-.13777.9383-.1503,4.77239-.19079,9.4783.31959,14.14565,1.30429,7.50335,1.58307,14.50776,4.50189,21.37433,7.82886,4.36715,2.11589,8.79325,4.1101,13.19291,6.15887,4.08745,1.95557,8.16976,3.922,12.26378,5.86371,4.27513,2.0276,8.56693,4.02014,12.83829,6.05564.80206.38228,1.59769.69018,2.49566.66631Z"/>
  <path class="e" d="m141.93694,195.56554c.41888-.94842,1.28568-1.50457,1.97271-2.21103,1.503-1.54556,3.06102-3.0375,4.5859-4.56202.4079-.40782.81442-.70064,1.31689-.17969,2.18774,2.2682,4.58723,4.32681,6.64839,6.71999-.6691,2.80705-1.4535,5.56869-3.21121,7.93332-.24246.32617-.20639.68081-.18416,1.03365.43435,6.89696.86996,13.79389,1.31527,20.69015.35778,5.54077.73296,11.08041,1.09292,16.62103.55939,8.6102,1.1104,17.22093,1.66871,25.83119.61773,9.52644,1.24493,19.05224,1.85802,28.579.44131,6.85705.86597,13.71516,1.29862,20.57277.16851,2.67088.33354,5.34197.51242,8.01218.03307.49345-.01383.92186-.34179,1.34088-3.89267,4.97302-7.76953,9.9584-11.65346,14.93825-.09241.11849-.21854.21065-.39019.37308-2.73407-4.01167-5.43086-7.96859-8.12752-11.9256-.33745-.4952-.61445-1.04777-1.02196-1.47624-1.49726-1.57426-1.67771-3.41452-1.5315-5.501.87122-12.43246,1.6462-24.87163,2.45153-37.30869.63495-9.80575,1.26571-19.61183,1.90081-29.41758.8055-12.43688,1.61257-24.87364,2.42088-37.31033.29792-4.58359.59179-9.16749.91233-13.74952.04978-.71162-.07658-1.29327-.52647-1.87697-1.62166-2.10403-2.39584-4.57675-2.96714-7.1268Z"/>
  <path class="e" d="m172.79897,232.77267c.00269-2.19854.01927-4.3972-.00023-6.59555-.00598-.67306.16724-1.04952.9309-1.05241,6.94154-.02626,13.69612.8644,20.00099,4.00751,1.21851.60744,2.35544,1.34585,3.46161,2.13799.45143.3233.58233.66928.43348,1.22326-.71418,2.65791-1.40004,5.32357-2.0719,7.99255-.13191.52401-.40195.69242-.92633.69148-6.99499-.01252-13.99006-.01614-20.98504.00233-.74643.00196-.84408-.37607-.84115-.97525.01169-2.39835.00094-4.79681-.00177-7.19492.43379.02579.87092.02692,1.30138.08105,1.70053.21383,3.39999.20889,5.08037-.11695.4538-.08801,1.23565-.03796.98742-.94601.53132.06783,1.11584.39181,1.39934-.43887.12937-.37901.43811-.25128.66153-.02757.36626.36675.78419.70393,1.06325,1.13024.36837.56274,1.07186.67126,1.33642.39682.7694-.79813,1.4146-.2923,2.15046-.08508.5304.14934,1.10714.12475,1.65608.21922,2.03457.35009,3.46789-1.66392,5.48095-1.3814.00795-.06686.01589-.13372.0239-.20111-.6451-.22572-1.3726.13126-2.11531-.28666,1.05181-.7901,2.33219.06065,3.36512-.67464-.70241-.17469-3.49547-.23908-3.85695-.1784-.314.05273-.50534.67614-.75285.36826-.59208-.73649-1.32856-.34121-1.979-.36205-.66042-.02116-1.51727.51463-1.95522.25179-.99737-.59858-1.38637-.14017-1.75459.59964-.41115.826-.7524.70177-1.35044.12215-1.62538-1.57527-2.33452-1.42754-3.35362.5644-1.22785-.25936-2.45572-.51873-3.80874-.80453,1.18531-.60996,2.39878-.08609,3.45193-.57682-1.50166-.27007-2.98854-.21989-4.46705.02781-.3336.05589-.84605.08412-.87606.4871-.03966.53232.54355.4844.88513.58834.89627.27272,1.88857.19959,2.95271.7135-1.4191.36875-2.60657.24605-3.7936.11918-.5906-.06314-1.18598-.19035-1.7331.17359Z"/>
  <path class="c" d="m172.79896,232.77267c.54714-.36394,1.14251-.23673,1.73312-.17359,1.18702.12687,2.3745.24956,3.7936-.11918-1.06414-.51391-2.05644-.44078-2.95271-.7135-.34158-.10395-.92479-.05602-.88513-.58834.03001-.40299.54246-.43121.87606-.4871,1.47852-.2477,2.96539-.29788,4.46705-.02781-1.05315.49072-2.26662-.03315-3.45193.57682,1.35302.2858,2.58089.54516,3.80874.80453l-.01983-.01722c.24899.90855-.53286.8585-.98665.94651-1.68038.32584-3.37984.33078-5.08037.11695-.43045-.05413-.86758-.05526-1.30138-.08105.00577-.07922.00549-.15813-.00057-.237Z"/>
  <path class="o" d="m141.31145,118.20221c-6.83018-.26274-11.94562,3.43429-16.92915,7.38589-1.31054,1.03915-2.51607,2.22181-3.69161,3.41561-.59805.60735-1.04833.63821-1.7353.17519-2.66904-1.79895-4.91685-4.07179-7.07108-6.41518-2.391-2.60097-4.55629-5.4049-6.80355-8.1343-1.46605-1.78056-1.62663-3.92697-2.12782-5.985-1.02571-4.21192-1.28111-8.50034-1.15989-12.8252.10742-3.8325-.11133-7.66865.13169-11.50187.36589-5.7712,2.29243-10.96526,5.81374-15.53145,4.40968-5.71816,10.38192-9.05662,17.22611-10.96376,4.50614-1.25564,9.08967-1.9611,13.79318-1.95788,1.33196.00091,2.68833-.18755,4.03863-.18929,3.7721-.00485,7.54995-.13694,11.3151.02435,8.20669.35156,16.30488,1.43702,23.98968,4.54413,5.63413,2.27799,10.7518,5.37801,14.47763,10.31273,3.26844,4.32893,5.16734,9.21867,5.47655,14.69413.38366,6.79377-.96826,13.34902-2.56997,19.88186-.82589,3.36854-1.72106,6.71558-2.65205,10.05726-1.11432,3.99981-3.54969,6.8698-6.88219,9.17415-2.77894,1.92157-5.67529,3.55399-8.91657,4.56753-1.05783.33077-1.82344.1298-2.58506-.63824-2.5582-2.57982-5.12942-5.14288-8.02497-7.36356-2.45648-1.88396-5.12803-2.98993-8.26996-2.74592-.45506-1.52159-1.63805-.85972-2.45249-.6576-1.89872.47121-3.757.7879-5.73738.56646-2.92642-.32723-6.33941-2.79955-6.80726-5.82483-.21592-1.39614.04933-2.67886.2012-4.0096.20677-1.81177.87699-3.55002.8538-5.39766-.00445-.35535.05964-.75211-.30656-.97578-1.00001-.61075-1.98937-.29866-2.97491.06643-.83743.31022-1.31141.86422-1.27721,1.79911.07926,2.16617-.61483,4.23167-.8556,6.35954-.25525,2.25574.00946,4.35474,1.12466,6.33928.37124.66062,1.19647.95537,1.38862,1.75346Zm-19.63696-3.4638c3.46455-.10154,6.67197-.77366,9.36302-2.94218,2.13387-1.71951,2.95678-4.46294,1.06485-6.96-1.20063-1.58465-2.8395-2.41937-4.5881-3.07353-2.97295-1.1122-6.06806-1.25558-9.16792-.68634-2.67096.49049-5.12417,1.47986-6.96786,3.6226-.93952,1.0919-1.22003,2.29804-1.07213,3.73034.19131,1.85292,1.43416,2.90645,2.74244,3.86749,2.58013,1.89535,5.61867,2.29759,8.62571,2.44161Zm54.05209-.03211c4.45656,0,7.64151-.8312,9.82445-2.4446,3.12815-2.31202,3.89492-5.58.72943-8.40346-2.05137-1.82974-4.5162-2.52893-7.18271-2.88006-4.24905-.55953-8.14698.17203-11.65092,2.71033-2.7319,1.97902-2.71199,6.10389-.01161,8.12279,2.76577,2.06778,5.9107,2.82842,8.29136,2.89501Zm-49.07019-38.15243c-1.05985-.07509-2.29023.06261-3.5155.24302-3.33882.49159-6.42711,1.5962-9.0126,3.84041-1.36481,1.18465-1.58512,2.37802-.78935,3.69899.62753,1.04169,1.56134,1.16494,3.30166.45411,4.57567-1.86887,9.33602-2.31666,14.21495-1.82848.7532.07536,1.50274.18691,2.25578.26426,1.35496.13913,2.48383-.70295,2.68535-1.98901.29267-1.86767-.67375-3.5826-2.31354-3.94109-2.18467-.47761-4.39625-.78936-6.82674-.74221Zm45.06804-.01224c-2.29238-.04064-4.5462.27146-6.76989.76715-1.63591.36467-2.60823,2.22545-2.24068,4.10427.27574,1.40952,1.40977,1.93723,3.29678,1.68845,3.3404-.44039,6.68288-.45288,10.02602.06892,2.18507.34106,4.26579.99245,6.31663,1.79777,1.53643.60333,2.45448.25492,2.98755-.99696.59573-1.39901.21872-2.46195-1.36837-3.67824-3.61495-2.77036-7.79116-3.72621-12.24805-3.75135Zm-44.36424,12.92206c-.96845-.02978-1.9189.06476-2.85182.30771-2.5173.65553-4.60409,1.97904-6.17187,4.06585-.58381.77709-.56028,1.60216.21999,2.22899.78227.62844,1.55891.46446,2.21754-.27638.15901-.17885.30949-.3656.47366-.53949,3.47257-3.67843,9.01771-3.57816,12.36465.22223.93548,1.06222,1.75645,1.24289,2.53733.55839.79463-.69657.75014-1.55611-.16619-2.61608-2.27283-2.62912-5.15748-3.93079-8.62331-3.95122Zm44.33851-.00885c-4.08689-.00352-7.0541,1.38429-9.36016,4.16408-.77066.92898-.74028,1.78728.01355,2.43064.73962.63124,1.61131.4844,2.39329-.40316,3.60147-4.08778,9.14446-4.14155,12.75331-.12372.89254.99368,1.69267,1.17316,2.46186.55219.74456-.60108.72253-1.68189-.11041-2.64451-2.26968-2.62299-5.14658-3.94732-8.15143-3.97551Z"/>
  <path class="o" d="m149.80472,128.40493c7.36899.00577,14.30441,1.7182,20.78935,5.23861.46196.25078.67908.41418.55417,1.04255-.76531,3.84972-1.78006,7.59163-4.23473,10.76691-1.82392,2.35936-4.27899,2.9517-7.00384,1.80979-1.65453-.69337-3.33034-1.3471-5.03011-1.91901-3.32155-1.11763-6.57905-1.0028-9.7424.64032-1.52613.79271-3.11907,1.4588-4.86227,1.57897-4.03535.2782-6.52962-1.9639-8.39007-5.20838-1.38284-2.41156-2.03019-5.07933-2.71331-7.73751-.14183-.55198.08196-.80363.52717-1.03012,3.94538-2.00709,8.01281-3.58592,12.42762-4.31657,2.55567-.42298,5.08399-.87895,7.67841-.86558Zm15.91782,7.26668c.04757,1.05272.31528,1.78321,1.31117,1.68835.94024-.08955,1.16047-.85937,1.20531-1.67045.04602-.83225-.27935-1.51463-1.01372-1.89572-.85553-.44396-1.76291-.79445-2.71741-.21863-.78585.47407-1.54895.98883-2.35272,1.42981-9.66652,5.30338-19.11046,5.68847-28.20278-1.31693-.82849-.63835-1.66459-.40927-2.48244-.0499-.85377.37516-1.25959,1.07545-1.20725,2.01478.04436.79589.19773,1.58203,1.15496,1.70423.96118.12271,1.28133-.55843,1.37047-1.38298,11.00734,7.72978,21.92961,6.59775,32.93439-.30256Zm-16.55772,8.79292c-.00001.00236-.00001.00473-.00003.00709,1.07607,0,2.15215.00187,3.22821-.00063.81972-.00192,1.30757-.42279,1.28686-1.23385-.01924-.75382-.5194-1.13481-1.26864-1.13727-2.15273-.00712-4.30551-.00584-6.45827-.00127-.78793.00167-1.35709.37179-1.3592,1.18101-.00209.80084.52979,1.19324,1.34215,1.18697,1.07626-.0083,2.1526-.00204,3.22892-.00204Z"/>
  <path class="h" d="m141.31145,118.20221c-.19215-.79808-1.01738-1.09283-1.38862-1.75346-1.1152-1.98454-1.37991-4.08354-1.12466-6.33928.24078-2.12787.93487-4.19337.8556-6.35954-.0342-.93489.43978-1.48889,1.27721-1.79911.98554-.36509,1.9749-.67718,2.97491-.06643.3662.22366.30211.62043.30656.97578.02318,1.84764-.64703,3.58589-.8538,5.39766-.15188,1.33074-.41713,2.61346-.2012,4.0096.46786,3.02528,3.88084,5.4976,6.80726,5.82483,1.98038.22144,3.83866-.09525,5.73738-.56646.81443-.20212,1.99743-.86399,2.45249.6576-2.17179.23359-3.80077,1.53352-5.45766,2.7796-1.71295-.00081-3.42545-.00159-5.13793-.00237-1.84063-1.4674-3.81685-2.62763-6.24755-2.75842Z"/>
  <path class="o" d="m147.559,120.96063c1.71248.00078,3.42498.00157,5.13793.00237-.92778.95854-1.76859,1.98575-2.38856,3.17326-.27411.52505-.43665.39357-.69447-.01815-.66638-1.06413-1.3676-2.10645-2.0549-3.15749Z"/>
  <path class="o" d="m152.13585,185.97134c-.68911.79609-1.69921,1.12481-2.51798,1.73147-.31972.23692-.59391.11269-.86854-.06916-.95304-.6312-1.90444-1.26484-2.85649-1.89755,2.07413.26043,4.15687.29289,6.24301.23524Z"/>
  <path class="o" d="m152.37893,185.79674c-.08543.06018-.17086.12037-.25633.18055.08541-.06018.17087-.12037.25633-.18055Z"/>
  <path class="c" d="m282.85721,333.67721c3.12206-.67738,5.84933-1.26908,8.86164-1.92264-.87048,1.87202-1.60649,3.44672-2.33309,5.02572-.12004.26095-.27086.38445-.54755.23581-1.90087-1.02117-3.9305-1.81973-5.981-3.33889Z"/>
  <path class="c" d="m282.94845,346.71715c.20938-.02431.36699.06023.48439.22975-.04657.05434-.09268.10953-.13899.16603-.13395-.11337-.26702-.22746-.39997-.34168.00009-.00009.05457-.0541.05457-.0541Z"/>
  <path class="c" d="m287.5915,345.49647c-.01977-.02165-.04004-.04385-.06031-.06606.0239-.01822.04871-.0517.07147-.05036.02279.00135.0435.03755.06509.0585-.02396.01819-.04792.03641-.07625.05791Z"/>
  <path class="c" d="m288.12118,345.86407c-.03799-.06943-.07601-.13885-.11403-.20828.07639.03146.15281.06292.22921.09438-.03831.03805-.07671.07602-.11517.11389Z"/>
  <path class="c" d="m288.23635,345.75018c.09294.06673.18591.13346.2795.19943-.04763.04775-.09625.09582-.14558.14383-.08281-.07663-.16535-.15359-.24848-.22995.03784-.03729.07625-.07525.11456-.11331Z"/>
  <path class="c" d="m282.66936,346.51673c-.04974-.03433-.09944-.06869-.14918-.10302.15601-.10915.13881.01473.1447.10757l.00448-.00454Z"/>
  <path class="c" d="m282.66488,346.52127c.09394.06585.1879.13173.28272.19673.00085-.00085-.05363.05317-.05372.05326-.07493-.08475-.14974-.16964-.22455-.2545.00003-.00003-.00445.00451-.00445.00451Z"/>
  <polygon class="c" points="285.13573 339.67265 285.22414 339.64963 285.21558 339.71695 285.13573 339.67265"/>
  <path class="c" d="m285.74746,339.9302c-.02689.01802-.0558.05273-.08111.05027-.02545-.00246-.04731-.04189-.07071-.06515.02733-.01845.05639-.05334.08155-.05077.02528.00261.04669.04253.07027.06565Z"/>
  <path class="h" d="m209.21873,104.65524c.21021-1.35104-.23468-2.5715-1.10424-3.62234-.50589-.61135-1.13197-1.09059-1.8839-.23553-.37105.42193-.86479.73944-1.32651.23832-.40947-.44441-.32998-1.03987.01621-1.5463,1.08194-1.58278,3.9557-1.46945,5.19679.19014,1.31343,1.75631,1.70807,3.78043,1.49334,5.88249-.20889,2.0449-.50541,4.08724-1.77074,5.86237-1.25568,1.76159-3.03881,1.68023-4.83441,1.58536-1.34048-.07081-1.8322-1.15975-2.2591-2.20155-.67839-1.65541-.67739-3.3454.03048-4.99206.66149-1.53874,2.24928-2.29902,3.57803-1.78375,1.36158.52799,2.02895,2.10003,1.56948,3.69932-.04401.1532-.14247.30779-.13232.45602.02289.33395-.8143.63551-.11365.9377.51008.22002.73589-.22628.89529-.69493.41269-1.21336.79687-2.42411.64526-3.77526Z"/>
  <path class="h" d="m89.27786,104.77644c-.13405,1.26157.22713,2.43962.64717,3.61004.13563.37793.21509.89395.74288.71382.53071-.18111.13212-.60775.04657-.91006-.14169-.50073-.27134-.99002-.26258-1.52282.02377-1.44555.65768-2.38362,1.88247-2.70774,1.06826-.28271,2.48329.31016,3.12301,1.30848,1.18332,1.84662.97342,5.20449-.43157,6.90404-.76311.9231-3.16362,1.21246-4.60009.6072-2.16807-.91353-2.78871-2.88047-3.19631-4.87731-.43671-2.13947-.71466-4.32029.15599-6.4703.90218-2.22782,2.21313-3.19198,4.3235-3.04304,1.00929.07123,1.98967.91212,2.09728,1.82039.04264.36001.05943.74538-.32905.95115-.35482.18795-.67169.08515-.99535-.14951-1.22885-.8909-1.48617-.80172-2.40026.46822-.7239,1.00572-.90184,2.10579-.80364,3.29745Z"/>
  <path class="c" d="m180.18776,232.04448c1.01911-1.99194,1.72824-2.13966,3.35362-.5644.59804.57961.93929.70385,1.35044-.12215.36822-.7398.75721-1.19822,1.75459-.59964.43795.26283,1.2948-.27296,1.95522-.25179.65045.02084,1.38692-.37444,1.979.36205.24751.30787.43884-.31553.75285-.36826.36149-.06068,3.15454.00371,3.85695.1784-1.03293.73529-2.31331-.11546-3.36512.67464.74271.41793,1.47021.06094,2.11531.28666-.00801.06739-.01595.13425-.0239.20111-2.01306-.28252-3.44638,1.73149-5.48095,1.3814-.54894-.09447-1.12569-.06988-1.65608-.21922-.73586-.20722-1.38106-.71304-2.15046.08508-.26456.27444-.96805.16592-1.33642-.39682-.27906-.42631-.69699-.76349-1.06325-1.13024-.22342-.22371-.53217-.35145-.66153.02757-.2835.83069-.86802.5067-1.39934.43887-.00076-.0005.01907.01673.01907.01673Zm10.47652-1.11438c-1.19796.14475-2.3241-.10302-3.3734.39466-.29252.13875-.59435.31717-.55422.69211.03404.31802.34376.40653.60332.50386,1.68091.63038,2.60782.22464,3.3243-1.59063Z"/>
  <path class="m" d="m121.6745,114.73841c-3.00704-.14402-6.04558-.54626-8.62571-2.44161-1.30827-.96105-2.55113-2.01457-2.74244-3.86749-.14789-1.4323.13262-2.63844,1.07213-3.73034,1.84369-2.14274,4.2969-3.13211,6.96786-3.6226,3.09986-.56924,6.19497-.42587,9.16792.68634,1.7486.65416,3.38747,1.48888,4.5881,3.07353,1.89194,2.49706,1.06902,5.24049-1.06485,6.96-2.69105,2.16852-5.89847,2.84064-9.36302,2.94218Z"/>
  <path class="m" d="m175.72658,114.70631c-2.38066-.06658-5.52559-.82723-8.29136-2.89501-2.70038-2.0189-2.72028-6.14377.01161-8.12279,3.50393-2.53829,7.40187-3.26986,11.65092-2.71033,2.6665.35113,5.13134,1.05032,7.18271,2.88006,3.16548,2.82346,2.39872,6.09145-.72943,8.40346-2.18293,1.6134-5.36788,2.44461-9.82445,2.4446Z"/>
  <path class="k" d="m126.65639,76.55388c2.43049-.04715,4.64207.26461,6.82674.74221,1.63979.35849,2.60621,2.07341,2.31354,3.94109-.20153,1.28606-1.33039,2.12814-2.68535,1.98901-.75304-.07734-1.50258-.1889-2.25578-.26426-4.87893-.48818-9.63928-.0404-14.21495,1.82848-1.74032.71083-2.67414.58758-3.30166-.45411-.79576-1.32097-.57546-2.51434.78935-3.69899,2.58549-2.24421,5.67379-3.34883,9.0126-3.84041,1.22528-.1804,2.45565-.31811,3.5155-.24302Z"/>
  <path class="k" d="m171.72443,76.54164c4.45689.02513,8.6331.98099,12.24805,3.75135,1.58708,1.21629,1.9641,2.27924,1.36837,3.67824-.53308,1.25188-1.45113,1.60029-2.98755.99696-2.05084-.80533-4.13156-1.45672-6.31663-1.79777-3.34314-.5218-6.68562-.50931-10.02602-.06892-1.88701.24878-3.02105-.27893-3.29678-1.68845-.36755-1.87881.60477-3.7396,2.24068-4.10427,2.22369-.49569,4.47751-.80779,6.76989-.76715Z"/>
  <path class="d" d="m127.36019,89.4637c3.46582.02043,6.35048,1.32211,8.62331,3.95122.91632,1.05997.96082,1.91951.16619,2.61608-.78088.6845-1.60185.50383-2.53733-.55839-3.34695-3.80038-8.89208-3.90065-12.36465-.22223-.16417.17389-.31466.36064-.47366.53949-.65863.74084-1.43527.90481-2.21754.27638-.78027-.62683-.80379-1.4519-.21999-2.22899,1.56777-2.08681,3.65456-3.41031,6.17187-4.06585.93292-.24295,1.88337-.3375,2.85182-.30771Z"/>
  <path class="d" d="m171.6987,89.45484c3.00485.02819,5.88176,1.35253,8.15143,3.97551.83295.96262.85497,2.04343.11041,2.64451-.76919.62097-1.56932.44148-2.46186-.55219-3.60886-4.01783-9.15184-3.96406-12.75331.12372-.78198.88757-1.65366,1.03441-2.39329.40316-.75383-.64336-.78421-1.50166-.01355-2.43064,2.30606-2.77979,5.27327-4.16759,9.36016-4.16408Z"/>
  <path class="d" d="m165.72254,135.67161c-11.00477,6.9003-21.92705,8.03233-32.93439.30256-.08915.82455-.40929,1.50569-1.37047,1.38298-.95723-.1222-1.1106-.90834-1.15496-1.70423-.05234-.93934.35347-1.63962,1.20725-2.01478.81785-.35937,1.65394-.58845,2.48244.0499,9.09232,7.00539,18.53626,6.6203,28.20278,1.31693.80377-.44098,1.56687-.95574,2.35272-1.42981.95451-.57582,1.86188-.22532,2.71741.21863.73437.38109,1.05974,1.06347,1.01372,1.89572-.04485.81109-.26507,1.58091-1.20531,1.67045-.9959.09485-1.2636-.63564-1.31117-1.68835Z"/>
  <path class="d" d="m149.16482,144.46453c-1.07631,0-2.15266-.00627-3.22892.00204-.81235.00627-1.34424-.38613-1.34215-1.18697.00211-.80921.57127-1.17934,1.3592-1.18101,2.15276-.00457,4.30554-.00584,6.45827.00127.74925.00246,1.2494.38345,1.26864,1.13727.02071.81106-.46714,1.23193-1.28686,1.23385-1.07607.0025-2.15215.00063-3.22821.00063.00001-.00236.00001-.00473.00003-.00709Z"/>
  <path class="e" d="m190.66428,230.9301c-.71648,1.81527-1.6434,2.22101-3.3243,1.59063-.25955-.09733-.56928-.18584-.60332-.50386-.04013-.37494.2617-.55337.55422-.69211,1.04929-.49768,2.17543-.2499,3.3734-.39466Z"/>
</svg>