<?xml version="1.0" encoding="UTF-8"?><svg id="a" xmlns="http://www.w3.org/2000/svg" viewBox="0 0 300.61 431.01"><defs><style>.b{fill:#98cdcf;}.b,.c,.d,.e,.f,.g,.h,.i,.j,.k,.l,.m,.n,.o,.p{stroke-width:0px;}.c{fill:#fefefe;}.d{fill:#441e1d;}.e{fill:#bd234b;}.f{fill:#cce6f0;}.g{fill:#f8ac80;}.h{fill:#d98c6d;}.i{fill:#1e2a44;}.j{fill:#182135;}.k{fill:#ac2d18;}.l{fill:#243352;}.m{fill:#f58c7c;}.n{fill:#1c2740;}.o{fill:#f79c76;}.p{fill:#a5e0e2;}</style></defs><path class="g" d="m0,350.12c4.64-3.12,9.28-6.25,13.91-9.38.42-.28.92-.47,1.21-.93.07-.04.26-.02.09-.18-.04.05-.08.1-.12.15-1.67.29-3.12,1.18-4.67,1.78-.67.26-1.01.18-1.27-.51-1.01-2.69-2.08-5.35-3.08-8.04-.63-1.69-.3-2.33,1.41-3.01.15-.06.36-.08.42-.19.94-1.8,2.56-1.26,4.03-1.16,2.38.17,4.76.38,7.15.58,1.36.11,2.7.38,3.95.88.87.35,1.52.22,2.14-.42,3.02,2.49,5.01,5.65,6.07,9.41-.97,1.43-1.93,2.86-2.9,4.28-.15.04-.26.11-.26.29,0,0,.05,0,.05,0-1.61,1.15-3.23,2.29-4.84,3.44-3.03,2.14-6.06,4.26-9.08,6.41-.64.45-1.27.61-1.79-.05-.5-.64-.08-1.16.39-1.66,1.51-1.58,3.21-2.98,4.51-4.75.08-.08.15-.17.23-.25.05-.05.15-.13.14-.14-.11-.15-.17-.04-.23.05-.09.07-.18.14-.27.21-2.45,1.58-4.89,3.16-7.34,4.73-.94.6-1.89,1.19-2.87,1.73-.63.34-1.39.72-1.9-.14-.49-.82-.12-1.53.59-2.07,2.09-1.61,4.18-3.21,6.26-4.82.15-.12.27-.29.4-.43.14-.1.29-.21.44-.31.07-.09.15-.17.22-.26.1-.03.2-.06.31-.09-.03-.04-.06-.09-.09-.13-.08.06-.16.13-.24.19-.09.07-.19.13-.28.2-.16.08-.31.17-.47.25-3.05,1.7-6.04,3.5-8.97,5.41-1.07.69-2.1,1.14-3.23.15,0-.4,0-.8,0-1.2Zm17.69-16.48c-3.09-.69-5.87-1.31-8.85-1.97.81,1.74,1.54,3.31,2.27,4.88.15.33.41.5.77.31,1.86-.97,3.83-1.75,5.8-3.23Zm-2.03,5.8l.06.03v-.05s-.06.02-.06.02Z"/><path class="g" d="m137.91.49c-.3-.02-.28-.32-.41-.49,1.44,0,2.88,0,4.32,0,0,.08-.01.15-.02.23-1.29.22-2.63-.32-3.89.26Z"/><path class="p" d="m102.12,196.77c2.56-1.1,5.26-1.67,7.98-2.27,3.93-.86,7.84-1.87,11.76-2.81.42.03.74.21,1.09.45,3.9,2.69,7.84,5.32,11.7,8.06,1.07.76,1.67.59,2.53-.27,1.49-1.5,2.86-3.14,4.63-4.36.58,2.55,1.37,5.02,3.02,7.13.46.58.59,1.17.54,1.88-.33,4.58-.63,9.17-.93,13.75-.82,12.44-1.64,24.87-2.46,37.31-.65,9.81-1.29,19.61-1.93,29.42-.82,12.44-1.61,24.88-2.49,37.31-.15,2.09.03,3.93,1.56,5.5.41.43.7.98,1.04,1.48,2.74,3.96,5.49,7.91,8.27,11.93.17-.16.3-.25.4-.37,3.95-4.98,7.9-9.97,11.86-14.94.33-.42.38-.85.35-1.34-.18-2.67-.35-5.34-.52-8.01-.44-6.86-.87-13.72-1.32-20.57-.62-9.53-1.26-19.05-1.89-28.58-.57-8.61-1.13-17.22-1.7-25.83-.37-5.54-.75-11.08-1.11-16.62-.45-6.9-.9-13.79-1.34-20.69-.02-.35-.06-.71.19-1.03,1.79-2.36,2.59-5.13,3.27-7.93,1.71,1.64,3.44,3.26,5.11,4.94.61.61,1.1.65,1.78.17,1.37-.98,2.75-1.95,4.16-2.87,3.02-1.98,5.87-4.22,8.98-6.07,4.81,1.27,9.61,2.56,14.49,3.6,1.45.31,2.87.78,4.31,1.17.13.29.42.36.67.49,5.64,3.02,8.66,7.62,8.3,13.98-.13,2.25-.22,4.53-.35,6.78-.29,5.52-.53,11.04-.78,16.56-.14,3.14-.33,6.27-.48,9.41-.16,3.61-.33,7.23-.49,10.85-.15,3.46-.38,6.91-.48,10.37-.13,4.38-.48,8.74-.54,13.12-.07.55-.19,1.1-.2,1.66-.14,5.46-.46,10.91-.73,16.37-.16,3.34-.34,6.69-.47,10.03-.22,5.46-.49,10.91-.75,16.37-.16,3.34-.3,6.69-.48,10.03-.25,4.66-.37,9.33-.54,13.99-.21.12-.41.25-.62.35-6.13,2.84-12.25,5.71-18.4,8.52-2.68,1.22-5.27,2.65-8.08,3.59-12.55,0-25.09.01-37.64.03-1.62,0-3.24.05-4.87.08-.91.02-1.72-.28-2.54-.67-4.35-2.04-8.71-4.03-13.06-6.06-4.17-1.94-8.32-3.91-12.48-5.86-.15-2.78-.37-5.56-.44-8.35-.1-3.51-.33-7-.47-10.51-.22-5.41-.49-10.83-.74-16.24-.16-3.46-.3-6.92-.49-10.39-.26-4.74-.32-9.48-.58-14.22-.08-1.44,0-2.92-.43-4.34.07-.27.26-.56.2-.79-.54-2.08-.19-4.21-.37-6.31-.3-3.56-.38-7.15-.53-10.73-.15-3.58-.31-7.16-.49-10.73-.17-3.5-.34-7-.49-10.49-.15-3.62-.31-7.24-.49-10.85-.17-3.5-.37-7-.48-10.49-.09-3.07-.46-6.13-.3-9.2.01-.24,0-.48-.04-.72-.73-5.42,1.03-9.86,5.36-13.32.38-.31.97-.47,1.03-1.1,0,0,0,.01,0,.01.09-.08.18-.16.26-.23.05-.02.1-.03.16-.01.23.01.45,0,.57-.24,0,0-.01,0-.01,0,.21,0,.4-.03.51-.24Zm71.09,36.24c0,2.4.01,4.8,0,7.2,0,.6.1.98.86.98,7.12-.02,14.24-.01,21.36,0,.53,0,.81-.17.94-.69.68-2.67,1.38-5.33,2.11-7.99.15-.55.02-.9-.44-1.22-1.13-.79-2.28-1.53-3.52-2.14-6.42-3.14-13.29-4.03-20.35-4.01-.78,0-.95.38-.95,1.05.02,2.2,0,4.4,0,6.6,0,.08,0,.16,0,.24Z"/><path class="k" d="m137.91.49c1.26-.58,2.6-.05,3.89-.26,6.17.53,11.98,2.1,17.01,5.9,3.77,2.84,6.28,6.63,7.93,11,.28.73.46,1,1.29.68,2.81-1.09,5.52-2.26,7.71-4.48,2.29-2.32,2.72-5.38.92-8.33,1.64.34,3.1.9,4.55,1.5,4.18,1.71,8.1,3.8,11.31,7.11,3.5,3.6,4.34,8.26,2.19,12.8-.32.67-.02.74.44,1.03,4.46,2.77,8.74,5.8,11.12,10.67,1.68,3.46,2.5,7.2,3.02,11.04.64,4.67.83,9.35.61,14.04-.19,4.03-.66,8.03-1.12,12.04-.4,3.54-.64,7.09-.98,10.64-.29,2.99-.63,5.97-.95,8.95.04.85-.48.91-1.16.92-1.67.03-3.32,1.19-3.64,2.59-.3,1.32-.68,2.65-.71,3.99-.08,4.87-.48,9.72-.72,14.58-.51,3.88-.77,7.78-1.17,11.67-.34,3.32-.62,6.66-1.06,9.97-.46,3.48-.94,6.97-1.31,10.45-.84,8.03-5.6,13.62-11.15,18.71-6.59,6.04-14.3,10.38-22.37,14.12-.19.07-.37.14-.56.22-3.47,1.47-6.89,3.08-10.64,3.79-.09.06-.17.12-.26.18h.01c-2.09.05-4.17.02-6.24-.24-3.74-.84-7.23-2.32-10.55-4.23-7.1-4.26-13.1-9.85-18.88-15.71-3.95-4.01-7.83-8.09-11.43-12.41-2.28-2.73-3.61-6.01-4.68-9.34-1.37-4.28-2.18-8.72-2.67-13.18-.5-4.47-.63-8.96-.65-13.46.06-3.76.04-7.51.21-11.27.12-2.7.34-5.39-.02-8.09-.08-.6-.2-1.09-.79-1.34-1.02-.44-2.04-.99-3.17-.94-.84.04-.94-.35-.91-.98-.11-5.87-.22-11.74-.33-17.6-.14-7.3-.08-14.62-.47-21.91-.31-5.84.48-11.43,2.75-16.77,3-7.09,8.1-12.03,15.48-14.52,1.48-.5,2.45-1.74,3.48-2.86,2.12-2.31,3.31-4.98,2.89-8.17-.29-2.22-1.47-4.03-3.15-5.69,2.3-.3,4.38.28,6.46.77,3.57.84,6.92,2.25,9.8,4.55,2.26,1.8,4.19,3.94,5.36,6.65.26.6.52,1,1.14.31,2.41-2.7,4.58-5.55,5.71-9.05,1.34-4.17.1-7.63-3.56-10Zm9.65,120.47c.69,1.05,1.39,2.09,2.05,3.16.26.41.42.54.69.02.62-1.19,1.46-2.21,2.39-3.17,1.66-1.25,3.29-2.55,5.46-2.78,3.14-.24,5.81.86,8.27,2.75,2.9,2.22,5.47,4.78,8.02,7.36.76.77,1.53.97,2.59.64,3.24-1.01,6.14-2.65,8.92-4.57,3.33-2.3,5.77-5.17,6.88-9.17.93-3.34,1.83-6.69,2.65-10.06,1.6-6.53,2.95-13.09,2.57-19.88-.31-5.48-2.21-10.37-5.48-14.69-3.73-4.93-8.84-8.03-14.48-10.31-7.68-3.11-15.78-4.19-23.99-4.54-3.77-.16-7.54-.03-11.32-.02-1.35,0-2.71.19-4.04.19-4.7,0-9.29.7-13.79,1.96-6.84,1.91-12.82,5.25-17.23,10.96-3.52,4.57-5.45,9.76-5.81,15.53-.24,3.83-.02,7.67-.13,11.5-.12,4.32.13,8.61,1.16,12.83.5,2.06.66,4.2,2.13,5.99,2.25,2.73,4.41,5.53,6.8,8.13,2.15,2.34,4.4,4.62,7.07,6.42.69.46,1.14.43,1.74-.18,1.18-1.19,2.38-2.38,3.69-3.42,4.98-3.95,10.1-7.65,16.93-7.39,2.43.13,4.41,1.29,6.25,2.76Zm2.25,7.44c-2.59-.01-5.12.44-7.68.87-4.41.73-8.48,2.31-12.43,4.32-.45.23-.67.48-.53,1.03.68,2.66,1.33,5.33,2.71,7.74,1.86,3.24,4.35,5.49,8.39,5.21,1.74-.12,3.34-.79,4.86-1.58,3.16-1.64,6.42-1.76,9.74-.64,1.7.57,3.38,1.23,5.03,1.92,2.72,1.14,5.18.55,7-1.81,2.45-3.18,3.47-6.92,4.23-10.77.12-.63-.09-.79-.55-1.04-6.48-3.52-13.42-5.23-20.79-5.24Z"/><path class="i" d="m149.98,410.07c-2.06-.1-4.02.52-6.02.86-9.01,1.54-18.06,2.83-27.16,3.78-6.36.67-12.72,1.14-19.11,1.39-2.12.08-2.12.08-2.42-2.04-.03-.2-.06-.39-.09-.59-.4-2.95-.8-5.91-1.2-8.86.3-.03.52.13.76.29,4.25,2.86,9.04,3.53,13.97,3,5.28-.57,10.49-1.69,15.65-2.97,8.8-2.19,17.59-4.39,26.34-6.76,8.06-2.19,16.09-4.51,24.06-7,8.33-2.6,16.6-5.39,24.78-8.44,7.8-2.91,15.6-5.82,23.23-9.14,5.89-2.56,11.69-5.32,16.94-9.08,4.4-3.15,8.13-6.89,10.39-11.91,1.66-3.69,2.25-7.44.77-11.35-1.44-3.79-4.02-6.63-7.24-8.99-.45-.33-1.17-.49-1.05-1.3,3.39-.18,6.74.25,10.07.82,6.23,1.55,12.07,3.8,16.08,9.23,1.19,2.07,2.35,4.15,2.88,6.53,1,4.46.15,8.65-1.85,12.65-2.96,5.96-7.63,10.45-12.57,14.76-4.52,3.94-9.85,6.23-15.34,8.35-11.38,4.39-22.86,8.47-34.48,12.16-.38.12-.74.28-1.11.42-.26-.04-.38.14-.49.33-.69-.09-1.34.1-1.99.31-2.16.69-4.32,1.4-6.5,2.02-8.8,2.49-17.63,4.88-26.55,6.94-5.34,1.23-10.7,2.4-16.07,3.49-1.57.32-3.24.32-4.71,1.11Z"/><path class="p" d="m267.75,338.29c-4.01-5.43-9.85-7.67-16.08-9.23-.14-.48-.59-.63-.95-.85-2.98-1.78-5.96-3.55-8.95-5.32-9.43-5.6-18.86-11.2-28.29-16.79-.54-.32-.89-.73-1.14-1.31-2.22-5.17-4.46-10.32-6.7-15.48.36-.04.39-.3.45-.59,1.37-6.93,2.32-13.93,2.84-20.97.3-4.13.57-8.26.52-12.41-.08-7.42.09-14.83-.45-22.25-.29-4-.64-7.99-.97-11.99-.36-4.39-.98-8.75-1.48-13.12-.07-.64-.54-1.29,0-1.93,1.05,2.5,1.6,5.16,2.35,7.75,2.3,7.84,4.52,15.7,6.76,23.56,3.53,12.34,7.06,24.67,10.59,37.01,1.2,4.18,2.4,8.35,3.6,12.52.12.43.38.74.74,1.05,4.85,4.14,9.68,8.32,14.52,12.47,5.39,4.62,10.8,9.22,16.19,13.84,4.42,3.79,8.83,7.6,13.26,11.37.71.61.13.95-.13,1.39-1.57,1.19-2.81,2.68-3.84,4.34-1.17,1.89-2.24,3.84-2.35,6.14-.17.27-.35.54-.52.81Z"/><path class="j" d="m128.84,358.84c1.59-.03,3.19-.08,4.78-.08,12.33-.01,24.66-.02,36.98-.03-.26.4-.71.51-1.1.69-3.75,1.77-7.51,3.52-11.26,5.29-9.05,4.27-18.1,8.56-27.15,12.84-4.4,2.08-8.8,4.16-13.2,6.24-8.44,3.98-16.88,7.97-25.32,11.95-.15.02-.29.03-.44.05-14.29-4.5-28.37-9.54-42.25-15.19-3.2-1.3-5.82-3.46-8.45-5.58-5-4.03-9.48-8.56-12.49-14.34-2.82-5.42-3.49-10.96-.87-16.66.05-.1.04-.23.05-.35,0,0-.05,0-.05,0,.25.05.22-.15.26-.29.97-1.43,1.93-2.86,2.9-4.28,3.06-3.04,6.79-4.91,10.82-6.28,2.13-.73,4.36-.99,6.52-1.61,1-.03,2.01-.06,3.01-.09.02.51-.39.76-.68,1.08-.81.93-1.68,1.81-2.43,2.79-3.06,4.05-5.01,8.52-5.61,13.62-.47,4.04.34,7.76,2.26,11.25,2.47,4.47,6.26,7.69,10.37,10.56,3.73,2.61,7.73,4.76,11.71,6.94,2.55,1.4,5.08,2.86,7.79,3.95,3.63,1.46,7.37,2.45,11.27,2.95,3.86.5,7.69.44,11.5-.17,6.23-1,11.95-3.55,17.65-6.13,4.03-1.82,8.1-3.54,12.16-5.3,4.43-1.93,8.71-4.13,12.7-6.89.66-.46.64-.75-.05-1.07-1.56-.72-3.12-1.41-4.67-2.14-2.24-1.05-4.46-2.14-6.7-3.19-.43-.2-.31-.34-.03-.53Z"/><path class="o" d="m92.15,395.78c.15-.02.29-.03.44-.05.47,2.96.94,5.91,1.4,8.87.4,2.95.8,5.91,1.2,8.86-3.49,2.17-6.99,4.31-10.7,6.12-9.06,4.42-18.6,7.34-28.48,9.23-6.51,1.24-13.08,2.04-19.71,2.18-.32,0-.64.02-.96.02-2.25,0-3.61-1.14-3.64-3.07-.03-1.92,1.52-3.56,3.53-3.69,4.68-.3,9.27-1.07,13.63-2.88,6.15-2.55,11.14-6.49,14.6-12.26.66-1.1.94-2.11.57-3.47-1.26-4.56,1.64-8.8,6.49-9.66,2.9-.51,5.76-.35,8.61.62,4.42,1.52,8.79,1.13,13.03-.82Z"/><path class="o" d="m205.8,396.2c.11-.19.22-.37.49-.33,3.67,1.5,7.45,2.03,11.37,1.26,1.6-.31,3.05-1.14,4.71-1.29,2.45-.23,4.85-.24,7.21.59,3.93,1.39,6.07,5.44,4.85,9.43-.31,1.02-.2,1.83.31,2.71,3.74,6.55,9.36,10.78,16.34,13.34,3.93,1.44,8.02,2.05,12.17,2.33,2.01.14,3.52,1.71,3.54,3.69.02,1.75-1.35,3.06-3.29,3.07-4.04.02-8.06-.3-12.06-.79-6.69-.82-13.3-2.1-19.79-3.95-9.97-2.84-19.41-6.84-28.02-12.67-.1-.07-.22-.09-.33-.13.25-1.85.5-3.7.76-5.55.52-3.67,1.05-7.33,1.58-11,.05-.24.1-.47.15-.71Z"/><path class="b" d="m207.56,208.77c-.54.64-.08,1.29,0,1.93.5,4.37,1.12,8.73,1.48,13.12.33,4,.67,7.99.97,11.99.54,7.41.37,14.83.45,22.25.04,4.15-.22,8.28-.52,12.41-.51,7.04-1.47,14.04-2.84,20.97-.06.3-.08.56-.45.59-1.21-2.8-2.4-5.61-3.64-8.4-.87-1.95-1.51-4-2.64-5.83.06-4.38.4-8.74.53-13.12.1-3.45.32-6.91.47-10.37.16-3.62.32-7.23.48-10.85.14-3.14.33-6.27.47-9.41.24-5.52.48-11.05.77-16.56.12-2.25.21-4.52.34-6.78.35-6.36-2.61-10.97-8.16-13.98-.24-.13-.53-.2-.65-.49,2.81-.09,5.07,1.2,7.1,2.95,1.85,1.6,3.33,3.52,4.62,5.61.47.77.71,1.58.79,2.47.06.1.12.2.18.3.09.4.18.8.27,1.2Z"/><path class="f" d="m152.38,186.12c3.74-.77,7.16-2.5,10.64-4.08.18-.08.37-.15.56-.23,1.33,1.37,3.02,2.15,4.57,3.16,3.07,2.02,6.18,3.97,9.36,6.01-.5.46-.93.86-1.36,1.26-3.06,2-5.85,4.41-8.82,6.54-1.39.99-2.74,2.04-4.09,3.09-.66.52-1.15.48-1.74-.18-1.64-1.81-3.34-3.55-5.02-5.31-2.06-2.58-4.46-4.79-6.65-7.23-.5-.56-.91-.25-1.32.19-1.52,1.64-3.08,3.25-4.59,4.91-.69.76-1.55,1.36-1.97,2.38-1.74,1.31-3.08,3.08-4.55,4.69-.85.93-1.44,1.11-2.49.29-3.79-2.95-7.67-5.77-11.5-8.67-.34-.26-.66-.45-1.07-.48-.03-.12-.03-.28-.1-.35-1.15-1.17-1.16-1.18.26-2.09,4.06-2.62,8.12-5.23,12.18-7.85.27-.17.61-.25.67-.66,3.32,2.05,6.81,3.64,10.55,4.55.95.68,1.9,1.36,2.86,2.04.27.2.55.33.87.07.82-.65,1.83-1.01,2.52-1.86,0,0-.01,0-.01,0,.09-.06.17-.13.26-.19Z"/><path class="g" d="m269.27,340.2c.11-2.3,1.18-4.25,2.35-6.14,1.03-1.66,2.27-3.15,3.84-4.34.56.66,1.18.73,2.01.45,2.28-.77,4.65-1.07,7.06-1.18,1.71-.08,3.42-.26,5.13-.39,1.15-.09,2.27-.14,2.89,1.12.12.25.38.3.6.34,1.75.33,1.82,1.8,1.38,2.98-1.01,2.73-2.14,5.42-3.14,8.16-.27.74-.6.68-1.14.45-1.34-.57-2.69-1.13-4.18-1.75.04.7.48.81.76,1,4.18,2.8,8.38,5.59,12.56,8.39.73.49,1.63.93,1.02,2.05-.43.79-1.43.94-2.54.19-2.43-1.62-4.98-3.04-7.46-4.57-.61-.37-1.16-.85-1.89-1.02-.09-.07-.19-.13-.28-.2-.08-.03-.15-.06-.23-.09.04.07.08.14.11.21.08.08.17.15.25.23,2.01,1.58,4.01,3.15,6.02,4.73.22.17.44.34.66.52.69.56.86,1.34.41,2.02-.46.71-1.24.42-1.83.08-3.01-1.73-5.92-3.62-8.78-5.59-.46-.32-.94-.6-1.4-.9-.12-.17-.28-.25-.49-.23-.09-.07-.19-.13-.28-.2,0-.09.01-.22-.14-.11.05.03.1.07.15.1.07.08.15.17.22.25l.4.34c1.35,1.79,3.15,3.15,4.56,4.88.39.48.89.92.31,1.53-.51.54-1.09.52-1.71.07-4.19-2.98-8.43-5.9-12.59-8.92-1.35-.98-2.53-2.2-3.51-3.57-.28-.4-.62-.72-1.09-.9Zm13.59-6.53c2.05,1.52,4.08,2.32,5.98,3.34.28.15.43.03.55-.24.73-1.58,1.46-3.15,2.33-5.03-3.01.65-5.74,1.25-8.86,1.92Zm4.73,11.82s.05-.04.08-.06c-.02-.02-.04-.06-.07-.06-.02,0-.05.03-.07.05.02.02.04.04.06.07Zm-2.46-5.82l.08.04v-.07s-.08.02-.08.02Zm.61.26s-.04-.06-.07-.07c-.03,0-.05.03-.08.05.02.02.05.06.07.07.03,0,.05-.03.08-.05Z"/><path class="j" d="m205.8,396.2c-.05.24-.1.47-.15.71-2.43.77-4.87,1.5-7.28,2.33-3.07,1.05-6.01,2.38-8.57,4.41-3.28,2.59-4.46,5.96-1.81,9.79.45.65,1.14,1.12,1.35,1.93-4.43-.21-8.82-.76-13.22-1.27-8.32-.98-16.6-2.25-24.84-3.75-.43-.08-.86-.18-1.29-.27,1.47-.79,3.13-.79,4.71-1.11,5.37-1.09,10.73-2.26,16.07-3.49,8.92-2.06,17.75-4.44,26.55-6.94,2.18-.62,4.34-1.33,6.5-2.02.65-.21,1.3-.4,1.99-.31Z"/><path class="n" d="m189.32,415.37c-.2-.81-.9-1.29-1.35-1.93-2.65-3.82-1.47-7.2,1.81-9.79,2.57-2.02,5.51-3.35,8.57-4.41,2.41-.83,4.85-1.55,7.28-2.33-.53,3.67-1.06,7.33-1.58,11-.26,1.85-.51,3.7-.76,5.55-.38,2.66-.38,2.7-3.11,2.6-3.63-.14-7.26-.27-10.87-.69Z"/><path class="o" d="m200.63,116.87c.24-4.86.64-9.71.72-14.58.02-1.33.4-2.67.71-3.99.32-1.4,1.97-2.56,3.64-2.59.68-.01,1.2-.07,1.16-.92,5.44,1.36,8.44,5.14,8.64,10.79.12,3.55-.71,6.77-2.95,9.61-2.89,3.66-7.85,4.54-11.38,1.9-.15-.11-.36-.15-.54-.22Z"/><path class="p" d="m207.29,207.58c-.06-.1-.12-.2-.18-.3.06.1.12.2.18.3Z"/><path class="p" d="m48.83,329.21c-2.17.62-4.43.89-6.58,1.61-4.07,1.37-7.84,3.24-10.93,6.28-1.07-3.76-3.08-6.92-6.13-9.41-.8-.62-.53-1.1.13-1.65,4.3-3.61,8.58-7.24,12.85-10.87,3.7-3.14,7.38-6.3,11.07-9.44,3.73-3.17,7.46-6.33,11.19-9.49,3-2.54,6.01-5.07,8.98-7.63,1.15-.99,1.14-2.52,1.52-3.83,3.08-10.44,6.09-20.89,9.11-31.34,3.88-13.4,7.72-26.81,11.64-40.2.66-2.25,1.16-4.55,2.09-6.71.35.27.27.64.2.99-.84,4.73-1.32,9.5-1.85,14.27-.46,4.14-.74,8.31-.98,12.47-.25,4.29-.43,8.59-.48,12.89-.04,3.23.03,6.46.14,9.69.14,4.26.46,8.51.57,12.77.03.99.16,1.98.29,2.96.38,2.99.74,5.98,1.16,8.96.42,2.94.87,5.87,1.65,8.74-1.93,4.43-3.98,8.81-5.74,13.3-.82,2.09-2.17,3.29-4.06,4.39-9.7,5.6-19.34,11.33-28.97,17.04-2.31,1.37-4.71,2.6-6.87,4.2Z"/><path class="b" d="m93.79,292.28c-.78-2.87-1.22-5.81-1.63-8.74-.42-2.98-.78-5.97-1.15-8.96-.12-.98-.26-1.97-.28-2.96-.11-4.26-.43-8.51-.57-12.77-.1-3.23-.17-6.46-.13-9.69.05-4.3.23-8.6.47-12.89.24-4.16.51-8.33.97-12.47.53-4.77,1.01-9.54,1.84-14.27.06-.35.15-.72-.2-.99.02-.15.04-.31.06-.46.62-.16.39-.64.39-1.03.11-.5.11-1.06.35-1.49,1.75-3.21,3.92-6.06,7.15-7.94.13-.08.3-.09.45-.13-.05.62-.63.79-1.01,1.1-4.25,3.46-5.98,7.9-5.26,13.32.03.24.05.48.04.72-.16,3.07.2,6.14.29,9.2.11,3.5.3,7,.47,10.49.17,3.62.33,7.24.48,10.85.14,3.5.32,7,.48,10.49.17,3.58.33,7.16.48,10.73.15,3.58.23,7.17.52,10.73.17,2.1-.16,4.23.36,6.31.06.23-.13.53-.2.79-1.45,3.35-2.91,6.7-4.36,10.05Z"/><path class="o" d="m92.36,94.78c-.03.63.07,1.02.91.98,1.13-.05,2.15.5,3.17.94.59.26.71.74.79,1.34.36,2.7.14,5.39.02,8.09-.17,3.75-.15,7.51-.21,11.27,0,0,0,0,0,0-.1.02-.2.04-.31.06-3.35,2.02-7.58,1.32-10.32-1.7-4.31-4.75-4.66-12.51-.76-17.58,1.68-2.19,3.95-3.29,6.7-3.4Z"/><path class="p" d="m93.54,207.04c0,.39.22.87-.39,1.03-.03-.4.15-.73.39-1.03Z"/><path class="b" d="m102.46,197c-.12.24-.33.25-.56.24.14-.18.34-.24.56-.24Z"/><path class="b" d="m102.94,196.77c-.1.21-.29.24-.5.24.11-.2.3-.23.5-.24Z"/><path class="b" d="m101.74,197.25c-.09.08-.17.16-.26.23.09-.08.17-.16.26-.23Z"/><path class="g" d="m96.74,117.46c.1-.02.2-.04.31-.06-.1.02-.2.04-.31.06Z"/><path class="c" d="m12.95,345.31c.08-.06.16-.13.24-.19.03.04.06.09.09.13-.1.03-.2.06-.31.09,0,0-.03-.03-.03-.03Z"/><path class="c" d="m12.2,345.76c.16-.08.31-.17.47-.25.03.03.06.06.09.09-.15.1-.29.2-.44.31-.04-.05-.08-.1-.12-.14Z"/><path class="c" d="m12.97,345.34c-.07.09-.15.17-.22.26-.03-.03-.06-.06-.09-.09.09-.07.19-.13.28-.2,0,0,.03.03.03.03Z"/><polygon class="c" points="15.66 339.43 15.73 339.42 15.72 339.47 15.66 339.43"/><path class="c" d="m28.35,343.38c-.04.14,0,.34-.26.29,0-.18.11-.25.26-.29Z"/><path class="c" d="m17.19,346.91c.09-.07.18-.14.27-.21.03.03.06.06.09.09-.08.08-.15.17-.23.25-.04-.04-.09-.08-.13-.13Z"/><path class="c" d="m15.1,339.78c.04-.05.08-.1.12-.15.17.16-.02.14-.09.18,0,0-.03-.03-.03-.03Z"/><path class="c" d="m17.46,346.7c.06-.09.12-.2.23-.05,0,0-.09.09-.14.14-.03-.03-.06-.06-.09-.09Z"/><path class="l" d="m93.99,404.61c-.47-2.96-.94-5.91-1.4-8.87,8.44-3.98,16.88-7.97,25.32-11.95,4.4-2.08,8.8-4.16,13.2-6.24,9.05-4.28,18.1-8.56,27.15-12.84,3.75-1.77,7.51-3.52,11.26-5.29.39-.18.84-.29,1.1-.69,2.76-.94,5.31-2.37,7.94-3.59,6.04-2.81,12.06-5.67,18.08-8.52.21-.1.41-.24.61-.35,1.34-.61,2.68-1.22,4.02-1.82,7.12-3.19,13.97-6.99,21.36-9.56,6.47-2.25,13.09-3.78,19.98-3.91-.12.81.6.97,1.05,1.3,3.22,2.35,5.8,5.19,7.24,8.99,1.48,3.91.89,7.66-.77,11.35-2.26,5.02-6,8.76-10.39,11.91-5.25,3.76-11.04,6.52-16.94,9.08-7.64,3.32-15.44,6.23-23.23,9.14-8.17,3.05-16.44,5.84-24.78,8.44-7.98,2.49-16,4.81-24.06,7-8.75,2.37-17.54,4.57-26.34,6.76-5.16,1.29-10.37,2.41-15.65,2.97-4.93.53-9.71-.14-13.97-3-.24-.16-.46-.31-.76-.29Z"/><path class="n" d="m128.84,358.84c-.28.19-.4.33.03.53,2.24,1.05,4.46,2.14,6.7,3.19,1.55.73,3.12,1.42,4.67,2.14.69.32.71.61.05,1.07-3.98,2.76-8.26,4.96-12.7,6.89-4.05,1.76-8.13,3.48-12.16,5.3-5.7,2.58-11.42,5.13-17.65,6.13-3.81.61-7.64.67-11.5.17-3.9-.5-7.64-1.49-11.27-2.95-2.71-1.09-5.24-2.55-7.79-3.95-3.98-2.18-7.99-4.33-11.71-6.94-4.11-2.87-7.9-6.09-10.37-10.56-1.93-3.49-2.73-7.21-2.26-11.25.59-5.1,2.55-9.58,5.61-13.62.74-.98,1.61-1.87,2.43-2.79.28-.32.69-.57.68-1.08.31-.05.62-.14.94-.15,4.77-.19,9.48.32,14.15,1.3,7.5,1.58,14.51,4.5,21.37,7.83,4.37,2.12,8.79,4.11,13.19,6.16,4.09,1.96,8.17,3.92,12.26,5.86,4.28,2.03,8.57,4.02,12.84,6.06.8.38,1.6.69,2.5.67Z"/><path class="e" d="m142.16,195.57c.44-.95,1.35-1.5,2.07-2.21,1.58-1.55,3.22-3.04,4.82-4.56.43-.41.86-.7,1.38-.18,2.3,2.27,4.82,4.33,6.99,6.72-.7,2.81-1.53,5.57-3.38,7.93-.25.33-.22.68-.19,1.03.46,6.9.91,13.79,1.38,20.69.38,5.54.77,11.08,1.15,16.62.59,8.61,1.17,17.22,1.75,25.83.65,9.53,1.31,19.05,1.95,28.58.46,6.86.91,13.72,1.37,20.57.18,2.67.35,5.34.54,8.01.03.49-.01.92-.36,1.34-4.09,4.97-8.17,9.96-12.25,14.94-.1.12-.23.21-.41.37-2.88-4.01-5.71-7.97-8.55-11.93-.35-.5-.65-1.05-1.07-1.48-1.57-1.57-1.76-3.41-1.61-5.5.92-12.43,1.73-24.87,2.58-37.31.67-9.81,1.33-19.61,2-29.42.85-12.44,1.7-24.87,2.55-37.31.31-4.58.62-9.17.96-13.75.05-.71-.08-1.29-.55-1.88-1.71-2.1-2.52-4.58-3.12-7.13Z"/><path class="e" d="m172.8,232.77c0-2.2.02-4.4,0-6.6,0-.67.17-1.05.93-1.05,6.94-.03,13.7.86,20,4.01,1.22.61,2.36,1.35,3.46,2.14.45.32.58.67.43,1.22-.71,2.66-1.4,5.32-2.07,7.99-.13.52-.4.69-.93.69-6.99-.01-13.99-.02-20.99,0-.75,0-.84-.38-.84-.98.01-2.4,0-4.8,0-7.19.43.03.87.03,1.3.08,1.7.21,3.4.21,5.08-.12.45-.09,1.24-.04.99-.95.53.07,1.12.39,1.4-.44.13-.38.44-.25.66-.03.37.37.78.7,1.06,1.13.37.56,1.07.67,1.34.4.77-.8,1.41-.29,2.15-.09.53.15,1.11.12,1.66.22,2.03.35,3.47-1.66,5.48-1.38,0-.07.02-.13.02-.2-.65-.23-1.37.13-2.12-.29,1.05-.79,2.33.06,3.37-.67-.7-.17-3.5-.24-3.86-.18-.31.05-.51.68-.75.37-.59-.74-1.33-.34-1.98-.36-.66-.02-1.52.51-1.96.25-1-.6-1.39-.14-1.75.6-.41.83-.75.7-1.35.12-1.63-1.58-2.33-1.43-3.35.56-1.23-.26-2.46-.52-3.81-.8,1.19-.61,2.4-.09,3.45-.58-1.5-.27-2.99-.22-4.47.03-.33.06-.85.08-.88.49-.04.53.54.48.89.59.9.27,1.89.2,2.95.71-1.42.37-2.61.25-3.79.12-.59-.06-1.19-.19-1.73.17Z"/><path class="c" d="m172.8,232.77c.55-.36,1.14-.24,1.73-.17,1.19.13,2.37.25,3.79-.12-1.06-.51-2.06-.44-2.95-.71-.34-.1-.92-.06-.89-.59.03-.4.54-.43.88-.49,1.48-.25,2.97-.3,4.47-.03-1.05.49-2.27-.03-3.45.58,1.35.29,2.58.55,3.81.8l-.02-.02c.25.91-.53.86-.99.95-1.68.33-3.38.33-5.08.12-.43-.05-.87-.06-1.3-.08,0-.08,0-.16,0-.24Z"/><path class="o" d="m141.31,118.2c-6.83-.26-11.95,3.43-16.93,7.39-1.31,1.04-2.52,2.22-3.69,3.42-.6.61-1.05.64-1.74.18-2.67-1.8-4.92-4.07-7.07-6.42-2.39-2.6-4.56-5.4-6.8-8.13-1.47-1.78-1.63-3.93-2.13-5.99-1.03-4.21-1.28-8.5-1.16-12.83.11-3.83-.11-7.67.13-11.5.37-5.77,2.29-10.97,5.81-15.53,4.41-5.72,10.38-9.06,17.23-10.96,4.51-1.26,9.09-1.96,13.79-1.96,1.33,0,2.69-.19,4.04-.19,3.77,0,7.55-.14,11.32.02,8.21.35,16.3,1.44,23.99,4.54,5.63,2.28,10.75,5.38,14.48,10.31,3.27,4.33,5.17,9.22,5.48,14.69.38,6.79-.97,13.35-2.57,19.88-.83,3.37-1.72,6.72-2.65,10.06-1.11,4-3.55,6.87-6.88,9.17-2.78,1.92-5.68,3.55-8.92,4.57-1.06.33-1.82.13-2.59-.64-2.56-2.58-5.13-5.14-8.02-7.36-2.46-1.88-5.13-2.99-8.27-2.75-.46-1.52-1.64-.86-2.45-.66-1.9.47-3.76.79-5.74.57-2.93-.33-6.34-2.8-6.81-5.82-.22-1.4.05-2.68.2-4.01.21-1.81.88-3.55.85-5.4,0-.36.06-.75-.31-.98-1-.61-1.99-.3-2.97.07-.84.31-1.31.86-1.28,1.8.08,2.17-.61,4.23-.86,6.36-.26,2.26,0,4.35,1.12,6.34.37.66,1.2.96,1.39,1.75Zm-19.64-3.46c3.46-.1,6.67-.77,9.36-2.94,2.13-1.72,2.96-4.46,1.06-6.96-1.2-1.58-2.84-2.42-4.59-3.07-2.97-1.11-6.07-1.26-9.17-.69-2.67.49-5.12,1.48-6.97,3.62-.94,1.09-1.22,2.3-1.07,3.73.19,1.85,1.43,2.91,2.74,3.87,2.58,1.9,5.62,2.3,8.63,2.44Zm54.05-.03c4.46,0,7.64-.83,9.82-2.44,3.13-2.31,3.89-5.58.73-8.4-2.05-1.83-4.52-2.53-7.18-2.88-4.25-.56-8.15.17-11.65,2.71-2.73,1.98-2.71,6.1-.01,8.12,2.77,2.07,5.91,2.83,8.29,2.9Zm-49.07-38.15c-1.06-.08-2.29.06-3.52.24-3.34.49-6.43,1.6-9.01,3.84-1.36,1.18-1.59,2.38-.79,3.7.63,1.04,1.56,1.16,3.3.45,4.58-1.87,9.34-2.32,14.21-1.83.75.08,1.5.19,2.26.26,1.35.14,2.48-.7,2.69-1.99.29-1.87-.67-3.58-2.31-3.94-2.18-.48-4.4-.79-6.83-.74Zm45.07-.01c-2.29-.04-4.55.27-6.77.77-1.64.36-2.61,2.23-2.24,4.1.28,1.41,1.41,1.94,3.3,1.69,3.34-.44,6.68-.45,10.03.07,2.19.34,4.27.99,6.32,1.8,1.54.6,2.45.25,2.99-1,.6-1.4.22-2.46-1.37-3.68-3.61-2.77-7.79-3.73-12.25-3.75Zm-44.36,12.92c-.97-.03-1.92.06-2.85.31-2.52.66-4.6,1.98-6.17,4.07-.58.78-.56,1.6.22,2.23.78.63,1.56.46,2.22-.28.16-.18.31-.37.47-.54,3.47-3.68,9.02-3.58,12.36.22.94,1.06,1.76,1.24,2.54.56.79-.7.75-1.56-.17-2.62-2.27-2.63-5.16-3.93-8.62-3.95Zm44.34,0c-4.09,0-7.05,1.38-9.36,4.16-.77.93-.74,1.79.01,2.43.74.63,1.61.48,2.39-.4,3.6-4.09,9.14-4.14,12.75-.12.89.99,1.69,1.17,2.46.55.74-.6.72-1.68-.11-2.64-2.27-2.62-5.15-3.95-8.15-3.98Z"/><path class="o" d="m149.8,128.4c7.37,0,14.3,1.72,20.79,5.24.46.25.68.41.55,1.04-.77,3.85-1.78,7.59-4.23,10.77-1.82,2.36-4.28,2.95-7,1.81-1.65-.69-3.33-1.35-5.03-1.92-3.32-1.12-6.58-1-9.74.64-1.53.79-3.12,1.46-4.86,1.58-4.04.28-6.53-1.96-8.39-5.21-1.38-2.41-2.03-5.08-2.71-7.74-.14-.55.08-.8.53-1.03,3.95-2.01,8.01-3.59,12.43-4.32,2.56-.42,5.08-.88,7.68-.87Zm15.92,7.27c.05,1.05.32,1.78,1.31,1.69.94-.09,1.16-.86,1.21-1.67.05-.83-.28-1.51-1.01-1.9-.86-.44-1.76-.79-2.72-.22-.79.47-1.55.99-2.35,1.43-9.67,5.3-19.11,5.69-28.2-1.32-.83-.64-1.66-.41-2.48-.05-.85.38-1.26,1.08-1.21,2.01.04.8.2,1.58,1.15,1.7.96.12,1.28-.56,1.37-1.38,11.01,7.73,21.93,6.6,32.93-.3Zm-16.56,8.79s0,0,0,0c1.08,0,2.15,0,3.23,0,.82,0,1.31-.42,1.29-1.23-.02-.75-.52-1.13-1.27-1.14-2.15,0-4.31,0-6.46,0-.79,0-1.36.37-1.36,1.18,0,.8.53,1.19,1.34,1.19,1.08,0,2.15,0,3.23,0Z"/><path class="h" d="m143.37,118.75c-.25-.95-4.12.41-4.6-.38-1.44-2.37-.78-4.61-.45-7.31.31-2.55,1.2-5.02,1.1-7.61-.04-1.12.57-1.78,1.65-2.15,1.27-.44,2.55-.81,3.83-.08.47.27.39.74.4,1.17.03,2.21-.83,4.29-1.1,6.46-.2,1.59-.54,3.13-.26,4.8.6,3.62,4.98,3.43,8.75,3.82,2.55.26,3.55-.45,6-1.01,1.05-.24,2.79.34,3.37,2.16-2.8.28-3.66-.84-5.8.65-2.21,0-4.44,4.78-6.65,4.78-2.37-1.76-3.11-5.13-6.24-5.29Z"/><path class="o" d="m146.91,120.96c1.71,0,4.96,0,6.67,0-.93.96-2.66,1.99-3.28,3.18-.27.53-.44.39-.69-.02-.67-1.06-2.01-2.11-2.7-3.16Z"/><path class="o" d="m152.14,185.97c-.69.8-1.7,1.12-2.52,1.73-.32.24-.59.11-.87-.07-.95-.63-1.9-1.26-2.86-1.9,2.07.26,4.16.29,6.24.24Z"/><path class="o" d="m152.38,185.8c-.09.06-.17.12-.26.18.09-.06.17-.12.26-.18Z"/><path class="c" d="m282.95,346.72c.21-.02.37.06.48.23-.05.05-.09.11-.14.17-.13-.11-.27-.23-.4-.34,0,0,.05-.05.05-.05Z"/><path class="c" d="m287.59,345.5s-.04-.04-.06-.07c.02-.02.05-.05.07-.05.02,0,.04.04.07.06-.02.02-.05.04-.08.06Z"/><path class="c" d="m288.12,345.86c-.04-.07-.08-.14-.11-.21.08.03.15.06.23.09-.04.04-.08.08-.12.11Z"/><path class="c" d="m288.24,345.75c.09.07.19.13.28.2-.05.05-.1.1-.15.14-.08-.08-.17-.15-.25-.23.04-.04.08-.08.11-.11Z"/><path class="c" d="m282.67,346.52s-.1-.07-.15-.1c.16-.11.14.01.14.11h0Z"/><path class="c" d="m282.66,346.52c.09.07.19.13.28.2,0,0-.05.05-.05.05-.07-.08-.15-.17-.22-.25,0,0,0,0,0,0Z"/><polygon class="c" points="285.14 339.67 285.22 339.65 285.22 339.72 285.14 339.67"/><path class="c" d="m285.75,339.93s-.06.05-.08.05c-.03,0-.05-.04-.07-.07.03-.02.06-.05.08-.05.03,0,.05.04.07.07Z"/><path class="h" d="m210.34,105.65c.21-1.35-.23-2.57-1.1-3.62-.51-.61-1.13-1.09-1.88-.24-.37.42-.86.74-1.33.24-.41-.44-.33-1.04.02-1.55,1.08-1.58,3.96-1.47,5.2.19,1.31,1.76,1.71,3.78,1.49,5.88-.21,2.04-.51,4.09-1.77,5.86-1.26,1.76-3.04,1.68-4.83,1.59-1.34-.07-1.83-1.16-2.26-2.2-.68-1.66-.68-3.35.03-4.99.66-1.54,2.25-2.3,3.58-1.78,1.36.53,2.03,2.1,1.57,3.7-.04.15-.14.31-.13.46.02.33-.81.64-.11.94.51.22.74-.23.9-.69.41-1.21.8-2.42.65-3.78Z"/><path class="h" d="m89.25,105.73c-.13,1.26.23,2.44.65,3.61.14.38.22.89.74.71.53-.18.13-.61.05-.91-.14-.5-.27-.99-.26-1.52.02-1.45.66-2.38,1.88-2.71,1.07-.28,2.48.31,3.12,1.31,1.18,1.85.97,5.2-.43,6.9-.76.92-3.16,1.21-4.6.61-2.17-.91-2.79-2.88-3.2-4.88-.44-2.14-.71-4.32.16-6.47.9-2.23,2.21-3.19,4.32-3.04,1.01.07,1.99.91,2.1,1.82.04.36.06.75-.33.95-.35.19-.67.09-1-.15-1.23-.89-1.49-.8-2.4.47-.72,1.01-.9,2.11-.8,3.3Z"/><path class="c" d="m180.19,232.04c1.02-1.99,1.73-2.14,3.35-.56.6.58.94.7,1.35-.12.37-.74.76-1.2,1.75-.6.44.26,1.29-.27,1.96-.25.65.02,1.39-.37,1.98.36.25.31.44-.32.75-.37.36-.06,3.15,0,3.86.18-1.03.74-2.31-.12-3.37.67.74.42,1.47.06,2.12.29,0,.07-.02.13-.02.2-2.01-.28-3.45,1.73-5.48,1.38-.55-.09-1.13-.07-1.66-.22-.74-.21-1.38-.71-2.15.09-.26.27-.97.17-1.34-.4-.28-.43-.7-.76-1.06-1.13-.22-.22-.53-.35-.66.03-.28.83-.87.51-1.4.44,0,0,.02.02.02.02Zm10.48-1.11c-1.2.14-2.32-.1-3.37.39-.29.14-.59.32-.55.69.03.32.34.41.6.5,1.68.63,2.61.22,3.32-1.59Z"/><path class="m" d="m121.82,115.81c-3.3-.16-6.64-.61-9.48-2.74-1.44-1.08-2.8-2.26-3.01-4.34-.16-1.61.15-2.96,1.18-4.19,2.03-2.41,4.72-3.52,7.66-4.07,3.41-.64,6.81-.48,10.07.77,1.92.73,3.72,1.67,5.04,3.45,2.08,2.8,1.17,5.88-1.17,7.81-2.96,2.43-6.48,3.19-10.29,3.3Z"/><path class="m" d="m175.21,115.11c-2.63-.07-6.11-.89-9.16-3.12-2.98-2.18-3.01-6.63.01-8.76,3.87-2.74,8.18-3.53,12.87-2.92,2.95.38,5.67,1.13,7.94,3.11,3.5,3.05,2.65,6.57-.81,9.07-2.41,1.74-5.93,2.64-10.86,2.64Z"/><path class="k" d="m126.66,76.55c2.43-.05,4.64.26,6.83.74,1.64.36,2.61,2.07,2.31,3.94-.2,1.29-1.33,2.13-2.69,1.99-.75-.08-1.5-.19-2.26-.26-4.88-.49-9.64-.04-14.21,1.83-1.74.71-2.67.59-3.3-.45-.8-1.32-.58-2.51.79-3.7,2.59-2.24,5.67-3.35,9.01-3.84,1.23-.18,2.46-.32,3.52-.24Z"/><path class="k" d="m171.72,76.54c4.46.03,8.63.98,12.25,3.75,1.59,1.22,1.96,2.28,1.37,3.68-.53,1.25-1.45,1.6-2.99,1-2.05-.81-4.13-1.46-6.32-1.8-3.34-.52-6.69-.51-10.03-.07-1.89.25-3.02-.28-3.3-1.69-.37-1.88.6-3.74,2.24-4.1,2.22-.5,4.48-.81,6.77-.77Z"/><path class="d" d="m127.36,89.46c3.47.02,6.35,1.32,8.62,3.95.92,1.06.96,1.92.17,2.62-.78.68-1.6.5-2.54-.56-3.35-3.8-8.89-3.9-12.36-.22-.16.17-.31.36-.47.54-.66.74-1.44.9-2.22.28-.78-.63-.8-1.45-.22-2.23,1.57-2.09,3.65-3.41,6.17-4.07.93-.24,1.88-.34,2.85-.31Z"/><path class="d" d="m171.7,89.45c3,.03,5.88,1.35,8.15,3.98.83.96.85,2.04.11,2.64-.77.62-1.57.44-2.46-.55-3.61-4.02-9.15-3.96-12.75.12-.78.89-1.65,1.03-2.39.4-.75-.64-.78-1.5-.01-2.43,2.31-2.78,5.27-4.17,9.36-4.16Z"/><path class="d" d="m165.72,135.67c-11,6.9-21.93,8.03-32.93.3-.09.82-.41,1.51-1.37,1.38-.96-.12-1.11-.91-1.15-1.7-.05-.94.35-1.64,1.21-2.01.82-.36,1.65-.59,2.48.05,9.09,7.01,18.54,6.62,28.2,1.32.8-.44,1.57-.96,2.35-1.43.95-.58,1.86-.23,2.72.22.73.38,1.06,1.06,1.01,1.9-.04.81-.27,1.58-1.21,1.67-1,.09-1.26-.64-1.31-1.69Z"/><path class="d" d="m149.16,144.46c-1.08,0-2.15,0-3.23,0-.81,0-1.34-.39-1.34-1.19,0-.81.57-1.18,1.36-1.18,2.15,0,4.31,0,6.46,0,.75,0,1.25.38,1.27,1.14.02.81-.47,1.23-1.29,1.23-1.08,0-2.15,0-3.23,0,0,0,0,0,0,0Z"/><path class="e" d="m190.66,230.93c-.72,1.82-1.64,2.22-3.32,1.59-.26-.1-.57-.19-.6-.5-.04-.37.26-.55.55-.69,1.05-.5,2.18-.25,3.37-.39Z"/></svg>