<?xml version="1.0" encoding="UTF-8"?><svg id="a" xmlns="http://www.w3.org/2000/svg" xmlns:xlink="http://www.w3.org/1999/xlink" viewBox="0 0 300.61 435.36"><defs><style>.n{fill:#061015;}.n,.o,.p,.q,.r,.s,.t,.u,.v,.w,.x,.y,.z,.aa,.ab,.ac,.ad,.ae,.af,.ag,.ah,.ai,.aj,.ak,.al,.am,.an,.ao,.ap,.aq,.ar,.as,.at,.au,.av,.aw,.ax,.ay,.az,.ba,.bb,.bc,.bd{stroke-width:0px;}.be{clip-path:url(#j);}.o{fill:#e0e9ed;}.p{fill:#182237;}.q{fill:#fffffe;}.q,.z,.af{fill-rule:evenodd;}.bf{clip-path:url(#g);}.r{fill:#cd8161;}.s{fill:#54101b;}.t{fill:#f68c7d;}.u{fill:#1e2943;}.v{fill:#4f6976;}.x{fill:#d28e7f;}.y{fill:#d8cfc9;}.z{fill:#cf1f59;}.bg{clip-path:url(#m);}.bh{clip-path:url(#i);}.aa{fill:#d98c6d;}.ab{fill:none;}.ac{fill:#1e2a44;}.ad{fill:#f89d77;}.ae{fill:#371616;}.af,.aj{fill:#be234b;}.ag{fill:#182135;}.bi{clip-path:url(#f);}.ah{fill:#401b1b;}.ai{fill:#64adff;}.bj{clip-path:url(#l);}.ak{fill:#508bec;}.al{fill:#2c1110;}.am{fill:#151d2e;}.an{fill:#f9ac7f;}.ao{fill:#daeaf0;}.ap{fill:#fff;}.aq{fill:#f49262;}.ar{fill:#3a1919;}.as{fill:#f69067;}.at{fill:#243352;}.au{fill:#f7ac80;}.av{fill:#e7dcd7;}.aw{fill:#261f35;}.ax{fill:#c5b3ad;}.ay{fill:#98bfcf;}.bk{clip-path:url(#h);}.az{fill:#364d7c;}.ba{fill:#d3d2d2;}.bb{fill:#48405b;}.bc{fill:#1c2740;}.bd{fill:url(#k);}</style><clipPath id="f"><rect class="ab" x="162.47" y="-22.96" width="49.74" height="165.79" transform="translate(48.55 199.32) rotate(-62.86)"/></clipPath><clipPath id="g"><rect class="ab" x="168.36" y="-13.32" width="28.09" height="165.79" transform="translate(37.29 200.16) rotate(-62.86)"/></clipPath><clipPath id="h"><rect class="ab" x="134.6" y="168.98" width="37.78" height="23.31"/></clipPath><clipPath id="i"><path class="ab" d="m171.77,183.37c-2.3-8.48-10.48-14.39-18.28-14.39s-15.98,5.92-18.28,14.39c-1.99,7.32,1.49,10.15,4.53,8.4,3.05-1.76,8.4-10.71,13.75-10.71s10.7,8.96,13.75,10.71c3.05,1.76,6.52-1.08,4.53-8.4Z"/></clipPath><clipPath id="j"><path class="ab" d="m171.77,183.37c-2.3-8.48-10.48-14.39-18.28-14.39s-15.98,5.92-18.28,14.39c-1.99,7.32,1.49,10.15,4.53,8.4,3.05-1.76,8.4-10.71,13.75-10.71s10.7,8.96,13.75,10.71c3.05,1.76,6.52-1.08,4.53-8.4"/></clipPath><radialGradient id="k" cx="-703.58" cy="683.4" fx="-703.58" fy="683.4" r="156.23" gradientTransform="translate(253.92 281.7) scale(.14 -.15)" gradientUnits="userSpaceOnUse"><stop offset="0" stop-color="#701823"/><stop offset=".02" stop-color="#711823"/><stop offset=".02" stop-color="#721823"/><stop offset=".03" stop-color="#721824"/><stop offset=".04" stop-color="#731824"/><stop offset=".05" stop-color="#741924"/><stop offset=".07" stop-color="#741924"/><stop offset=".08" stop-color="#751924"/><stop offset=".09" stop-color="#761924"/><stop offset=".1" stop-color="#761925"/><stop offset=".11" stop-color="#771925"/><stop offset=".12" stop-color="#771925"/><stop offset=".14" stop-color="#781925"/><stop offset=".14" stop-color="#781925"/><stop offset=".14" stop-color="#781925"/><stop offset=".15" stop-color="#791925"/><stop offset=".17" stop-color="#7a1926"/><stop offset=".18" stop-color="#7b1926"/><stop offset=".2" stop-color="#7b1a26"/><stop offset=".21" stop-color="#7c1a26"/><stop offset=".22" stop-color="#7d1a26"/><stop offset=".23" stop-color="#7d1a26"/><stop offset=".24" stop-color="#7e1a27"/><stop offset=".25" stop-color="#7e1a27"/><stop offset=".26" stop-color="#7e1a27"/><stop offset=".27" stop-color="#7f1a27"/><stop offset=".28" stop-color="#801a27"/><stop offset=".3" stop-color="#801a27"/><stop offset=".3" stop-color="#811a27"/><stop offset=".31" stop-color="#811a27"/><stop offset=".32" stop-color="#821a28"/><stop offset=".33" stop-color="#831b28"/><stop offset=".35" stop-color="#831b28"/><stop offset=".36" stop-color="#841b28"/><stop offset=".36" stop-color="#841b28"/><stop offset=".37" stop-color="#851b28"/><stop offset=".38" stop-color="#851b29"/><stop offset=".39" stop-color="#851b29"/><stop offset=".41" stop-color="#861b29"/><stop offset=".43" stop-color="#871b29"/><stop offset=".43" stop-color="#881b29"/><stop offset=".44" stop-color="#881b29"/><stop offset=".46" stop-color="#891c2a"/><stop offset=".47" stop-color="#891c2a"/><stop offset=".48" stop-color="#8a1c2a"/><stop offset=".49" stop-color="#8a1c2a"/><stop offset=".5" stop-color="#8b1c2a"/><stop offset=".52" stop-color="#8c1c2a"/><stop offset=".53" stop-color="#8d1c2a"/><stop offset=".54" stop-color="#8d1c2b"/><stop offset=".55" stop-color="#8d1c2b"/><stop offset=".56" stop-color="#8e1c2b"/><stop offset=".57" stop-color="#8f1c2b"/><stop offset=".58" stop-color="#8f1c2b"/><stop offset=".59" stop-color="#901c2b"/><stop offset=".6" stop-color="#901d2b"/><stop offset=".61" stop-color="#911d2c"/><stop offset=".62" stop-color="#921d2c"/><stop offset=".64" stop-color="#931d2c"/><stop offset=".66" stop-color="#931d2c"/><stop offset=".68" stop-color="#941d2c"/><stop offset=".7" stop-color="#951d2d"/><stop offset=".71" stop-color="#951d2d"/><stop offset=".72" stop-color="#961d2d"/><stop offset=".73" stop-color="#971d2d"/><stop offset=".74" stop-color="#971e2d"/><stop offset=".76" stop-color="#971e2d"/><stop offset=".76" stop-color="#981e2d"/><stop offset=".77" stop-color="#981e2d"/><stop offset=".77" stop-color="#991e2e"/><stop offset=".78" stop-color="#991e2e"/><stop offset=".79" stop-color="#9a1e2e"/><stop offset=".82" stop-color="#9b1e2e"/><stop offset=".82" stop-color="#9c1e2e"/><stop offset=".84" stop-color="#9c1e2e"/><stop offset=".85" stop-color="#9d1e2f"/><stop offset=".87" stop-color="#9d1e2f"/><stop offset=".88" stop-color="#9e1e2f"/><stop offset=".89" stop-color="#9e1e2f"/><stop offset=".91" stop-color="#9f1f2f"/><stop offset=".92" stop-color="#a01f2f"/><stop offset=".94" stop-color="#a11f30"/><stop offset=".97" stop-color="#a11f30"/><stop offset=".98" stop-color="#a21f30"/><stop offset="1" stop-color="#a21f30"/></radialGradient><clipPath id="l"><rect class="ab" x="169.97" y="191.2" width="4.28" height="4.43"/></clipPath><clipPath id="m"><rect class="ab" x="134.02" y="168.5" width="38.82" height="24.3"/></clipPath></defs><path class="ah" d="m95.39,247.9h117.2v-125.98h-117.2v125.98Z"/><path class="al" d="m108.6,247.9h90.77v-125.98h-90.77v125.98Z"/><path class="au" d="m52.58,361.85l11.74-8.6-6.08-9.41-12.31,7.35,6.64,10.66"/><path class="an" d="m44.06,359.82s-9.65,7.12-12.59,9.35c0,0-.77,1.2.06,1.93,0,0,.62.5,1.77-.17,0,0,7.89-4.5,12.93-8.4l-7.61,7.54s-.4.74.23,1.21c0,0,.67.67,1.53-.03l9.62-6.52s8.39-5.09,7.66-8.53c-.6-9.16-14.46-9.57-14.46-9.57-1.66-.1-3.3-.29-4.95-.43-.43-.03-.87-.07-1.3-.1-1.96-.21-2.3,1.13-2.3,1.13-.32,1.56,1.35,2.03,1.35,2.03l8.37,2-17.38,10.44s-2.32,1.55-1.34,2.86c0,0,.41.95,2.83-.53l15.01-7.58s-13.77,8.91-16.86,10.87c0,0-1.14,1.27.53,2.06,0,0,1.01.39,3-1.21,0,0,12.88-7.35,13.91-8.35"/><path class="u" d="m57.29,361.37l43.5-26.25,19.04-83.91s2.77-12.54-5.5-18.44c0,0-11.19-5.22-16.36,7.65l-10.91,79.08-37.19,28.35s7.82,3.86,7.42,13.51"/><path class="ba" d="m106,312.17l5.28-23.25-5.28,23.25m-10.49-53.88h0s1.43-10.38,1.43-10.38l-1.43,10.38"/><path class="ae" d="m96.94,247.9l1.03-7.48-1.03,7.48"/><path class="p" d="m106,312.17c-4.05-15.13-7.61-34.81-10.49-53.88l1.43-10.38,1.03-7.48c1.76-4.37,4.2-6.65,6.68-7.76-3.96,3.26-4.82,9.17-4.82,13.7,0,3.48.51,6.15.51,6.15l10.94,36.41-5.28,23.25"/><path class="au" d="m255.03,361.43l-11.74-8.59,6.08-9.41,12.31,7.35-6.64,10.65"/><path class="an" d="m263.56,359.41s9.65,7.11,12.59,9.35c0,0,.77,1.2-.06,1.93,0,0-.62.49-1.76-.18,0,0-7.9-4.5-12.94-8.4l7.61,7.55s.41.74-.22,1.21c0,0-.67.67-1.54-.03l-9.62-6.53s-8.39-5.09-7.66-8.53c.6-9.16,14.46-9.57,14.46-9.57,1.66-.1,3.3-.29,4.95-.43.43-.03.86-.07,1.3-.1,1.96-.21,2.3,1.14,2.3,1.14.33,1.56-1.35,2.03-1.35,2.03l-8.38,2,17.39,10.43s2.32,1.56,1.33,2.86c0,0-.4.95-2.83-.53l-15.01-7.57s13.77,8.91,16.87,10.87c0,0,1.13,1.27-.54,2.05,0,0-1,.4-3-1.21,0,0-12.88-7.35-13.9-8.34"/><path class="u" d="m250.33,360.96l-43.5-26.24-19.04-83.91s-2.76-12.54,5.51-18.44c0,0,11.18-5.22,16.35,7.64l10.91,79.09,37.19,28.36s-7.82,3.85-7.42,13.5"/><path class="p" d="m201.61,311.76l-5.28-23.28,1.29-4.29,9.52-31.68s.51-2.67.51-6.15c0-5.01-1.06-11.71-6.2-14.65,2.95.81,6.07,3.04,8.18,8.3l2.46,17.86c-2.88,19.08-6.44,38.76-10.49,53.89"/><path class="au" d="m145.23,227.55h17.29v-32.75h-17.29v32.75Z"/><path class="aq" d="m145.23,217.67v-11.94c2.8.9,5.65,1.55,8.51,1.91,2.94-.38,5.89-1.06,8.78-2v2.69l-17.29,9.34"/><path class="au" d="m162.7,222.92l38.66,8.74c8.84,4.92,5.78,20.85,5.78,20.85l-18.96,63.09s-4.37,9.42,1.3,16.22c0,0,20.23,29.78,7.95,76.47h-87.38c-12.28-46.69,7.95-76.47,7.95-76.47,5.66-6.8,1.3-16.22,1.3-16.22l-18.96-63.09s-3.06-15.93,5.78-20.85l38.66-8.74h17.92"/><path class="ap" d="m207.14,252.51s3.06-15.93-5.78-20.85l-38.66-8.74s-.73,4.25-8.96,4.63c-8.23-.38-8.96-4.63-8.96-4.63l-38.66,8.74c-8.84,4.92-5.78,20.85-5.78,20.85l18.96,63.09s4.37,9.42-1.3,16.22c0,0-20.23,29.78-7.95,76.47h87.38c12.28-46.69-7.95-76.47-7.95-76.47-5.66-6.8-1.3-16.22-1.3-16.22l18.96-63.09"/><path class="u" d="m118.11,314.98s4.52,9.51-1.34,16.37c0,0-13.79,19.81-12.19,52.47h98.31c1.6-32.66-12.19-52.47-12.19-52.47-5.86-6.86-1.34-16.37-1.34-16.37l19.61-63.68s3.16-16.08-5.98-21.05l-33.25-7.33-16,60.09-16-60.09-33.25,7.33c-9.14,4.97-5.98,21.05-5.98,21.05l19.61,63.68"/><path class="ba" d="m189.84,310.07l6.49-21.59-6.49,21.59"/><path class="am" d="m196.33,288.48l1.29-4.29-1.29,4.29"/><path class="p" d="m111.17,364.46l-3.86-1.8c3.06-19.55,10.76-30.83,10.76-30.83,2.24-2.68,2.92-5.76,2.92-8.51,0-4.24-1.62-7.71-1.62-7.71l-11.57-38.25c2.6,5.2,5.1,10.45,10.04,13.67,3.28,2.14,7.41,2.69,11.22,3.06,4.57.44,9.2.55,13.82.55,3.04,0,6.07-.05,9.1-.09.63,0,1.27-.01,1.92-.01,1.73,0,3.49.02,5.26.05,1.77.02,3.55.05,5.34.05,8.38,0,16.82-.53,24.29-4.14,3.41-1.65,6.52-3.86,9.48-6.3l-1.3,4.29-6.54,21.59c-4.69-4.96-13.45-6.15-20.43-6.19-6.2-.03-12.39-1.2-18.57-1.63-1.84-.13-3.81-.26-5.8-.26-3.8,0-7.66.47-10.83,2.31-4.35,2.51-3.97,7.24-2.61,11.37,2.05,6.24,5.98,12.4,4.06,19.18-1.12,3.93-4.51,7.27-7.31,10.08-2.96,2.99-6.16,5.74-9.05,8.79-3.15,3.32-5.97,6.99-8.71,10.72"/><path class="az" d="m154.53,283.93l-15.48-61.01-17.99,4.2,11.2,18.91,6.93,2.71-4.44,2.66,19.78,32.54"/><path class="az" d="m153.74,283.93l15.61-61.01,17.98,4.2-11.2,18.91-6.93,2.71,4.44,2.66-19.91,32.54"/><path class="ad" d="m153.74,79.87c-44.47.75-52.23,29.96-52.23,66.78,0,29.88,25.69,57.59,52.23,60.99,26.53-3.4,52.22-31.12,52.22-60.99,0-36.82-7.77-66.03-52.22-66.78"/><path class="as" d="m153.74,207.65c-23.35-2.99-46.05-24.81-51.16-50.36.44-.23.86-.5,1.26-.81,6.88,22.48,28.1,39.08,49.91,41.88,21.8-2.79,43.03-19.4,49.9-41.88.4.31.82.58,1.26.81-5.12,25.55-27.81,47.37-51.16,50.36"/><path class="ad" d="m217.96,147.02c-.4,6.47-4.88,11.44-10.01,11.13-5.12-.32-8.95-5.81-8.55-12.27.4-6.47,4.88-11.44,10-11.13,5.13.32,8.95,5.82,8.55,12.27"/><path class="aa" d="m207.07,153.47c-3.02-1.31-2.99-8.83,1.07-8.83h.06c1.54.03,2.44,1.4,2.5,2.84,0,.24-.51,2.1-.91,2.1-.02,0-.03,0-.05-.01l.2.16c.2.09.44.1.69.1h.24c.53-1.08.84-2.26.91-3.45.06-.96.15-2-.14-2.94-.19-.63-1.12-2.36-2.04-2.36-.29,0-.58.17-.84.59-.17.28-.43.4-.69.4-.5,0-.98-.43-.83-1.04.31-1.28,1.4-1.86,2.56-1.86.88,0,1.8.34,2.46.97,1.92,1.86,2.09,4.67,1.73,7.18-.28,1.96-.86,4.46-2.63,5.69-.53-.3-1.12-.47-1.76-.48h-.07c-.94,0-1.81.36-2.47.94"/><path class="ad" d="m89.52,147.02c.4,6.47,4.88,11.44,10,11.13,5.12-.32,8.96-5.81,8.55-12.27-.4-6.47-4.88-11.44-10.01-11.13-5.12.32-8.95,5.82-8.55,12.27"/><path class="aa" d="m100.41,153.47c-.64-.57-1.49-.92-2.4-.94h-.07c-.67,0-1.28.17-1.83.48-1.76-1.23-2.36-3.73-2.63-5.69-.36-2.51-.19-5.32,1.73-7.18.66-.63,1.58-.97,2.46-.97,1.16,0,2.24.58,2.55,1.86.15.6-.33,1.04-.83,1.04-.26,0-.52-.12-.69-.4-.26-.42-.55-.59-.84-.59-.92,0-1.85,1.73-2.04,2.36-.29.94-.2,1.98-.14,2.94.07,1.19.38,2.37.91,3.45h.25c.24,0,.49-.02.69-.1l.2-.16s-.03.01-.05.01c-.41,0-.92-1.86-.91-2.1.07-1.45.96-2.81,2.5-2.84h.07c4.05,0,4.08,7.52,1.06,8.83"/><path class="ap" d="m213.26,156.24c0,2.06-1.66,3.72-3.72,3.72s-3.72-1.66-3.72-3.72,1.66-3.72,3.72-3.72,3.72,1.67,3.72,3.72"/><path class="ar" d="m209.54,159.96c-1.49,0-2.78-.87-3.37-2.14.59,1.27,1.88,2.14,3.37,2.14h.02-.02"/><path class="o" d="m209.54,159.96c-1.49,0-2.78-.87-3.37-2.14-.22-.47-.35-1.01-.35-1.57,0-2.05,1.66-3.72,3.72-3.72h.07c1.14.02,2.14.57,2.81,1.39-.43-.27-.94-.44-1.49-.44-1.53,0-2.77,1.24-2.77,2.77s1.23,2.77,2.77,2.77c.55,0,1.06-.17,1.49-.44-.67.83-1.67,1.37-2.81,1.39h-.07"/><path class="ap" d="m101.66,156.24c0,2.06-1.66,3.72-3.72,3.72s-3.72-1.66-3.72-3.72,1.66-3.72,3.72-3.72,3.72,1.67,3.72,3.72"/><path class="ar" d="m97.94,159.96c-.99,0-1.89-.39-2.56-1.02.67.63,1.57,1.02,2.56,1.02h.02-.02"/><path class="o" d="m97.94,159.96c-.99,0-1.89-.39-2.56-1.02-.72-.68-1.16-1.63-1.16-2.7,0-2.05,1.66-3.72,3.72-3.72h.07c1.13.02,2.14.57,2.81,1.39-.43-.27-.93-.44-1.48-.44-1.53,0-2.77,1.24-2.77,2.77s1.24,2.77,2.77,2.77c.55,0,1.05-.17,1.48-.44-.67.83-1.67,1.37-2.81,1.39h-.07"/><path class="aa" d="m153.74,166.66c-5.05,0-9-2.68-9-6.11,0-1.06.86-1.92,1.91-1.92s1.91.86,1.91,1.92c0,.9,2.06,2.28,5.17,2.28s5.17-1.38,5.17-2.28c0-1.06.85-1.92,1.91-1.92s1.91.86,1.91,1.92c0,3.43-3.95,6.11-8.99,6.11"/><path class="t" d="m137.8,156.24c0,3.78-5.07,6.85-11.31,6.85s-11.31-3.06-11.31-6.85,5.06-6.85,11.31-6.85,11.31,3.06,11.31,6.85"/><path class="t" d="m192.3,156.24c0,3.78-5.06,6.85-11.31,6.85s-11.31-3.06-11.31-6.85,5.07-6.85,11.31-6.85,11.31,3.06,11.31,6.85"/><path class="ah" d="m188.37,131.86c-2.55-2.59-5.95-4.09-9.59-4.02-4.91.1-9.72.73-14.61,1.12-2.88.22-3.18-4.79-.6-5.09,3.66-.43,7.34-.75,11.01-.74,3.15,0,6.61.08,9.35,1.83,0,0,3.4,2.54,4.44,6.92"/><path class="ah" d="m119.11,131.86c2.55-2.59,5.95-4.09,9.59-4.02,4.91.1,9.72.73,14.61,1.12,2.88.22,3.19-4.79.6-5.09-3.66-.43-7.34-.75-11.02-.74-3.14,0-6.6.08-9.34,1.83,0,0-3.4,2.54-4.44,6.92"/><path class="bc" d="m59.73,359.88s12.05-12.86,39.5-1.03l97.35,45.83-2.41,15.97s-52.42,0-121.52-28.44c0,0-27.25-16.33-12.91-32.34"/><path class="ad" d="m240.62,432.31s-25.94.02-46.13-13.83l2.08-13.8s5.89,2.95,11.41.4c0,0,8.08-2.07,10.63,3.22,0,0,1.28,2.73,0,5.29,0,0,4.79,12.64,23.08,13.49,0,0,2.65.22,2.65,2.98,0,0,0,2.87-3.72,2.26"/><path class="ay" d="m183.74,420.13c-7.29-.57-18.15-1.78-31.72-4.29h0c13.56,2.51,24.41,3.72,31.7,4.29h0"/><path class="ag" d="m183.73,420.13c-7.29-.57-18.14-1.78-31.7-4.29,12.7-2.35,27.77-5.85,44.53-11.05l-.13.79c-6.18,1.73-17.72,5.25-14.63,11.89.47,1.01,1.14,1.88,1.92,2.66"/><path class="r" d="m196.44,405.57l.13-.79-.12.79h0"/><path class="ba" d="m84.07,396.72c-3.67-1.39-7.41-2.86-11.19-4.41,3.78,1.55,7.52,3.03,11.19,4.41"/><path class="ay" d="m107.49,404.78c-7.49-2.33-15.33-5-23.43-8.06,8.11,3.06,15.93,5.73,23.43,8.06"/><path class="ba" d="m72.82,392.29s-.03,0-.05-.02c0,.01.03.02.05.02"/><path class="ag" d="m107.49,404.78c-7.49-2.33-15.32-5-23.43-8.06-3.67-1.39-7.41-2.86-11.19-4.41-.02,0-.04-.01-.06-.03-.02,0-.04,0-.05-.02-.04-.02-.09-.03-.13-.05,0,0-17.07-10.23-17.08-22.44,0-3.22,1.17-6.57,4.16-9.9,0,0,5.05-5.37,16.03-5.97-5.08,4.28-8.19,11.59-7.26,17.71,1.53,10.14,13.61,15.55,21.47,19.96,5.14,2.88,10.77,4.36,16.56,4.36,1.28,0,2.58-.07,3.87-.22,6.64-.75,12.5-3.89,18.53-6.52,5.17-2.26,10.56-4.27,15.25-7.48.5-.34,1-.67,1.5-1l6.35,2.99-44.55,20.97v.1"/><path class="ad" d="m241.69,427.08c-18.29-.85-23.08-13.49-23.08-13.49,1.28-2.56,0-5.29,0-5.29-2.55-5.29-10.63-3.22-10.63-3.22-2.99,1.38-6.08,1.15-8.29.65-.06.16-.19.3-.4.36-.75.23-1.83.53-3.06.91l-1.74,11.49c20.19,13.84,46.13,13.83,46.13,13.83,3.72.61,3.72-2.26,3.72-2.26,0-2.76-2.65-2.98-2.65-2.98"/><path class="at" d="m244.33,359.88s-12.04-12.86-39.49-1.03l-97.35,45.83,2.41,15.97s52.42,0,121.52-28.44c0,0,27.25-16.33,12.91-32.34"/><path class="ac" d="m109.9,420.66l-1.4-9.22c1.7,1.16,3.56,2.07,5.68,2.58,1.12.27,2.27.37,3.42.37,2.23,0,4.47-.39,6.63-.74,5.29-.86,10.47-2.29,15.66-3.57,19.22-4.74,38.14-10.31,56.62-17.45,8.01-3.1,16.49-6.16,23.87-10.6,5.33-3.19,10.64-8.01,11.98-14.31,1.14-5.37-2.15-10.09-6.33-13.01-.38-.25-.78-.53-1.21-.82.5-.02.99-.02,1.46-.02,12.39,0,18.05,6.02,18.05,6.02,2.99,3.33,4.17,6.68,4.17,9.9,0,12.21-17.08,22.44-17.08,22.44-12.2,5.02-23.89,9.16-34.85,12.57-16.76,5.2-31.83,8.7-44.53,11.05h0c-26.06,4.83-42.13,4.82-42.13,4.82"/><path class="ad" d="m63.44,432.31s25.94.02,46.13-13.83l-2.08-13.8s-5.88,2.95-11.41.4c0,0-8.08-2.07-10.63,3.22,0,0-1.28,2.73,0,5.29,0,0-4.79,12.64-23.07,13.49,0,0-2.66.22-2.66,2.98,0,0,0,2.87,3.72,2.26"/><path class="ao" d="m153.74,227.55s-6.59.29-8.96-4.63l-11.04,1.47s-7.76.51-3.62,7.68c0,0,3.4,6.8,15.1,7.65,0,0,11.16-.63,8.51-12.17"/><path class="ao" d="m153.65,227.55s6.59.29,8.95-4.63l11.04,1.47s7.76.51,3.62,7.68c0,0-3.4,6.8-15.11,7.65,0,0-11.15-.63-8.51-12.17"/><path class="ah" d="m200.94,131.25c3.43.67,2.13,7.42,3.19,12.45,0,0,.21-8.96,8.27-8.11,0,0,2.07-36.5-7.46-52.92,0,0-12.37-26.21-42.42-28.75,0,0-25.51-3.77-36.03,12.75,0,0-20.53,5.4-27.69,32.27,0,0-5.61,19.99-2.45,36.14,0,0,5.08-.48,6.19,8.62,12.63-21.78,32.47-46.36,32.47-46.36,0,0,6.51,22.31,65.92,33.91"/><path id="b" class="z" d="m175.28,269.45c-.21.01-.35.12-.35.36v10.59c0,.19.12.35.29.35h16.52c.15,0,.27-.02.34-.24,0,0,1.67-6,1.7-6.11.06-.23.02-.34-.15-.46-5.38-3.94-13.43-4.52-17.08-4.52-.52,0-.96.01-1.28.03"/><path id="c" class="q" d="m178.73,273.97c-.79-.12-1.32-.19-1.2-.31.15-.15.94-.2,1.66-.2.36,0,.62.02.92.04l.26-.27c-.38-.02-.64-.03-1.09-.04-1.44-.01-2.74.12-3.08.39-.4.33.73.51,1.71.66.77.12,1.38.23,1.17.38-.17.12-.71.17-1.51.16-.69,0-1.55-.07-2.23-.18l-.4.28c.5.08,1.53.18,2.41.19,1.65.01,2.71-.12,3.14-.42.51-.35-.75-.54-1.76-.69"/><path id="d" class="q" d="m181.11,274.46s.02,0,.03,0c.02,0,.02,0,.03,0,0,0,.56-.81.56-.81.56.38,1.12.87,1.42,1.4h.92l.45-.66s.02,0,.03,0c.02,0,.02,0,.03,0,.14.42,1.02.7,2.28.7.81,0,1.54-.1,1.73-.14l.48-.7h1.83l.19-.27h-1.83l.31-.46h2.18l.19-.28h-3.06l-1.04,1.52c-.22.03-.5.04-.78.04-.61,0-1.1-.07-1.38-.22-.21-.11-.29-.26-.24-.43.12-.39.94-.64,2.03-.64.23,0,.47,0,.68.02l.21-.3c-.26-.02-.58-.03-.89-.03-.96,0-1.81.15-2.35.43-.02,0-.04,0-.05,0-.02,0-.03,0-.02,0l.28-.4h-.8l-.87,1.28c-.28-.38-.85-.87-1.55-1.28h-.86l-.64.93c.32.11.42.19.51.31"/><polyline id="e" class="af" points="187.07 326.07 120.28 326.07 121.19 324.87 186.13 324.84 187.07 326.07"/><path class="w" d="m122.88,66.61s-4.89,1.67-3.77,9.35c1.08,7.66,18.59,34.22,38.34,42.68,19.75,8.46,45.78,8.35,52.35,5.5,4.19-1.81,7.6-4.07,8.56-9.83-20.02-9.03-95.48-47.7-95.48-47.7Z"/><g class="bi"><path class="u" d="m125.97,55.41c-8.84-10.45-20.98-21.4-14.54-26.99,6.44-5.6,18.57-5.17,24.62-3.73,30.03,7.13,44.25,4.16,60.91,12.49,20.35,10.17,27.2,21.52,38.69,33.15,11.84,11.94,27.22,23.87,24.09,29.97s-9.37,10.01-26.97,6.91c-17.56-3.08-106.8-51.8-106.8-51.8Z"/></g><g class="bf"><path class="p" d="m184.5,54.93c-11.61-5.82-26.28-.1-33.53-1.09-8.92-1.21-20.92-9.06-28.59-17.59-4.81-5.36-2.29-9.56.71-12.24-4.34.5-8.67,1.77-11.71,4.43-6.44,5.6,5.71,16.55,14.54,26.99,0,0,89.24,48.72,106.84,51.82,17.56,3.08,23.84-.81,26.97-6.91.64-1.25.48-2.73-.28-4.44-6.45,4.52-18.91,3.63-28.13.82-12.13-3.71-27.48-20.77-39.38-35.68-2.22-2.84-4.75-4.78-7.43-6.11Z"/></g><path class="aj" d="m126.59,52.8s-5.46,10.06-6.04,16.27c7.76,6.06,70.28,43.89,96.69,49.13,8.42-12.24,8.88-17.33,8.88-17.33,0,0-43.76-33.71-99.53-48.07Z"/><path class="aj" d="m174.95,78.13c-16.29-8.35-39.38-16.27-50.96-20.07-.75,1.66-1.5,3.53-2.16,5.41,25.29,18.96,82.4,42.66,98.81,49.28,1.28-2.11,2.29-3.98,3.07-5.49-8.88-5.78-31.39-20.21-48.76-29.12Z"/><path class="v" d="m130.04,77.94s-4.18,2.58-1.55,7.21c2.61,4.57,9.66,14.4,9.4,12.82-.24-1.62,2.54-13.22,2.54-13.22,0,0-8.69-5.35-10.39-6.81Z"/><path class="v" d="m143.8,87.03c0,2.09-4.07,12.13-1.47,14.62,2.59,2.52,5.88,6.55,5.78,5.35-.08-1.23,3.37-14.83,3.37-14.83l-7.68-5.13Z"/><path class="n" d="m122.25,73.22c1.48,3.48,7.08,15.55,12.7,22.22,5.63,6.63,13.06,13.16,18.84,16.12s15.98,6.96,23.27,7.97c7.25.99,24.9,2.29,28.61.44-6.47,3.37-27.44,2.66-41.59-2.5-14.14-5.16-22.43-11.5-29.84-20.53-7.41-9.03-11.98-23.72-11.98-23.72Z"/><path class="v" d="m131.2,93.3c.84,1.15,11.99,12.95,15.78,15.92-5.64-2.13-13.8-9.71-15.78-15.92Z"/><path class="ap" d="m147.73,139.12c.46,2.67-1.18,5.81-4.23,6.34-3.83.67-4.64-2.07-10.08-1.84-2.83.12-6.01,2.37-8.84,2.37-1.97,0-3.73-1.31-4.44-2.9-.71-1.59-.52-3.39.07-5.02,1.39-3.83,5.03-6.99,9.45-8.21,7.83-2.15,16.81,1.98,18.06,9.26"/><path class="aw" d="m139.3,138.56c0,2.9-2.72,5.26-6.07,5.26s-6.07-2.35-6.07-5.26,2.72-5.26,6.07-5.26,6.07,2.35,6.07,5.26"/><path class="ai" d="m143.74,141.46c-2.34-.14-3.84.63-3.84.63-.14-.18-1.97-2.49-5.12-2.38-2.72.09-4.3,1.91-4.52,2.17-.58-.22-2.89-1.02-5.58-.14-2.25.74-3.46,2.23-3.85,2.77.88,1.14,2.26,1.95,3.75,1.94,2.83,0,6.01-2.41,8.84-2.54,5.43-.24,6.24,2.7,10.08,1.98,1.54-.29,2.73-1.3,3.46-2.59-.73-.8-1.87-1.75-3.21-1.83"/><path class="ak" d="m120.83,144.57c-.09,0-.18-.02-.25-.07-.21-.12-.26-.37-.12-.54.57-.73,1.86-2.05,4.07-2.73,2-.61,3.82-.41,4.99-.13.37.09.76,0,1.04-.23.84-.68,2.25-1.5,4.2-1.56,2.36-.07,4.03,1.04,4.82,1.7.29.24.71.33,1.09.23.67-.18,1.76-.37,3.1-.3,1.5.08,2.75,1.05,3.53,1.85.16.16.14.41-.05.55-.19.14-.48.12-.64-.05-.67-.68-1.71-1.51-2.89-1.57-1.21-.07-2.18.11-2.78.27-.7.19-1.46.02-1.99-.42-.83-.71-2.23-1.54-4.15-1.48-1.68.05-2.89.76-3.62,1.35-.52.42-1.23.57-1.9.41-1.04-.25-2.66-.43-4.45.11-1.97.6-3.12,1.78-3.63,2.43-.09.11-.23.17-.37.17"/><path class="bb" d="m129.34,139.42c.34.24.82.28,1.25.22.64-.09,1.1-.27,1.25-.34,1.85-.84,4.23-.01,4.45-.58.08-.21-.19-.51-.23-.54-.25-.26-.61-.3-.8-.35-1.38-.36-2.86-.41-4.26-.16-.54.1-1.41.21-1.83.55-.39.32-.21.93.18,1.19"/><path class="ap" d="m131.59,134.58c-.96-.09-1.72.89-2.06,1.32-.3.38-.77,1.15-.74,2.13.01.41.13.85.47,1.15.34.29.94.38,1.29.1.25-.2.31-.51.31-.8s-.04-.59.05-.87c.1-.3.35-.55.62-.77.44-.35.54-.35.8-.64.17-.2.45-.52.37-.86-.09-.41-.63-.71-1.11-.76"/><path class="ap" d="m134.69,134.93c-.5.08-.94.39-1.15.79-.11.21-.15.46-.06.69.11.25.38.42.66.51.29.09.6.1.9.11.34.01.72.01.99-.17.24-.17.33-.46.3-.73-.08-.8-.67-1.36-1.65-1.19"/><path class="ap" d="m132.28,138.58c.26.12.57.12.87.11.48-.01.96-.03,1.44-.05.22,0,.46-.02.6-.16.18-.18.09-.49-.13-.64-.22-.15-.51-.18-.79-.2-.62-.03-1.25.01-1.86.13-.23.05-.42.06-.47.27-.05.21.14.44.34.53"/><path class="ap" d="m188.42,139.12c.46,2.67-1.18,5.81-4.23,6.34-3.83.67-4.64-2.07-10.08-1.84-2.83.12-6.01,2.37-8.84,2.37-1.97,0-3.73-1.31-4.44-2.9-.71-1.59-.52-3.39.07-5.02,1.39-3.83,5.03-6.99,9.44-8.21,7.83-2.15,16.81,1.98,18.06,9.26"/><path class="aw" d="m179.99,138.56c0,2.9-2.72,5.26-6.07,5.26s-6.07-2.35-6.07-5.26,2.72-5.26,6.07-5.26,6.07,2.35,6.07,5.26"/><path class="ai" d="m184.44,141.46c-2.34-.14-3.84.63-3.84.63-.14-.18-1.98-2.49-5.12-2.38-2.72.09-4.3,1.91-4.52,2.17-.57-.22-2.89-1.02-5.58-.14-2.25.74-3.46,2.23-3.85,2.77.88,1.14,2.26,1.95,3.75,1.94,2.83,0,6.01-2.41,8.84-2.54,5.43-.24,6.24,2.7,10.08,1.98,1.54-.29,2.72-1.3,3.46-2.59-.73-.8-1.87-1.75-3.21-1.83"/><path class="ak" d="m161.52,144.57c-.09,0-.18-.02-.25-.07-.21-.12-.26-.37-.12-.54.57-.73,1.86-2.05,4.07-2.73,2-.61,3.82-.41,4.99-.13.37.09.76,0,1.04-.23.84-.68,2.25-1.5,4.2-1.56,2.36-.07,4.03,1.04,4.82,1.7.29.24.71.33,1.09.23.67-.18,1.76-.37,3.1-.3,1.5.08,2.75,1.05,3.53,1.85.16.16.14.41-.05.55s-.48.12-.64-.05c-.67-.68-1.71-1.51-2.89-1.57-1.21-.07-2.18.11-2.78.27-.7.19-1.46.02-1.99-.42-.84-.71-2.23-1.54-4.15-1.48-1.68.05-2.89.76-3.62,1.35-.52.42-1.23.57-1.9.41-1.04-.25-2.66-.43-4.45.11-1.97.6-3.12,1.78-3.63,2.43-.09.11-.23.17-.37.17"/><path class="bb" d="m170.04,139.42c.34.24.82.28,1.25.22.64-.09,1.1-.27,1.25-.34,1.85-.84,4.23-.01,4.45-.58.08-.21-.19-.51-.23-.54-.25-.26-.61-.3-.8-.35-1.38-.36-2.86-.41-4.26-.16-.54.1-1.41.21-1.83.55-.39.32-.21.93.18,1.19"/><path class="ap" d="m172.29,134.58c-.96-.09-1.73.89-2.06,1.32-.3.38-.77,1.15-.74,2.13.01.41.13.85.47,1.15.34.29.94.38,1.29.1.25-.2.31-.51.31-.8,0-.29-.04-.59.05-.87.1-.3.35-.55.62-.77.44-.35.54-.35.8-.64.17-.2.45-.52.37-.86-.09-.41-.63-.71-1.11-.76"/><path class="ap" d="m175.39,134.93c-.5.08-.94.39-1.15.79-.11.21-.15.46-.06.69.11.25.38.42.66.51s.6.1.9.11c.34.01.72.01.99-.17.24-.17.33-.46.3-.73-.08-.8-.67-1.36-1.65-1.19"/><path class="ap" d="m172.98,138.58c.26.12.57.12.87.11.48-.01.96-.03,1.44-.05.22,0,.46-.02.6-.16.18-.18.09-.49-.13-.64-.22-.15-.51-.18-.79-.2-.62-.03-1.25.01-1.86.13-.23.05-.42.06-.47.27-.05.21.14.44.34.53"/><g class="bk"><g class="bh"><g class="be"><path class="bd" d="m134.6,168.98v23.31h37.78v-23.31h-37.78Z"/></g></g></g><path class="s" d="m154.89,171.71c-1.36.17-.14,2.07-.25,3.35-.05.64-.73,1.46-2.03,1.46-1.34,0-1.78-1.02-1.82-1.62-.1-1.29,1.37-3.2-.46-3.32-2.22-.15-5.15,2.13-6.76,5.12-1.6,2.98-1.5,6.91.49,9.41.19.24.42.47.69.7,2.62-2.83,5.67-5.73,8.72-5.73,2.89,0,5.77,2.6,8.29,5.28.42-.68.75-1.46.94-2.38,2.05-9.99-5.98-12.47-7.82-12.25"/><path class="ap" d="m161.72,171.1c-2.6-1.36-5.44-2.12-8.24-2.12-2.95,0-5.94.84-8.66,2.35,4.27,2.57,11.65,4.42,16.89-.22"/><path class="av" d="m154.57,170.8c1.68.12,3.99.41,5.77,1.35.47-.31.94-.66,1.38-1.05-2.6-1.36-5.44-2.12-8.24-2.12-2.94,0-5.94.84-8.66,2.35.54.33,1.14.64,1.77.93,2.33-1.34,5.55-1.63,7.98-1.46"/><path class="ap" d="m171.14,191.28c.64-.72.97-1.68,1.11-2.64.09-.57.36-1.57-.26-1.78-.72-.25-1.49-.32-2.24-.33-.82-.01-3.22.78-3.76.45-1.56-.97-3.58-1.37-5.33-1.78,2.07,1.73,6.94,9.95,10.46,6.08.1-.11-.02.02,0,0"/><path class="ap" d="m134.63,186.74c-.24,4.79,2.58,6.48,5.1,5.03,1.73-1,4.21-4.33,7.02-7.02-3.69.46-7.21,1.19-7.87,1.98-.93-1.19-2.83-.8-4.25,0"/><path class="av" d="m144.07,185.14c-.95,1.8-2.34,3.75-4.03,4.12-2.11.46-3.2-1.34-3.39-3.25-.68.1-1.39.37-2.02.73-.09,1.79.25,3.15.84,4.07h0c.2.31.42.57.66.78h0c.12.11.24.19.37.27.01,0,.02.01.03.02.25.15.52.26.8.32.02,0,.03,0,.05.01.13.03.27.04.41.05.02,0,.04,0,.07,0,.14,0,.29,0,.43-.01.14-.02.29-.04.43-.08.02,0,.05-.01.07-.02.14-.04.28-.09.42-.14.03-.01.05-.02.08-.03.14-.06.29-.13.43-.21.1-.06.21-.13.32-.2.04-.03.07-.05.11-.08.07-.05.14-.11.22-.17.04-.04.09-.07.14-.11.07-.06.14-.11.21-.18.05-.04.29-.26.36-.33.05-.05.3-.29.37-.36.06-.06.66-.68.7-.72,1.35-1.43,2.91-3.26,4.58-4.87h0c-.92.11-1.83.24-2.68.39"/><path class="av" d="m168.49,189.83c-2.15.4-3.77-1.72-4.73-3.78-.89-.29-1.96-.59-3.08-.85,2.61,2.6,4.92,5.62,6.56,6.57,2.48,1.43,5.24-.18,5.11-4.76-.47-.22-1.1-.36-1.78-.43-.1,1.51-.73,3-2.08,3.25"/><path class="y" d="m149.8,187.85c1.79-2.48,4.81-2.56,7.02-.08-1.53-.44-4.81-1.64-7.02.08"/><path class="y" d="m132.37,191.41c.44,2.44,1.36,2.96,3.87,3.4-2.1,1.24-4.6,0-3.87-3.4"/><g class="bj"><path class="y" d="m169.97,195.36c2.72-.15,3.81-1.53,4.12-4.14.72,3.66-1.17,5.07-4.12,4.14"/></g><path class="ax" d="m138.9,186.4c-.43-.43-1.02-.66-1.74-.66-.82,0-1.73.3-2.51.72-.01.19-.02.38-.03.56.77-.46,1.71-.81,2.54-.81.68,0,1.2.22,1.55.67.04.05.11.09.17.09.07,0,.13-.03.18-.08.6-.71,3.87-1.4,7.41-1.86,0,0,.57-.55.58-.55-3.55.43-7.08,1.11-8.14,1.92"/><path class="ax" d="m166.23,186.85c-.83-.57-3.2-1.37-5.89-1.97.22.21.44.43.65.65,2.44.59,4.5,1.31,5.08,1.8.08.06.18.07.26.02.5-.33,1.85-.56,3.21-.56,1.23,0,2.22.18,2.8.5,0-.17,0-.35-.01-.54-.89-.38-2.11-.44-2.79-.44-1.35,0-2.67.23-3.32.56"/><path class="ax" d="m161.94,171.22c-.15-.08-.3-.16-.45-.24-2.07,1.8-4.65,2.74-7.59,2.74-3.22,0-6.46-1.11-8.84-2.52-.16.09-.32.17-.47.26,2.47,1.51,5.91,2.73,9.31,2.73,3.13,0,5.86-1.02,8.04-2.98"/><g class="bg"><path class="x" d="m153.49,180.57c3.72,0,7.33,3.98,10.24,7.18,1.48,1.63,2.75,3.03,3.74,3.6.5.29,1.04.45,1.54.45.81,0,1.5-.38,2.02-1.09,1.05-1.45,1.16-4.08.31-7.2-2.18-8.01-9.85-14.04-17.84-14.04s-15.67,6.04-17.84,14.04c-.85,3.12-.73,5.74.31,7.2.52.71,1.21,1.09,2.02,1.09.51,0,1.03-.15,1.54-.45.98-.57,2.26-1.97,3.74-3.6,2.9-3.2,6.52-7.18,10.24-7.18Zm15.51,12.18c-.65,0-1.34-.2-1.98-.57-1.1-.64-2.43-2.09-3.96-3.78-2.78-3.06-6.25-6.88-9.57-6.88s-6.79,3.81-9.57,6.88c-1.53,1.69-2.85,3.14-3.96,3.78-.65.38-1.32.57-1.98.57-1.09,0-2.06-.52-2.75-1.47-1.24-1.72-1.41-4.58-.47-8.04,2.28-8.4,10.33-14.74,18.72-14.74s16.44,6.34,18.72,14.74c.94,3.46.78,6.32-.46,8.04-.69.95-1.66,1.47-2.75,1.47"/></g></svg>