<?xml version="1.0" encoding="UTF-8"?>
<svg id="a" data-name="Calque 5" xmlns="http://www.w3.org/2000/svg" xmlns:xlink="http://www.w3.org/1999/xlink" viewBox="0 0 301.56 430.92">
  <defs>
    <style>
      .h {
        fill: #061015;
      }

      .h, .i, .j, .k, .l, .m, .n, .o, .p, .q, .r, .s, .t, .u, .v, .w, .x, .y, .z, .aa, .ab, .ac, .ad, .ae, .af, .ag, .ah, .ai, .aj, .ak, .al, .am, .an, .ao {
        stroke-width: 0px;
      }

      .i {
        fill: #e0e9ed;
      }

      .j {
        fill: #182237;
      }

      .k {
        fill: #fffffe;
      }

      .k, .q, .w {
        fill-rule: evenodd;
      }

      .ap {
        clip-path: url(#g);
      }

      .l {
        fill: #cd8161;
      }

      .m {
        fill: #f68c7d;
      }

      .n {
        fill: #1e2943;
      }

      .o {
        fill: #4f6976;
      }

      .q {
        fill: #cf1f59;
      }

      .r {
        fill: #d98c6d;
      }

      .s {
        fill: none;
      }

      .t {
        fill: #1e2a44;
      }

      .u {
        fill: #f89d77;
      }

      .v {
        fill: #371616;
      }

      .w, .z {
        fill: #be234b;
      }

      .x {
        fill: #182135;
      }

      .aq {
        clip-path: url(#f);
      }

      .y {
        fill: #401b1b;
      }

      .aa {
        fill: #2c1110;
      }

      .ab {
        fill: #151d2e;
      }

      .ac {
        fill: #f9ac7f;
      }

      .ad {
        fill: #daeaf0;
      }

      .ae {
        fill: #fff;
      }

      .af {
        fill: #f49262;
      }

      .ag {
        fill: #3a1919;
      }

      .ah {
        fill: #f69067;
      }

      .ai {
        fill: #243352;
      }

      .aj {
        fill: #f7ac80;
      }

      .ak {
        fill: #98bfcf;
      }

      .al {
        fill: #364d7c;
      }

      .am {
        fill: #d3d2d2;
      }

      .an {
        fill: #1c2740;
      }

      .ao {
        fill: #911826;
      }
    </style>
    <clipPath id="f">
      <rect class="s" x="72.88" y="24.55" width="165.79" height="49.74"/>
    </clipPath>
    <clipPath id="g">
      <rect class="s" x="72.88" y="46.2" width="165.79" height="28.09"/>
    </clipPath>
  </defs>
  <path class="y" d="m95.38,243.41h117.2v-125.98h-117.2v125.98Z"/>
  <path class="aa" d="m108.6,243.41h90.77v-125.98h-90.77v125.98Z"/>
  <path class="aj" d="m52.58,357.36l11.74-8.6-6.08-9.41-12.31,7.35,6.64,10.66"/>
  <path class="ac" d="m44.06,355.33s-9.65,7.12-12.59,9.35c0,0-.77,1.2.06,1.93,0,0,.62.5,1.77-.17,0,0,7.89-4.5,12.93-8.4l-7.61,7.54s-.4.74.23,1.21c0,0,.67.67,1.53-.03l9.62-6.52s8.39-5.09,7.66-8.53c-.6-9.16-14.46-9.57-14.46-9.57-1.66-.1-3.3-.29-4.95-.43-.43-.03-.87-.07-1.3-.1-1.96-.21-2.3,1.13-2.3,1.13-.32,1.56,1.35,2.03,1.35,2.03l8.37,2-17.38,10.44s-2.32,1.55-1.34,2.86c0,0,.41.95,2.83-.53l15.01-7.58s-13.77,8.91-16.86,10.87c0,0-1.14,1.27.53,2.06,0,0,1.01.39,3-1.21,0,0,12.88-7.35,13.91-8.35"/>
  <path class="n" d="m57.29,356.87l43.5-26.25,19.04-83.91s2.77-12.54-5.5-18.44c0,0-11.19-5.22-16.36,7.65l-10.91,79.08-37.19,28.35s7.82,3.86,7.42,13.51"/>
  <path class="am" d="m106,307.68l5.28-23.25-5.28,23.25m-10.49-53.88h0s1.43-10.38,1.43-10.38l-1.43,10.38"/>
  <path class="v" d="m96.94,243.41l1.03-7.48-1.03,7.48"/>
  <path class="j" d="m106,307.68c-4.05-15.13-7.61-34.81-10.49-53.88l1.43-10.38,1.03-7.48c1.76-4.37,4.2-6.65,6.68-7.76-3.96,3.26-4.82,9.17-4.82,13.7,0,3.48.51,6.15.51,6.15l10.94,36.41-5.28,23.25"/>
  <path class="aj" d="m255.03,356.94l-11.74-8.59,6.08-9.41,12.31,7.35-6.64,10.65"/>
  <path class="ac" d="m263.56,354.92s9.65,7.11,12.59,9.35c0,0,.77,1.2-.06,1.93,0,0-.62.49-1.76-.18,0,0-7.9-4.5-12.94-8.4l7.61,7.55s.41.74-.22,1.21c0,0-.67.67-1.54-.03l-9.62-6.53s-8.39-5.09-7.66-8.53c.6-9.16,14.46-9.57,14.46-9.57,1.66-.1,3.3-.29,4.95-.43.43-.03.86-.07,1.3-.1,1.96-.21,2.3,1.14,2.3,1.14.33,1.56-1.35,2.03-1.35,2.03l-8.38,2,17.39,10.43s2.32,1.56,1.33,2.86c0,0-.4.95-2.83-.53l-15.01-7.57s13.77,8.91,16.87,10.87c0,0,1.13,1.27-.54,2.05,0,0-1,.4-3-1.21,0,0-12.88-7.35-13.9-8.34"/>
  <path class="n" d="m250.32,356.47l-43.5-26.24-19.04-83.91s-2.76-12.54,5.51-18.44c0,0,11.18-5.22,16.35,7.64l10.91,79.09,37.19,28.36s-7.82,3.85-7.42,13.5"/>
  <path class="j" d="m201.61,307.27l-5.28-23.28,1.29-4.29,9.52-31.68s.51-2.67.51-6.15c0-5.01-1.06-11.71-6.2-14.65,2.95.81,6.07,3.04,8.18,8.3l2.46,17.86c-2.88,19.08-6.44,38.76-10.49,53.89"/>
  <path class="aj" d="m145.23,223.06h17.29v-32.75h-17.29v32.75Z"/>
  <path class="af" d="m145.23,213.18v-11.94c2.8.9,5.65,1.55,8.51,1.91,2.94-.38,5.89-1.06,8.78-2v2.69l-17.29,9.34"/>
  <path class="aj" d="m162.7,218.43l38.66,8.74c8.84,4.92,5.78,20.85,5.78,20.85l-18.96,63.09s-4.37,9.42,1.3,16.22c0,0,20.23,29.78,7.95,76.47h-87.38c-12.28-46.69,7.95-76.47,7.95-76.47,5.66-6.8,1.3-16.22,1.3-16.22l-18.96-63.09s-3.06-15.93,5.78-20.85l38.66-8.74h17.92"/>
  <path class="ae" d="m207.14,248.02s3.06-15.93-5.78-20.85l-38.66-8.74s-.73,4.25-8.96,4.63c-8.23-.38-8.96-4.63-8.96-4.63l-38.66,8.74c-8.84,4.92-5.78,20.85-5.78,20.85l18.96,63.09s4.37,9.42-1.3,16.22c0,0-20.23,29.78-7.95,76.47h87.38c12.28-46.69-7.95-76.47-7.95-76.47-5.66-6.8-1.3-16.22-1.3-16.22l18.96-63.09"/>
  <path class="n" d="m119.29,311.11s4.37,9.42-1.3,16.22c0,0-13.34,19.62-11.78,51.99h95.05c1.55-32.36-11.78-51.99-11.78-51.99-5.66-6.8-1.3-16.22-1.3-16.22l18.96-63.09s3.06-15.93-5.78-20.85l-32.15-7.27-15.47,59.54-15.47-59.54-32.15,7.27c-8.84,4.92-5.78,20.85-5.78,20.85l18.96,63.09"/>
  <path class="am" d="m189.84,305.58l6.49-21.59-6.49,21.59"/>
  <path class="ab" d="m196.33,283.99l1.29-4.29-1.29,4.29"/>
  <path class="j" d="m111.14,359.97l-3.83-1.8c3.03-19.55,10.69-30.83,10.69-30.83,2.23-2.68,2.9-5.76,2.9-8.51,0-4.24-1.6-7.71-1.6-7.71l-11.49-38.25c2.58,5.2,5.07,10.45,9.97,13.67,3.26,2.14,7.35,2.69,11.14,3.06,4.54.44,9.14.55,13.72.55,3.02,0,6.03-.05,9.03-.09.63,0,1.26-.01,1.91-.01,1.72,0,3.46.02,5.22.05,1.76.02,3.53.05,5.3.05,8.32,0,16.7-.53,24.11-4.14,3.39-1.65,6.47-3.86,9.41-6.3l-1.29,4.29-6.49,21.59c-4.66-4.96-13.36-6.15-20.28-6.19-6.15-.03-12.3-1.2-18.44-1.63-1.83-.13-3.79-.26-5.76-.26-3.77,0-7.61.47-10.76,2.31-4.32,2.51-3.94,7.24-2.59,11.37,2.03,6.24,5.94,12.4,4.03,19.18-1.11,3.93-4.48,7.27-7.25,10.08-2.94,2.99-6.12,5.74-8.99,8.79-3.13,3.32-5.92,6.99-8.65,10.72"/>
  <path class="al" d="m153.74,279.44l-15.48-59.54-17.99,4.09,11.2,18.46,6.93,2.64-4.44,2.59,19.78,31.76"/>
  <path class="al" d="m153.74,279.44l15.61-59.54,17.98,4.09-11.2,18.46-6.93,2.64,4.44,2.59-19.91,31.76"/>
  <path class="u" d="m153.74,75.38c-44.47.75-52.23,29.96-52.23,66.78,0,29.88,25.69,57.59,52.23,60.99,26.53-3.4,52.22-31.12,52.22-60.99,0-36.82-7.77-66.03-52.22-66.78"/>
  <path class="ah" d="m153.74,203.16c-23.35-2.99-46.05-24.81-51.16-50.36.44-.23.86-.5,1.26-.81,6.88,22.48,28.1,39.08,49.91,41.88,21.8-2.79,43.03-19.4,49.9-41.88.4.31.82.58,1.26.81-5.12,25.55-27.81,47.37-51.16,50.36"/>
  <path class="u" d="m217.96,142.53c-.4,6.47-4.88,11.44-10.01,11.13-5.12-.32-8.95-5.81-8.55-12.27.4-6.47,4.88-11.44,10-11.13,5.13.32,8.95,5.82,8.55,12.27"/>
  <path class="r" d="m207.07,148.98c-3.02-1.31-2.99-8.83,1.07-8.83h.06c1.54.03,2.44,1.4,2.5,2.84,0,.24-.51,2.1-.91,2.1-.02,0-.03,0-.05-.01l.2.16c.2.09.44.1.69.1h.24c.53-1.08.84-2.26.91-3.45.06-.96.15-2-.14-2.94-.19-.63-1.12-2.36-2.04-2.36-.29,0-.58.17-.84.59-.17.28-.43.4-.69.4-.5,0-.98-.43-.83-1.04.31-1.28,1.4-1.86,2.56-1.86.88,0,1.8.34,2.46.97,1.92,1.86,2.09,4.67,1.73,7.18-.28,1.96-.86,4.46-2.63,5.69-.53-.3-1.12-.47-1.76-.48h-.07c-.94,0-1.81.36-2.47.94"/>
  <path class="u" d="m89.52,142.53c.4,6.47,4.88,11.44,10,11.13,5.12-.32,8.96-5.81,8.55-12.27-.4-6.47-4.88-11.44-10.01-11.13-5.12.32-8.95,5.82-8.55,12.27"/>
  <path class="r" d="m100.41,148.98c-.64-.57-1.49-.92-2.4-.94h-.07c-.67,0-1.28.17-1.83.48-1.76-1.23-2.36-3.73-2.63-5.69-.36-2.51-.19-5.32,1.73-7.18.66-.63,1.58-.97,2.46-.97,1.16,0,2.24.58,2.55,1.86.15.6-.33,1.04-.83,1.04-.26,0-.52-.12-.69-.4-.26-.42-.55-.59-.84-.59-.92,0-1.85,1.73-2.04,2.36-.29.94-.2,1.98-.14,2.94.07,1.19.38,2.37.91,3.45h.25c.24,0,.49-.02.69-.1l.2-.16s-.03.01-.05.01c-.41,0-.92-1.86-.91-2.1.07-1.45.96-2.81,2.5-2.84h.07c4.05,0,4.08,7.52,1.06,8.83"/>
  <path class="ae" d="m213.26,151.75c0,2.06-1.66,3.72-3.72,3.72s-3.72-1.66-3.72-3.72,1.66-3.72,3.72-3.72,3.72,1.67,3.72,3.72"/>
  <path class="ag" d="m209.54,155.47c-1.49,0-2.78-.87-3.37-2.14.59,1.27,1.88,2.14,3.37,2.14h.02-.02"/>
  <path class="i" d="m209.54,155.47c-1.49,0-2.78-.87-3.37-2.14-.22-.47-.35-1.01-.35-1.57,0-2.05,1.66-3.72,3.72-3.72h.07c1.14.02,2.14.57,2.81,1.39-.43-.27-.94-.44-1.49-.44-1.53,0-2.77,1.24-2.77,2.77s1.23,2.77,2.77,2.77c.55,0,1.06-.17,1.49-.44-.67.83-1.67,1.37-2.81,1.39h-.07"/>
  <path class="ae" d="m101.66,151.75c0,2.06-1.66,3.72-3.72,3.72s-3.72-1.66-3.72-3.72,1.66-3.72,3.72-3.72,3.72,1.67,3.72,3.72"/>
  <path class="ag" d="m97.94,155.47c-.99,0-1.89-.39-2.56-1.02.67.63,1.57,1.02,2.56,1.02h.02-.02"/>
  <path class="i" d="m97.94,155.47c-.99,0-1.89-.39-2.56-1.02-.72-.68-1.16-1.63-1.16-2.7,0-2.05,1.66-3.72,3.72-3.72h.07c1.13.02,2.14.57,2.81,1.39-.43-.27-.93-.44-1.48-.44-1.53,0-2.77,1.24-2.77,2.77s1.24,2.77,2.77,2.77c.55,0,1.05-.17,1.48-.44-.67.83-1.67,1.37-2.81,1.39h-.07"/>
  <path class="y" d="m167.13,138.43c1.6-2.13,4.04-3.21,6.52-3.21s4.92,1.07,6.52,3.21c.15.21.37.38.61.48.1.04.74.33,1.7.34.52,0,1.17-.1,1.8-.48.64-.38,1.16-1.05,1.44-1.85.28-.78-.13-1.65-.91-1.93-.78-.28-1.65.13-1.93.91-.1.27-.16.27-.17.3l-.23.03-.38-.05-.12-.03h0s0,0,0,0h0s0,0,0,0l-.6,1.38,1.21-.91c-2.2-2.95-5.59-4.42-8.93-4.41-3.34,0-6.73,1.46-8.93,4.41-.5.67-.36,1.61.31,2.11.67.5,1.61.36,2.11-.3"/>
  <path class="y" d="m142.77,136.63c-2.21-2.95-5.59-4.42-8.93-4.41-3.34,0-6.73,1.46-8.93,4.41l1.21.91-.6-1.38h0s0,0,0,0h0s0,0,0,0c-.07.02-.32.09-.5.09-.13,0-.21-.02-.23-.03-.02-.03-.07-.03-.17-.3-.28-.78-1.14-1.2-1.93-.91-.78.28-1.2,1.14-.91,1.93.28.8.8,1.46,1.43,1.85s1.28.48,1.8.48c.96,0,1.6-.3,1.7-.34.24-.1.45-.27.61-.48,1.59-2.13,4.03-3.21,6.52-3.21s4.92,1.07,6.51,3.21c.5.67,1.44.8,2.11.3.67-.5.8-1.44.31-2.11"/>
  <path class="r" d="m153.74,162.17c-5.05,0-9-2.68-9-6.11,0-1.06.86-1.92,1.91-1.92s1.91.86,1.91,1.92c0,.9,2.06,2.28,5.17,2.28s5.17-1.38,5.17-2.28c0-1.06.85-1.92,1.91-1.92s1.91.86,1.91,1.92c0,3.43-3.95,6.11-8.99,6.11"/>
  <path class="m" d="m137.8,151.75c0,3.78-5.07,6.85-11.31,6.85s-11.31-3.06-11.31-6.85,5.06-6.85,11.31-6.85,11.31,3.06,11.31,6.85"/>
  <path class="m" d="m192.3,151.75c0,3.78-5.06,6.85-11.31,6.85s-11.31-3.06-11.31-6.85,5.07-6.85,11.31-6.85,11.31,3.06,11.31,6.85"/>
  <path class="y" d="m188.37,127.37c-2.55-2.59-5.95-4.09-9.59-4.02-4.91.1-9.72.73-14.61,1.12-2.88.22-3.18-4.79-.6-5.09,3.66-.43,7.34-.75,11.01-.74,3.15,0,6.61.08,9.35,1.83,0,0,3.4,2.54,4.44,6.92"/>
  <path class="y" d="m119.11,127.37c2.55-2.59,5.95-4.09,9.59-4.02,4.91.1,9.72.73,14.61,1.12,2.88.22,3.19-4.79.6-5.09-3.66-.43-7.34-.75-11.02-.74-3.14,0-6.6.08-9.34,1.83,0,0-3.4,2.54-4.44,6.92"/>
  <path class="ao" d="m167.87,167.19c-1.48,2.88-3.59,5.01-6.06,6.44-2.46,1.42-5.26,2.14-8.07,2.14s-5.61-.72-8.07-2.14c-2.46-1.43-4.58-3.56-6.06-6.44-.38-.74-1.29-1.03-2.03-.66-.74.38-1.03,1.29-.66,2.03,1.74,3.39,4.29,5.96,7.23,7.66,2.93,1.71,6.26,2.56,9.58,2.56s6.64-.85,9.58-2.56c2.93-1.7,5.49-4.27,7.23-7.66.38-.74.08-1.65-.66-2.03-.73-.37-1.65-.09-2.03.66"/>
  <path class="an" d="m59.73,355.39s12.05-12.86,39.5-1.03l97.35,45.83-2.41,15.97s-52.42,0-121.52-28.44c0,0-27.25-16.33-12.91-32.34"/>
  <path class="u" d="m240.62,427.82s-25.94.02-46.13-13.83l2.08-13.8s5.89,2.95,11.41.4c0,0,8.08-2.07,10.63,3.22,0,0,1.28,2.73,0,5.29,0,0,4.79,12.64,23.08,13.49,0,0,2.65.22,2.65,2.98,0,0,0,2.87-3.72,2.26"/>
  <path class="ak" d="m183.74,415.63c-7.29-.57-18.15-1.78-31.72-4.29h0c13.56,2.51,24.41,3.72,31.7,4.29h0"/>
  <path class="x" d="m183.73,415.63c-7.29-.57-18.14-1.78-31.7-4.29,12.7-2.35,27.77-5.85,44.53-11.05l-.13.79c-6.18,1.73-17.72,5.25-14.63,11.89.47,1.01,1.14,1.88,1.92,2.66"/>
  <path class="l" d="m196.44,401.08l.13-.79-.12.79h0"/>
  <path class="am" d="m84.07,392.23c-3.67-1.39-7.41-2.86-11.19-4.41,3.78,1.55,7.52,3.03,11.19,4.41"/>
  <path class="ak" d="m107.49,400.29c-7.49-2.33-15.33-5-23.43-8.06,8.11,3.06,15.93,5.73,23.43,8.06"/>
  <path class="am" d="m72.82,387.79s-.03,0-.05-.02c0,.01.03.02.05.02"/>
  <path class="x" d="m107.49,400.29c-7.49-2.33-15.32-5-23.43-8.06-3.67-1.39-7.41-2.86-11.19-4.41-.02,0-.04-.01-.06-.03-.02,0-.04,0-.05-.02-.04-.02-.09-.03-.13-.05,0,0-17.07-10.23-17.08-22.44,0-3.22,1.17-6.57,4.16-9.9,0,0,5.05-5.37,16.03-5.97-5.08,4.28-8.19,11.59-7.26,17.71,1.53,10.14,13.61,15.55,21.47,19.96,5.14,2.88,10.77,4.36,16.56,4.36,1.28,0,2.58-.07,3.87-.22,6.64-.75,12.5-3.89,18.53-6.52,5.17-2.26,10.56-4.27,15.25-7.48.5-.34,1-.67,1.5-1l6.35,2.99-44.55,20.97v.1"/>
  <path class="u" d="m241.69,422.58c-18.29-.85-23.08-13.49-23.08-13.49,1.28-2.56,0-5.29,0-5.29-2.55-5.29-10.63-3.22-10.63-3.22-2.99,1.38-6.08,1.15-8.29.65-.06.16-.19.3-.4.36-.75.23-1.83.53-3.06.91l-1.74,11.49c20.19,13.84,46.13,13.83,46.13,13.83,3.72.61,3.72-2.26,3.72-2.26,0-2.76-2.65-2.98-2.65-2.98"/>
  <path class="ai" d="m244.33,355.39s-12.04-12.86-39.49-1.03l-97.35,45.83,2.41,15.97s52.42,0,121.52-28.44c0,0,27.25-16.33,12.91-32.34"/>
  <path class="t" d="m109.9,416.16l-1.4-9.22c1.7,1.16,3.56,2.07,5.68,2.58,1.12.27,2.27.37,3.42.37,2.23,0,4.47-.39,6.63-.74,5.29-.86,10.47-2.29,15.66-3.57,19.22-4.74,38.14-10.31,56.62-17.45,8.01-3.1,16.49-6.16,23.87-10.6,5.33-3.19,10.64-8.01,11.98-14.31,1.14-5.37-2.15-10.09-6.33-13.01-.38-.25-.78-.53-1.21-.82.5-.02.99-.02,1.46-.02,12.39,0,18.05,6.02,18.05,6.02,2.99,3.33,4.17,6.68,4.17,9.9,0,12.21-17.08,22.44-17.08,22.44-12.2,5.02-23.89,9.16-34.85,12.57-16.76,5.2-31.83,8.7-44.53,11.05h0c-26.06,4.83-42.13,4.82-42.13,4.82"/>
  <path class="u" d="m63.44,427.82s25.94.02,46.13-13.83l-2.08-13.8s-5.88,2.95-11.41.4c0,0-8.08-2.07-10.63,3.22,0,0-1.28,2.73,0,5.29,0,0-4.79,12.64-23.07,13.49,0,0-2.66.22-2.66,2.98,0,0,0,2.87,3.72,2.26"/>
  <path class="ad" d="m153.74,223.06s-6.59.29-8.96-4.63l-11.04,1.47s-7.76.51-3.62,7.68c0,0,3.4,6.8,15.1,7.65,0,0,11.16-.63,8.51-12.17"/>
  <path class="ad" d="m153.65,223.06s6.59.29,8.95-4.63l11.04,1.47s7.76.51,3.62,7.68c0,0-3.4,6.8-15.11,7.65,0,0-11.15-.63-8.51-12.17"/>
  <path class="y" d="m200.94,126.76c3.43.67,2.13,7.42,3.19,12.45,0,0,.21-8.96,8.27-8.11,0,0,2.07-36.5-7.46-52.92,0,0-12.37-26.21-42.42-28.75,0,0-25.51-3.77-36.03,12.75,0,0-20.53,5.4-27.69,32.27,0,0-5.61,19.99-2.45,36.14,0,0,5.08-.48,6.19,8.62,12.63-21.78,32.47-46.36,32.47-46.36,0,0,6.51,22.31,65.92,33.91"/>
  <path id="b" data-name="Fill-7" class="q" d="m175.28,264.95c-.21.01-.35.12-.35.36v10.59c0,.19.12.35.29.35h16.52c.15,0,.27-.02.34-.24,0,0,1.67-6,1.7-6.11.06-.23.02-.34-.15-.46-5.38-3.94-13.43-4.52-17.08-4.52-.52,0-.96.01-1.28.03"/>
  <path id="c" data-name="Fill-8" class="k" d="m178.73,269.48c-.79-.12-1.32-.19-1.2-.31.15-.15.94-.2,1.66-.2.36,0,.62.02.92.04l.26-.27c-.38-.02-.64-.03-1.09-.04-1.44-.01-2.74.12-3.08.39-.4.33.73.51,1.71.66.77.12,1.38.23,1.17.38-.17.12-.71.17-1.51.16-.69,0-1.55-.07-2.23-.18l-.4.28c.5.08,1.53.18,2.41.19,1.65.01,2.71-.12,3.14-.42.51-.35-.75-.54-1.76-.69"/>
  <path id="d" data-name="Fill-9" class="k" d="m181.11,269.97s.02,0,.03,0c.02,0,.02,0,.03,0,0,0,.56-.81.56-.81.56.38,1.12.87,1.42,1.4h.92l.45-.66s.02,0,.03,0c.02,0,.02,0,.03,0,.14.42,1.02.7,2.28.7.81,0,1.54-.1,1.73-.14l.48-.7h1.83l.19-.27h-1.83l.31-.46h2.18l.19-.28h-3.06l-1.04,1.52c-.22.03-.5.04-.78.04-.61,0-1.1-.07-1.38-.22-.21-.11-.29-.26-.24-.43.12-.39.94-.64,2.03-.64.23,0,.47,0,.68.02l.21-.3c-.26-.02-.58-.03-.89-.03-.96,0-1.81.15-2.35.43-.02,0-.04,0-.05,0-.02,0-.03,0-.02,0l.28-.4h-.8l-.87,1.28c-.28-.38-.85-.87-1.55-1.28h-.86l-.64.93c.32.11.42.19.51.31"/>
  <polyline id="e" data-name="Fill-6" class="w" points="187.07 321.58 120.28 321.58 121.19 320.38 186.13 320.35 187.07 321.58"/>
  <g>
    <path class="p" d="m101.46,84.74s-3.59,3.71.91,10.04c4.45,6.33,32.15,21.97,53.59,20.5s44.55-13.45,49.1-18.98c2.91-3.52,4.91-7.08,3.13-12.65-21.94,1.1-106.73,1.1-106.73,1.1Z"/>
    <g class="aq">
      <path class="n" d="m99.1,73.38c-12.63-5.27-28.43-9.47-25.25-17.39,3.18-7.92,14.17-13.07,20.21-14.55,29.97-7.35,41.28-16.48,59.9-16.67,22.75-.23,34.02,6.74,49.55,11.86,15.99,5.23,35.11,8.83,35.11,15.68s-3.77,13.18-20.85,18.45c-17.03,5.27-118.67,2.61-118.67,2.61Z"/>
    </g>
    <g class="ap">
      <path class="j" d="m150.96,46.25c-12.99.11-23.44,11.89-30.34,14.32-8.49,2.99-22.75,1.48-33.47-2.61-6.72-2.58-6.4-7.47-4.95-11.21-3.63,2.42-6.9,5.53-8.4,9.28-3.18,7.92,12.63,12.12,25.25,17.39,0,0,101.64,2.65,118.72-2.61,17.03-5.27,20.85-11.6,20.85-18.45,0-1.4-.82-2.65-2.27-3.83-3.68,6.97-15.17,11.86-24.66,13.56-12.49,2.24-33.93-5.95-51.32-13.79-3.27-1.52-6.4-2.08-9.4-2.05Z"/>
    </g>
    <path class="z" d="m98.46,70.76s-.27,11.44,2.04,17.24c9.67,1.86,82.57,7.01,108.45-.38,1.91-14.74,0-19.47,0-19.47,0,0-54.32-10.04-110.5,2.61Z"/>
    <path class="z" d="m153.05,71.26c-18.3,0-42.47,3.49-54.5,5.38.09,1.82.27,3.83.55,5.8,31.16,5.34,92.79.38,110.41-1.21.18-2.46.23-4.58.23-6.29-10.54-1.1-37.15-3.67-56.68-3.67Z"/>
    <path class="o" d="m112.99,91.56s-2.54,4.21,1.91,7.12c4.4,2.88,15.17,8.41,14.21,7.12-.95-1.33-3.77-12.92-3.77-12.92,0,0-10.17-.79-12.35-1.33Z"/>
    <path class="o" d="m129.39,93.38c.95,1.86,1.91,12.66,5.36,13.68,3.45,1.06,8.22,3.15,7.58,2.12-.63-1.06-3.77-14.74-3.77-14.74l-9.17-1.06Z"/>
    <path class="h" d="m103.91,90.92c2.91,2.43,13.4,10.61,21.44,13.98,8.04,3.34,17.62,5.76,24.12,5.76s17.4-1.1,24.34-3.52c6.9-2.42,23.21-9.32,25.66-12.65-4.22,5.95-23.21,14.89-38.15,16.75-14.94,1.86-25.2,0-35.92-4.66-10.72-4.66-21.48-15.65-21.48-15.65Z"/>
    <path class="o" d="m121.03,104.71c1.27.64,16.58,6.06,21.3,6.97-5.99.68-16.71-2.35-21.3-6.97Z"/>
  </g>
</svg>