<?xml version="1.0" encoding="UTF-8"?><svg id="a" xmlns="http://www.w3.org/2000/svg" xmlns:xlink="http://www.w3.org/1999/xlink" viewBox="0 0 300.61053 431.01364"><defs><style>.h{fill:#061015;}.h,.i,.j,.k,.l,.m,.n,.o,.p,.q,.r,.s,.t,.u,.v,.w,.x,.y,.z,.aa,.ab,.ac,.ad,.ae,.af,.ag,.ah,.ai,.aj,.ak,.al,.am,.an,.ao{stroke-width:0px;}.i{fill:#e0e9ed;}.j{fill:#182237;}.k{fill:#fffffe;}.k,.q,.w{fill-rule:evenodd;}.ap{clip-path:url(#g);}.l{fill:#cd8161;}.m{fill:#f68c7d;}.n{fill:#1e2943;}.o{fill:#4f6976;}.q{fill:#cf1f59;}.r{fill:#d98c6d;}.s{fill:none;}.t{fill:#1e2a44;}.u{fill:#f89d77;}.v{fill:#371616;}.w,.z{fill:#be234b;}.x{fill:#182135;}.aq{clip-path:url(#f);}.y{fill:#401b1b;}.aa{fill:#2c1110;}.ab{fill:#151d2e;}.ac{fill:#f9ac7f;}.ad{fill:#daeaf0;}.ae{fill:#fff;}.af{fill:#f49262;}.ag{fill:#3a1919;}.ah{fill:#f69067;}.ai{fill:#243352;}.aj{fill:#f7ac80;}.ak{fill:#98bfcf;}.al{fill:#364d7c;}.am{fill:#d3d2d2;}.an{fill:#1c2740;}.ao{fill:#911826;}</style><clipPath id="f"><rect class="s" x="72.87883" y="24.69737" width="165.79001" height="49.73504"/></clipPath><clipPath id="g"><rect class="s" x="72.87883" y="46.34674" width="165.79001" height="28.08567"/></clipPath></defs><path class="y" d="m95.38509,243.55767h117.20383v-125.97944h-117.20383v125.97944Z"/><path class="aa" d="m108.5985,243.55767h90.77266v-125.97944h-90.77266v125.97944Z"/><path class="aj" d="m52.58059,357.50595l11.74429-8.59741-6.07643-9.41456-12.30934,7.35431,6.64148,10.65766"/><path class="ac" d="m44.05707,355.47613s-9.64927,7.11525-12.59186,9.34936c0,0-.77368,1.19964.0565,1.92551,0,0,.62155.4955,1.76903-.16951,0,0,7.89327-4.50299,12.92654-8.39747l-7.6064,7.54121s-.40423.74325.23037,1.21268c0,0,.66502.67371,1.52997-.03477l9.61884-6.52412s8.38878-5.08542,7.65856-8.53221c-.59982-9.16246-14.45651-9.57103-14.45651-9.57103-1.65602-.10432-3.30335-.28687-4.94634-.42596-.43465-.03477-.8693-.07389-1.29961-.09997-1.95593-.21298-2.30365,1.13444-2.30365,1.13444-.32164,1.56475,1.34742,2.03417,1.34742,2.03417l8.37139,1.99505-17.38172,10.44033s-2.32104,1.54736-1.33873,2.85566c0,0,.40857.94754,2.82524-.52593l15.01287-7.58033s-13.76977,8.91036-16.86449,10.87499c0,0-1.13879,1.27353.53028,2.0559,0,0,1.01274.39119,2.9991-1.21268,0,0,12.88308-7.34996,13.9132-8.34531"/><path class="n" d="m57.29222,357.02349l43.49994-26.24862,19.03774-83.90516s2.76873-12.53535-5.49834-18.43792c0,0-11.19228-5.22017-16.35594,7.64552l-10.9141,79.08487-37.1888,28.35233s7.81938,3.85971,7.4195,13.50897"/><path class="am" d="m105.99929,307.82527l5.27667-23.24952-5.27667,23.24952m-10.48815-53.88377v-.00435l1.43-10.37948-1.43,10.38383"/><path class="v" d="m96.94114,243.55767l1.03447-7.48036-1.03447,7.48036"/><path class="j" d="m105.99929,307.82527c-4.04661-15.13023-7.61075-34.80691-10.48815-53.88377l1.43-10.38383,1.03447-7.48036c1.75599-4.3726,4.20308-6.65452,6.67625-7.76288-3.95968,3.25989-4.82463,9.1668-4.82463,13.70022,0,3.48156.50854,6.15467.50854,6.15467l10.94018,36.40642-5.27667,23.24952"/><path class="aj" d="m255.03265,357.09303l-11.74429-8.58872,6.07643-9.41456,12.30934,7.35431-6.64148,10.64897"/><path class="ac" d="m263.55617,355.0719s9.64927,7.1109,12.59186,9.34936c0,0,.77368,1.19964-.0565,1.92985,0,0-.61721.48681-1.76469-.17821,0,0-7.89762-4.49864-12.93523-8.39747l7.6064,7.54555s.41292.74325-.21733,1.21268c0,0-.67371.66936-1.53867-.03477l-9.61884-6.52847s-8.38878-5.08977-7.65856-8.53221c.59982-9.16246,14.45651-9.56668,14.45651-9.56668,1.65602-.10432,3.30335-.28687,4.94634-.43031.43465-.03043.86496-.06954,1.29961-.10432,1.95593-.20863,2.30365,1.14313,2.30365,1.14313.32599,1.55605-1.34742,2.03417-1.34742,2.03417l-8.37574,1.99505,17.39041,10.43164s2.31669,1.55605,1.33438,2.86001c0,0-.40423.94754-2.82524-.53028l-15.01287-7.57163s13.76977,8.91036,16.86883,10.87499c0,0,1.13444,1.26918-.53897,2.04721,0,0-.9997.39988-3.00344-1.20833,0,0-12.87873-7.34996-13.90451-8.34097"/><path class="n" d="m250.32538,356.61926l-43.49994-26.24427-19.04209-83.90516s-2.76438-12.5397,5.50704-18.44227c0,0,11.18359-5.22017,16.34725,7.64118l10.90976,79.08922,37.19314,28.35668s-7.81938,3.85101-7.41516,13.50463"/><path class="j" d="m201.61396,307.41669l-5.28102-23.2756,1.29092-4.29001,9.51887-31.68176s.51289-2.67311.51289-6.15467c0-5.00719-1.06055-11.70952-6.20248-14.64776,2.95128.80845,6.07208,3.04256,8.18449,8.30185l2.46448,17.85984c-2.87739,19.07686-6.43719,38.76224-10.48815,53.88812"/><path class="aj" d="m145.23095,223.20728h17.2861v-32.751h-17.2861v32.751Z"/><path class="af" d="m145.23095,213.33199v-11.93554c2.8035.89973,5.65482,1.54736,8.51048,1.91247,2.94259-.37815,5.88518-1.0562,8.77562-2.00374v2.69049l-17.2861,9.33632"/><path class="aj" d="m162.6996,218.57824l38.66227,8.7365c8.83647,4.9246,5.78087,20.85459,5.78087,20.85459l-18.95951,63.09404s-4.36825,9.4189,1.29526,16.2212c0,0,20.22869,29.78233,7.94978,76.47262h-87.37803c-12.28326-46.69028,7.94978-76.47262,7.94978-76.47262,5.66351-6.8023,1.29526-16.2212,1.29526-16.2212l-18.95951-63.09404s-3.0556-15.92998,5.78087-20.85459l38.66227-8.7365h17.92069"/><path class="ae" d="m207.14273,248.16932s3.0556-15.92998-5.78087-20.85459l-38.66227-8.7365s-.73021,4.24655-8.95817,4.62904c-8.2323-.38249-8.96252-4.62904-8.96252-4.62904l-38.66227,8.7365c-8.83647,4.9246-5.78087,20.85459-5.78087,20.85459l18.95951,63.09404s4.36825,9.4189-1.29526,16.2212c0,0-20.23304,29.78233-7.94978,76.47262h87.37803c12.27891-46.69028-7.94978-76.47262-7.94978-76.47262-5.66351-6.8023-1.29526-16.2212-1.29526-16.2212l18.95951-63.09404"/><path class="n" d="m118.11369,310.6348s4.51808,9.5057-1.33969,16.37068c0,0-13.7925,19.80537-12.18758,52.46777h98.30531c1.60493-32.6624-12.18758-52.46777-12.18758-52.46777-5.85777-6.86498-1.33969-16.37068-1.33969-16.37068l19.60981-63.67546s3.16041-16.07678-5.97915-21.04676l-33.25396-7.33435-15.99985,60.09163-16.00434-60.09163-33.25396,7.33435c-9.13956,4.96998-5.97915,21.04676-5.97915,21.04676l19.60981,63.67546"/><path class="am" d="m189.84359,305.73024l6.48935-21.58915-6.48935,21.58915"/><path class="ab" d="m196.33294,284.1411l1.29092-4.29001-1.29092,4.29001"/><path class="j" d="m111.17293,360.11821l-3.86099-1.79946c3.05552-19.55498,10.76438-30.83419,10.76438-30.83419,2.2413-2.67745,2.91982-5.75913,2.91982-8.51483,0-4.2422-1.61531-7.70637-1.61531-7.70637l-11.57422-38.24935c2.59588,5.20278,5.10421,10.44903,10.04208,13.6698,3.27878,2.13849,7.4068,2.69484,11.21964,3.05995,4.57453.439,9.20159.55201,13.8199.55201,3.03801,0,6.07165-.04781,9.09653-.08693.63474-.00869,1.27386-.01304,1.92174-.01304,1.72913,0,3.4889.02173,5.25743.05216,1.7729.02173,3.55019.04781,5.3406.04781,8.37862,0,16.81852-.53462,24.2866-4.14223,3.41448-1.64733,6.51816-3.85536,9.47738-6.30245l-1.30013,4.29001-6.53567,21.58915c-4.69273-4.95938-13.45219-6.15467-20.42561-6.18509-6.1986-.03477-12.39282-1.19529-18.57391-1.6256-1.84295-.12605-3.81284-.25644-5.80462-.25644-3.79533,0-7.6607.46942-10.83442,2.308-4.3469,2.51229-3.96605,7.23695-2.60902,11.37049,2.04869,6.2416,5.97972,12.39627,4.05798,19.18118-1.11627,3.92925-4.51325,7.26738-7.30612,10.08392-2.95922,2.99475-6.1592,5.7374-9.05276,8.793-3.14745,3.31639-5.96659,6.99355-8.71131,10.71851"/><path class="al" d="m154.53467,279.59029l-15.47795-61.01206-17.98589,4.19544,11.19663,18.91066,6.92835,2.70789-4.43779,2.65889,19.77665,32.53917"/><path class="al" d="m153.74143,279.59029l15.61269-61.01206,17.98154,4.19544-11.19663,18.91066-6.92835,2.70789,4.43779,2.65889-19.90705,32.53917"/><path class="u" d="m153.74143,75.53002c-44.46921.75195-52.22775,29.96054-52.22775,66.78423,0,29.87796,25.69226,57.59135,52.22775,60.99467,26.53114-3.40332,52.2234-31.11671,52.2234-60.99467,0-36.82369-7.76723-66.03228-52.2234-66.78423"/><path class="ah" d="m153.74143,203.30892c-23.34949-2.9904-46.047-24.80992-51.16285-50.35874.44334-.23037.86061-.49985,1.25614-.80845,6.87619,22.48019,28.10023,39.08388,49.90671,41.87869,21.79778-2.79481,43.02617-19.3985,49.89801-41.87869.39988.3086.81715.57809,1.26049.80845-5.11585,25.54883-27.81336,47.36834-51.1585,50.35874"/><path class="u" d="m217.95687,142.67936c-.39988,6.46762-4.88114,11.44438-10.01003,11.12708-5.1202-.3173-8.94948-5.81129-8.54525-12.27456.39988-6.46762,4.87679-11.44438,10.00134-11.12708,5.12889.3173,8.95382,5.81564,8.55395,12.27456"/><path class="r" d="m207.06884,149.12524c-3.01648-1.3083-2.9904-8.82778,1.06924-8.82778h.0565c1.54301.03043,2.4384,1.39523,2.50359,2.84262.00869.23906-.50854,2.09937-.91277,2.09937-.01739,0-.03477,0-.05216-.01304l.20429.15647c.19559.08693.44334.10432.6911.10432h.2434c.52593-1.07794.83888-2.25584.91277-3.44679.06085-.96493.14778-2.00374-.13909-2.94259-.19125-.6259-1.1214-2.36016-2.04286-2.36016-.29122,0-.57809.16517-.84322.58678-.16951.28252-.43465.39988-.68675.39988-.4955,0-.97797-.43465-.83018-1.03882.3086-1.28222,1.39523-1.86466,2.55575-1.86466.88234,0,1.8038.33903,2.46013.97362,1.91681,1.86466,2.09067,4.67251,1.72991,7.18479-.27818,1.95593-.86061,4.45953-2.6253,5.68524-.52593-.29556-1.1214-.46508-1.76034-.47812h-.0652c-.94319,0-1.80815.35641-2.46882.93885"/><path class="u" d="m89.52164,142.67936c.39988,6.46762,4.88114,11.44438,10.00134,11.12708,5.12454-.3173,8.95817-5.81129,8.55395-12.27456-.39988-6.46762-4.87679-11.44438-10.00568-11.12708-5.1202.3173-8.94948,5.81564-8.5496,12.27456"/><path class="r" d="m100.40966,149.12524c-.64328-.57374-1.48651-.92146-2.40362-.93885h-.0652c-.66502,0-1.28222.17386-1.82554.47812-1.76469-1.22572-2.35581-3.72931-2.6253-5.68524-.35641-2.51229-.1869-5.32014,1.72991-7.18479.65632-.63459,1.57779-.97362,2.46448-.97362,1.15617,0,2.2428.58243,2.55141,1.86466.14778.60417-.33468,1.03882-.83018,1.03882-.25644,0-.51724-.11736-.6911-.39988-.26079-.42161-.54766-.58678-.83888-.58678-.92146,0-1.85162,1.73426-2.04286,2.36016-.28687.93885-.20429,1.97767-.13909,2.94259.07389,1.19095.38249,2.36885.91277,3.44679h.24775c.2434,0,.48681-.01739.68675-.10432l.20429-.15647c-.01739.00869-.03477.01304-.05216.01304-.41292,0-.92146-1.86031-.91277-2.09937.0652-1.44739.96058-2.8122,2.49925-2.84262h.0652c4.04661,0,4.07703,7.51947,1.0649,8.82778"/><path class="ae" d="m213.25828,151.90267c0,2.0559-1.66472,3.71627-3.72062,3.71627s-3.72062-1.66037-3.72062-3.71627c0-2.04721,1.66472-3.71627,3.72062-3.71627s3.72062,1.66906,3.72062,3.71627"/><path class="ag" d="m209.53766,155.61894c-1.49086,0-2.77742-.87365-3.36855-2.14283.59113,1.26918,1.8777,2.14283,3.36855,2.14283h.02173-.02173"/><path class="i" d="m209.53766,155.61894c-1.49086,0-2.77742-.87365-3.36855-2.14283-.22167-.47377-.35207-1.00839-.35207-1.57344,0-2.04721,1.66472-3.71627,3.72062-3.71627h.0652c1.14313.01739,2.14283.56505,2.8122,1.38654-.43031-.27383-.93885-.439-1.48651-.439-1.53432,0-2.76873,1.2431-2.76873,2.76873,0,1.53432,1.23441,2.76873,2.76873,2.76873.54766,0,1.0562-.16517,1.48651-.439-.66936.83018-1.66906,1.36915-2.8122,1.38654h-.0652"/><path class="ae" d="m101.65711,151.90267c0,2.0559-1.66037,3.71627-3.71627,3.71627s-3.72062-1.66037-3.72062-3.71627c0-2.04721,1.66472-3.71627,3.72062-3.71627s3.71627,1.66906,3.71627,3.71627"/><path class="ag" d="m97.94084,155.61894c-.98666,0-1.89073-.38684-2.55575-1.01708.66502.63024,1.56909,1.01708,2.55575,1.01708h.01739-.01739"/><path class="i" d="m97.94084,155.61894c-.98666,0-1.89073-.38684-2.55575-1.01708-.71718-.67806-1.16487-1.63429-1.16487-2.69919,0-2.04721,1.66472-3.71627,3.72062-3.71627h.0652c1.13444.01739,2.14283.56505,2.80785,1.38654-.43031-.27383-.9345-.439-1.48216-.439-1.52997,0-2.77308,1.2431-2.77308,2.76873,0,1.53432,1.2431,2.76873,2.77308,2.76873.54766,0,1.05186-.16517,1.48216-.439-.66502.83018-1.67341,1.36915-2.80785,1.38654h-.0652"/><path class="y" d="m167.1287,138.58494c1.59517-2.13414,4.03791-3.20773,6.51543-3.20773,2.48186,0,4.92026,1.07359,6.51543,3.20773.15213.21298.36511.37815.60851.47812.10432.03912.73891.33468,1.69949.33903.51724,0,1.17356-.09997,1.79511-.48246.63894-.38249,1.16052-1.04751,1.44304-1.84727.27818-.78237-.1304-1.64733-.91277-1.92551-.78237-.28252-1.64733.12605-1.92551.91277-.10432.26948-.15647.26948-.17386.29556l-.22602.03477-.38249-.05216-.11736-.03477-.00435.00869.00435-.00869-.00435.00869.00435-.00869-.59982,1.38219,1.20833-.90842c-2.20368-2.94694-5.58962-4.41606-8.93209-4.41171-3.34247-.00435-6.72841,1.46478-8.93209,4.41171-.4955.67371-.35641,1.61256.3086,2.11241.66502.4955,1.61256.36076,2.10806-.30426"/><path class="y" d="m142.76647,136.77679c-2.20803-2.94694-5.59397-4.41606-8.93209-4.41171-3.34247-.00435-6.72841,1.46478-8.93209,4.41171l1.20833.90842-.59982-1.38219v.00435-.00435.00435-.00435c-.0652.02173-.32164.09128-.49985.08693-.13474,0-.20863-.02173-.22602-.03477-.01739-.02608-.06954-.02608-.17386-.29556-.27818-.78237-1.14313-1.19529-1.92551-.91277-.78237.27818-1.19529,1.14313-.91277,1.92551.27818.79976.80411,1.46478,1.43435,1.84727s1.27788.48246,1.8038.48246c.96058-.00435,1.59517-.29991,1.69949-.33903.2434-.09997.44769-.27383.60851-.47812,1.59083-2.13414,4.03357-3.20773,6.51543-3.20773,2.47751,0,4.92026,1.07359,6.51108,3.20773.49985.66502,1.44304.79976,2.11241.30426.66502-.49985.80411-1.4387.3086-2.11241"/><path class="r" d="m153.74143,162.32127c-5.04631,0-8.99729-2.6818-8.99729-6.10686,0-1.06055.86061-1.91681,1.91247-1.91681,1.0562,0,1.91247.85626,1.91247,1.91681,0,.90408,2.06025,2.28192,5.17236,2.28192,3.10776,0,5.16801-1.37785,5.16801-2.28192,0-1.06055.85192-1.91681,1.91247-1.91681,1.05186,0,1.91247.85626,1.91247,1.91681,0,3.42506-3.95098,6.10686-8.99294,6.10686"/><path class="m" d="m137.80275,151.90267c0,3.78147-5.06804,6.84576-11.31398,6.84576-6.25464,0-11.31398-3.06429-11.31398-6.84576s5.05935-6.84576,11.31398-6.84576c6.24594,0,11.31398,3.06429,11.31398,6.84576"/><path class="m" d="m192.30372,151.90267c0,3.78147-5.05935,6.84576-11.31398,6.84576-6.24594,0-11.31398-3.06429-11.31398-6.84576s5.06804-6.84576,11.31398-6.84576c6.25464,0,11.31398,3.06429,11.31398,6.84576"/><path class="y" d="m188.36578,127.52305c-2.54706-2.58618-5.95038-4.09007-9.59276-4.02053-4.91156.09562-9.72316.73456-14.60864,1.11705-2.88174.21733-3.18165-4.78986-.59982-5.09412,3.65542-.43465,7.33692-.75195,11.01407-.74325,3.14688.00869,6.60671.08258,9.34501,1.82554,0,0,3.40332,2.54271,4.44214,6.91531"/><path class="y" d="m119.11273,127.52305c2.54706-2.58618,5.95038-4.09007,9.59276-4.02053,4.91156.09562,9.72316.73456,14.60864,1.11705,2.87739.21733,3.186-4.78986.59982-5.09412-3.65542-.43465-7.33692-.75195-11.02277-.74325-3.14253.00869-6.59801.08258-9.33632,1.82554,0,0-3.40332,2.54271-4.44214,6.91531"/><path class="ao" d="m167.86761,167.33715c-1.47782,2.87739-3.59457,5.00719-6.05904,6.43719-2.46013,1.42131-5.25929,2.14283-8.06714,2.14283-2.8122,0-5.61135-.72152-8.07148-2.14283-2.46448-1.43-4.58123-3.5598-6.05904-6.43719-.37815-.74325-1.29092-1.03012-2.02548-.65632-.74325.38249-1.03447,1.29092-.66067,2.02982,1.73861,3.39028,4.29436,5.96342,7.2326,7.66291,2.9339,1.70818,6.26333,2.55575,9.58407,2.55575,3.31639,0,6.63713-.84757,9.58407-2.55575,2.9339-1.69949,5.4853-4.27263,7.22826-7.66291.37815-.73891.08258-1.64733-.66067-2.02982-.73456-.3738-1.64733-.08693-2.02548.65632"/><path class="an" d="m59.72627,355.53698s12.05289-12.857,39.4968-1.03012l97.34894,45.83402-2.41232,15.97345s-52.41899,0-121.51992-28.43926c0,0-27.25266-16.33421-12.9135-32.33809"/><path class="u" d="m240.6196,427.97168s-25.93567.01739-46.12958-13.82627l2.08198-13.80454s5.88518,2.94694,11.40961.39988c0,0,8.08017-2.07329,10.62723,3.21642,0,0,1.28222,2.72961,0,5.28536,0,0,4.78552,12.64402,23.08,13.49159,0,0,2.65138.21733,2.65138,2.97736,0,0,0,2.87305-3.72062,2.26019"/><path class="ak" d="m183.74109,415.78405c-7.29346-.57374-18.15105-1.78207-31.71653-4.29436h.00869c13.55679,2.51229,24.40569,3.72062,31.69915,4.29436h.00869"/><path class="x" d="m183.73239,415.78405c-7.29346-.57374-18.14236-1.78207-31.69915-4.29436,12.69618-2.34712,27.77424-5.85041,44.53006-11.04885l-.12605.78672c-6.18075,1.72557-17.72075,5.25494-14.62603,11.89207.46942,1.00839,1.13879,1.8777,1.92116,2.66441"/><path class="l" d="m196.43726,401.22757l.12605-.78672-.11736.78672h-.00869"/><path class="am" d="m84.06676,392.3824c-3.67281-1.38654-7.40646-2.86001-11.18793-4.41171,3.78147,1.55171,7.51513,3.02518,11.18793,4.41171"/><path class="ak" d="m107.49449,400.44085c-7.4934-2.32539-15.33016-4.99849-23.42773-8.05844,8.10625,3.05995,15.93433,5.73306,23.42773,8.05844"/><path class="am" d="m72.82232,387.94461c-.01739-.00435-.03477-.00869-.05216-.02173.00869.01304.03477.01739.05216.02173"/><path class="x" d="m107.49449,400.44085c-7.4934-2.32539-15.32147-4.99849-23.42773-8.05844-3.67281-1.38654-7.40646-2.86001-11.18793-4.41171-.01739-.00869-.03912-.01304-.0565-.02608-.01739-.00435-.04347-.00869-.05216-.02173-.04347-.01739-.09128-.03043-.1304-.04781,0,0-17.07312-10.2317-17.07746-22.43672,0-3.21642,1.17356-6.56759,4.16396-9.90137,0,0,5.055-5.36795,16.02561-5.96777-5.08108,4.28132-8.18884,11.58781-7.26303,17.71206,1.53432,10.14477,13.60894,15.54749,21.47179,19.95921,5.13758,2.88174,10.76632,4.3639,16.56458,4.3639,1.28222,0,2.57748-.07389,3.87275-.21733,6.63713-.75195,12.50058-3.89448,18.5292-6.52412,5.17236-2.26019,10.55769-4.26828,15.25193-7.48036.4955-.33903.9997-.66936,1.49955-1.00405l6.35461,2.9904-44.54745,20.97194.00869.09997"/><path class="u" d="m241.68885,422.73413c-18.29449-.84757-23.08-13.49159-23.08-13.49159,1.28222-2.55575,0-5.28536,0-5.28536-2.54706-5.28971-10.62723-3.21642-10.62723-3.21642-2.99475,1.38219-6.08078,1.14748-8.28881.64763-.0565.15647-.1869.30426-.39988.36076-.75195.23037-1.82554.53028-3.06429.90842l-1.73861,11.48784c20.19392,13.84366,46.12958,13.82627,46.12958,13.82627,3.72062.61286,3.72062-2.26019,3.72062-2.26019,0-2.76004-2.65138-2.97736-2.65138-2.97736"/><path class="ai" d="m244.33153,355.53698s-12.0442-12.857-39.49245-1.03012l-97.35328,45.83402,2.41232,15.97345s52.41899,0,121.51992-28.43926c0,0,27.25266-16.33421,12.9135-32.33809"/><path class="t" d="m109.89811,416.31433l-1.39523-9.21896c1.69514,1.15617,3.55545,2.06894,5.67655,2.57748,1.1214.26948,2.27323.3738,3.42071.3738,2.22542,0,4.46822-.39119,6.62844-.73891,5.28536-.85626,10.47076-2.29061,15.66485-3.57284,19.21595-4.74205,38.14069-10.30559,56.61773-17.45127,8.01063-3.09907,16.48634-6.16336,23.87107-10.60115,5.33318-3.19469,10.64462-8.00628,11.98335-14.31308,1.14313-5.37229-2.14718-10.08827-6.33288-13.01347-.37815-.2521-.77803-.53028-1.20833-.81715.5042-.01739.98666-.02173,1.46043-.02173,12.38757,0,18.04674,6.01993,18.04674,6.01993,2.9904,3.33378,4.17266,6.68494,4.16831,9.90137-.00869,12.20502-17.08181,22.43672-17.08181,22.43672-12.20067,5.02457-23.88846,9.16246-34.85472,12.56578-16.75582,5.19843-31.83389,8.70173-44.53006,11.04885h-.00869c-26.06171,4.82898-42.12644,4.82463-42.12644,4.82463"/><path class="u" d="m63.44254,427.97168s25.94001.01739,46.12524-13.82627l-2.08198-13.80454s-5.87649,2.94694-11.40961.39988c0,0-8.08017-2.07329-10.62723,3.21642,0,0-1.27788,2.72961,0,5.28536,0,0-4.78552,12.64402-23.07131,13.49159,0,0-2.66007.21733-2.66007,2.97736,0,0,0,2.87305,3.72496,2.26019"/><path class="ad" d="m153.74143,223.20728s-6.58932.28687-8.96252-4.62904l-11.03581,1.46912s-7.76288.51289-3.6163,7.68464c0,0,3.40332,6.8023,15.10415,7.64987,0,0,11.15751-.63459,8.51048-12.17459"/><path class="ad" d="m153.65015,223.20728s6.58932.28687,8.95382-4.62904l11.04015,1.46912s7.76288.51289,3.62065,7.68464c0,0-3.40332,6.8023-15.10849,7.64987,0,0-11.15316-.63459-8.50613-12.17459"/><path class="y" d="m200.94025,126.90585c3.4294.66936,2.12545,7.42385,3.186,12.44842,0,0,.21298-8.96252,8.27142-8.10625,0,0,2.06894-36.4977-7.46297-52.92319,0,0-12.36584-26.20515-42.41766-28.75221,0,0-25.50971-3.76843-36.02828,12.75268,0,0-20.5286,5.39837-27.68731,32.26854,0,0-5.61135,19.99398-2.45144,36.13694,0,0,5.08108-.47812,6.19379,8.62349,12.63098-21.77605,32.47283-46.35995,32.47283-46.35995,0,0,6.51108,22.31067,65.92362,33.91152"/><path id="b" class="q" d="m175.2818,265.10352c-.20866.01084-.34552.1207-.34552.35777v10.59217c0,.18503.11557.35199.29259.35199h16.52051c.14844,0,.26951-.01518.33762-.23996,0,0,1.67283-5.99681,1.70326-6.10595.06327-.22623.02311-.34042-.14539-.46474-5.38173-3.94487-13.42845-4.51875-17.08197-4.51875-.52375,0-.9587.01084-1.2811.02747"/><path id="c" class="k" d="m178.72693,269.63062c-.78709-.12445-1.32498-.18895-1.19524-.31367.15265-.14827.94368-.20421,1.66433-.19885.36228.00241.62096.01793.91916.04014l.2579-.26764c-.37577-.02248-.64153-.03426-1.09005-.03747-1.43969-.0107-2.7441.11909-3.07872.39289-.3955.32518.73094.50905,1.70706.65866.77124.11937,1.38431.23365,1.16995.38273-.1693.11588-.71353.16942-1.51246.16433-.69057-.00482-1.54963-.06932-2.22836-.18146l-.40421.2845c.50231.07601,1.5267.17798,2.40633.1852,1.64612.01231,2.71482-.12285,3.14277-.41591.50548-.34606-.7507-.53528-1.75846-.69345"/><path id="d" class="k" d="m181.10771,270.1215c.00496.00695.01706.00829.03083.00829.01654,0,.02204-.00161.027-.00829.0066-.00883.55959-.81024.55959-.81024.56233.37717,1.12137.87363,1.42208,1.39766h.9187l.45494-.66418c.00328-.00696.01541-.00802.02919-.00802.01596,0,.02478.00241.02809.00802.13657.41649,1.02496.69601,2.28129.69601.81129,0,1.54491-.09817,1.72778-.14498l.47531-.70163h1.82914l.18561-.27124h-1.82969l.31448-.45955h2.18053l.1878-.28167h-3.05953l-1.03657,1.51829c-.22249.02621-.49514.03959-.77879.03959-.61246,0-1.10374-.06875-1.38189-.22069-.2082-.11449-.29244-.26187-.23957-.42531.12392-.39134.93631-.63877,2.02572-.63877.23133,0,.46707.00668.68132.01953l.21315-.29558c-.26161-.01872-.58163-.02621-.89447-.02621-.96273,0-1.80597.15488-2.34793.42932-.01763.00856-.03691.00803-.04572.00803-.01706,0-.02752-.00134-.02478-.00803l.27539-.40016h-.79807l-.87462,1.28049c-.27761-.37797-.84875-.87471-1.54767-1.28049h-.85702l-.63833.93221c.32056.11181.42135.19233.50672.30762"/><polyline id="e" class="w" points="187.0718 321.72763 120.27759 321.72794 121.1888 320.52845 186.1284 320.50304 187.0718 321.72763"/><path class="p" d="m101.45767,84.89383s-3.58732,3.71306.90777,10.03965c4.45131,6.32659,32.15449,21.97362,53.59081,20.4962s44.55393-13.44796,49.09572-18.97977c2.90721-3.5229,4.90665-7.0848,3.13489-12.65318-21.93545,1.0971-106.7292,1.0971-106.7292,1.0971Z"/><g class="aq"><path class="n" d="m99.09629,73.52791c-12.62712-5.26606-28.42998-9.4716-25.25131-17.3902,3.17867-7.91616,14.16829-13.07008,20.21039-14.5475,29.97408-7.35055,41.28185-16.48083,59.90437-16.66855,22.75274-.22917,34.01674,6.74349,49.54815,11.85839,15.98676,5.22705,35.1084,8.82553,35.1084,15.6836s-3.77121,13.18466-20.84671,18.45072c-17.03172,5.26606-118.67329,2.61353-118.67329,2.61353Z"/></g><g class="ap"><path class="j" d="m150.96204,46.40281c-12.98906.11215-23.43576,11.89496-30.33894,14.32077-8.49397,2.99142-22.75274,1.47742-33.47091-2.61353-6.7222-2.57696-6.40404-7.46513-4.95044-11.21476-3.63402,2.42336-6.90317,5.5318-8.40348,9.28144-3.17867,7.9186,12.62712,12.12413,25.25131,17.3902,0,0,101.64157,2.65254,118.71999-2.61353,17.03172-5.26606,20.84671-11.59509,20.84671-18.45072,0-1.40185-.81729-2.65254-2.2709-3.82765-3.68072,6.97022-15.16947,11.85839-24.6617,13.56255-12.48993,2.23564-33.92625-5.94626-51.31992-13.78928-3.27208-1.51643-6.40404-2.08448-9.40174-2.04548Z"/></g><path class="z" d="m98.45997,70.91438s-.27146,11.4415,2.04322,17.23904c9.6732,1.85531,82.56663,7.00679,108.45426-.38033,1.90895-14.73766,0-19.47224,0-19.47224,0,0-54.31762-10.03965-110.49748,2.61353Z"/><path class="z" d="m153.05197,71.40686c-18.30436,0-42.46692,3.48633-54.50151,5.38065.09049,1.81874.27146,3.82521.54583,5.79511,31.15623,5.34164,92.78566.38033,110.407-1.21168.18097-2.46237.22767-4.58342.22767-6.29002-10.53719-1.0971-37.15163-3.67405-56.679-3.67405Z"/><path class="o" d="m112.99313,91.71289s-2.54235,4.20554,1.90895,7.12381c4.4046,2.87927,15.16655,8.41107,14.21499,7.12137-.95448-1.32627-3.77121-12.91892-3.77121-12.91892,0,0-10.17233-.79479-12.35274-1.32627Z"/><path class="o" d="m129.38853,93.53164c.95448,1.85775,1.90895,12.65562,5.35908,13.67714,3.45305,1.06053,8.21959,3.14501,7.58328,2.12105-.6334-1.06053-3.76829-14.73766-3.76829-14.73766l-9.17407-1.06053Z"/><path class="h" d="m103.90954,91.06926c2.90721,2.4258,13.3977,10.6077,21.43632,13.97945,8.03862,3.33517,17.62134,5.75854,24.11587,5.75854s17.39658-1.0971,24.34354-3.5229c6.90317-2.42336,23.20809-9.32044,25.65996-12.65318-4.22363,5.9487-23.20809,14.88882-38.14989,16.74657-14.9418,1.85531-25.20461,0-35.92277-4.66144-10.71816-4.659-21.48303-15.64703-21.48303-15.64703Z"/><path class="o" d="m121.03175,104.86099c1.27264.64363,16.57637,6.06085,21.29914,6.97022-5.99248.68264-16.71064-2.34779-21.29914-6.97022Z"/></svg>