<?xml version="1.0" encoding="UTF-8"?>
<svg id="Calque_3" data-name="Calque 3" xmlns="http://www.w3.org/2000/svg" xmlns:xlink="http://www.w3.org/1999/xlink" width="200" height="34.28" viewBox="0 0 1610.04 275.74">
  <defs>
    <style>
      .cls-1 {
        fill: url(#Dégradé_sans_nom_15);
        stroke-width: 0px;
      }

      .cls-2 {
        fill: #a89f91;
        font-family: JuliusSansOne-Regular, 'Julius Sans One';
        font-size: 314px;
        fon-weight: 600;
      }
    </style>
    <linearGradient id="Dégradé_sans_nom_15" data-name="Dégradé sans nom 15" x1="830.77" y1="25.79" x2="830.77" y2="251.93" gradientUnits="userSpaceOnUse">
      <stop offset="0" stop-color="#41bfed"/>
      <stop offset="1" stop-color="#377ddf"/>
    </linearGradient>
  </defs>
  <text class="cls-2" transform="translate(-24.72 251.93)"><tspan x="0" y="0" xml:space="preserve">RAIL   ZEN</tspan></text>
  <g id="Calque_2" data-name="Calque 2">
    <path class="cls-1" d="m941.95,251.82h-12.72c-1.68-5.06-3.36-9.96-4.94-14.91-1.35-4.23-2.51-8.52-3.87-12.75-1.71-5.29-3.52-10.55-5.34-15.8-.14-.39-.68-.78-1.12-.9-.62-.17-1.31-.09-1.98-.09-54.08,0-108.17,0-162.25,0-3.3,0-3.16.04-4.05,3.22-.91,3.24-2.16,6.39-3.21,9.6-.76,2.31-1.41,4.65-2.15,6.97-.98,3.1-1.97,6.2-3,9.29-.76,2.3-1.64,4.57-2.35,6.89-.72,2.37-1.2,4.82-1.99,7.17-.2.6-1.16,1.33-1.79,1.35-3.73.13-7.46.06-11.37.06-.05-.68-.14-1.26-.14-1.83,0-8.86-.15-17.73.1-26.59.07-2.31,1.28-4.62,2.13-6.87.96-2.54,2.14-5,3.14-7.52.42-1.04.11-1.74-1.21-1.73-5.61.04-11.21-.03-16.82.12-1.63.04-2.12-.41-2.1-1.97.07-4.52.13-9.05-.01-13.56-.08-2.64,1.48-4.57,2.49-6.72,1.15-2.45,2.76-4.7,3.89-7.16.53-1.16,1.2-1.29,2.21-1.29,7.05.01,14.11,0,21.16,0,3.3,0,3.7-.33,4.86-3.25,2.36-5.93,4.78-11.84,7.17-17.76,1.22-3.01,2.44-6.02,3.62-9.05.14-.37.07-.82.11-1.49h-18.97c0-4.45-.33-8.69.14-12.84.24-2.15,1.89-4.15,2.93-6.2.7-1.36,1.6-2.64,2.13-4.07.43-1.16,1.16-1.18,2.1-1.17,6.03.04,12.06.07,18.09.08,4.14.01,4-.05,5.37-3.87,1.24-3.49,2.87-6.84,4.26-10.28.87-2.18,1.6-4.41,2.53-6.98-2.67,0-4.94-.08-7.2.03-1.52.07-2.25-.33-2.13-1.99.12-1.62.17-3.27,0-4.88-.31-2.83.83-5.19,2.05-7.57.87-1.71,1.71-3.45,2.6-5.23,3.26,0,6.56,0,9.87,0,3.27,0,3.16-.04,4.26-3.01,1.33-3.6,2.89-7.12,4.32-10.68.43-1.08.78-2.2,1.33-3.8-1.72,0-3.12-.05-4.52.01-1.31.05-1.82-.45-1.81-1.8.04-7.62-.47-4.85,3.73-13.28,2.48,0,4.95.09,7.42-.06.68-.04,1.66-.61,1.91-1.19,1.4-3.19,2.6-6.46,3.91-9.69.82-2.01,1.79-3.96,2.56-5.99.57-1.53.92-3.14,1.37-4.72.05-.03.09-.09.14-.09,4.21-.47,4.02-.46,4.26,3.66.25,4.27-1.31,8.01-2.67,11.87-.67,1.89-1.1,3.86-1.71,6.02h64.28c-.58-1.91-1.04-3.66-1.63-5.37-1.77-5.2-4.05-10.29-2.88-16.26.96,0,2.1-.14,3.19.05.59.1,1.37.65,1.58,1.19,1.35,3.44,2.53,6.95,3.84,10.41,1.19,3.14,2.43,6.27,3.8,9.34.2.45,1.19.77,1.82.78,4.04.07,8.08.08,12.12-.01,1.16-.03,1.71.31,2.15,1.36.72,1.69,1.65,3.29,2.48,4.94.11.21.21.45.21.67.01,2.64,0,5.27,0,8.17h-12.15c.54,1.46.91,2.54,1.34,3.6,1.69,4.15,3.45,8.27,5.06,12.45.47,1.21,1.18,1.43,2.3,1.42,4.7-.04,9.41-.01,14.11-.01,3.24,0,3.31.07,4.59,2.97.79,1.78,1.68,3.51,2.51,5.27.15.32.31.68.31,1.02.02,3.37.01,6.74.01,10.41h-15.4c1.83,4.38,3.52,8.4,5.19,12.42.99,2.39,2.08,4.76,2.87,7.22.39,1.22,1.05,1.46,2.09,1.46,6.57-.01,13.14.01,19.72-.06,1.4-.02,2.25.21,2.92,1.68,1.41,3.14,3.15,6.13,4.74,9.19.16.31.36.65.36.98.02,4.03.02,8.06.02,12.29h-19.24c.62,1.86,1.05,3.41,1.64,4.88,2.23,5.53,4.53,11.03,6.78,16.56,1.09,2.68,2.13,5.38,3.18,8.08.62,1.59,1.76,2.18,3.48,2.16,6.99-.06,13.99,0,20.98-.04,1.59,0,2.7.14,3.54,1.94,1.69,3.65,3.81,7.09,5.75,10.62.14.26.27.56.27.85.02,5.66.01,11.32.01,17.3h-20.59c1.08,2.77,1.95,5.12,2.93,7.44.97,2.3,2.07,4.55,3.08,6.84.14.31.07.71.07,1.08,0,9.23,0,18.45,0,27.68,0,.41-.09.82-.15,1.31Zm-111.53-75.03c23.81,0,47.61,0,71.42,0,2.54,0,3.14-1.01,2.12-3.36-.54-1.24-1.02-2.52-1.43-3.81-1.08-3.39-2.08-6.8-3.16-10.19-1.09-3.44-2.36-6.82-3.31-10.3-1.06-3.89-.95-3.93-5.01-3.93-40.38,0-80.76,0-121.15,0-.6,0-1.26-.14-1.79.05-.56.2-1.26.63-1.46,1.13-.8,2.03-1.44,4.13-2.14,6.2-.81,2.41-1.66,4.82-2.43,7.24-.74,2.31-1.37,4.66-2.13,6.96-.96,2.92-2.03,5.8-2.94,8.72-.09.29.5,1.03.92,1.18.59.22,1.31.11,1.97.11,23.51,0,47.01,0,70.52,0Zm-55.52-56.25c1.91.85,110.4.71,111.7-.16-.87-2.81-1.71-5.64-2.63-8.45-1.02-3.15-2.24-6.23-3.13-9.41-.7-2.5-.65-2.64-3.17-2.64-31.29,0-62.58,0-93.87,0-.54,0-1.12-.07-1.61.09-.38.12-.82.5-.95.87-.64,1.71-1.21,3.46-1.77,5.2-1.52,4.79-3.02,9.59-4.56,14.51Zm98.53-40.4c-.03-.55.02-.98-.1-1.35-.88-2.7-1.78-5.39-2.7-8.07-.75-2.18-1.65-4.32-2.25-6.54-.37-1.38-1.22-1.39-2.28-1.39-4.76.01-9.53,0-14.29,0-18.69,0-37.38.01-56.07-.02-1.52,0-2.44.41-2.91,1.98-1.04,3.45-2.28,6.84-3.35,10.27-.52,1.65-.84,3.36-1.27,5.12h85.23Z"/>
  </g>
</svg>