<?xml version="1.0" encoding="UTF-8"?>
<svg id="a" data-name="Calque 3" xmlns="http://www.w3.org/2000/svg" viewBox="0 0 301.56 430.92">
  <defs>
    <style>
      .e {
        fill: #951a1f;
      }

      .e, .f, .g, .h, .i, .j, .k, .l, .m, .n, .o, .p, .q, .r, .s, .t, .u, .v, .w, .x {
        stroke-width: 0px;
      }

      .f {
        fill: #2a2d2e;
      }

      .f, .j {
        fill-rule: evenodd;
      }

      .g {
        fill: #a41e23;
      }

      .h {
        fill: #c4674e;
      }

      .i {
        fill: #210300;
      }

      .j {
        fill: #fffffe;
      }

      .k {
        fill: #cd8161;
      }

      .m {
        fill: #d98c6d;
      }

      .n {
        fill: #fce5d5;
      }

      .o {
        fill: #e9e9e9;
      }

      .p {
        fill: #401b1b;
      }

      .q {
        fill: #6d2e1d;
      }

      .r {
        fill: #fff;
      }

      .s {
        fill: #af6146;
      }

      .t {
        fill: #344d7b;
      }

      .u {
        fill: #e3906c;
      }

      .v {
        fill: #d3d2d2;
      }

      .w {
        fill: #b54b33;
      }

      .x {
        fill: #e26036;
      }
    </style>
  </defs>
  <path class="h" d="m30.1,344.95l11.18-8.46-6.3-9.67-6.99,5.25,2.11,12.88"/>
  <path class="h" d="m21.86,343.13s-9.19,6.99-11.98,9.2c0,0-.73,1.17.08,1.85,0,0,.6.46,1.7-.19,0,0,7.53-4.46,12.32-8.29l-7.22,7.39s-.38.72.23,1.16c0,0,.66.65,1.48-.05l9.17-6.43s8-5.03,7.24-8.34c-.72-8.82-14.07-9.01-14.07-9.01-1.59-.07-3.18-.23-4.77-.33-.42-.03-.84-.06-1.26-.08-1.89-.17-2.19,1.14-2.19,1.14-.29,1.51,1.33,1.94,1.33,1.94l8.1,1.79c-.55.59-2.15,1.44-2.15,1.44l-4.04,2.06-3.28-6.99c-2.84.14-1.95,2.65-1.95,2.65l3.44,8.88,7.19-3.01s-13.13,8.8-16.08,10.73c0,0-1.08,1.24.55,1.96,0,0,.97.37,2.86-1.2,0,0,12.3-7.28,13.28-8.26"/>
  <path class="x" d="m35.52,342.14l53.65-31.89,33.51-77.58s4.33-18.97-5.98-27.53c0,0-10.98-11.27-20.73,5.38l-23.62,82.19-43.87,37.6s6.16,4.36,7.04,11.83"/>
  <path class="o" d="m95.84,294.81l4.46-10.32-4.46,10.32"/>
  <path class="w" d="m95.84,294.81c-8.15-38.28.16-84.33.16-84.33,3.29-5.62,6.75-8.03,9.88-8.76-3.69,1.69-8.04,5.1-8.76,11.95l3.19,70.82-4.46,10.32"/>
  <path class="h" d="m271.41,345.01l-11.18-8.45,6.3-9.68,6.99,5.26-2.11,12.88"/>
  <path class="h" d="m279.65,343.19s9.18,6.99,11.98,9.2c0,0,.73,1.17-.08,1.86,0,0-.6.46-1.7-.2,0,0-7.54-4.46-12.33-8.29l7.22,7.39s.38.72-.24,1.17c0,0-.65.64-1.47-.06l-9.17-6.43s-7.99-5.03-7.24-8.34c.72-8.81,14.07-9.01,14.07-9.01,1.6-.07,3.19-.22,4.77-.33.42-.03.84-.05,1.26-.08,1.89-.17,2.2,1.14,2.2,1.14.29,1.51-1.33,1.94-1.33,1.94l-8.09,1.8c.54.58,2.14,1.43,2.14,1.43l4.03,2.06,3.28-6.99c2.85.15,1.96,2.65,1.96,2.65l-3.45,8.88-7.18-3.01s13.13,8.79,16.07,10.73c0,0,1.08,1.24-.54,1.97,0,0-.97.37-2.87-1.21,0,0-12.3-7.28-13.27-8.25"/>
  <path class="x" d="m265.99,342.19l-53.65-31.89-33.51-77.58s-4.33-18.97,5.98-27.53c0,0,10.98-11.27,20.73,5.38l23.61,82.19,43.86,37.6s-6.15,4.36-7.04,11.83"/>
  <path class="w" d="m205.67,294.87l-6.33-14.67,3.04-66.52c-.75-7.12-5.43-10.53-9.2-12.14.08,0,.16,0,.24,0,3.65,0,8.01,2.01,12.1,9.01,0,0,8.3,46.04.16,84.32"/>
  <path class="h" d="m138.47,201.2h22.53v-32.2h-22.53v32.2Z"/>
  <path class="s" d="m138.47,191.49v-16.56c1.4.36,3.41.76,5.76.83h11.35c2.17-.07,4.05-.41,5.43-.75v7.3l-22.53,9.18"/>
  <path class="s" d="m144.23,38.52c-16.24,1.1-49.46,6.47-46.57,48.91l5.77,63.07c0,5.62,10.06,12.41,10.06,12.41l22.86,11.34s3.28,1.37,7.88,1.52h11.35c4.59-.15,7.88-1.52,7.88-1.52l22.86-11.34s10.05-6.79,10.05-12.41l5.45-64c2.9-42.44-30-46.88-46.24-47.98h-11.35"/>
  <path class="n" d="m200.33,103.92l1.48-17.42c.04-.62.08-1.23.1-1.83-.02.6-.06,1.21-.1,1.83l-1.48,17.42"/>
  <path class="n" d="m201.92,84.65v-.04.04m0-.07v-.03.03m0-.07v-.02.02m0-.07h0"/>
  <path class="h" d="m155.58,175.76h-11.35c-4.6-.15-7.88-1.52-7.88-1.52l-22.86-11.34s-10.06-6.79-10.06-12.41l-2.58-28.24c1.3-1.51,2.22-3.5,2.62-5.74l2.28,26.24c0,5.61,9.55,12.4,9.55,12.4l21.71,11.34s3.13,1.38,7.49,1.51h10.78c4.36-.14,7.48-1.51,7.48-1.51l21.72-11.34s9.55-6.78,9.55-12.4l2.08-25.71c.45,2.1,1.39,3.96,2.64,5.37l-2.4,28.09c0,5.62-10.05,12.41-10.05,12.41l-22.86,11.34s-3.29,1.37-7.88,1.52m-52.75-66.63c-.79-2.16-2.08-3.96-3.66-5.19l-1.51-16.51c-.71-10.44.77-18.64,3.64-25.08-1.06,4.95-1.47,10.69-1.04,17.34l2.56,29.44m93.95-.34l2.43-30.04c.43-6.64.03-12.34-1.02-17.25,2.67,5.94,4.13,13.45,3.73,22.95v.07s0,.03,0,.04v.1s0,.01,0,.02c-.02.6-.06,1.21-.1,1.83l-1.48,17.42c-1.51,1.16-2.74,2.85-3.55,4.87"/>
  <path class="h" d="m215.05,113.26c-.4,6.35-4.8,11.26-9.83,10.94-5.03-.31-8.79-5.71-8.4-12.07.39-6.35,4.79-11.25,9.83-10.93,5.03.31,8.79,5.71,8.4,12.06"/>
  <path class="m" d="m205.09,120.86c-.38,0-.79-.04-1.23-.11-3.46-.64-3.65-8.82.55-8.82h.06c1.52.02,2.4,1.36,2.46,2.79.01.23.51,1.06.1,1.06-.02,0-1.04.99-1.05.99l.2.15c.2.09.44.1.69.1.08,0,.16,0,.23,0,.52-1.06.82-2.21.9-3.39.06-.95.14-1.96-.14-2.89-.18-.61-1.1-2.32-2.01-2.32-.28,0-.56.16-.82.57-.17.28-.42.4-.68.4-.48,0-.96-.43-.81-1.02.3-1.26,1.37-1.83,2.51-1.83.86,0,1.78.33,2.42.96,1.88,1.83,2.05,4.59,1.7,7.06-.38,2.64-1.32,6.3-5.07,6.3"/>
  <path class="h" d="m85.43,114.26c.39,6.35,4.79,11.26,9.83,10.94,5.03-.31,8.79-5.71,8.4-12.07-.4-6.35-4.8-11.25-9.83-10.93-5.03.31-8.8,5.71-8.4,12.06"/>
  <path class="m" d="m94.38,120.86c-3.74,0-4.69-3.67-5.07-6.3-.34-2.47-.18-5.23,1.7-7.06.65-.63,1.55-.96,2.42-.96,1.14,0,2.2.57,2.51,1.83.15.59-.33,1.02-.81,1.02-.25,0-.51-.12-.68-.4-.26-.41-.54-.57-.82-.57-.9,0-1.82,1.7-2.01,2.32-.28.93-.2,1.94-.14,2.89.07,1.18.38,2.33.9,3.39.08,0,.15,0,.23,0,.25,0,.49-.02.69-.1l.2-.15s-.04,0-.05,0c-.41,0-.91-1.83-.9-2.06.06-1.43.94-2.77,2.46-2.79h.06c4.19,0,4.01,8.19.55,8.82-.44.08-.85.11-1.23.11"/>
  <path class="p" d="m121.87,103.88c1.61-2.16,4.08-3.24,6.58-3.24,2.51,0,4.97,1.08,6.59,3.24.41.55,1.2.67,1.75.26s.67-1.2.26-1.76c-2.12-2.84-5.37-4.26-8.59-4.26s-6.47,1.42-8.58,4.26c-.42.55-.3,1.34.26,1.76.55.42,1.34.3,1.75-.26"/>
  <path class="p" d="m164.45,103.88c1.61-2.16,4.08-3.24,6.58-3.24,2.51,0,4.97,1.08,6.58,3.24.41.55,1.2.67,1.76.26.55-.42.67-1.2.26-1.76-2.12-2.84-5.37-4.26-8.59-4.26s-6.47,1.42-8.58,4.26c-.42.55-.31,1.34.24,1.76.56.42,1.34.3,1.76-.26"/>
  <path class="p" d="m133.34,142.27s1.54,1.46,4.24,2.89c2.7,1.42,6.6,2.84,11.43,2.84,4.83,0,10.55-1.44,16.81-5.64.43-.29.54-.88.26-1.3-.29-.43-.87-.55-1.3-.26-5.99,4.02-11.31,5.32-15.77,5.32s-8.05-1.31-10.55-2.63c-1.24-.66-2.21-1.31-2.86-1.8-.33-.24-.57-.45-.73-.58l-.22-.2h0c-.38-.36-.97-.35-1.33.03-.36.38-.34.97.03,1.33"/>
  <path class="p" d="m134.01,140.65h-.04c-.15,0-.61,0-1.17.19-.28.1-.59.26-.86.56-.28.29-.47.75-.47,1.22,0,.33.08.67.22,1.01.2.47.75.7,1.23.5.48-.2.71-.76.51-1.23-.07-.16-.08-.25-.08-.27h0s-.12-.03-.12-.03l.1.06.02-.04-.12-.03.1.06-.07-.04.06.06v-.02s-.06-.04-.06-.04l.06.06s.14-.08.3-.11.33-.03.35-.03v-.28.28s0,0,0,0v-.28.28c.51.01.94-.4.95-.92.02-.52-.4-.95-.92-.96"/>
  <path class="p" d="m165.32,142.53v-.16.16-.16.16s.4.01.64.1c.12.03.19.08.19.08l.07-.07-.09.04.02.03.07-.07-.09.04.11-.05-.12.03v.03s.12-.05.12-.05l-.12.03s0,.09-.06.24c-.2.47.03,1.03.5,1.23.48.2,1.03-.03,1.23-.51.13-.32.21-.64.21-.96.01-.49-.21-.98-.52-1.27-.46-.44-.95-.58-1.34-.66-.4-.08-.71-.08-.82-.08h-.04c-.52.01-.93.44-.92.96s.44.93.96.92"/>
  <path class="p" d="m146.36,151.07h6.57c.53,0,.94-.42.94-.94s-.42-.94-.94-.94h-6.57c-.52,0-.94.42-.94.94s.42.94.94.94"/>
  <path class="u" d="m149.64,157.15c-1.55,0-2.84-1.08-3.19-2.52h6.38c-.34,1.44-1.64,2.52-3.19,2.52"/>
  <path class="p" d="m184.36,89.91s-5.64-6.7-19.35-3.79c0,0-2,.26-2.21,3.04,0,0-.32,2.92,2.82,2.59,0,0,8.76-1.56,15.99,1.65,0,0,2.23,1.13,2.95-.51,0,0,1.12-1.74-.2-2.98"/>
  <path class="p" d="m136.68,89.16c-.2-2.78-2.2-3.04-2.2-3.04-13.72-2.91-19.36,3.79-19.36,3.79-1.32,1.24-.2,2.98-.2,2.98.73,1.64,2.95.51,2.95.51,7.24-3.2,16-1.65,16-1.65,3.15.33,2.82-2.59,2.82-2.59"/>
  <path class="m" d="m150.79,128.25c-2.77,0-5.51-.69-7.8-2.32-5.25-3.74-2.35-9.54-2.12-14.73.04-.78,1.33-1.34,2.37-1.34.71,0,1.3.27,1.27.92-.18,4.04-2.79,9.18.59,12.57,1.87,1.88,4.29,2.67,6.76,2.67,1.45,0,2.93-.27,4.33-.75.34-.11.63-.17.88-.17,1.38,0,1.44,1.52-.35,2.14-1.89.65-3.92,1.01-5.94,1.01"/>
  <path class="h" d="m134.08,115.64c0,3.72-4.97,6.73-11.11,6.73s-11.12-3.02-11.12-6.73,4.98-6.73,11.12-6.73,11.11,3.02,11.11,6.73"/>
  <path class="h" d="m187.62,115.64c0,3.72-4.97,6.73-11.11,6.73s-11.12-3.02-11.12-6.73,4.98-6.73,11.12-6.73,11.11,3.02,11.11,6.73"/>
  <path class="h" d="m188.21,200.15l-26.09-6.63h-24.4l-26.44,6.63s-12.87,1.3-14.16,13.52l7.03,145.16h91.54l6.69-145.16c-1.29-12.22-14.16-13.52-14.16-13.52"/>
  <path class="t" d="m103.85,359.44l91.47-.29s7.09,48.17-47.98,47.9c0,0-43.49,4.97-43.49-47.61"/>
  <path class="x" d="m162.11,193.53l26.09,6.63s12.88,1.3,14.16,13.52l-7.2,157.86-90.95-.16-7.1-157.71c1.29-12.22,14.16-13.52,14.16-13.52l26.44-6.63s12.28,8.77,24.4,0"/>
  <path class="v" d="m197.25,325.92h0s2.08-45.73,2.08-45.73l-2.08,45.73"/>
  <path class="g" d="m199.33,280.19l3.04-66.52-3.04,66.52"/>
  <path class="q" d="m197.25,325.92c-.2-3.61-.4-7.22-.79-10.77-1.09-9.84-2.82-21.16-9.73-28.78-2.86-3.16-6.81-5.2-11.08-5.2h-.01c-.96,0-2.09.1-3.22.1-2,0-4.02-.3-5.07-1.95-1.19-1.84-.1-4.2,1.56-5.17,1.45-.85,3.41-.95,5.04-1.1,5.18-.47,10.45-1.11,14.16-5.17,3.43-3.75,3.62-9.45,3.54-14.23-.22-12.35-.77-25.06-3.06-37.21-1.03-5.47-2.73-12.36-6.03-17.72l5.66,1.43s12.88,1.3,14.16,13.52l-3.04,66.52-2.08,45.72"/>
  <path class="v" d="m196.27,347.32l.11-2.53-.11,2.53"/>
  <path class="q" d="m149.74,369.24l-7.85-3.7-38.76-18.26-2.83-62.79-3.19-70.82c1.29-12.22,14.16-13.52,14.16-13.52l3.57-.9c-1.57,3.03-2.23,6.49-2.43,10.24s.1,7.53.3,11.28c.24,4.7-.11,9.38-.41,14.07-.64,10.31-1.46,20.6-1.47,30.93-.01,8.85,1.38,17.73,2.53,26.56q1.35,10.34,10.28,12.39c3.53.81,6.13,1.72,7.99,4.84,1.9,3.19-2.29,7.18-4.62,8.03-10.08,3.7-13.65,14.34-10.88,24.29,3.49,12.52,17.88,15.1,30.88,15.1,5.38,0,10.52-.44,14.56-.8,9.95-.9,19.94-2.47,28.89-7.19,2.22-1.18,4.19-2.6,5.93-4.2l-.11,2.53-46.53,21.92"/>
  <path class="i" d="m99.1,103.13l1.62,17.72h2.96v-29.46s-2.06-38.86,42.68-36.67c0,0,5.5.94,6.47,6.58,0,0,.46-7.39,12.46-6.67,0,0,31.15,1.86,32.06,37.69l-1.56,26.73h3.25l2.21-15.78s4.68-2.68,7.54-.16c0,0,14.99-47.82-3.86-73.81,0,0-2.29-5.61,4.31-6.24,0,0-3.46-3.44-7.99,2.82,0,0,2.36-5.33-2.96-7.83,0,0,.63,4.7-2.51,6.27s3.13-14.1-26.64-18.49c0,0-40.52-5.43-55.88,8.36,0,0-7.82,6.77-7.36,15.88,0,0-23.24,4.91-16.76,60.69,0,0,.56,4.76,1.51,12.36,0,0,3.84-2.37,8.42,0"/>
  <path class="x" d="m35.67,339.77s14.89-15.9,48.81-1.27l120.31,56.68-2.98,19.76s-64.79,0-150.18-35.17c0,0-33.68-20.2-15.96-39.99"/>
  <path class="h" d="m259.22,429.34s-32.06.03-57.01-17.09l2.58-17.07s7.26,3.65,14.09.49c0,0,9.98-2.56,13.14,3.98,0,0,1.58,3.38,0,6.54,0,0,5.92,15.64,28.51,16.69,0,0,3.29.27,3.29,3.68,0,0,0,3.55-4.59,2.79"/>
  <path class="l" d="m188.92,414.28c-9.02-.71-22.43-2.2-39.18-5.31,15.7-2.91,34.33-7.23,55.03-13.67l-.15.97c-7.64,2.13-21.91,6.5-18.08,14.7.58,1.24,1.41,2.33,2.38,3.3"/>
  <path class="k" d="m204.62,396.27l.15-.97-.15.97"/>
  <path class="v" d="m51.82,379.84s-.01,0-.02,0c0,0,.01,0,.02,0m-.09-.04s-.07-.03-.1-.04c0,0-21.1-12.66-21.11-27.75,0,15.09,21.11,27.75,21.11,27.75.04.02.07.02.1.04"/>
  <path class="e" d="m149.74,369.24l-7.85-3.7,7.85,3.7"/>
  <path class="h" d="m260.53,422.87c-22.59-1.05-28.51-16.69-28.51-16.69,1.58-3.16,0-6.54,0-6.54-3.15-6.54-13.14-3.98-13.14-3.98-3.7,1.7-7.52,1.42-10.24.8-.07.2-.23.38-.49.45-.93.28-2.25.65-3.79,1.12l-2.14,14.2c24.95,17.13,57.01,17.09,57.01,17.09,4.59.77,4.59-2.79,4.59-2.79,0-3.42-3.29-3.68-3.29-3.68"/>
  <path class="x" d="m263.8,339.77s-14.89-15.9-48.81-1.27l-120.31,56.68,2.98,19.76s64.78,0,150.18-35.17c0,0,33.68-20.2,15.95-39.99"/>
  <path class="h" d="m40.25,429.34s32.06.03,57.01-17.09l-2.58-17.07s-7.26,3.65-14.09.49c0,0-9.98-2.56-13.14,3.98,0,0-1.57,3.38,0,6.54,0,0-5.91,15.64-28.51,16.69,0,0-3.29.27-3.29,3.68,0,0,0,3.55,4.6,2.79"/>
  <rect class="r" x="99.07" y="248.2" width="101.26" height="11.41"/>
  <rect class="l" x="149.7" y="197.41" width="1.56" height="169.98"/>
  <polygon class="l" points="35.65 340.75 59.11 328.98 47.93 313.63 28.48 330.31 35.65 340.75"/>
  <path class="q" d="m94.71,395.3c-13.49-4.2-27.88-9.29-42.89-15.46,0,0-.01,0-.02,0-.02-.01-.05-.02-.07-.03-.03-.02-.06-.03-.1-.04,0,0-21.1-12.66-21.11-27.75,0-3.98,1.46-8.12,5.15-12.24.04-.04,6.27-6.64,19.8-7.38-6.28,5.29-10.11,14.32-8.97,21.9,1.89,12.55,16.81,19.22,26.53,24.68,6.35,3.57,13.31,5.4,20.47,5.4,1.59,0,3.19-.09,4.8-.27,8.2-.94,15.44-4.82,22.9-8.07,6.4-2.8,13.05-5.28,18.84-9.24.62-.43,1.23-.84,1.86-1.25l7.85,3.7-55.05,25.94.02.13"/>
  <polygon class="l" points="273.03 329.83 252.77 313.14 243.27 329.58 265.99 342.19 273.03 329.83"/>
  <polygon class="r" points="57.76 305.21 70.48 321.36 59.11 328.98 47.93 313.63 57.76 305.21"/>
  <polygon class="r" points="229.83 320.3 241.03 303.06 252.77 313.14 243.27 329.58 229.83 320.3"/>
  <polygon class="r" points="131.02 360.42 116.89 384.71 149.74 369.24 131.02 360.42"/>
  <path class="q" d="m94.69,395.17l2.98,19.76-1.72-11.41c2.09,1.44,4.4,2.56,7.02,3.18,1.4.34,2.81.47,4.23.47,2.74,0,5.51-.48,8.19-.92,6.53-1.06,12.94-2.83,19.35-4.42,23.75-5.86,47.14-12.74,69.97-21.58,9.91-3.84,20.38-7.63,29.5-13.1,6.59-3.96,13.15-9.91,14.81-17.71,1.41-6.65-2.65-12.47-7.83-16.09-.46-.32-.96-.66-1.49-1.01.61-.03,1.22-.04,1.81-.04,15.3,0,22.29,7.45,22.29,7.45,3.7,4.13,5.16,8.27,5.16,12.24-.01,15.09-21.11,27.75-21.11,27.75-15.08,6.21-29.53,11.33-43.08,15.54-20.7,6.43-39.33,10.76-55.03,13.67-11.07,2.05-20.69,3.4-28.53,4.28-14.98,1.69-23.53,1.69-23.53,1.69"/>
  <path class="l" d="m94.69,395.17l43.79-20.63,9.97,34.66c-9.05,1.02-18.19,3.02-27.24,4.04-7.87.89-15.66.8-23.53,1.69-.99-6.59-1.99-13.17-2.98-19.76Z"/>
  <polyline class="r" points="164.58 362.25 144.85 371.54 158.87 407.18 181.18 402"/>
  <polyline class="l" points="103.85 343.87 128.58 308.38 138.47 319.1 107.06 349.13"/>
  <polyline class="l" points="192.4 344.69 171.73 309.21 163.46 319.93 189.72 349.96"/>
  <path id="b" data-name="Fill-52" class="f" d="m169.4,229.29c-.2.01-.33.12-.33.34v10.12c0,.18.11.34.27.34h15.5c.14,0,.25-.02.31-.23,0,0,1.57-5.73,1.6-5.84.06-.22.02-.33-.14-.44-5.05-3.77-12.6-4.32-16.03-4.32-.49,0-.9,0-1.2.02"/>
  <path id="c" data-name="Fill-53" class="j" d="m173.51,234.52c-.73-.12-1.24-.18-1.12-.3.15-.14.89-.19,1.57-.19.33,0,.58.02.86.04l.24-.26c-.36-.02-.61-.03-1.02-.04-1.35-.01-2.57.11-2.89.38-.37.31.69.49,1.6.63.73.11,1.3.22,1.1.37-.16.11-.67.16-1.42.16-.65,0-1.45-.07-2.09-.17l-.38.27c.47.07,1.43.17,2.26.18,1.55.01,2.55-.12,2.95-.4.47-.33-.7-.51-1.65-.66"/>
  <path id="d" data-name="Fill-54" class="j" d="m175.75,234.99s.02,0,.03,0,.02,0,.03,0c0,0,.52-.77.52-.77.53.36,1.05.84,1.33,1.34h.86l.43-.63s.02,0,.03,0c.02,0,.03,0,.03,0,.13.4.96.67,2.14.67.76,0,1.45-.09,1.62-.14l.44-.67h1.72l.17-.26h-1.72l.29-.44h2.05l.18-.27h-2.87l-.98,1.45c-.21.03-.46.04-.73.04-.57,0-1.03-.07-1.3-.21-.2-.11-.27-.25-.22-.41.11-.37.87-.61,1.9-.61.22,0,.44,0,.64.02l.2-.28c-.25-.02-.55-.03-.84-.03-.9,0-1.69.15-2.2.41-.02,0-.04,0-.04,0-.02,0-.03,0-.03,0l.26-.38h-.75l-.82,1.22c-.26-.36-.8-.84-1.45-1.22h-.81l-.6.89c.3.11.4.18.48.29"/>
</svg>