<?xml version="1.0" encoding="UTF-8"?>
<svg id="a" data-name="Calque 4" xmlns="http://www.w3.org/2000/svg" viewBox="0 0 301.56 430.92">
  <defs>
    <style>
      .e {
        fill: #319ca2;
      }

      .e, .f, .g, .h, .i, .j, .k, .l, .m, .n, .o, .p, .q, .r, .s, .t, .u, .v, .w, .x, .y, .z, .aa, .ab, .ac, .ad {
        stroke-width: 0px;
      }

      .f {
        fill: #e0e9ed;
      }

      .g {
        fill: #cf8362;
      }

      .h {
        fill: #fffffe;
      }

      .h, .m {
        fill-rule: evenodd;
      }

      .i {
        fill: #a8d4e5;
      }

      .j {
        fill: #192338;
      }

      .l {
        fill: #3bbec5;
      }

      .m {
        fill: #cf1f59;
      }

      .n {
        fill: #d98c6d;
      }

      .o {
        fill: #f89d77;
      }

      .p {
        fill: #e9e9e9;
      }

      .q {
        fill: #1b263d;
      }

      .r {
        fill: #85439a;
      }

      .s {
        fill: #f9bc73;
      }

      .t {
        fill: #401b1b;
      }

      .u {
        fill: #814736;
      }

      .v {
        fill: #fff;
      }

      .w {
        fill: #9149aa;
      }

      .x {
        fill: #f7ac80;
      }

      .y {
        fill: #f4ad7d;
      }

      .z {
        fill: #e3906c;
      }

      .aa {
        fill: #661300;
      }

      .ab {
        fill: #d3d2d2;
      }

      .ac {
        fill: #e8ad6d;
      }

      .ad {
        fill: #911826;
      }
    </style>
  </defs>
  <polyline class="aa" points="155.94 56.84 200.4 19.05 200.4 21.43 174.5 43.22"/>
  <polyline class="aa" points="150.98 59.69 101.45 28.84 103.72 28.11 132.36 46.15"/>
  <path class="s" d="m97.92,307.61l-1.48,7.09-35.13,26.43-6.4-9.85,26.16-24.09,1.03-7.7,15.82,8.12"/>
  <path class="s" d="m49.96,349.73l11.36-8.6-6.4-9.85-7.1,5.35,2.15,13.1"/>
  <path class="s" d="m41.59,347.87s-9.33,7.12-12.18,9.36c0,0-.74,1.19.09,1.89,0,0,.61.47,1.72-.2,0,0,7.65-4.53,12.52-8.43l-7.33,7.52s-.39.73.23,1.18c0,0,.66.65,1.51-.06l9.31-6.54s8.12-5.11,7.36-8.49c-.73-8.97-14.29-9.16-14.29-9.16-1.62-.08-3.23-.23-4.84-.34-.43-.03-.85-.06-1.28-.08-1.92-.18-2.23,1.15-2.23,1.15-.29,1.54,1.35,1.98,1.35,1.98l8.22,1.82c-.55.6-2.17,1.46-2.17,1.46l-4.1,2.09-3.33-7.11c-2.89.15-1.98,2.7-1.98,2.7l3.5,9.03,7.29-3.06s-13.33,8.94-16.32,10.92c0,0-1.09,1.26.55,2.01,0,0,.98.37,2.91-1.23,0,0,12.49-7.4,13.48-8.4"/>
  <path class="l" d="m79.26,297.99l16.67-75.61c5.16-12.87,16.32-7.65,16.32-7.65,8.25,5.91,5.49,18.45,5.49,18.45l-17.22,76.06-21.27-11.24"/>
  <path class="ab" d="m103.94,294.14v-.07s.01,0,.01,0v.06m-8.02-71.77s.04-.08.05-.11c-.02.04-.03.08-.05.11m.11-.26c1.59-3.83,3.72-6.01,5.91-7.19h0c-2.19,1.18-4.32,3.36-5.91,7.19"/>
  <path class="e" d="m103.94,294.14c-4.04-15.14-8.71-36.48-11.58-55.56l3.57-16.21s.04-.08.05-.11c.02-.05.04-.09.06-.15,1.59-3.83,3.72-6.01,5.91-7.19-4.04,3.24-4.92,9.22-4.92,13.79,0,3.48.51,6.16.51,6.16l6.42,59.2v.06"/>
  <path class="x" d="m159.76,205.26l38.57,8.74c8.82,4.93,5.77,20.86,5.77,20.86l-12.28,73.92-.69,11.01,3.28,70.9h-87.18l2.94-67.12-.8-12.81-11.84-75.91s-3.05-15.94,5.77-20.86l38.58-8.74h17.88"/>
  <path class="k" d="m178.17,35.16c0,9.86-12.18,17.85-27.2,17.85s-27.19-7.99-27.19-17.85,12.18-17.86,27.19-17.86,27.2,7.99,27.2,17.86"/>
  <path class="s" d="m204.62,307.61l1.47,7.09,35.13,26.43,6.4-9.85-26.16-24.09-1.03-7.7-15.82,8.12"/>
  <path class="s" d="m252.58,349.73l-11.36-8.6,6.4-9.85,7.1,5.35-2.15,13.1"/>
  <path class="s" d="m260.95,347.87s9.33,7.12,12.17,9.36c0,0,.74,1.19-.09,1.89,0,0-.61.47-1.73-.2,0,0-7.65-4.53-12.52-8.43l7.33,7.52s.39.73-.23,1.18c0,0-.67.65-1.51-.06l-9.31-6.54s-8.13-5.11-7.36-8.49c.73-8.97,14.29-9.16,14.29-9.16,1.61-.08,3.23-.23,4.84-.34.43-.03.85-.06,1.28-.08,1.92-.18,2.23,1.15,2.23,1.15.3,1.54-1.35,1.98-1.35,1.98l-8.22,1.82c.55.6,2.18,1.46,2.18,1.46l4.1,2.09,3.33-7.11c2.89.15,1.99,2.7,1.99,2.7l-3.51,9.03-7.3-3.06s13.33,8.94,16.33,10.92c0,0,1.09,1.26-.55,2.01,0,0-.98.37-2.91-1.23,0,0-12.49-7.4-13.48-8.4"/>
  <path class="l" d="m223.27,297.99l-16.68-75.61c-5.15-12.87-16.32-7.65-16.32-7.65-8.25,5.91-5.49,18.45-5.49,18.45l17.21,76.06,21.27-11.24"/>
  <path class="ab" d="m198.59,294.14l-.95-4.19.95,4.18h0m8.01-71.77c-.02-.06-.04-.11-.07-.16.03.05.05.1.07.16m-.07-.17c-2.11-5.14-5.19-7.34-8.09-8.14,2.91.8,5.98,3,8.09,8.14"/>
  <path class="e" d="m198.59,294.14l-.95-4.18,6.46-55.08s3.03-15.82-5.67-20.81c2.91.8,5.98,3,8.09,8.14h0c.03.06.05.11.07.17l3.57,16.21c-2.87,19.08-7.54,40.42-11.58,55.56"/>
  <path class="s" d="m142.34,209.9h17.25v-32.77h-17.25v32.77Z"/>
  <path class="ac" d="m142.34,200.02v-11.94c2.8.9,5.64,1.55,8.49,1.92,2.94-.38,5.87-1.06,8.76-2.01v2.69l-17.24,9.34"/>
  <path class="w" d="m204.11,234.87s3.05-15.94-5.77-20.86l-28.24-6.4c-1.57,9.26-9.74,16.5-19.38,16.5s-17.78-7.21-19.38-16.45l-28.04,6.35c-8.81,4.93-5.77,20.86-5.77,20.86l8.23,75.91.8,12.81.67,67.12h87.18l.33-70.9.68-11.01,8.68-73.92"/>
  <path class="r" d="m192.3,344.89h-83.06l.94-21.31-.8-12.81-11.84-75.91s-.51-2.67-.51-6.16c0-5.05,1.07-11.8,6.27-14.71l19.06-4.32c-12.49,10.1-10.54,32.82-8.63,47.34,1.26,9.56,3.42,18.98,4.77,28.53.92,6.48,1.36,14.12,5.95,19.21,2.87,3.18,9.36,2.68,13.21,3.41,2.29.43,5.49,1.21,5.77,3.98.26,2.57-2.05,4.04-4.03,4.99-4.7,2.24-9.16,2.6-12.38,7.2-2.61,3.72-2.33,8.85,1.29,11.82,2.51,2.06,5.39,2.43,8.35,2.43,1.64,0,3.31-.11,4.95-.12h.21c3.01,0,6.31.1,9.76.2,3.44.09,7.03.19,10.61.19,11.32,0,22.66-.97,29.56-5.99l.55,12.01"/>
  <path class="q" d="m106.47,344.89l-2.17,45.81h94.06l-2.29-45.81h-89.6"/>
  <path class="s" d="m150.82,62.18c-44.36.76-52.11,29.97-52.11,66.8,0,29.89,25.64,57.61,52.11,61.02,26.47-3.41,52.1-31.13,52.1-61.02,0-36.83-7.74-66.05-52.1-66.8"/>
  <path class="ac" d="m150.82,190c-23.29-3-45.94-24.82-51.05-50.38.44-.23.86-.5,1.26-.81,6.86,22.48,28.04,39.09,49.79,41.89,21.75-2.8,42.93-19.41,49.79-41.89.4.31.82.58,1.26.81-5.11,25.56-27.76,47.38-51.04,50.38"/>
  <path class="s" d="m214.89,129.35c-.4,6.47-4.87,11.45-9.98,11.13-5.11-.32-8.93-5.81-8.53-12.28.4-6.46,4.86-11.44,9.98-11.13,5.11.32,8.93,5.81,8.53,12.28"/>
  <path class="n" d="m204.03,135.79c-3.02-1.31-2.98-8.82,1.06-8.82h.07c1.54.03,2.43,1.39,2.49,2.84.01.24-.5,2.1-.92,2.1-.02,0-.03,0-.05-.01l.2.15c.2.09.44.11.7.11.08,0,.16,0,.23,0,.53-1.08.84-2.26.91-3.45.06-.97.15-2-.14-2.94-.19-.63-1.11-2.36-2.04-2.36-.29,0-.58.16-.84.59-.17.28-.43.4-.69.4-.49,0-.97-.43-.83-1.04.32-1.28,1.4-1.86,2.55-1.86.89,0,1.81.34,2.46.98,1.91,1.86,2.08,4.67,1.73,7.18-.28,1.95-.86,4.47-2.63,5.69-.53-.3-1.14-.47-1.78-.48h-.04c-.95,0-1.81.35-2.46.94"/>
  <path class="s" d="m86.75,129.35c.4,6.47,4.87,11.45,9.98,11.13,5.11-.32,8.93-5.81,8.54-12.28-.4-6.46-4.87-11.44-9.98-11.13-5.11.32-8.93,5.81-8.53,12.28"/>
  <path class="n" d="m97.61,135.79c-.65-.57-1.49-.93-2.42-.94h-.04c-.66,0-1.29.18-1.82.48-1.77-1.22-2.34-3.73-2.62-5.69-.36-2.52-.19-5.32,1.72-7.18.65-.64,1.58-.98,2.46-.98,1.15,0,2.23.58,2.55,1.86.14.61-.34,1.04-.83,1.04-.26,0-.52-.12-.69-.4-.26-.43-.55-.59-.84-.59-.92,0-1.85,1.73-2.04,2.36-.29.94-.2,1.97-.14,2.94.07,1.19.39,2.37.91,3.45.08,0,.16,0,.24,0,.25,0,.49-.02.69-.11l.2-.15s-.03.01-.05.01c-.41,0-.93-1.86-.92-2.1.07-1.45.96-2.81,2.49-2.84h.07c4.04,0,4.07,7.51,1.06,8.82"/>
  <path class="v" d="m210.21,138.58c0,2.06-1.67,3.72-3.71,3.72s-3.71-1.67-3.71-3.72,1.66-3.72,3.71-3.72,3.71,1.67,3.71,3.72"/>
  <path class="f" d="m206.5,142.3c-2.05,0-3.71-1.67-3.71-3.72s1.66-3.72,3.71-3.72h.04c1.15.02,2.15.56,2.82,1.39-.43-.28-.93-.44-1.48-.44-1.53,0-2.77,1.24-2.77,2.77s1.24,2.77,2.77,2.77c.55,0,1.05-.17,1.48-.44-.67.83-1.68,1.38-2.82,1.39h-.04"/>
  <path class="v" d="m98.86,138.58c0,2.06-1.66,3.72-3.71,3.72s-3.71-1.67-3.71-3.72,1.66-3.72,3.71-3.72,3.71,1.67,3.71,3.72"/>
  <path class="f" d="m95.15,142.3c-2.05,0-3.71-1.67-3.71-3.72s1.66-3.72,3.71-3.72h.04c1.15.02,2.16.56,2.83,1.39-.43-.28-.94-.44-1.48-.44-1.53,0-2.77,1.24-2.77,2.77s1.24,2.77,2.77,2.77c.55,0,1.05-.17,1.48-.44-.68.83-1.69,1.38-2.84,1.39h-.03"/>
  <path class="t" d="m164,125.12c1.64-2.2,4.14-3.3,6.68-3.3,2.54,0,5.05,1.1,6.68,3.3.14.17.31.31.51.4.09.04.71.32,1.61.33.49,0,1.09-.1,1.67-.46.58-.34,1.07-.96,1.34-1.72.24-.67-.1-1.39-.77-1.63-.67-.24-1.39.11-1.63.77-.12.31-.21.36-.28.41-.06.04-.17.08-.34.08-.15,0-.32-.03-.44-.07l-.14-.04-.03-.02-.17.42.18-.41h-.01s-.17.41-.17.41l.18-.41-.51,1.17,1.02-.77c-2.15-2.89-5.46-4.32-8.72-4.32s-6.57,1.44-8.73,4.32c-.42.57-.3,1.36.26,1.79.57.42,1.36.3,1.79-.26"/>
  <path class="t" d="m139.68,123.59c-2.15-2.89-5.45-4.32-8.72-4.32s-6.57,1.44-8.72,4.32l1.03.77-.51-1.17.18.4-.17-.41h-.01s.18.41.18.41l-.17-.41s-.34.13-.6.12c-.17,0-.28-.04-.34-.08-.07-.05-.16-.1-.27-.41-.24-.66-.96-1.01-1.63-.77-.67.23-1.01.96-.78,1.63.27.76.76,1.38,1.34,1.72.58.36,1.18.46,1.67.46.9-.01,1.52-.29,1.6-.33.2-.09.39-.23.52-.41,1.64-2.19,4.15-3.29,6.68-3.3,2.54,0,5.05,1.1,6.69,3.3.42.56,1.21.68,1.78.26.57-.43.68-1.22.26-1.79"/>
  <path class="n" d="m150.82,148.99c-1.7,0-3.29-.3-4.66-.85-1.38-.56-2.58-1.35-3.41-2.51-.55-.77-.92-1.72-.91-2.75,0-1.05.86-1.91,1.91-1.91s1.91.86,1.91,1.91c0,.14.03.29.2.53.16.23.47.53.93.8.91.55,2.36.96,3.99.96h.04c1.23,0,2.36-.22,3.23-.58.88-.35,1.47-.83,1.71-1.18.17-.24.2-.39.2-.53,0-1.05.85-1.91,1.91-1.91s1.91.86,1.91,1.91-.36,1.98-.91,2.75c-.55.77-1.27,1.38-2.09,1.86-1.65.97-3.71,1.49-5.97,1.49"/>
  <path class="y" d="m134.92,138.58c0,3.78-5.06,6.85-11.29,6.85s-11.29-3.07-11.29-6.85,5.06-6.85,11.29-6.85,11.29,3.07,11.29,6.85"/>
  <path class="y" d="m189.3,138.58c0,3.78-5.06,6.85-11.29,6.85s-11.29-3.07-11.29-6.85,5.06-6.85,11.29-6.85,11.29,3.07,11.29,6.85"/>
  <path class="u" d="m185.37,114.19c-2.54-2.59-5.94-4.09-9.57-4.02-4.9.09-9.7.73-14.57,1.11-2.88.22-3.18-4.78-.6-5.09,3.65-.44,7.32-.75,11-.74,3.14,0,6.58.08,9.31,1.82,0,0,3.4,2.55,4.44,6.92"/>
  <path class="u" d="m116.27,114.19c2.54-2.59,5.94-4.09,9.57-4.02,4.9.09,9.7.73,14.57,1.11,2.88.22,3.18-4.78.6-5.09-3.65-.44-7.32-.75-11-.74-3.13,0-6.58.08-9.31,1.82,0,0-3.4,2.55-4.44,6.92"/>
  <path class="ad" d="m161.83,158.53c-3,2.83-6.99,4.26-11.01,4.26s-8.01-1.43-11.01-4.26c-.51-.48-1.32-.46-1.8.06-.48.52-.46,1.32.06,1.8,3.52,3.31,8.14,4.95,12.75,4.95s9.23-1.64,12.75-4.95c.51-.48.54-1.29.06-1.8s-1.29-.54-1.8-.06"/>
  <path class="o" d="m61.42,354.56s12.02-12.86,39.41-1.03l97.13,45.85-2.08,13.8s-65.23-13.13-121.4-31.24c0,0-24.19-8.26-13.06-27.38"/>
  <path class="s" d="m61.42,354.56s12.02-12.86,39.41-1.03l97.13,45.85-2.08,13.8s-65.23-13.13-121.4-31.24c0,0-24.19-8.26-13.06-27.38"/>
  <path class="s" d="m74.55,370.86c7.52,6.1,17.48,7.43,26.29,10.93,5.3,2.11,10.54,4.9,16.45,4.15,5.33-.67,10.17-2.73,15.06-4.87,4.49-1.96,8.66-4.06,12.38-6.81l-43.9-20.72c-12.78-5.52-22.2-5.66-28.63-4.25-7.87,6.29-5.1,15.53,2.35,21.58"/>
  <path class="p" d="m118.34,394.78c-14.38-3.86-29.42-8.18-43.86-12.84,0,0-15.98-5.45-15.98-17.78,0,12.32,15.98,17.78,15.98,17.78,14.44,4.66,29.48,8.98,43.86,12.84"/>
  <path class="j" d="m153.28,378.29l-6.27-2.96s0,0,0,0c0,0,2.48,1.17,6.26,2.95"/>
  <path class="ac" d="m171.36,407.86c-5.39-1.22-11.48-2.64-18.08-4.22,10.61-2.55,22.53-5.53,34.94-8.86.46.22.87.41,1.21.57-6.74,3.17-13.53,7.07-18.07,12.51m-53.03-13.08c-14.38-3.86-29.42-8.19-43.86-12.84,0,0-15.98-5.45-15.98-17.78,0-2.83.84-6.03,2.93-9.6h0c.05-.06,2.03-2.13,6.14-3.84-2.98,3.98-3.47,8.79-.86,14.2,6.83,14.16,27.59,17.1,41.41,19.77,2.33.8,4.71,1.37,7.2,1.37.48,0,.97-.03,1.46-.07,1.06.08,2.1.13,3.14.13,4.08,0,8.08-.69,12.43-2.51,1.7-.7,13.7-8.29,14.65-8.29.01,0,.02,0,.03,0l6.27,2.96-34.94,16.49"/>
  <path class="z" d="m115.3,386.06c-2.49,0-4.87-.57-7.2-1.37.22.04.43.08.65.13,2.81.55,5.45.98,8.02,1.18-.49.04-.98.07-1.46.07"/>
  <path class="s" d="m241.9,427.01s-25.89.03-46.03-13.83l2.08-13.8s5.86,2.95,11.38.4c0,0,8.06-2.07,10.61,3.21,0,0,1.27,2.73,0,5.29,0,0,4.78,12.65,23.02,13.51,0,0,2.65.21,2.65,2.97,0,0,0,2.87-3.71,2.26"/>
  <path class="k" d="m200,124.99s.03-8.97,8.09-8.28c0,0,1.31-36.53-8.52-52.77-.94-1.9-2.09-3.6-3.37-5.29-10.42-13.8-24.35-20.83-39.56-22.15-9.75-.84-20.04.65-30.27,4.2-7.35,2.55-13.88,6.89-19.34,12.43-16.34,16.57-18.23,43.67-14.69,65.42,0,0,5.06-.57,6.35,8.5,1.93-53.5,49.55-51.06,49.55-51.06,0,0,44.68-2.45,51.78,49"/>
  <path class="s" d="m245.14,354.56s-12.02-12.86-39.41-1.03l-97.13,45.85,2.08,13.8s65.22-13.13,121.39-31.24c0,0,24.19-8.26,13.06-27.38"/>
  <path class="p" d="m188.22,394.78c14.27-3.83,29.19-8.12,43.53-12.73-14.34,4.61-29.26,8.9-43.53,12.73"/>
  <path class="i" d="m140.53,406.64c3.97-.91,8.24-1.92,12.75-2.99-4.51,1.08-8.78,2.08-12.75,2.99"/>
  <path class="g" d="m153.28,403.64c10.61-2.55,22.53-5.53,34.94-8.86-12.41,3.33-24.33,6.31-34.94,8.86"/>
  <path class="p" d="m231.76,382.04c.05-.02.1-.04.15-.05-.05.01-.09.03-.15.05m.16-.05s.05-.01.06-.02c-.02.01-.04.02-.06.02m.08-.03s.06-.02.07-.03c0,0,15.99-5.45,15.99-17.78,0,12.32-15.99,17.78-15.99,17.78-.02.01-.05.02-.07.03"/>
  <path class="ac" d="m116.36,412c3.68-.95,7.58-1.48,10.96-2.75,8.86-3.32,17.58-6.65,26.65-9.4,17.14-5.2,34.36-10.2,50.99-16.91,12.02-4.85,28.63-10.79,33.33-24.2,1.25-3.55.62-6.37-1.05-8.67,5.36,1.79,7.89,4.47,7.9,4.49,2.08,3.57,2.93,6.77,2.93,9.6,0,12.32-15.99,17.78-15.99,17.78-.02.01-.05.02-.07.03,0,0-.02,0-.02,0-.02.01-.04.02-.06.02,0,0,0,0-.01,0-.05.01-.1.03-.15.05h-.01c-14.34,4.62-29.26,8.91-43.53,12.74-12.42,3.33-24.33,6.31-34.94,8.86-4.51,1.08-8.78,2.08-12.75,2.99-10.55,2.44-18.99,4.27-24.17,5.36"/>
  <path class="s" d="m64.66,427.01s25.89.03,46.03-13.83l-2.08-13.8s-5.86,2.95-11.38.4c0,0-8.06-2.07-10.61,3.21,0,0-1.27,2.73,0,5.29,0,0-4.77,12.65-23.02,13.51,0,0-2.65.21-2.65,2.97,0,0,0,2.87,3.71,2.26"/>
  <path id="b" data-name="Fill-7" class="m" d="m159.12,239.6c-.27.02-.45.17-.45.51v14.96c0,.26.15.5.39.5h21.74c.2,0,.35-.02.44-.34,0,0,2.2-8.47,2.24-8.62.08-.32.03-.48-.19-.66-7.08-5.57-17.67-6.38-22.48-6.38-.69,0-1.26.02-1.69.04"/>
  <path id="c" data-name="Fill-8" class="h" d="m163.65,246c-1.04-.18-1.74-.27-1.57-.44.2-.21,1.24-.29,2.19-.28.48,0,.82.03,1.21.06l.34-.38c-.49-.03-.84-.05-1.43-.05-1.89-.02-3.61.17-4.05.55-.52.46.96.72,2.25.93,1.02.17,1.82.33,1.54.54-.22.16-.94.24-1.99.23-.91,0-2.04-.1-2.93-.26l-.53.4c.66.11,2.01.25,3.17.26,2.17.02,3.57-.17,4.14-.59.67-.49-.99-.76-2.31-.98"/>
  <path id="d" data-name="Fill-9" class="h" d="m166.79,246.69s.02.01.04.01c.02,0,.03,0,.04-.01,0-.01.74-1.14.74-1.14.74.53,1.48,1.23,1.87,1.97h1.21l.6-.94s.02-.01.04-.01c.02,0,.03,0,.04.01.18.59,1.35.98,3,.98,1.07,0,2.03-.14,2.27-.2l.63-.99h2.41l.24-.38h-2.41l.41-.65h2.87l.25-.4h-4.03l-1.36,2.14c-.29.04-.65.06-1.03.06-.81,0-1.45-.1-1.82-.31-.27-.16-.38-.37-.32-.6.16-.55,1.23-.9,2.67-.9.3,0,.61,0,.9.03l.28-.42c-.34-.03-.77-.04-1.18-.04-1.27,0-2.38.22-3.09.61-.02.01-.05.01-.06.01-.02,0-.04,0-.03-.01l.36-.57h-1.05l-1.15,1.81c-.37-.53-1.12-1.24-2.04-1.81h-1.13l-.84,1.32c.42.16.55.27.67.43"/>
</svg>