<?xml version="1.0" encoding="UTF-8"?><svg id="a" xmlns="http://www.w3.org/2000/svg" viewBox="0 0 300.61053 431.01364"><defs><style>.e{fill:#319ca2;}.e,.f,.g,.h,.i,.j,.k,.l,.m,.n,.o,.p,.q,.r,.s,.t,.u,.v,.w,.x,.y,.z,.aa,.ab,.ac,.ad{stroke-width:0px;}.f{fill:#e0e9ed;}.g{fill:#cf8362;}.h{fill:#fffffe;}.h,.m{fill-rule:evenodd;}.i{fill:#a8d4e5;}.j{fill:#192338;}.l{fill:#3bbec5;}.m{fill:#cf1f59;}.n{fill:#d98c6d;}.o{fill:#f89d77;}.p{fill:#e9e9e9;}.q{fill:#1b263d;}.r{fill:#85439a;}.s{fill:#f9bc73;}.t{fill:#401b1b;}.u{fill:#814736;}.v{fill:#fff;}.w{fill:#9149aa;}.x{fill:#f7ac80;}.y{fill:#f4ad7d;}.z{fill:#e3906c;}.aa{fill:#661300;}.ab{fill:#d3d2d2;}.ac{fill:#e8ad6d;}.ad{fill:#911826;}</style></defs><polyline class="aa" points="155.93784 56.98603 200.40092 19.1988 200.40092 21.58177 174.50537 43.36901"/><polyline class="aa" points="150.97667 59.84334 101.45285 28.9851 103.72285 28.26007 132.35599 46.2991"/><path class="s" d="m99.74977,306.54709l-1.76119,8.63252-41.822,32.18324-7.62148-11.99419,31.14325-29.33534,1.22787-9.37462,18.83354,9.88839"/><path class="s" d="m42.63377,349.53737s-10.43501,8.46162-13.61442,11.12947c0,0-.82688,1.4113.09899,2.24694,0,0,.6813.55709,1.92745-.24141,0,0,8.55414-5.38523,13.99875-10.02148l-8.19311,8.93824s-.43091.87278.26204,1.40511c0,0,.73953.76755,1.68288-.07428l10.41171-7.77454s9.07822-6.0785,8.22805-10.08957c-.81523-10.65904-15.9786-10.88188-15.9786-10.88188-1.81099-.09285-3.61615-.27236-5.41549-.40853-.47749-.03095-.94917-.06809-1.42666-.09904-2.1429-.21046-2.49811,1.36797-2.49811,1.36797-.32609,1.82603,1.51401,2.35217,1.51401,2.35217l9.18886,2.16647c-.61143.71184-2.42824,1.73318-2.42824,1.73318l-4.58278,2.48216-3.72097-8.44924c-3.23182.17332-2.2186,3.20638-2.2186,3.20638l3.91313,10.73332,8.15235-3.63348s-14.90133,10.62809-18.24962,12.97407c0,0-1.22285,1.49796.61725,2.38312,0,0,1.10057.43948,3.25512-1.46701,0,0,13.96963-8.79587,15.07602-9.97815"/><path class="l" d="m79.26313,298.13731l16.67188-75.61459c5.16146-12.86979,16.32292-7.65104,16.32292-7.65104,8.25,5.90625,5.48958,18.44792,5.48958,18.44792l-17.21875,76.0625-21.26563-11.24479"/><path class="ab" d="m103.94542,294.29356l.01042-.06771v.00521l-.01042.0625m-8.01042-71.77084c.02083-.03646.03646-.07813.05208-.11458-.01563.03646-.03125.07813-.05208.11458m.10938-.26042c1.58854-3.82813,3.71875-6.00521,5.91146-7.1875h-.00521c-2.1875,1.18229-4.31771,3.35938-5.90625,7.1875"/><path class="e" d="m103.94542,294.29356c-4.04167-15.13542-8.70833-36.47917-11.58333-55.55729l3.57292-16.21354c.02083-.03646.03646-.07813.05208-.11458.02083-.04688.04167-.09375.05729-.14583,1.58854-3.82813,3.71875-6.00521,5.90625-7.1875-4.04167,3.24479-4.91667,9.21875-4.91667,13.79167,0,3.48438.50521,6.15625.50521,6.15625l6.41667,59.20313-.01042.0625"/><path class="x" d="m159.76313,205.41335l38.57292,8.74479c8.81771,4.92708,5.77083,20.86458,5.77083,20.86458l-12.28125,73.92188-.6875,11.01042,3.27604,70.90104h-87.17709l2.9375-67.11979-.79688-12.80729-11.83854-75.90625s-3.04688-15.9375,5.76563-20.86458l38.57813-8.74479h17.88021"/><path class="k" d="m178.16938,35.31439c0,9.85938-12.18229,17.85417-27.19792,17.85417-15.01042,0-27.1875-7.99479-27.1875-17.85417,0-9.86458,12.17708-17.85938,27.1875-17.85938,15.01563,0,27.19792,7.99479,27.19792,17.85938"/><path class="s" d="m202.6173,307.5834l1.85668,8.68289,44.25207,32.37103,8.06313-12.06417-32.94794-29.50651-1.29246-9.42932-19.93147,9.94608"/><path class="s" d="m263.36293,350.53737s11.02057,8.46162,14.38027,11.12947c0,0,.87377,1.4113-.10461,2.24694,0,0-.71994.55709-2.0429-.24141,0,0-9.03305-5.38523-14.78639-10.02148l8.6577,8.93824s.45534.87278-.2769,1.40511c0,0-.78762.76755-1.78446-.07428l-10.99595-7.77454s-9.59915-6.0785-8.69462-10.08957c.86146-10.65904,16.88467-10.88188,16.88467-10.88188,1.90752-.09285,3.8212-.27236,5.72257-.40853.50457-.03095,1.00299-.06809,1.50756-.09904,2.26442-.21046,2.63361,1.36797,2.63361,1.36797.35074,1.82603-1.59371,2.35217-1.59371,2.35217l-9.71607,2.16647c.65225.71184,2.57208,1.73318,2.57208,1.73318l4.84265,2.48216,3.93196-8.44924c3.40893.17332,2.35056,3.20638,2.35056,3.20638l-4.14117,10.73332-8.62078-3.63348s15.75246,10.62809,19.29061,12.97407c0,0,1.29219,1.49796-.65225,2.38312,0,0-1.16297.43948-3.4397-1.46701,0,0-14.75562-8.79587-15.92475-9.97815"/><path class="l" d="m223.27355,298.13731l-16.67708-75.61459c-5.15104-12.86979-16.31771-7.65104-16.31771-7.65104-8.25,5.90625-5.48958,18.44792-5.48958,18.44792l17.21354,76.0625,21.27083-11.24479"/><path class="ab" d="m198.59126,294.29356l-.94792-4.1875.94792,4.18229v.00521m8.00521-71.77084c-.02083-.05729-.04167-.10938-.06771-.16146.02604.05208.04688.10417.06771.16146m-.06771-.16667c-2.10938-5.14063-5.1875-7.34375-8.09375-8.14063,2.90625.79688,5.98438,3,8.09375,8.14063"/><path class="e" d="m198.59126,294.28835l-.94792-4.18229,6.46354-55.08333s3.02604-15.81771-5.67188-20.80729c2.90625.79688,5.98438,3,8.09375,8.14063v.00521c.02604.05208.04688.10417.06771.16146l3.57292,16.21354c-2.86979,19.07813-7.53646,40.42188-11.57813,55.55729"/><path class="s" d="m142.33605,210.05397h17.25v-32.76563h-17.25v32.76563Z"/><path class="ac" d="m142.33605,200.17377v-11.94271c2.79688.90104,5.64063,1.54688,8.48958,1.91667,2.9375-.38021,5.86979-1.0625,8.75521-2.00521v2.6875l-17.24479,9.34375"/><path class="w" d="m204.10688,235.02272s3.04688-15.9375-5.77083-20.86458l-28.24479-6.40104c-1.57292,9.26042-9.74479,16.5-19.375,16.5-9.61979,0-17.78125-7.21354-19.375-16.44792l-28.03646,6.34896c-8.8125,4.92708-5.76563,20.86458-5.76563,20.86458l8.22917,75.90625.80208,12.80729.66667,67.11979h87.17709l.33333-70.90104.68229-11.01042,8.67708-73.92188"/><path class="r" d="m192.29959,345.04356h-83.0625l.9375-21.30729-.79688-12.80729-11.83854-75.90625s-.50521-2.67188-.50521-6.15625c0-5.04688,1.06771-11.79688,6.27083-14.70833l19.05729-4.31771c-12.48958,10.09896-10.54167,32.82292-8.63021,47.34375,1.26042,9.5625,3.41667,18.97917,4.77083,28.53125.91667,6.48438,1.35938,14.11979,5.94792,19.20833,2.86979,3.18229,9.35938,2.68229,13.20833,3.40625,2.28646.42708,5.48958,1.21354,5.76563,3.98438.26042,2.56771-2.04688,4.04167-4.03125,4.98958-4.69792,2.24479-9.15625,2.59896-12.38021,7.20313-2.61458,3.72396-2.32813,8.84896,1.29167,11.81771,2.51042,2.0625,5.38542,2.43229,8.34896,2.43229,1.64063,0,3.30729-.11458,4.95313-.11979h.21354c3.01042,0,6.3125.09896,9.75521.19792,3.44271.09375,7.03125.19271,10.61458.19271,11.32292,0,22.66146-.96875,29.55729-5.98958l.55208,12.00521"/><path class="q" d="m106.47146,345.04356l-2.17188,45.8125h94.0625l-2.28646-45.8125h-89.60417"/><path class="s" d="m150.82563,62.33001c-44.36458.75521-52.10938,29.96875-52.10938,66.80209,0,29.89063,25.63542,57.60938,52.10938,61.01563,26.46875-3.40625,52.10417-31.125,52.10417-61.01563,0-36.83333-7.74479-66.04688-52.10417-66.80209"/><path class="ac" d="m150.82563,190.14772c-23.29167-3-45.9375-24.81771-51.04688-50.375.4375-.22917.85938-.5,1.25521-.80729,6.86458,22.47917,28.03646,39.09375,49.79167,41.89063,21.75-2.79688,42.92708-19.40625,49.78646-41.89063.39583.30729.81771.57813,1.25521.80729-5.10938,25.55729-27.75521,47.375-51.04167,50.375"/><path class="s" d="m214.89334,129.50189c-.39583,6.46875-4.86979,11.45313-9.97917,11.13021-5.11458-.31771-8.93229-5.8125-8.53125-12.28125.40104-6.46354,4.86458-11.44271,9.97917-11.125,5.10938.31771,8.92708,5.8125,8.53125,12.27604"/><path class="n" d="m204.03397,135.9446c-3.01563-1.3125-2.98438-8.82292,1.05729-8.82292h.06771c1.53646.02604,2.43229,1.39063,2.49479,2.83854.01042.23958-.5,2.10417-.91667,2.10417-.01563,0-.03125-.00521-.04688-.01042l.20313.15104c.19792.08854.44271.10938.69792.10938.07813,0,.15625-.00521.23438-.00521.53125-1.07813.83854-2.25521.91146-3.44792.0625-.96875.14583-2-.14063-2.94271-.1875-.625-1.11458-2.35938-2.03646-2.35938-.28646,0-.57813.16146-.83854.58854-.17188.27604-.43229.39583-.69271.39583-.48958,0-.96875-.43229-.82813-1.04167.31771-1.28125,1.40104-1.86458,2.54688-1.86458.88542,0,1.8125.34375,2.46354.97917,1.91146,1.86458,2.08333,4.66667,1.72917,7.18229-.27604,1.95313-.86458,4.46875-2.625,5.6875-.52604-.29688-1.13542-.47396-1.77604-.47917h-.04167c-.94792,0-1.80729.35417-2.46354.9375"/><path class="s" d="m86.75271,129.50189c.40104,6.46875,4.86979,11.45313,9.97917,11.13021,5.11458-.31771,8.93229-5.8125,8.53646-12.28125-.40104-6.46354-4.86979-11.44271-9.98438-11.125-5.10938.31771-8.92708,5.8125-8.53125,12.27604"/><path class="n" d="m97.61209,135.9446c-.64583-.57292-1.48958-.92708-2.42188-.9375h-.03646c-.66146,0-1.28646.17708-1.82292.47917-1.76563-1.21875-2.34375-3.73438-2.61979-5.6875-.35938-2.51563-.1875-5.31771,1.72396-7.18229.65104-.63542,1.57813-.97917,2.46354-.97917,1.15104,0,2.23438.58333,2.54688,1.86458.14063.60938-.33854,1.04167-.82813,1.04167-.25521,0-.52083-.11979-.69271-.39583-.26042-.42708-.54688-.58854-.83854-.58854-.91667,0-1.84896,1.73438-2.03646,2.35938-.28646.94271-.20313,1.97396-.14063,2.94271.07292,1.19271.39063,2.36979.91146,3.44792.07813,0,.15625.00521.23958.00521.25,0,.49479-.02083.69271-.10938l.20313-.15104c-.01042.00521-.03125.01042-.04688.01042-.41146,0-.92708-1.86458-.91667-2.10417.06771-1.44792.95833-2.8125,2.49479-2.83854h.06771c4.03646,0,4.07292,7.51042,1.05729,8.82292"/><path class="v" d="m210.21105,138.72585c0,2.05729-1.66667,3.72396-3.71354,3.72396-2.05208,0-3.71354-1.66667-3.71354-3.72396,0-2.05208,1.66146-3.71875,3.71354-3.71875,2.04688,0,3.71354,1.66667,3.71354,3.71875"/><path class="f" d="m206.49751,142.44981c-2.05208,0-3.71354-1.66667-3.71354-3.72396,0-2.05208,1.66146-3.71875,3.71354-3.71875h.04167c1.14583.01563,2.15104.55729,2.82292,1.39063-.42708-.27604-.93229-.44271-1.47917-.44271-1.52604,0-2.76563,1.23958-2.76563,2.77083,0,1.53646,1.23958,2.77083,2.76563,2.77083.54688,0,1.05208-.16667,1.47917-.4375-.67188.82813-1.67708,1.375-2.82292,1.39063h-.04167"/><path class="v" d="m98.86209,138.72585c0,2.05729-1.66146,3.72396-3.70833,3.72396-2.05208,0-3.71354-1.66667-3.71354-3.72396,0-2.05208,1.66146-3.71875,3.71354-3.71875,2.04688,0,3.70833,1.66667,3.70833,3.71875"/><path class="f" d="m95.15375,142.44981c-2.05208,0-3.71354-1.66667-3.71354-3.72396,0-2.05208,1.66146-3.71875,3.71354-3.71875h.03646c1.15104.01563,2.16146.55729,2.83333,1.39063-.43229-.27604-.9375-.44271-1.48438-.44271-1.52604,0-2.76563,1.23958-2.76563,2.77083,0,1.53646,1.23958,2.77083,2.76563,2.77083.54688,0,1.05208-.16667,1.48438-.4375-.67708.83333-1.69271,1.38021-2.84375,1.39063h-.02604"/><path class="t" d="m164.00272,125.26751c1.63542-2.19792,4.14063-3.29688,6.68229-3.30208,2.54167.00521,5.04688,1.10417,6.68229,3.30208.13542.17188.3125.3125.51042.40104.08854.03646.70833.31771,1.60938.32813.48958,0,1.09375-.09896,1.67188-.45833.58333-.34375,1.07292-.96354,1.33854-1.72396.23958-.66667-.10417-1.39063-.76563-1.63021-.66667-.23958-1.39063.10938-1.63021.77083-.11979.3125-.20833.36458-.27604.41146-.0625.04167-.17188.07813-.33854.07813-.14583,0-.32292-.03125-.4375-.06771l-.14063-.03646-.02604-.01563-.16667.41667.17708-.40625-.01042-.01042-.16667.41667.17708-.40625-.50521,1.16667,1.02083-.76563c-2.15104-2.88542-5.45833-4.32292-8.72396-4.32292-3.27604,0-6.57292,1.4375-8.72917,4.32292-.41667.56771-.30208,1.36458.26042,1.79167.56771.41667,1.35938.30208,1.78646-.26042"/><path class="t" d="m139.68501,123.73626c-2.14583-2.88542-5.45313-4.32292-8.72396-4.32292s-6.57292,1.4375-8.72396,4.32292l1.02604.76563-.51042-1.16667.17708.39583-.16667-.40625-.01042.01042.17708.39583-.16667-.40625c-.01563.01563-.34375.125-.60417.11979-.16667,0-.27604-.03646-.34375-.07813-.06771-.04688-.15625-.09896-.27083-.41146-.23958-.66146-.96354-1.01042-1.625-.77083-.66667.23438-1.01042.96354-.77604,1.63021.27083.76042.75521,1.38021,1.34375,1.72396.57813.35938,1.18229.45833,1.67188.45833.90104-.01042,1.51563-.29167,1.60417-.32813.20313-.08854.38542-.22917.51563-.40625,1.63542-2.19271,4.14583-3.29167,6.68229-3.29688,2.54167.00521,5.04688,1.10417,6.6875,3.30208.42188.5625,1.21354.67708,1.77604.26042.56771-.42708.68229-1.22396.26042-1.79167"/><path class="n" d="m150.82563,149.14251c-1.69792,0-3.28646-.29688-4.66146-.84896-1.375-.55729-2.57813-1.35417-3.40625-2.51042-.54688-.76563-.91667-1.72396-.91146-2.75,0-1.05208.85938-1.91146,1.91146-1.91146s1.91146.85938,1.91146,1.91146c0,.14063.03125.28646.19792.52604.16146.23438.47396.52604.93229.79688.90625.54688,2.36458.96354,3.99479.96354h.03646c1.22917,0,2.35938-.22396,3.23438-.57813.88021-.34896,1.47396-.82813,1.71354-1.18229.16667-.23958.19792-.38542.20313-.52604,0-1.05208.85417-1.91146,1.90625-1.91146,1.05729,0,1.91146.85938,1.91146,1.91146,0,1.02604-.36458,1.98438-.91146,2.75-.55208.77083-1.27083,1.38021-2.09375,1.86458-1.64583.97396-3.71354,1.48958-5.96875,1.49479"/><path class="y" d="m134.92459,138.72585c0,3.78125-5.05729,6.84896-11.29167,6.84896s-11.29167-3.06771-11.29167-6.84896,5.05729-6.84896,11.29167-6.84896,11.29167,3.06771,11.29167,6.84896"/><path class="y" d="m189.3048,138.72585c0,3.78125-5.05729,6.84896-11.29167,6.84896s-11.29167-3.06771-11.29167-6.84896,5.05729-6.84896,11.29167-6.84896,11.29167,3.06771,11.29167,6.84896"/><path class="u" d="m185.37251,114.34043c-2.54167-2.58854-5.9375-4.09375-9.57292-4.02083-4.90104.08854-9.70313.73438-14.57292,1.11458-2.875.22396-3.17708-4.78125-.60417-5.09375,3.65104-.4375,7.32292-.75,11-.73958,3.13542.00521,6.58333.08333,9.3125,1.81771,0,0,3.39583,2.55208,4.4375,6.92188"/><path class="u" d="m116.27355,114.34043c2.54167-2.58854,5.9375-4.09375,9.57292-4.02083,4.90104.08854,9.70313.73438,14.57292,1.11458,2.875.22396,3.17708-4.78125.60417-5.09375-3.65104-.4375-7.31771-.75-11-.73958-3.13021.00521-6.58333.08333-9.3125,1.81771,0,0-3.39583,2.55208-4.4375,6.92188"/><path class="ad" d="m161.83084,158.67897c-3,2.82813-6.99479,4.26042-11.00521,4.26042-4.01563,0-8.01042-1.43229-11.01042-4.26042-.51042-.47917-1.31771-.45833-1.80208.05729-.47917.51563-.45833,1.32292.0625,1.80208,3.51563,3.3125,8.14063,4.94792,12.75,4.94792s9.22917-1.63542,12.75-4.94792c.51042-.47917.54167-1.28646.05729-1.80208s-1.28646-.53646-1.80208-.05729"/><path class="o" d="m61.41938,354.71023s12.01563-12.85938,39.40625-1.03125l97.125,45.84896-2.07813,13.80208s-65.22917-13.13021-121.39584-31.23958c0,0-24.1875-8.25521-13.05729-27.38021"/><path class="s" d="m61.41938,354.71023s12.01563-12.85938,39.40625-1.03125l97.125,45.84896-2.07813,13.80208s-65.22917-13.13021-121.39584-31.23958c0,0-24.1875-8.25521-13.05729-27.38021"/><path class="s" d="m74.54959,371.0071c7.51563,6.09896,17.48438,7.43229,26.28646,10.93229,5.30208,2.11458,10.54167,4.89583,16.45313,4.14583,5.32813-.67188,10.16667-2.73438,15.0625-4.86979,4.49479-1.95833,8.66146-4.05729,12.375-6.8125l-43.90104-20.72396c-12.77604-5.51563-22.20313-5.66146-28.625-4.25-7.86979,6.29167-5.10417,15.52604,2.34896,21.57813"/><path class="p" d="m118.33605,394.93419c-14.375-3.85938-29.41667-8.18229-43.85938-12.84375,0,0-15.98438-5.45313-15.98438-17.77604,0,12.32292,15.98438,17.77604,15.98438,17.77604,14.4375,4.65625,29.47917,8.98438,43.85938,12.84375"/><path class="j" d="m153.27876,378.4394l-6.26563-2.95833s0,.00521.00521.00521c0,0,2.48438,1.16667,6.26042,2.95313"/><path class="ac" d="m171.36209,408.01231c-5.39063-1.22396-11.48438-2.63542-18.08333-4.21875,10.61458-2.54688,22.53125-5.52604,34.94271-8.85938.46354.21875.86979.40625,1.21354.57292-6.74479,3.16667-13.52604,7.06771-18.07292,12.50521m-53.02604-13.07813c-14.38021-3.85938-29.42188-8.1875-43.85938-12.84375,0,0-15.98438-5.45313-15.98438-17.77604,0-2.83333.84375-6.03125,2.92708-9.60417v-.00521c.05208-.05208,2.02604-2.125,6.13542-3.83333-2.97917,3.97917-3.47396,8.78646-.86458,14.20313,6.82813,14.15625,27.59375,17.10417,41.40625,19.76563,2.33333.79688,4.71354,1.36979,7.20313,1.36979.48438,0,.96875-.02604,1.46354-.06771,1.05729.08333,2.10417.13021,3.14063.13021,4.07813,0,8.08333-.69271,12.43229-2.50521,1.69792-.70313,13.70313-8.29167,14.64583-8.29167.01042,0,.02083.00521.03125.00521l6.26563,2.95833-34.94271,16.49479"/><path class="z" d="m115.29959,386.21023c-2.48958,0-4.86979-.57292-7.20313-1.36979.21875.04167.43229.07813.64583.125,2.80729.54688,5.44792.97917,8.02083,1.17708-.49479.04167-.97917.06771-1.46354.06771"/><path class="s" d="m241.844,427.15765s-26.26623.02619-46.70315-13.9085l2.1087-13.88231s5.95086,2.96505,11.54763.39813c0,0,8.18111-2.07973,10.76545,3.23222,0,0,1.28953,2.75027,0,5.31719,0,0,4.8463,12.72457,23.35422,13.58371,0,0,2.69004.20954,2.69004,2.99124,0,0,0,2.88647-3.76289,2.26832"/><path class="k" d="m199.99929,125.14407s.03101-8.96603,8.0884-8.27576c0,0,1.31378-36.53432-8.52411-52.7749-.93988-1.89793-2.08933-3.59884-3.37406-5.29178-10.42376-13.80106-24.34571-20.82638-39.56336-22.15226-9.75356-.84327-20.03784.64766-30.27492,4.20056-7.35063,2.55122-13.88337,6.89345-19.34464,12.43287-16.34322,16.56533-18.23447,43.67195-14.69198,65.42204,0,0,5.05712-.57182,6.3515,8.50266,1.93208-53.49834,49.55407-51.0611,49.55407-51.0611,0,0,44.68341-2.44666,51.77909,48.99767"/><path class="s" d="m245.13813,354.71023s-12.02083-12.85938-39.40625-1.03125l-97.13021,45.84896,2.08333,13.80208s65.22396-13.13021,121.39063-31.23958c0,0,24.1875-8.25521,13.0625-27.38021"/><path class="p" d="m188.22147,394.93419c14.26563-3.83333,29.1875-8.11979,43.52604-12.73438-14.33854,4.61458-29.26042,8.90104-43.52604,12.73438"/><path class="i" d="m140.52876,406.78836c3.97396-.91146,8.24479-1.91667,12.75-2.99479-4.50521,1.07813-8.77604,2.08333-12.75,2.99479"/><path class="g" d="m153.27876,403.79356c10.61458-2.54688,22.52604-5.52604,34.94271-8.85938-12.41146,3.33333-24.32813,6.3125-34.94271,8.85938"/><path class="p" d="m231.75793,382.1946c.05208-.02083.09896-.03646.15104-.04688-.05208.01042-.09375.02604-.15104.04688m.16146-.05208c.02604-.00521.04688-.01042.0625-.02083-.01563.01042-.03646.01563-.0625.02083m.08333-.02604c.02604-.01042.05729-.01563.07292-.02604,0,0,15.98958-5.45313,15.98958-17.77604,0,12.32292-15.98958,17.77604-15.98958,17.77604-.02083.01042-.04688.01563-.07292.02604"/><path class="ac" d="m116.35688,412.14773c3.68229-.94792,7.57813-1.47917,10.95833-2.75,8.85938-3.32292,17.57813-6.65104,26.64583-9.40104,17.13542-5.20313,34.35938-10.20313,50.98958-16.91146,12.02083-4.84896,28.625-10.78646,33.33333-24.19792,1.25-3.54688.61979-6.36979-1.04688-8.66667,5.35938,1.78646,7.89063,4.47396,7.90104,4.48958,2.08333,3.57292,2.92708,6.77083,2.92708,9.60417,0,12.32292-15.98958,17.77604-15.98958,17.77604-.01563.01042-.04688.01563-.07292.02604-.00521,0-.01563.00521-.02083.00521-.01563.01042-.03646.01563-.0625.02083,0,.00521-.00521.00521-.01042.00521-.05208.01042-.09896.02604-.15104.04688l-.01042.00521c-14.33854,4.61458-29.26042,8.90104-43.52604,12.73438-12.41667,3.33333-24.32813,6.3125-34.94271,8.85938-4.50521,1.07813-8.77604,2.08333-12.75,2.99479-10.55208,2.4375-18.99479,4.26563-24.17188,5.35938"/><path class="s" d="m65.65896,426.15815s25.88542.02604,46.02604-13.82813l-2.08333-13.80208s-5.85938,2.94792-11.375.39583c0,0-8.0625-2.06771-10.60938,3.21354,0,0-1.27083,2.73438,0,5.28646,0,0-4.77083,12.65104-23.02083,13.50521,0,0-2.65104.20833-2.65104,2.97396,0,0,0,2.86979,3.71354,2.25521"/><path id="b" class="m" d="m159.12068,239.75185c-.27463.01531-.45475.17046-.45475.50527v14.95913c0,.26132.1521.49711.38509.49711h21.74359c.19537,0,.35472-.02143.44436-.33889,0,0,2.20171-8.46918,2.24176-8.62332.08328-.31949.03041-.48077-.19135-.65634-7.08321-5.57126-17.67395-6.38174-22.48257-6.38174-.68933,0-1.26179.01531-1.68613.03879"/><path id="c" class="h" d="m163.65501,246.14539c-1.03593-.17576-1.74389-.26685-1.57313-.44299.20091-.20941,1.24204-.2884,2.19053-.28084.47682.0034.81728.02532,1.20977.05669l.33943-.37798c-.49457-.03175-.84436-.04838-1.43468-.05292-1.89485-.01512-3.61166.1682-4.05208.55487-.52055.45925.96203.71893,2.24676.93021,1.01508.16858,1.82197.32998,1.53983.54052-.22283.16366-.93912.23926-1.99064.23208-.9089-.00681-2.03956-.0979-2.93287-.25627l-.532.40179c.66112.10734,2.00938.25136,3.16711.26156,2.16656.01739,3.57314-.1735,4.13638-.58738.66529-.48873-.98804-.75596-2.31441-.97935"/><path id="d" class="h" d="m166.78848,246.83866c.00652.00982.02245.01171.04058.01171.02177,0,.02901-.00227.03553-.01171.00868-.01247.73651-1.14429.73651-1.14429.74011.53266,1.4759,1.23382,1.87168,1.97388h1.20916l.59878-.93802c.00432-.00983.02029-.01133.03841-.01133.02101,0,.03261.0034.03697.01133.17975.5882,1.34901.98297,3.00253.98297,1.06779,0,2.03334-.13864,2.27403-.20476l.62559-.9909h2.40744l.24429-.38306h-2.40816l.41391-.64902h2.86992l.24717-.39779h-4.02683l-1.3643,2.14426c-.29283.03702-.65168.05591-1.02501.05591-.80609,0-1.45269-.09709-1.81878-.31167-.27402-.16169-.3849-.36984-.31532-.60066.1631-.55268,1.23233-.90213,2.66617-.90213.30447,0,.61474.00944.89673.02758l.28054-.41745c-.34433-.02644-.76552-.03702-1.17727-.03702-1.2671,0-2.37695.21873-3.09025.60632-.02321.0121-.04858.01134-.06018.01134-.02245,0-.03621-.00189-.03261-.01134l.36245-.56515h-1.05038l-1.15114,1.80841c-.36537-.5338-1.11709-1.23533-2.03698-1.80841h-1.12797l-.84015,1.31654c.42191.15791.55456.27162.66692.43445"/></svg>